<svg xmlns="http://www.w3.org/2000/svg" width="166.818" height="73.991" viewBox="0 0 166.818 73.991">
  <g id="그룹_3948" data-name="그룹 3948" transform="translate(-272.816 -919.233)">
    <path id="패스_1352" data-name="패스 1352" d="M312.179,950.456a4.163,4.163,0,0,0,1.016-3.771,3.694,3.694,0,0,0-3.661-2.713q-.911-2.232-1.821-4.463c-1.324-3.245-2.328-7.374-4.77-9.992a6.782,6.782,0,0,0-9.216-.859c-2.707,2.053-3.888,5.43-5.158,8.452a107.97,107.97,0,0,0-3.725,10.227c-.018.059-.031.119-.049.178-2.723.376-5.444.772-8.17,1.129-2.04.267-3.811,1.56-3.811,3.811,0,1.85,1.755,4.079,3.811,3.809s4.094-.566,6.144-.844a115.568,115.568,0,0,0-2.184,13.915c-.194,2.052,1.889,3.811,3.809,3.811a3.892,3.892,0,0,0,3.811-3.811,99.145,99.145,0,0,1,2.63-15.025q6.956-.988,13.9-2.062l4.508,11.048c.777,1.9,2.535,3.252,4.688,2.66,1.8-.5,3.444-2.769,2.662-4.686Q314.385,955.864,312.179,950.456Zm-14.623-14.75a2.333,2.333,0,0,1,.226-.318c.1.176.2.352.29.53,1.42,2.938,2.49,6.1,3.723,9.125-2.9.443-5.806.9-8.713,1.321A52.1,52.1,0,0,1,297.556,935.706Z" transform="translate(0 2.274)" />
    <path id="패스_1353" data-name="패스 1353" d="M331.04,937.88a13.071,13.071,0,0,0-11.49.482,11.823,11.823,0,0,0-3.3,2.719q-.141-.867-.28-1.733c-.32-1.974-2.876-3.247-4.688-2.662a3.922,3.922,0,0,0-2.662,4.688q1.487,9.173,2.972,18.348c.3,1.866,2.486,2.958,4.181,2.73a3.846,3.846,0,0,0,3.3-3.743q.185-2.644.511-5.276l.021-.164c.023-.168.048-.336.072-.5q.091-.63.191-1.258a20.376,20.376,0,0,1,.4-2.022c.131-.5.329-.976.472-1.47l.031-.054c.136-.268.268-.537.42-.8.127-.222.263-.44.406-.652.072-.105.154-.205.221-.313.23-.369-.2.3-.205.268-.054-.214.869-.908,1.116-1.13l.1-.059c.223-.135.447-.266.674-.4l.108-.064c.294-.077.582-.2.878-.274.185-.046.372-.081.559-.122l.054-.008c.184-.005.506-.017.587-.018.326-.006.651,0,.976.023.092.006.188.017.281.023l.2.068c.27.092.863.4.342.092.286.172.579.344.871.51-.515-.293.078.068.272.257.117.114.223.262.349.366l.026.019c.148.24.307.47.439.72.032.06.06.121.09.18.164.669.384,1.313.512,2,.032.172.062.344.09.517.008.044.042.286.063.422.006.058.012.108.013.122.026.3.054.591.074.887.059.863.081,1.727.078,2.592-.005,1.758-.112,3.514-.28,5.264a3.824,3.824,0,0,0,3.811,3.811,3.912,3.912,0,0,0,3.811-3.811C338.385,951.456,338.661,941.328,331.04,937.88Zm-10.423,10.432a.505.505,0,0,1,.08-.2A1.529,1.529,0,0,1,320.616,948.312Zm1.9-2.817c0-.023.073-.071.148-.117C322.589,945.447,322.517,945.509,322.519,945.495Zm1.225-.741a.38.38,0,0,1,.123-.05C323.878,944.708,323.82,944.728,323.744,944.754Z" transform="translate(10.147 4.915)" />
    <path id="패스_1354" data-name="패스 1354" d="M342.21,934.926a3.811,3.811,0,1,0-7.622,0,135.573,135.573,0,0,0,2.026,26.135c.353,2.03,2.841,3.169,4.688,2.662a3.9,3.9,0,0,0,2.662-4.688A125.455,125.455,0,0,1,342.21,934.926Z" transform="translate(17.532 3.373)" />
    <path id="패스_1355" data-name="패스 1355" d="M336.639,929.469l4.446-1.069a4.254,4.254,0,0,0,2.278-1.751,2.835,2.835,0,0,0,.452-1.416,2.876,2.876,0,0,0-.068-1.52A3.853,3.853,0,0,0,342,921.434l-.91-.384a3.847,3.847,0,0,0-2.026,0l-4.446,1.07a4.269,4.269,0,0,0-2.278,1.751,2.839,2.839,0,0,0-.452,1.417,2.884,2.884,0,0,0,.068,1.519,3.853,3.853,0,0,0,1.751,2.278l.91.384A3.847,3.847,0,0,0,336.639,929.469Z" transform="translate(16.752 0.478)" />
    <path id="패스_1356" data-name="패스 1356" d="M354.645,923.044c.2-2.052-1.891-3.811-3.81-3.811a3.892,3.892,0,0,0-3.811,3.811,168.079,168.079,0,0,0,1.263,41.362c.311,2.036,2.871,3.161,4.688,2.662,2.176-.6,2.972-2.645,2.662-4.688A160.255,160.255,0,0,1,354.645,923.044Z" transform="translate(20.864)" />
    <path id="패스_1357" data-name="패스 1357" d="M362.434,948.04c.021.04.042.078.062.118-.015-.032-.037-.073-.063-.123Z" transform="translate(25.447 8.178)" />
    <path id="패스_1358" data-name="패스 1358" d="M365.812,934.3h0c-5.586,1.189-8.356,7.064-9.166,12.2-.551,3.494-.614,7.049,1.29,10.178a13.37,13.37,0,0,0,7.089,5.58c6.04,2.125,12.581-.973,16.238-5.834,3.518-4.677,4.124-11.875.863-16.851A13.672,13.672,0,0,0,365.812,934.3Zm4.336,6.581c-.139.026-.381.076-.388.082A.673.673,0,0,1,370.148,940.882ZM366.9,941.9l-.207.158A.71.71,0,0,1,366.9,941.9Zm9.672,6.39c-.019.113-.039.227-.063.339-.109.523-.282,1.016-.425,1.528-.012.042-.039.114-.064.181-.1.218-.2.437-.316.65a12.2,12.2,0,0,1-.714,1.141c-.072.071-.438.534-.567.67a11.319,11.319,0,0,1-1.108,1.009l-.119.074c-.277.175-.547.353-.833.514-.238.132-.488.24-.725.372-.018.01-.018.013-.032.021l-.107.03c-.415.123-.82.266-1.244.361-.008,0-.325.05-.507.082l-.4.027c-.216.006-.433.006-.648,0-.158-.005-.316-.016-.474-.032-.29-.027-.2-.014.271.038-.108.128-1.33-.347-1.448-.38l-.027-.01.1.055c-.041-.022-.083-.042-.125-.063a1.1,1.1,0,0,1-.244-.122c-.056-.028-.113-.054-.168-.085q-.329-.179-.645-.383c-.058-.037-.146-.105-.225-.164-.322-.282-.629-.574-.923-.887l-.014-.017c-.117-.175-.235-.348-.342-.53-.076-.128-.14-.261-.207-.392.119.237,0,.051-.062-.118-.026-.049-.05-.1-.076-.144l.074.139a.461.461,0,0,1-.018-.055c-.062-.247-.123-.524-.207-.764a.581.581,0,0,0-.047-.112c0-.063,0-.125,0-.226a18.77,18.77,0,0,1,.036-1.957l.018-.253c.042-.321.1-.641.155-.959q.154-.842.375-1.669c.126-.465.27-.927.431-1.382.024-.067.051-.132.076-.2-.077.208.134-.32.213-.478a14.737,14.737,0,0,0,.776-1.326v-.008c.176-.189.343-.383.53-.56.017-.016.054-.055.1-.1l.163-.109.225-.134c.172-.1.591-.158.4-.151.146-.04.291-.077.44-.105a3.055,3.055,0,0,0,.923-.386,5.2,5.2,0,0,0,.642-.2c.18-.046.362-.08.543-.122.14-.032.208-.049.25-.06.343,0,.773.062.964.062.077,0,.13,0,.173,0,.167.035.335.078.489.116a10.881,10.881,0,0,1,1.064.331c.1.049.489.213.677.318.166.092.887.627.873.577a10.146,10.146,0,0,1,.82.773c.026.03.273.37.333.433l.123.2c.094.155.315.6.389.727a9.946,9.946,0,0,1,.39,1.247c.047.2.08.408.123.611-.2-.894-.009,0,.005.231.03.529-.005,1.044-.018,1.572a1.242,1.242,0,0,1-.014.137c.012-.058.023-.122.04-.209-.014.072-.027.144-.04.216C376.565,948.385,376.53,948.54,376.575,948.29Z" transform="translate(23.707 4.02)" />
    <path id="패스_1359" data-name="패스 1359" d="M372.093,945.011l.013-.068v-.006Z" transform="translate(28.189 7.299)" />
    <path id="패스_1360" data-name="패스 1360" d="M364.447,950.045c.081.04.162.082.244.122l.021.008A1.772,1.772,0,0,0,364.447,950.045Z" transform="translate(26.018 8.749)" />
    <path id="패스_1361" data-name="패스 1361" d="M409.556,959.948c-.63-7.329-2.6-14.41-4.843-21.385a4.628,4.628,0,0,0-.994-1.582,5.223,5.223,0,0,0-.758-.7,12.462,12.462,0,0,0-14.335.082c-4.546,3.061-6.662,8.528-6.986,13.845-.3,5,1.894,10.6,7.119,12.055,4.961,1.384,9.741-1.414,12.842-5.158.085.6.169,1.193.232,1.791.583,5.5.5,11.611-1.894,16.722-1.727,3.694-5.1,7.1-9.437,5.308a8.091,8.091,0,0,1-4.057-3.681c-.733-1.423-.923-3.589-.149-4.7a3.843,3.843,0,0,0-1.367-5.213,3.888,3.888,0,0,0-5.213,1.366c-3.075,4.413-1.338,10.874,1.769,14.722a14.913,14.913,0,0,0,14.421,5.3c5.53-1.158,9.307-5.99,11.354-10.946A38.537,38.537,0,0,0,409.556,959.948Zm-13.216-8.479c-1.112,1.758-5.077,5.407-6.587,2.452-1.382-2.7-.25-7.451,1.591-9.845a5.75,5.75,0,0,1,2.891-2.092,4.367,4.367,0,0,1,3.583.1A11.935,11.935,0,0,1,396.341,951.469Z" transform="translate(29.897 4.209)" />
  </g>
</svg>
