<svg xmlns="http://www.w3.org/2000/svg" width="44.001" height="32" viewBox="0 0 44.001 32">
  <path id="Icon_-_Image-2" data-name="Icon - Image-2" d="M3105.477,301.445c-.523-.011-1.1,0-1.707.01-2.523.046-5.535.094-7.2-1.472a4.607,4.607,0,0,1-1.277-3.578c-.066-3.457-.027-6.918-.043-10.374q-.029-5.49-.051-10.979a5.183,5.183,0,0,1,.688-3.205c1.41-2.024,4.07-2.013,6.48-2h1.184c7.336-.147,14.676-.147,22.008-.112.781,0,1.684-.04,2.633-.083,4.328-.2,9.789-.393,10.609,3.832a1.215,1.215,0,0,1,.063.372q.141,10.974.266,21.943a5.358,5.358,0,0,1-.605,3.181c-1.707,2.628-5.992,2.325-8.906,2.407-4.422.124-8.879.182-13.332.182C3112.676,301.56,3109.063,301.52,3105.477,301.445Zm1.961-16.492a29.36,29.36,0,0,0-3.086,2.7l-6.18,5.393c-.02.018-.043.029-.062.045a16.574,16.574,0,0,0,.109,4.055c.375,1.874,4.3,1.789,6.871,1.706.6-.02,1.117-.039,1.512-.033,3.453.04,6.9-.041,10.355-.062,2.207-.014,4.418-.011,6.625-.01h4.055c1.66,0,3.3-.061,4.957-.186,1.5-.113,3.25-.025,3.617-1.691a26.4,26.4,0,0,0-.062-6.057c-1.336-1.132-2.668-2.259-4.012-3.381-.984-.818-2.359-2.462-3.613-2.893-1.992-.685-5.141,2.458-6.9,4.324,1.477,1.445,2.867,2.92,4.215,4.284,1.25,1.271-.816,3.15-2.07,1.874-3.418-3.471-6.867-7.115-11.172-9.722a10.034,10.034,0,0,0-1.941-1.032,2.7,2.7,0,0,0-.836-.124,4.534,4.534,0,0,0-2.383.814Zm-9.316-10.91a33.305,33.305,0,0,0,.031,6.051l.039,9.257,6.148-5.371c2.262-1.976,4.051-3.5,7.289-2.241a26.881,26.881,0,0,1,8,5.236,38.1,38.1,0,0,1,4.215-3.558,6.887,6.887,0,0,1,4.074-1.764c1.879.044,3.3,1.423,4.574,2.484q1.816,1.491,3.605,3-.082-6.643-.16-13.287c-.215-1.759-4.113-1.639-6.59-1.52-.652.032-1.2.063-1.562.062q-4.793-.029-9.574-.028-5.385,0-10.758.064c-.457,0-1.113-.026-1.867-.061-.7-.029-1.484-.06-2.273-.06C3100.891,272.307,3098.4,272.592,3098.121,274.043Zm15.75,4.115a4.4,4.4,0,0,1,4.352-4.528c.152-.01.3-.013.453-.01a4.962,4.962,0,0,1,5.109,4.666,4.8,4.8,0,0,1-5.1,4.412h-.016a4.621,4.621,0,0,1-4.8-4.415c0-.041,0-.084.008-.126Zm4.6-1.891c-1.285.059-1.645.858-1.672,1.891a1.763,1.763,0,0,0,1.68,1.883,2.048,2.048,0,0,0,.379,0,1.933,1.933,0,0,0,2-1.756,2.144,2.144,0,0,0-2.25-2.022h-.012Z" transform="translate(-3095.167 -269.569)"/>
</svg>
