<svg xmlns="http://www.w3.org/2000/svg" width="52" height="52" viewBox="0 0 52 52">
  <g id="그룹_504" data-name="그룹 504" transform="translate(-292 -692)">
    <path id="사각형_255" data-name="사각형 255" d="M10,0H42A10,10,0,0,1,52,10V52a0,0,0,0,1,0,0H10A10,10,0,0,1,0,42V10A10,10,0,0,1,10,0Z" transform="translate(292 692)" fill="#ffb6a5"/>
    <g id="그룹_138" data-name="그룹 138" transform="translate(-275 -114)">
      <rect id="사각형_148" data-name="사각형 148" width="48" height="48" transform="translate(569 808)" fill="none" opacity="0.4"/>
      <g id="favorite_border_black_48dp" transform="translate(573 886)">
        <path id="패스_60" data-name="패스 60" d="M33.779,4.8A10.372,10.372,0,0,0,20,6.79,10.352,10.352,0,0,0,6.214,4.8,9.942,9.942,0,0,0,2,12.575C1.751,19.611,7.941,25.25,17.387,33.9l.18.163a3.571,3.571,0,0,0,4.84-.018l.2-.181c9.446-8.632,15.618-14.271,15.384-21.307A9.936,9.936,0,0,0,33.779,4.8Zm-13.6,26.4-.18.181-.18-.181C11.252,23.383,5.6,18.215,5.6,12.974a6.174,6.174,0,0,1,6.3-6.347,7.034,7.034,0,0,1,6.424,4.28h3.365a6.989,6.989,0,0,1,6.406-4.28,6.174,6.174,0,0,1,6.3,6.347C34.391,18.215,28.741,23.383,20.176,31.2Z" transform="translate(0 -73)" fill="#fff"/>
      </g>
    </g>
  </g>
</svg>
