<svg xmlns="http://www.w3.org/2000/svg" width="36" height="32" viewBox="0 0 36 32">
  <path id="패스_283" data-name="패스 283" d="M68.864,92.2V88.817A12.949,12.949,0,0,0,55.756,76.065H45.974A12.949,12.949,0,0,0,32.865,88.817v2.854a12.949,12.949,0,0,0,13.109,12.752h9.974c.234,0,.533,0,.652-.006a10.462,10.462,0,0,1,2.755.524,2.6,2.6,0,0,1,1.607,1.231,5.528,5.528,0,0,1,.38,1.289c.038.225.1.6.593.6h.093l.084-.041a10.616,10.616,0,0,0,5.208-5.68,16.486,16.486,0,0,0,1.4-5.191c.09-.9.134-1.927.145-3.444V93.6Q68.867,92.944,68.864,92.2Zm-4.185-1.626v1.5c0,.38,0,.737,0,1.074l0,.334a16.969,16.969,0,0,1-.108,2.307l-.089.606c-.087.609-.087.609-.438,2.25a7.058,7.058,0,0,1-1.464,3.188,9.783,9.783,0,0,0-.889-.65,7.744,7.744,0,0,0-1.911-.823,15.8,15.8,0,0,0-4.01-.423c-.11.005-.406,0-.644-.005l-8.2,0c-5.718,0-9.867-3.474-9.867-8.259V89.478c0-5.021,4.426-9.1,9.867-9.1h7.893c5.44,0,9.867,4.084,9.867,9.1Z" transform="translate(-32.865 -76.065)" fill="#767676"/>
</svg>
