<svg id="pets_black_48dp" xmlns="http://www.w3.org/2000/svg" width="30" height="28" viewBox="0 0 30 28">
  <circle id="타원_8" data-name="타원 8" cx="3.833" cy="3.833" r="3.833" transform="translate(0 8.14)"/>
  <circle id="타원_9" data-name="타원 9" cx="3.833" cy="3.833" r="3.833" transform="translate(6.407 0)" />
  <circle id="타원_10" data-name="타원 10" cx="3.833" cy="3.833" r="3.833" transform="translate(14.996 0)" />
  <circle id="타원_11" data-name="타원 11" cx="3.833" cy="3.833" r="3.833" transform="translate(22.333 8.14)" />
  <path id="패스_115" data-name="패스 115" d="M21.7,17.764c-1.215-1.7-1.3-3.149-2.532-4.848a6.157,6.157,0,0,0-2.443-2.2,2.475,2.475,0,0,0-.461-.15,5.9,5.9,0,0,0-1.089-.067,4.925,4.925,0,0,0-1.1.083,2.475,2.475,0,0,0-.461.15,6.251,6.251,0,0,0-2.443,2.2c-1.215,1.7-1.3,3.149-2.532,4.848-1.829,2.183-5.007,4.6-4.589,7.98A4.894,4.894,0,0,0,7.3,29.626c2.279.2,4.272-1.691,7.735-1.691h.251c3.463,0,4.9,1.732,7.735,1.691a4.918,4.918,0,0,0,3.253-3.865C26.706,22.362,23.527,19.946,21.7,17.764Z" transform="translate(-0.64 -1.641)" />
</svg>
