<svg xmlns="http://www.w3.org/2000/svg" width="48" height="48" viewBox="0 0 48 48">
  <g id="그룹_816" data-name="그룹 816" transform="translate(-654 -126)">
    <rect id="사각형_170" data-name="사각형 170" width="48" height="48" transform="translate(654 126)" fill="none" opacity="0.4"/>
    <path id="패스_105" data-name="패스 105" d="M35.789,29.8l-2.721-2.382V18.192A11.5,11.5,0,0,0,23.577,6.525V5.269A2.982,2.982,0,0,0,20.414,2.5,2.982,2.982,0,0,0,17.25,5.269V6.525A11.467,11.467,0,0,0,7.76,18.192v9.231L5.039,29.8c-1.329,1.163-.4,3.157,1.476,3.157H34.292c1.9,0,2.826-1.994,1.5-3.157Zm-6.939-.535H11.978V18.192a8.024,8.024,0,0,1,8.436-8.308,8.024,8.024,0,0,1,8.436,8.308ZM20.414,38.5a3.993,3.993,0,0,0,4.218-3.692H16.2A3.98,3.98,0,0,0,20.414,38.5Z" transform="translate(657.586 129.5)" fill="#000000"/>
  </g>
</svg>
