<svg xmlns="http://www.w3.org/2000/svg" width="48" height="48" viewBox="0 0 48 48">
  <g id="그룹_236" data-name="그룹 236" transform="translate(-89 -808)">
    <rect id="사각형_140" data-name="사각형 140" width="48" height="48" transform="translate(89 808)" fill="none" opacity="0.4"/>
    <g id="collections_black_48dp" transform="translate(95 885)">
      <path id="패스_40" data-name="패스 40" d="M38,27.2V5.6A3.611,3.611,0,0,0,34.4,2H12.8A3.611,3.611,0,0,0,9.2,5.6V27.2a3.611,3.611,0,0,0,3.6,3.6H34.4A3.611,3.611,0,0,0,38,27.2ZM18.92,20.954l2.934,3.924,4.644-5.8a.9.9,0,0,1,1.4,0l5.328,6.66a.9.9,0,0,1-.7,1.458H14.6a.9.9,0,0,1-.72-1.44l3.6-4.806a.914.914,0,0,1,1.44,0ZM2,11V34.4A3.611,3.611,0,0,0,5.6,38H29a1.8,1.8,0,0,0,0-3.6H7.4a1.805,1.805,0,0,1-1.8-1.8V11A1.8,1.8,0,1,0,2,11Z" transform="translate(-2 -73)" fill="#fff"/>
    </g>
  </g>
</svg>
