<svg xmlns="http://www.w3.org/2000/svg" width="72" height="72" viewBox="0 0 72 72">
  <circle id="타원_84" data-name="타원 84" cx="36" cy="36" r="36" fill="#ffb6a5"/>
  <g id="그룹_193" data-name="그룹 193" transform="translate(-381 -1042)">
    <g id="question_answer_black_48dp" transform="translate(395 1134)">
      <path id="패스_124" data-name="패스 124" d="M38,10H36V26a2.006,2.006,0,0,1-2,2H10v2a4.012,4.012,0,0,0,4,4H34l8,8V14A4.012,4.012,0,0,0,38,10ZM32,20V6a4.012,4.012,0,0,0-4-4H6A4.012,4.012,0,0,0,2,6V32l8-8H28A4.012,4.012,0,0,0,32,20Z" transform="translate(0 -78)" fill="#fff"/>
    </g>
  </g>
</svg>
