<svg id="그룹_159" data-name="그룹 159" xmlns="http://www.w3.org/2000/svg" width="58" height="58" viewBox="0 0 58 58">
  <rect id="사각형_154" data-name="사각형 154" width="58" height="58" fill="none" opacity="0.4"/>
  <g id="grid_view_black_48dp" transform="translate(9.667 9.667)">
    <g id="그룹_42" data-name="그룹 42" transform="translate(0 0)">
      <g id="그룹_41" data-name="그룹 41">
        <path id="패스_62" data-name="패스 62" d="M7.229,19.917h8.458a4.242,4.242,0,0,0,4.229-4.229V7.229A4.242,4.242,0,0,0,15.687,3H7.229A4.242,4.242,0,0,0,3,7.229v8.458A4.242,4.242,0,0,0,7.229,19.917Z" transform="translate(-3 -3)" fill="#ffb6a5"/>
        <path id="패스_63" data-name="패스 63" d="M7.229,29.917h8.458a4.242,4.242,0,0,0,4.229-4.229V17.229A4.242,4.242,0,0,0,15.687,13H7.229A4.242,4.242,0,0,0,3,17.229v8.458A4.242,4.242,0,0,0,7.229,29.917Z" transform="translate(-3 8.75)" fill="#ffb6a5"/>
        <path id="패스_64" data-name="패스 64" d="M13,7.229v8.458a4.242,4.242,0,0,0,4.229,4.229h8.458a4.242,4.242,0,0,0,4.229-4.229V7.229A4.242,4.242,0,0,0,25.688,3H17.229A4.242,4.242,0,0,0,13,7.229Z" transform="translate(8.75 -3)" fill="#ffb6a5"/>
        <path id="패스_65" data-name="패스 65" d="M17.229,29.917h8.458a4.242,4.242,0,0,0,4.229-4.229V17.229A4.242,4.242,0,0,0,25.688,13H17.229A4.242,4.242,0,0,0,13,17.229v8.458A4.242,4.242,0,0,0,17.229,29.917Z" transform="translate(8.75 8.75)" fill="#ffb6a5"/>
      </g>
    </g>
  </g>
</svg>
