<svg id="그룹_441" data-name="그룹 441" xmlns="http://www.w3.org/2000/svg" width="90" height="90" viewBox="0 0 90 90">
  <g id="SSI_20160120104352_V" fill="none" stroke="#ffb6a5" stroke-width="2">
    <circle cx="45" cy="45" r="45" stroke="none"/>
    <circle cx="45" cy="45" r="44" fill="none"/>
  </g>
  <g id="그룹_308" data-name="그룹 308" transform="translate(20 20.002)">
    <g id="그룹_303" data-name="그룹 303" transform="translate(0 14.683)">
      <rect id="사각형_281" data-name="사각형 281" width="4.928" height="46.588" rx="2.464" transform="translate(50 0.03) rotate(90.037)" fill="#ffb6a5"/>
      <rect id="사각형_282" data-name="사각형 282" width="4.928" height="46.588" rx="2.464" transform="translate(46.591 15.701) rotate(90.037)" fill="#ffb6a5"/>
    </g>
    <g id="그룹_304" data-name="그룹 304" transform="translate(9.046)">
      <path id="패스_232" data-name="패스 232" d="M2.436,0h0A2.647,2.647,0,0,1,4.944,2.672L5.562,47.29a2.471,2.471,0,0,1-2.435,2.6h0A2.647,2.647,0,0,1,.618,47.217L0,2.6A2.471,2.471,0,0,1,2.436,0Z" transform="translate(21.478 49.949) rotate(-167.931)" fill="#ffb6a5"/>
      <path id="패스_233" data-name="패스 233" d="M2.436,0h0A2.647,2.647,0,0,1,4.944,2.672L5.562,47.29a2.471,2.471,0,0,1-2.435,2.6h0A2.647,2.647,0,0,1,.618,47.217L0,2.6A2.471,2.471,0,0,1,2.436,0Z" transform="matrix(-0.978, -0.209, 0.209, -0.978, 5.44, 49.996)" fill="#ffb6a5"/>
    </g>
  </g>
</svg>
