<svg xmlns="http://www.w3.org/2000/svg" width="36" height="32" viewBox="0 0 36 32">
  <g id="thumb_up_off_alt_black_48dp" transform="translate(-2 78.384)">
    <g id="그룹_72" data-name="그룹 72" transform="translate(2 -78.384)">
      <g id="그룹_71" data-name="그룹 71">
        <path id="패스_149" data-name="패스 149" d="M20.529,2.349,11.6,11.495a3.34,3.34,0,0,0-.935,2.328V30.315a3.273,3.273,0,0,0,3.223,3.3h14.5a3.244,3.244,0,0,0,2.965-2L36.61,19.056a4.951,4.951,0,0,0-4.447-6.9h-9.1L24.59,4.594a2.529,2.529,0,0,0-.661-2.262A2.357,2.357,0,0,0,20.529,2.349ZM4.223,33.616a3.273,3.273,0,0,0,3.223-3.3V17.108a3.272,3.272,0,0,0-3.223-3.3A3.272,3.272,0,0,0,1,17.108V30.315A3.273,3.273,0,0,0,4.223,33.616Z" transform="translate(-1 -1.616)" fill="#ffb6a5"/>
      </g>
    </g>
  </g>
</svg>
