<svg xmlns="http://www.w3.org/2000/svg" width="44" height="44" viewBox="0 0 44 44">
  <g id="그룹_609" data-name="그룹 609" transform="translate(0 0)">
    <path id="패스_294" data-name="패스 294" d="M116.178,32.231a5.891,5.891,0,0,0-1.431,3.917V57.48a5.331,5.331,0,0,0,4.949,5.573h17.052a4.969,4.969,0,0,0,4.571-3.407l6.168-16.241a7.955,7.955,0,0,0-3.665-10.083,6.543,6.543,0,0,0-2.607-.635h-8.038a.98.98,0,0,1-.79-.407,1.16,1.16,0,0,1-.212-.923l1.27-6.909a4.873,4.873,0,0,0-1.079-4.072,3.806,3.806,0,0,0-2.841-1.322h-.016a3.871,3.871,0,0,0-2.861,1.34Zm3.544,20.7V37.625a3.879,3.879,0,0,1,.95-2.565l3.193-3.611a1.718,1.718,0,0,1,2.9,1.653h0l-.62,3.353a1.471,1.471,0,0,0,1.353,1.8h13.681a1.776,1.776,0,0,1,1.571.961,2.3,2.3,0,0,1,.151,2.03L137.815,54.67a4.2,4.2,0,0,1-3.87,2.818H123.908A4.382,4.382,0,0,1,119.722,52.935Z" transform="translate(-104.067 -19.054)" fill="#767676"/>
    <path id="패스_295" data-name="패스 295" d="M107.311,34.465a3.951,3.951,0,0,1,4.684,3.881v15.79a3.948,3.948,0,0,1-7.9,0v-15.6A4.079,4.079,0,0,1,107.311,34.465Z" transform="translate(-104.099 -15.267)" fill="#767676"/>
  </g>
</svg>
