<svg xmlns="http://www.w3.org/2000/svg" width="88.005" height="88" viewBox="0 0 88.005 88">
  <path id="패스_1200" data-name="패스 1200" d="M4705.043,623.245c6,11.848,17.684,20.782,31.246,23.9a43.555,43.555,0,0,0,36.676-7.663c.086-.063.16-.129.238-.2.094-.063.18-.131.273-.205,13.336-10.859,18.914-26.534,14.906-41.94a51.852,51.852,0,0,0-27.109-32.779c-13.9-6.684-28.582-4.969-39.289,4.589C4707.242,582.1,4695.645,604.7,4705.043,623.245Zm29.609-33.5c3.715,3.561,7.418,7.262,11,11l.613.637.715-.641c3.609-3.227,7.309-6.438,11-9.541a3.082,3.082,0,0,1,4.2.041l.082.079.039.043.051.04.023.022a2.278,2.278,0,0,1,.125,3.171,2.727,2.727,0,0,1-.414.4l-.039.033c-3.75,3.147-7.5,6.407-11.168,9.684l-.793.71.672.723c3.543,3.851,7.074,7.844,10.473,11.855,1.379,1.639.4,3.572-.6,4.473-.023.029-.051.058-.078.087a2.323,2.323,0,0,1-3.332.044c-.055-.054-.105-.112-.16-.173-3.512-4.147-7.16-8.271-10.84-12.252l-.621-.672-.73.676c-3.785,3.507-7.574,7.14-11.262,10.775a3.04,3.04,0,0,1-2.105.862,2.563,2.563,0,0,1-1.961-.865,2.973,2.973,0,0,1,.125-3.93c3.707-3.661,7.508-7.3,11.313-10.827l.793-.727-.687-.708c-3.473-3.623-7.082-7.234-10.672-10.671a2.74,2.74,0,0,1-.664-2.087,3.25,3.25,0,0,1,1.016-2.085A2.827,2.827,0,0,1,4734.652,589.743Z" transform="translate(-4701.652 -560.331)" fill="#fff"/>
</svg>
