<svg xmlns="http://www.w3.org/2000/svg" width="70" height="62" viewBox="0 0 70 62">
  <g id="그룹_1256" data-name="그룹 1256" transform="translate(-58 -1114)">
    <path id="패스_119" data-name="패스 119" d="M65,8.889H53.9l-4.34-4.65A7.018,7.018,0,0,0,44.42,2H29.58A7.155,7.155,0,0,0,24.4,4.239l-4.3,4.65H9a6.966,6.966,0,0,0-7,6.889V57.111A6.966,6.966,0,0,0,9,64H65a6.966,6.966,0,0,0,7-6.889V15.778A6.966,6.966,0,0,0,65,8.889ZM37,53.667A17.224,17.224,0,1,1,54.5,36.444,17.369,17.369,0,0,1,37,53.667Z" transform="translate(56 1112)" fill="#fff"/>
    <path id="패스_347" data-name="패스 347" d="M11,0A11,11,0,1,1,0,11,11,11,0,0,1,11,0Z" transform="translate(82 1137)" fill="#fff"/>
  </g>
</svg>
