<svg xmlns="http://www.w3.org/2000/svg" width="54" height="44" viewBox="0 0 54 44">
  <g id="그룹_275" data-name="그룹 275" transform="translate(-275.48 -396.5)">
    <g id="그룹_274" data-name="그룹 274" transform="translate(288.737 416.45)">
      <path id="패스_221" data-name="패스 221" d="M287.736,424.2a3.441,3.441,0,1,0-3.937-3.944A3.455,3.455,0,0,0,287.736,424.2Z" transform="translate(-283.757 -410.49)" fill="#767676"/>
      <path id="패스_222" data-name="패스 222" d="M294.079,417.327a3.441,3.441,0,1,0-3.937-3.944A3.454,3.454,0,0,0,294.079,417.327Z" transform="translate(-283.757 -410.49)" fill="#767676"/>
      <path id="패스_223" data-name="패스 223" d="M302.007,417.327a3.441,3.441,0,1,0-3.937-3.944A3.455,3.455,0,0,0,302.007,417.327Z" transform="translate(-283.757 -410.49)" fill="#767676"/>
      <path id="패스_224" data-name="패스 224" d="M308.35,424.2a3.441,3.441,0,1,0-3.937-3.944A3.455,3.455,0,0,0,308.35,424.2Z" transform="translate(-283.757 -410.49)" fill="#767676"/>
      <path id="패스_225" data-name="패스 225" d="M295.977,417.618a5.721,5.721,0,0,0-2.165,1.932c-1.117,1.525-1.2,2.826-2.337,4.352-1.688,1.956-4.62,4.127-4.236,7.157a4.428,4.428,0,0,0,3.007,3.468c2.1.179,3.943-1.518,7.139-1.518h.232c3.2,0,4.524,1.554,7.139,1.518a4.448,4.448,0,0,0,3.006-3.468c.4-3.049-2.534-5.216-4.222-7.175h-.006c-1.121-1.524-1.2-2.825-2.337-4.349a5.628,5.628,0,0,0-2.255-1.973l-.443-.137a5.677,5.677,0,0,0-.992-.058,4.7,4.7,0,0,0-1.018.075Z" transform="translate(-283.757 -410.49)" fill="#767676"/>
    </g>
    <path id="패스_226" data-name="패스 226" d="M328.651,423.618l-22.056-23.827-2.232-2.41a2.641,2.641,0,0,0-3.827-.117c-.048.045-.1.081-.146.13l-24.068,26.311a3.364,3.364,0,0,0-.11,4.322l.3.322a2.656,2.656,0,0,0,3.975-.013l21.8-23.828,22.066,23.837a2.648,2.648,0,0,0,3.837.117l.478-.523A3.244,3.244,0,0,0,328.651,423.618Z" transform="translate(0 0)" fill="#767676"/>
  </g>
</svg>
