<svg xmlns="http://www.w3.org/2000/svg" width="30" height="30" viewBox="0 0 30 30">
  <g id="settings_black_48dp" transform="translate(0 79)">
    <path id="패스_133" data-name="패스 133" d="M28.847,17c0-.345-.015-.675-.046-1.02l2.869-2.115a1.482,1.482,0,0,0,.4-1.95L29.186,7.07a1.544,1.544,0,0,0-1.928-.63L23.941,7.8a11.788,11.788,0,0,0-1.8-1.02L21.689,3.32A1.533,1.533,0,0,0,20.162,2H14.407a1.537,1.537,0,0,0-1.543,1.32l-.447,3.465a11.789,11.789,0,0,0-1.8,1.02L7.3,6.44a1.544,1.544,0,0,0-1.928.63L2.482,11.93a1.485,1.485,0,0,0,.4,1.95l2.869,2.115c-.031.33-.046.66-.046,1.005s.015.675.046,1.02L2.883,20.135a1.482,1.482,0,0,0-.4,1.95L5.367,26.93a1.544,1.544,0,0,0,1.928.63L10.612,26.2a11.789,11.789,0,0,0,1.8,1.02l.447,3.465A1.533,1.533,0,0,0,14.392,32h5.754a1.533,1.533,0,0,0,1.527-1.32l.447-3.465a11.789,11.789,0,0,0,1.8-1.02l3.317,1.365a1.544,1.544,0,0,0,1.928-.63l2.885-4.845a1.485,1.485,0,0,0-.4-1.95L28.785,18.02A7.543,7.543,0,0,0,28.847,17ZM17.338,22.25a5.252,5.252,0,1,1,5.4-5.25A5.332,5.332,0,0,1,17.338,22.25Z" transform="translate(-2.277 -81)"/>
  </g>
</svg>
