<svg id="그룹_501" data-name="그룹 501" xmlns="http://www.w3.org/2000/svg" width="62" height="56" viewBox="0 0 62 56">
  <g id="그룹_500" data-name="그룹 500" transform="translate(10.894 10.972)">
    <path id="패스_11" data-name="패스 11" d="M49,9h-8.1L37.726,5.626A5.137,5.137,0,0,0,33.97,4H17.616a4.931,4.931,0,0,1,.715,2.5,5.073,5.073,0,0,1-5.111,5H10.666v2.5a5.073,5.073,0,0,1-5.111,5A5.2,5.2,0,0,1,3,18.309V44.025a5.073,5.073,0,0,0,5.111,5H49a5.073,5.073,0,0,0,5.111-5V14.006A5.073,5.073,0,0,0,49,9ZM28.553,41.523A12.511,12.511,0,1,1,41.329,29.016,12.649,12.649,0,0,1,28.553,41.523Z" transform="translate(-3 -4)" fill="#ffb6a5"/>
    <path id="패스_377" data-name="패스 377" d="M7.845,0A7.845,7.845,0,1,1,0,7.845,7.845,7.845,0,0,1,7.845,0Z" transform="translate(17.708 17.121)" fill="#ffb6a5"/>
  </g>
  <path id="패스_10" data-name="패스 10" d="M8.237,20.221a2.746,2.746,0,0,0,5.492,0V14.729h5.492a2.746,2.746,0,1,0,0-5.492H13.729V3.746a2.746,2.746,0,1,0-5.492,0V9.237H2.746a2.746,2.746,0,1,0,0,5.492H8.237Z" transform="translate(0 -1)" fill="#ffb6a5"/>
</svg>
