<svg xmlns="http://www.w3.org/2000/svg" width="104" height="92" viewBox="0 0 104 92">
  <g id="그룹_142" data-name="그룹 142" transform="translate(-805.5 -588.333)">
    <path id="패스_73" data-name="패스 73" d="M43.485,89.821V62.2H66.094V89.821a5.606,5.606,0,0,0,5.652,5.524H88.7a5.606,5.606,0,0,0,5.652-5.524V51.154h9.609a2.732,2.732,0,0,0,1.865-4.806L58.576,4.754a5.8,5.8,0,0,0-7.574,0L3.751,46.348a2.742,2.742,0,0,0,1.865,4.806h9.609V89.821a5.606,5.606,0,0,0,5.652,5.524H37.833A5.606,5.606,0,0,0,43.485,89.821Z" transform="translate(802.698 584.988)"/>
  </g>
</svg>
