<svg xmlns="http://www.w3.org/2000/svg" width="30" height="28" viewBox="0 0 30 28">
  <path id="패스_60" data-name="패스 60" d="M28.482,4.571A8.364,8.364,0,0,0,17,6.317,8.349,8.349,0,0,0,5.511,4.571,8.821,8.821,0,0,0,2,11.378c-.21,6.156,4.948,11.091,12.82,18.659l.15.143a2.872,2.872,0,0,0,4.033-.016l.165-.159c7.872-7.553,13.015-12.487,12.82-18.643A8.815,8.815,0,0,0,28.482,4.571Zm-11.336,23.1-.15.159-.15-.159C9.709,20.835,5,16.313,5,11.727a5.28,5.28,0,0,1,5.248-5.553A5.866,5.866,0,0,1,15.6,9.918h2.8a5.83,5.83,0,0,1,5.338-3.745,5.28,5.28,0,0,1,5.248,5.553C28.992,16.313,24.283,20.835,17.146,27.673Z" transform="translate(-1.996 -2.999)" fill="#999"/>
</svg>
