<svg id="그룹_4363" data-name="그룹 4363" xmlns="http://www.w3.org/2000/svg" width="750" height="1624" viewBox="0 0 750 1624">
  <rect id="사각형_634" data-name="사각형 634" width="750" height="1624" fill="#ff9888"/>
  <text id="당신과_살구_싶은_아이들" data-name="당신과
&apos;살구&apos;싶은 아이들" transform="translate(48 1116)" fill="#fff" font-size="72" font-family="NotoSansCJKkr-Bold, Noto Sans CJK KR" font-weight="700" letter-spacing="-0.025em"><tspan x="0" y="84">당신과</tspan><tspan x="0" y="174">&apos;살구&apos;싶은 아이들</tspan></text>
  <text id="강아지_고양이_소동물을_위한_커뮤니케이션_어플" data-name="강아지/고양이/소동물을 위한 커뮤니케이션 어플" transform="translate(48 1360)" fill="#fff" font-size="28" font-family="NotoSansCJKkr-Regular, Noto Sans CJK KR" letter-spacing="-0.025em"><tspan x="0" y="32">강아지/고양이/소동물을 위한 커뮤니케이션 어플</tspan></text>
  <text id="Salgoo" transform="translate(238 700)" fill="#fff" font-size="50" font-family="Quicksand-Bold, Quicksand" font-weight="700"><tspan x="107.95" y="50">Salgoo</tspan></text>
  <path id="패스_269" data-name="패스 269" d="M271.5,1535.335v-2.025a4,4,0,0,0-8,0v1.74h-2.454v-4.239a4,4,0,1,0-8,0v4.524a28.642,28.642,0,0,0-24.6,28.317v5.82a28.634,28.634,0,0,0,28.6,28.6H267.5a28.634,28.634,0,0,0,28.6-28.6v-5.82A28.642,28.642,0,0,0,271.5,1535.335Zm16.6,34.137a20.626,20.626,0,0,1-20.6,20.6H257.048a20.626,20.626,0,0,1-20.6-20.6v-5.82a20.626,20.626,0,0,1,20.6-20.6H267.5a20.626,20.626,0,0,1,20.6,20.6Z" transform="translate(106.08 -898.07)" fill="#fff"/>
  <path id="패스_271" data-name="패스 271" d="M200.389,1556.35V1527.1a6.99,6.99,0,0,0-11.409-5.417l-16.389,13.369h-10.11l-16.392-13.369a6.992,6.992,0,0,0-11.41,5.417v29.07a28.54,28.54,0,0,0-1,7.484v5.82a28.634,28.634,0,0,0,28.6,28.6h10.46a28.634,28.634,0,0,0,28.6-28.6v-5.82A28.53,28.53,0,0,0,200.389,1556.35Zm-8-27.126v13.68a28.676,28.676,0,0,0-9.454-5.965Zm-49.711,0,9.438,7.7a28.669,28.669,0,0,0-9.438,5.93Zm50.659,40.249a20.626,20.626,0,0,1-20.6,20.6H162.289a20.626,20.626,0,0,1-20.6-20.6v-5.82a20.627,20.627,0,0,1,20.6-20.6h10.45a20.625,20.625,0,0,1,20.6,20.6Z" transform="translate(107.016 -898.07)" fill="#fff"/>
  <path id="패스_273" data-name="패스 273" d="M197.644,1466.714V1438.29a13.215,13.215,0,0,0-26.431,0v7.336c-.389-.016-.779-.03-1.172-.03H159.589c-.393,0-.782.014-1.171.03v-7.336a13.216,13.216,0,0,0-26.432,0v28.424a28.582,28.582,0,0,0-1,7.484v5.821a28.636,28.636,0,0,0,28.6,28.6H170.04a28.634,28.634,0,0,0,28.6-28.6V1474.2A28.541,28.541,0,0,0,197.644,1466.714Zm-18.431-28.424a5.215,5.215,0,0,1,10.431,0V1453.4a28.64,28.64,0,0,0-10.431-6.285Zm-39.229,0a5.216,5.216,0,1,1,10.432,0h0v8.823a28.653,28.653,0,0,0-10.432,6.285Zm50.66,37.274v4.455a20.626,20.626,0,0,1-20.6,20.6H159.589a20.626,20.626,0,0,1-20.6-20.6V1474.2a20.609,20.609,0,0,1,19.427-20.543c.39-.022.776-.059,1.171-.059h10.454c.4,0,.782.037,1.172.059a20.457,20.457,0,0,1,8,2.122,20.685,20.685,0,0,1,10.314,11.787,20.468,20.468,0,0,1,1.117,6.634Z" transform="translate(107.016 -895.072)" fill="#fff"/>
  <path id="패스_277" data-name="패스 277" d="M393.2,1556.164c.02-.3.046-.6.046-.9V1543.3c0-6.965-5.383-17.5-13.5-17.5-5.282,0-9.4,4.462-11.64,9.5-.7-.052-1.4-.088-2.111-.088h-11.6c-.679,0-1.351.033-2.018.081-2.237-5.033-6.358-9.491-11.636-9.491-8.115,0-13.5,10.532-13.5,17.5v11.952c0,.207.021.41.031.616a28.088,28.088,0,0,0-1.019,7.484v6.4A28.171,28.171,0,0,0,354.4,1597.9H366a28.171,28.171,0,0,0,28.138-28.139v-6.4A28.1,28.1,0,0,0,393.2,1556.164Zm-13.451-22.353c1.962,0,5.231,5,5.473,9.029a28.207,28.207,0,0,0-9.049-5.707c1.131-1.917,2.537-3.322,3.576-3.322Zm-39,0c1.033,0,2.43,1.389,3.558,3.291a28.219,28.219,0,0,0-9.027,5.641c.289-4.013,3.522-8.932,5.469-8.932Zm45.368,35.953a20.142,20.142,0,0,1-20.119,20.12h-11.6a20.142,20.142,0,0,1-20.114-20.12v-6.4a20.145,20.145,0,0,1,19.962-20.11c.054,0,.105-.008.159-.008H366c.086,0,.169.012.255.013a19.986,19.986,0,0,1,8,1.778,20.2,20.2,0,0,1,10.76,11.809,19.981,19.981,0,0,1,1.1,6.519v6.4Z" transform="translate(105.016 -898.07)" fill="#fff"/>
  <path id="패스_280" data-name="패스 280" d="M397.379,1452.66a11.71,11.71,0,0,0-14.748-3.585,27.969,27.969,0,0,0-13.031-3.21H357.9a27.973,27.973,0,0,0-14.863,4.26,11.7,11.7,0,0,0-12.789,4.36c-5.409,7.523-13.564,21.647-7.407,31.7a13.788,13.788,0,0,0,9.532,6.114,28.172,28.172,0,0,0,25.527,16.315h11.7a28.185,28.185,0,0,0,26.347-18.259,13.651,13.651,0,0,0,8.839-5.995C410.94,1474.307,402.779,1460.184,397.379,1452.66Zm-60.9,31.693c-2.886.344-5.565-.627-6.666-2.426l-.01-.022c-1.428-2.354-1.189-5.731.007-9.428a51.1,51.1,0,0,1,7.069-13.226,3.575,3.575,0,0,1,6.345,1.72c.892,8.587.839,15.278-.142,18.357a7.139,7.139,0,0,1-4.835,4.626,9.572,9.572,0,0,1-1.776.4Zm33.125,16.1H357.9a19.969,19.969,0,0,1-16.617-8.907,15.309,15.309,0,0,0,9.576-9.738c1.369-4.3,1.532-11.589.484-21.681a11.675,11.675,0,0,0-1.394-4.439,19.872,19.872,0,0,1,7.951-1.66h11.7a19.865,19.865,0,0,1,7.356,1.421,11.771,11.771,0,0,0-.672,2.853c-1.048,10.094-.885,17.389.483,21.682a15.387,15.387,0,0,0,10.4,10.008,20,20,0,0,1-17.575,10.462Zm28.223-20.352c-.023.037-.056.068-.08.1-1.143,1.728-3.758,2.661-6.586,2.322a9.761,9.761,0,0,1-1.664-.365,7.167,7.167,0,0,1-4.946-4.66c-.93-2.914-1.024-9.072-.274-17.01.042-.445.085-.892.132-1.348a3.523,3.523,0,0,1,6.345-1.72,54.04,54.04,0,0,1,6.58,11.809c1.606,4.262,2.108,8.22.485,10.873Z" transform="translate(4.541 -895.072)" fill="#fff"/>
  <path id="패스_1306" data-name="패스 1306" d="M294.127,1469.894l-2-31.251a6.99,6.99,0,0,0-11.409-5.417l-14.389,15.368H256.214l-14.388-15.368a6.99,6.99,0,0,0-11.41,5.417l-2,31.07a21.494,21.494,0,0,0-1,6.484v5.82c0,15.771,12.831,26.6,28.6,26.6h10.454c15.772,0,28.6-10.831,28.6-26.6v-5.82A21.357,21.357,0,0,0,294.127,1469.894Zm-9.773-28.409.773,14.961c-2.707-2.565-4.911-4.608-8.454-5.965Zm-46.6.22,8.1,8.762c-3.535,1.348-5.733,3.379-8.438,5.929Zm49.323,40.312c0,11.36-9.242,18.6-20.6,18.6H256.018c-11.36,0-20.6-7.242-20.6-18.6v-5.82c0-11.361,9.242-19.6,20.6-19.6h10.454c11.361,0,20.6,8.242,20.6,19.6Z" transform="translate(203.637 -895.072)" fill="#fff"/>
</svg>
