<svg id="그룹_746" data-name="그룹 746" xmlns="http://www.w3.org/2000/svg" xmlns:xlink="http://www.w3.org/1999/xlink" width="174" height="40" viewBox="0 0 174 40">
  <defs>
    <linearGradient id="linear-gradient" x1="0.5" x2="0.5" y2="1" gradientUnits="objectBoundingBox">
      <stop offset="0" stop-color="#ffb6a5"/>
      <stop offset="1" stop-color="#ffe7a4"/>
    </linearGradient>
  </defs>
  <path id="패스_311" data-name="패스 311" d="M257.44,277.055H246.094l13.265-18.943a2.542,2.542,0,0,0-1.919-4.224H241.158a2.554,2.554,0,0,0,0,5.107H252.5L239.239,277.94a2.543,2.543,0,0,0,1.919,4.224H257.44a2.554,2.554,0,1,0,0-5.108Z" transform="translate(-238.604 -253.888)" fill="url(#linear-gradient)"/>
  <path id="패스_312" data-name="패스 312" d="M378.328,276.478V261.094h0a2.554,2.554,0,1,0-2.555-2.554h0a2.554,2.554,0,1,0-2.554,2.554h0v15.331a2.554,2.554,0,1,0,2.549,2.606h.005a2.554,2.554,0,1,0,2.555-2.555Z" transform="translate(-206.882 -253.365)" fill="url(#linear-gradient)"/>
  <g id="그룹_741" data-name="그룹 741" transform="translate(22.919 9.074)">
    <path id="패스_313" data-name="패스 313" d="M273.389,264.018a9.583,9.583,0,1,0,2.735,6.7A9.557,9.557,0,0,0,273.389,264.018ZM266.536,275.1a4.385,4.385,0,1,1,4.385-4.385A4.385,4.385,0,0,1,266.536,275.1Z" transform="translate(-256.949 -261.13)" fill="url(#linear-gradient)"/>
  </g>
  <path id="패스_314" data-name="패스 314" d="M289.96,264.018a9.583,9.583,0,1,0,2.735,6.7A9.556,9.556,0,0,0,289.96,264.018ZM283.107,275.1a4.385,4.385,0,1,1,4.385-4.385A4.385,4.385,0,0,1,283.107,275.1Z" transform="translate(-230.235 -252.056)" fill="url(#linear-gradient)"/>
  <g id="그룹_742" data-name="그룹 742" transform="translate(84.371 9.074)">
    <path id="패스_315" data-name="패스 315" d="M323.1,264.018a9.583,9.583,0,1,0,2.735,6.7A9.554,9.554,0,0,0,323.1,264.018ZM316.249,275.1a4.385,4.385,0,1,1,4.385-4.385A4.385,4.385,0,0,1,316.249,275.1Z" transform="translate(-306.662 -261.13)" fill="url(#linear-gradient)"/>
  </g>
  <g id="그룹_743" data-name="그룹 743" transform="translate(104.913 9.074)">
    <path id="패스_316" data-name="패스 316" d="M339.673,264.018a9.583,9.583,0,1,0,2.735,6.7A9.554,9.554,0,0,0,339.673,264.018ZM332.82,275.1a4.385,4.385,0,1,1,4.385-4.385A4.385,4.385,0,0,1,332.82,275.1Z" transform="translate(-323.233 -261.13)" fill="url(#linear-gradient)"/>
  </g>
  <path id="패스_317" data-name="패스 317" d="M306.872,266.207v-9.766a2.554,2.554,0,1,0-5.107,0v6.727a9.587,9.587,0,1,0,.974,18.434,2.54,2.54,0,0,0,4.133-1.994v-.763a9.538,9.538,0,0,0,0-12.638Zm-11.58,6.315a4.385,4.385,0,0,1,4.386-4.385,4.385,4.385,0,0,1,0,8.77A4.385,4.385,0,0,1,295.292,272.523Z" transform="translate(-226.263 -253.888)" fill="url(#linear-gradient)"/>
  <g id="그룹_744" data-name="그룹 744" transform="translate(143.783 7.844)">
    <path id="패스_318" data-name="패스 318" d="M371.575,264.81v-2.139a2.552,2.552,0,0,0-4.914-.971,9.579,9.579,0,1,0-3.632,18.771c.254.032.512.051.772.062.147.008.292.022.441.022a9.589,9.589,0,0,0,2.224-.27v3.528a3.351,3.351,0,1,1-6.7,0,2.554,2.554,0,0,0-5.108,0,8.46,8.46,0,0,0,16.919,0V277.14a9.554,9.554,0,0,0,0-12.329Zm-7.332,1.774a4.385,4.385,0,1,1-4.385,4.385A4.344,4.344,0,0,1,364.243,266.584Z" transform="translate(-354.656 -260.118)" fill="url(#linear-gradient)"/>
  </g>
  <g id="그룹_745" data-name="그룹 745" transform="translate(125.469 7.808)">
    <path id="패스_319" data-name="패스 319" d="M348.939,261.346l-.96.022a5.194,5.194,0,0,0-3.068,1.326v-.023a2.521,2.521,0,0,0-.312-1.2c-.023-.041-.044-.085-.067-.125a2.554,2.554,0,0,0-4.727,1.325v15.384a2.523,2.523,0,0,0,3.173,2.47,2.5,2.5,0,0,0,.755-.322,2.544,2.544,0,0,0,1.179-2.148V267.78c.184-.525.813-1.51,3.013-1.64h1.109c2.108.125,2.7,2.014,2.689,3.905v8.112h.011a2.545,2.545,0,0,0,5.086,0h.011v-8.48C356.831,265.075,353.944,261.382,348.939,261.346Z" transform="translate(-339.804 -260.118)" fill="url(#linear-gradient)"/>
  </g>
</svg>
