<svg xmlns="http://www.w3.org/2000/svg" width="654" height="32" viewBox="0 0 654 32">
  <g id="패스_385" data-name="패스 385" transform="translate(0 8)" fill="#fff">
    <path d="M 592 14 L 8 14 C 4.691615581512451 14 2 11.30838489532471 2 8 C 2 4.691615581512451 4.691615581512451 2 8 2 L 592 2 C 595.3084106445312 2 598 4.691615581512451 598 8 C 598 11.30838489532471 595.3084106445312 14 592 14 Z" stroke="none"/>
    <path d="M 8 4 C 5.79437255859375 4 4 5.794384956359863 4 8 C 4 10.20561599731445 5.79437255859375 12 8 12 L 592 12 C 594.2056274414062 12 596 10.20561599731445 596 8 C 596 5.794384956359863 594.2056274414062 4 592 4 L 8 4 M 8 0 L 592 0 C 596.418212890625 0 600 3.581692695617676 600 8 C 600 12.41830825805664 596.418212890625 16 592 16 L 8 16 C 3.5816650390625 16 0 12.41830825805664 0 8 C 0 3.581692695617676 3.5816650390625 0 8 0 Z" stroke="none" fill="#ff9888"/>
  </g>
  <text id="_2_5" data-name="2/5" transform="translate(618)" fill="#767676" font-size="24" font-family="Roboto-Regular, Roboto" letter-spacing="-0.025em"><tspan x="0.178" y="25">2/5</tspan></text>
  <rect id="사각형_517" data-name="사각형 517" width="240" height="16" rx="8" transform="translate(0 8)" fill="#ff9888"/>
</svg>
