<svg xmlns="http://www.w3.org/2000/svg" xmlns:xlink="http://www.w3.org/1999/xlink" width="340.266" height="252.257" viewBox="0 0 340.266 252.257">
  <defs>
    <clipPath id="clip-path">
      <rect id="사각형_1069" data-name="사각형 1069" width="314" height="211.708" fill="#ff634a"/>
    </clipPath>
    <clipPath id="clip-path-2">
      <rect id="사각형_1070" data-name="사각형 1070" width="150.266" height="67.101" fill="#ff634a"/>
    </clipPath>
  </defs>
  <g id="그룹_4868" data-name="그룹 4868" transform="translate(-218 -514)">
    <g id="그룹_4865" data-name="그룹 4865" transform="translate(218 514)">
      <g id="그룹_4864" data-name="그룹 4864" clip-path="url(#clip-path)">
        <path id="패스_1462" data-name="패스 1462" d="M557.045,152c-6.872-5.425-6.7-4.257-7.045-8.071-.529-5.814,7.886-11.7,9.99-28.114,2.2-17.192,0-29.453-5.47-47.967a39.385,39.385,0,0,1-4.183-12.622c-.867-6.732-.025-38.29-13.068-51.333s-36.185,10.677-38.71,13.2-10.1,10.519-12.2,11.624c-2.837,1.489-8.836-.842-18.934.42C455.959,30.57,452.7,32.5,449.331,32.083s-24.825-22.3-44.18-21.459c-14.282.621-17.793,22.082-19.162,36.337,5.089.319,15.581.521,22.678,1.152,10.219.909,39.4,7.112,54.127,15.106s21.88,12.623,28.191,29.033-1.262,30.295-4.54,34.7-11.449,8.634-17.76,9.9a42.152,42.152,0,0,1-10.94.842s-.421.841.842,6.732a65.886,65.886,0,0,1-.3,29.657c19.568.7,50.876,1.272,62.55.264,15.169-1.31,38.844-4.223,43.36-9.3,3.366-3.787.842-6.732-7.153-13.043m-56.8-63.114a6.311,6.311,0,1,1,6.311-6.311,6.311,6.311,0,0,1-6.311,6.311" transform="translate(-251.65 0)" fill="#ff634a"/>
        <path id="패스_1463" data-name="패스 1463" d="M143.823,242.208c-11.361-11.361-17.672-32.4-18.093-51.333s4.905-36.841,6.168-44.414c.331-1.985,1.262-6,2.441-11.817-.751-.047-1.389-.1-1.876-.151,0,0-63.955,2.1-90.884,11.361S3.295,172.6.764,182.46c-2.525,9.835.471,31.566,20.2,39.972a30.044,30.044,0,0,0,16.83,2.262s-4.725,18.288,1.683,33.24c1.263,2.945-3.366,4.629-3.366,4.629s-8.415,4.207-13.477,9.34c-4.116,4.174,1.275,8.595,3.8,10.278s23.563,9.678,36.606,11.361,48.048,7.364,69.425,5.47,43.481-5.586,54.7-13.043c9.256-6.154,15.737-12.874,18.388-20.532.39-1.126.753-2.359,1.089-3.668-5.859-.21-10.677-.431-13.586-.625-12.623-.842-37.868-7.574-49.229-18.934m-51.262-22.3a6.311,6.311,0,1,1,6.311-6.311,6.311,6.311,0,0,1-6.311,6.311m36.746,4.628c-.842,1.473-1.052,3.577-5.891,4-4.821.419-6.429-.588-7.784-2.524a4.456,4.456,0,0,1,.211-5.68c1.262-1.262,2.735-1.683,6.311-1.683,2.324,0,4.418.211,5.47,1.262,1,1,2.525,3.156,1.683,4.628" transform="translate(0 -87.684)" fill="#ff634a"/>
        <path id="패스_1464" data-name="패스 1464" d="M521.807,219.12a6.311,6.311,0,1,0,6.311,6.311,6.311,6.311,0,0,0-6.311-6.311" transform="translate(-336.084 -142.858)" fill="#ff634a"/>
        <path id="패스_1465" data-name="패스 1465" d="M434.763,343.642a6.311,6.311,0,1,0,6.311,6.311,6.311,6.311,0,0,0-6.311-6.311" transform="translate(-279.335 -224.042)" fill="#ff634a"/>
        <path id="패스_1466" data-name="패스 1466" d="M595.056,296.254a3.576,3.576,0,0,0,4.921-1.143,49.09,49.09,0,0,1,5.32-7.155,53.5,53.5,0,0,1,5.234,7.152,3.572,3.572,0,0,0,6.067-3.773c-6.935-11.153-9.948-11.153-11.234-11.153-1.233,0-4.508,0-11.452,11.152a3.573,3.573,0,0,0,1.143,4.92" transform="translate(-386.857 -182.668)" fill="#ff634a"/>
      </g>
    </g>
    <g id="그룹_4867" data-name="그룹 4867" transform="translate(408 699.156)">
      <g id="그룹_4866" data-name="그룹 4866" transform="translate(0 0)" clip-path="url(#clip-path-2)">
        <path id="패스_1467" data-name="패스 1467" d="M35.673,25.516c2.117-2.067.672-6.037-2.4-5.876-2.051-4.225-2.914-9.449-5.973-13.1a6.147,6.147,0,0,0-8.352-.778c-2.454,1.861-3.524,4.921-4.674,7.66a95.171,95.171,0,0,0-3.421,9.429C7.513,23.84.22,22.536,0,27.327,0,29,1.591,31.024,3.453,30.78s3.709-.513,5.567-.765a104.951,104.951,0,0,0-1.979,12.61c.029,4.506,6.769,4.535,6.906,0A89.955,89.955,0,0,1,16.33,29.008q6.3-.894,12.6-1.869l4.086,10.012a3.455,3.455,0,0,0,6.66-1.836q-2-4.9-4-9.8M22.421,12.15a2.227,2.227,0,0,1,.2-.289c1.469,2.781,2.434,5.847,3.637,8.75-2.629.4-5.262.815-7.9,1.2a47.236,47.236,0,0,1,4.055-9.659" transform="translate(0 2.398)" fill="#ff634a"/>
        <path id="패스_1468" data-name="패스 1468" d="M38.316,21.745a4.839,4.839,0,0,1,4.847-1.864c3.255.8,2.991,5.219,3.1,7.915.068,3.151-1.466,7.929,3.2,8.225a3.546,3.546,0,0,0,3.453-3.455c.616-6.343.866-15.519-6.042-18.644a11.576,11.576,0,0,0-13.4,2.9c.117-5.641-7.8-5.277-6.914.266s1.8,11.084,2.693,16.626c.272,1.692,2.252,2.681,3.789,2.473A3.484,3.484,0,0,0,36.029,32.8c.307-3.24.422-6.594,1.511-9.687a11.874,11.874,0,0,1,.777-1.365" transform="translate(14.181 6.83)" fill="#ff634a"/>
        <path id="패스_1469" data-name="패스 1469" d="M53.134,12.457a3.454,3.454,0,0,0-6.908,0A122.916,122.916,0,0,0,48.062,36.14c1.222,4.333,7.729,2.579,6.66-1.835a113.706,113.706,0,0,1-1.589-21.848" transform="translate(24.735 4.821)" fill="#ff634a"/>
        <path id="패스_1470" data-name="패스 1470" d="M48.49,9.021c2.133-.6,6.387-.834,6.5-3.838a3.357,3.357,0,0,0-1.644-3.442l-.824-.349c-1.261-.474-4.592.774-5.865.969a3.439,3.439,0,0,0-2.473,2.871,3.357,3.357,0,0,0,1.647,3.441l.826.349a3.5,3.5,0,0,0,1.832,0" transform="translate(23.623 0.688)" fill="#ff634a"/>
        <path id="패스_1471" data-name="패스 1471" d="M62.66,3.453C62.841,1.594,60.947,0,59.207,0a3.525,3.525,0,0,0-3.453,3.453A152.327,152.327,0,0,0,56.9,40.936c1.3,4.3,7.579,2.708,6.66-1.836a145.256,145.256,0,0,1-.9-35.646" transform="translate(29.497 0)" fill="#ff634a"/>
        <path id="패스_1472" data-name="패스 1472" d="M71.322,11.59h0c-5.062,1.078-7.572,6.4-8.306,11.056-1.457,5.963,1.526,12.446,7.594,14.28,11.354,3.86,22.048-10.734,15.5-20.558A12.39,12.39,0,0,0,71.322,11.59m9.812,12.438c.134,4.093-5.188,7.115-7.414,6.581a13.666,13.666,0,0,1-1.311-.407,4.631,4.631,0,0,1-2.59-2.457c-2.936-10.239,10.533-15.4,11.316-3.717" transform="translate(33.54 5.767)" fill="#ff634a"/>
        <path id="패스_1473" data-name="패스 1473" d="M107.706,34.714a88.226,88.226,0,0,0-4.388-19.379,4.756,4.756,0,0,0-1.588-2.068C92.483,7.015,82.41,16.021,82.41,25.889,81.72,37.509,93.621,40.9,100.5,32.138c.762,5.506.881,11.618-1.506,16.777-2.4,5.836-8.828,7.357-12.228,1.474-.665-1.29-.837-3.252-.135-4.259a3.485,3.485,0,0,0-1.239-4.724,3.523,3.523,0,0,0-4.724,1.239c-5.389,9.023,5.013,20.526,14.672,18.143,10.766-2.908,13.249-16.419,12.369-26.073m-11.28-7.03c-1.007,1.594-4.408,4.182-6.665,1.569-1.812-2.7-.226-6.753,1.442-8.922,1.836-2.73,6.346-3.009,6.868.872a11.264,11.264,0,0,1-1.643,6.481Z" transform="translate(42.395 5.996)" fill="#ff634a"/>
      </g>
    </g>
  </g>
</svg>
