<svg xmlns="http://www.w3.org/2000/svg" xmlns:xlink="http://www.w3.org/1999/xlink" width="224" height="198" viewBox="0 0 224 198">
  <defs>
    <linearGradient id="linear-gradient" x1="0.139" y1="0.079" x2="0.877" y2="0.925" gradientUnits="objectBoundingBox">
      <stop offset="0" stop-color="#ffb6a5"/>
      <stop offset="1" stop-color="#ffe7a4"/>
    </linearGradient>
  </defs>
  <g id="그룹_848" data-name="그룹 848" transform="translate(-98 -1356)">
    <rect id="사각형_406" data-name="사각형 406" width="224" height="198" rx="70" transform="translate(98 1356)" fill="url(#linear-gradient)"/>
    <g id="그룹_839" data-name="그룹 839" transform="translate(156 1382)">
      <g id="그룹_837" data-name="그룹 837" transform="translate(0 0)">
        <path id="패스_349" data-name="패스 349" d="M525.023,208.922a6.968,6.968,0,1,0-2.129,0A6.943,6.943,0,0,0,525.023,208.922Z" transform="translate(-490.996 -141.117)" fill="#fff"/>
        <path id="패스_350" data-name="패스 350" d="M550.129,179.523a6.934,6.934,0,1,0-5.809-7.955A6.983,6.983,0,0,0,550.129,179.523Z" transform="translate(-505.277 -126.495)" fill="#fff"/>
        <path id="패스_351" data-name="패스 351" d="M584.181,179.522a6.934,6.934,0,1,0-5.813-7.955A6.965,6.965,0,0,0,584.181,179.522Z" transform="translate(-523.128 -126.494)" fill="#fff"/>
        <path id="패스_352" data-name="패스 352" d="M611.376,195.209a6.943,6.943,0,1,0,7.945,5.768A6.942,6.942,0,0,0,611.376,195.209Z" transform="translate(-537.409 -141.117)" fill="#fff"/>
        <path id="패스_353" data-name="패스 353" d="M564.831,208.272c-2.273-3.075-2.437-5.7-4.738-8.776a11.4,11.4,0,0,0-4.571-3.981l-.9-.275a11.464,11.464,0,0,0-2.011-.117,9.5,9.5,0,0,0-2.063.15l-1.038.358a11.56,11.56,0,0,0-4.39,3.9c-2.266,3.075-2.438,5.7-4.738,8.781-3.422,3.945-9.365,8.328-8.585,14.442a8.944,8.944,0,0,0,6.094,7c4.263.363,7.993-3.062,14.472-3.062h.472c6.479,0,9.17,3.134,14.472,3.062a8.988,8.988,0,0,0,6.092-7c.809-6.152-5.139-10.528-8.559-14.478Z" transform="translate(-498.61 -139.776)" fill="#fff"/>
        <path id="패스_354" data-name="패스 354" d="M595.418,155.282h0L549.651,108.04a8.1,8.1,0,0,0-11.377-.379,4.817,4.817,0,0,0-.481.432l-45.324,47.353a9.286,9.286,0,0,0-.333,12.393c.041.049.083.094.127.139l.572.593a8.136,8.136,0,0,0,11.873-.049l38.865-40.6,39.373,40.644a8.124,8.124,0,0,0,11.455.335c.053-.049.105-.1.156-.152l.891-.932a9.116,9.116,0,0,0,.122-12.372Zm-4.373,7.787-.809.847a2.122,2.122,0,0,1-2.923-.13L545.75,120.88a3.016,3.016,0,0,0-4.4.014l-41.047,42.884a2.128,2.128,0,0,1-3.1.025l-.48-.5a2.379,2.379,0,0,1,.139-3.119L542.1,112.938c.072-.058.145-.12.227-.193a2.1,2.1,0,0,1,2.961.074l45.753,47.226.049.051A2.19,2.19,0,0,1,591.045,163.07Z" transform="translate(-489.928 -105.512)" fill="#fff"/>
      </g>
    </g>
    <text id="임시보호_신청" data-name="임시보호 신청" transform="translate(126 1482)" fill="#fff" font-size="30" font-family="NotoSansKR-Bold, Noto Sans CJK KR" font-weight="700" letter-spacing="-0.025em"><tspan x="0.045" y="35">임시보호 신청</tspan></text>
  </g>
</svg>
