<svg xmlns="http://www.w3.org/2000/svg" xmlns:xlink="http://www.w3.org/1999/xlink" width="224" height="198" viewBox="0 0 224 198">
  <defs>
    <linearGradient id="linear-gradient" x1="0.139" y1="0.079" x2="0.877" y2="0.925" gradientUnits="objectBoundingBox">
      <stop offset="0" stop-color="#ffb6a5"/>
      <stop offset="1" stop-color="#ffe7a4"/>
    </linearGradient>
  </defs>
  <g id="그룹_847" data-name="그룹 847" transform="translate(-393 -1356)">
    <rect id="사각형_408" data-name="사각형 408" width="224" height="198" rx="70" transform="translate(393 1356)" fill="url(#linear-gradient)"/>
    <g id="그룹_842" data-name="그룹 842" transform="translate(428.068 1350.133)">
      <g id="그룹_840" data-name="그룹 840" transform="translate(24.933 27.867)">
        <g id="그룹_838" data-name="그룹 838" transform="translate(0 0)">
          <path id="패스_355" data-name="패스 355" d="M731.724,196.266c.16-4.464.429-11.936-10.391-17.423-1.872-.949-3.369-2.99-4.818-4.964-2.44-3.326-6.125-8.356-12.421-5.008a7.16,7.16,0,0,0-3.008,2.929c-.614-2.3-1.168-5.075-1.7-8.4-.566-3.53-1.5-9.451-8.534-9.171a7.1,7.1,0,0,0-5.443,2.578c-2.885,3.539-2.191,9.452-1.313,14.716.006.038.013.075.021.113,3.274,15.824,7.574,23.983,16.437,31.182.62.5,1.2.965,1.733,1.394,5.345,4.279,5.781,4.628,6.2,11.763a3.9,3.9,0,0,0,4.114,3.5h.05c4.856-.052,13.562-.056,16.115-.056a2.938,2.938,0,0,0,2.939-2.905c.007-.6.166-14.837,0-18.3C731.674,197.663,731.7,196.985,731.724,196.266Zm-5.87,17.275c-3.25,0-8.043.013-11.651.04-.682-7.594-2.525-9.382-8.245-13.962-.527-.422-1.094-.876-1.7-1.369-7.748-6.294-11.38-13.3-14.376-27.754-.349-2.1-1.354-8.22.081-9.981.1-.126.317-.388,1.111-.418,1.356-.048,1.818-.07,2.507,4.228,1.9,11.845,4.377,19.429,11.121,22.423.5,1.056,1.036,2.192,1.522,3.249a2.939,2.939,0,1,0,5.34-2.455c-.719-1.563-3.132-6.767-4-8.066-1.1-1.654-1.683-3.545-1.417-4.6a1.188,1.188,0,0,1,.7-.819c1.428-.761,1.928-.789,4.923,3.294,1.77,2.413,3.776,5.148,6.9,6.731,7.47,3.787,7.32,7.946,7.175,11.969-.03.846-.059,1.645-.021,2.442C725.946,200.871,725.894,209.1,725.855,213.541Z" transform="translate(-683.331 -121.474)" fill="#fff"/>
          <path id="패스_356" data-name="패스 356" d="M821.293,156.8a7.134,7.134,0,0,0-5.443-2.579c-.155-.006-.306-.009-.454-.009-6.611,0-7.528,5.728-8.08,9.181a85.737,85.737,0,0,1-1.7,8.4,7.161,7.161,0,0,0-3.009-2.932c-6.3-3.347-9.981,1.683-12.421,5.01-1.448,1.974-2.944,4.015-4.816,4.963-10.822,5.485-10.553,12.956-10.393,17.42.026.719.051,1.4.023,1.948-.167,3.465-.01,17.7,0,18.3a2.938,2.938,0,0,0,2.939,2.905c2.552,0,11.259,0,16.115.056h.051a3.9,3.9,0,0,0,4.115-3.508c.419-7.13.855-7.479,6.2-11.757.537-.43,1.114-.892,1.734-1.4,8.865-7.2,13.167-15.359,16.437-31.182.008-.037.015-.073.021-.111C823.483,166.258,824.179,160.347,821.293,156.8ZM816.817,170.5c-2.993,14.452-6.624,21.46-14.375,27.754-.609.495-1.175.949-1.7,1.371-5.719,4.58-7.56,6.367-8.242,13.961-3.609-.028-8.4-.036-11.652-.04-.039-4.445-.091-12.671.025-15.046.038-.8.009-1.6-.021-2.444-.145-4.022-.294-8.18,7.177-11.966,3.123-1.583,5.128-4.317,6.9-6.73,3-4.086,3.493-4.056,4.922-3.3a1.186,1.186,0,0,1,.7.818c.266,1.053-.316,2.944-1.415,4.6-.867,1.3-3.279,6.5-4,8.068a2.939,2.939,0,1,0,5.34,2.455c.485-1.056,1.018-2.192,1.522-3.247,6.746-2.993,9.227-10.577,11.124-22.425.687-4.3,1.144-4.276,2.507-4.227.793.031,1.007.293,1.11.418C818.173,162.28,817.166,168.4,816.817,170.5Z" transform="translate(-719.37 -121.474)" fill="#fff"/>
          <path id="패스_357" data-name="패스 357" d="M743.01,152.464a4.592,4.592,0,1,0,5.255,3.817A4.592,4.592,0,0,0,743.01,152.464Z" transform="translate(-705.733 -123.401)" fill="#fff"/>
          <path id="패스_358" data-name="패스 358" d="M757.451,145.915a4.587,4.587,0,1,0-3.854-5.26A4.6,4.6,0,0,0,757.451,145.915Z" transform="translate(-711.515 -117.392)" fill="#fff"/>
          <path id="패스_359" data-name="패스 359" d="M780.668,140.661a4.57,4.57,0,1,0-3.814,5.255A4.592,4.592,0,0,0,780.668,140.661Z" transform="translate(-718.741 -117.392)" fill="#fff"/>
          <path id="패스_360" data-name="패스 360" d="M789.847,161.534A4.589,4.589,0,1,0,786,156.272,4.614,4.614,0,0,0,789.847,161.534Z" transform="translate(-724.521 -123.401)" fill="#fff"/>
          <path id="패스_361" data-name="패스 361" d="M774.4,170.68c.533-4.068-3.383-6.961-5.636-9.575h-.007c-1.5-2.034-1.606-3.771-3.12-5.8a7.509,7.509,0,0,0-3.01-2.633l-.588-.181a7.386,7.386,0,0,0-1.323-.079,6.265,6.265,0,0,0-1.358.1l-.686.234a7.653,7.653,0,0,0-2.89,2.579c-1.49,2.034-1.606,3.771-3.12,5.808-2.253,2.608-6.165,5.507-5.652,9.55a5.908,5.908,0,0,0,4.013,4.628c2.807.24,5.261-2.025,9.527-2.025h.31c4.266,0,6.036,2.073,9.527,2.025A5.935,5.935,0,0,0,774.4,170.68Z" transform="translate(-708.704 -123.15)" fill="#fff"/>
          <path id="패스_362" data-name="패스 362" d="M719.4,146.62a3.061,3.061,0,0,0,4.255,0,2.889,2.889,0,0,0,0-4.156c-5.623-5.492-7.919-12.113-8.177-16.113a16.245,16.245,0,0,1,4.238-11.407,12.676,12.676,0,0,1,9.524-3.808c11.142,0,13.754,7.964,13.874,8.352a3.167,3.167,0,0,0,5.964,0c.1-.341,2.7-8.356,13.873-8.356a12.679,12.679,0,0,1,9.525,3.808,16.248,16.248,0,0,1,4.238,11.406c-.257,4-2.553,10.62-8.179,16.113a2.891,2.891,0,0,0,0,4.156,3.062,3.062,0,0,0,4.256,0c5.608-5.476,9.506-13.288,9.931-19.9a21.867,21.867,0,0,0-5.858-15.8,18.79,18.79,0,0,0-13.911-5.66c-8.486,0-13.854,3.7-16.855,7.453-3-3.754-8.369-7.453-16.856-7.453a18.787,18.787,0,0,0-13.91,5.66,21.865,21.865,0,0,0-5.858,15.8C709.894,133.335,713.791,141.146,719.4,146.62Z" transform="translate(-694.094 -105.26)" fill="#fff"/>
        </g>
      </g>
    </g>
    <text id="입양_신청" data-name="입양 신청" transform="translate(448 1482)" fill="#fff" font-size="30" font-family="NotoSansKR-Bold, Noto Sans CJK KR" font-weight="700" letter-spacing="-0.025em"><tspan x="-0.105" y="35">입양 신청</tspan></text>
  </g>
</svg>
