<svg xmlns="http://www.w3.org/2000/svg" xmlns:xlink="http://www.w3.org/1999/xlink" width="38" height="38" viewBox="0 0 38 38">
  <defs>
    <linearGradient id="linear-gradient" x1="0.5" x2="0.5" y2="1" gradientUnits="objectBoundingBox">
      <stop offset="0" stop-color="#ffb6a5"/>
      <stop offset="1" stop-color="#ffe7a4"/>
    </linearGradient>
  </defs>
  <g id="그룹_923" data-name="그룹 923" transform="translate(-48 -414)">
    <g id="그룹_248" data-name="그룹 248" transform="translate(-281 -574)">
      <path id="사각형_186" data-name="사각형 186" d="M10,0H28A10,10,0,0,1,38,10V38a0,0,0,0,1,0,0H10A10,10,0,0,1,0,28V10A10,10,0,0,1,10,0Z" transform="translate(329 988)" fill="url(#linear-gradient)"/>
    </g>
    <g id="그룹_597" data-name="그룹 597" transform="translate(50 420)">
      <path id="패스_280" data-name="패스 280" d="M405.278,79.241a4.533,4.533,0,0,0-3.729-2,4.413,4.413,0,0,0-2.078.519,10.577,10.577,0,0,0-5.131-1.33h-4.605a10.614,10.614,0,0,0-5.853,1.765,4.411,4.411,0,0,0-1.307-.2,4.531,4.531,0,0,0-3.729,2c-2.13,3.117-5.341,8.969-2.917,13.136a5.415,5.415,0,0,0,3.754,2.533,11.076,11.076,0,0,0,10.052,6.76h4.605a11.138,11.138,0,0,0,10.375-7.565,5.38,5.38,0,0,0,3.481-2.484C410.62,88.21,407.408,82.359,405.278,79.241ZM381.3,92.372a2.623,2.623,0,0,1-2.625-1.005l0-.009a5.066,5.066,0,0,1,0-3.906,21.535,21.535,0,0,1,2.786-5.48,1.358,1.358,0,0,1,1.119-.6,1.4,1.4,0,0,1,1.35,1.149,1.535,1.535,0,0,1,.03.16c.351,3.558.33,6.33-.056,7.606a2.874,2.874,0,0,1-1.9,1.917A3.629,3.629,0,0,1,381.3,92.372Zm13.044,6.671h-4.605a7.771,7.771,0,0,1-6.543-3.69,6.2,6.2,0,0,0,3.771-4.035c.539-1.779.6-4.8.191-8.983A5.02,5.02,0,0,0,386.6,80.5a7.486,7.486,0,0,1,3.131-.688h4.605a7.478,7.478,0,0,1,2.9.589,5.076,5.076,0,0,0-.265,1.182c-.413,4.182-.348,7.2.19,8.983a6.211,6.211,0,0,0,4.094,4.146A7.828,7.828,0,0,1,394.339,99.043Zm11.114-8.432c-.009.015-.022.028-.032.043a2.645,2.645,0,0,1-2.593.962,3.686,3.686,0,0,1-.655-.151,2.88,2.88,0,0,1-1.948-1.931,22.867,22.867,0,0,1-.108-7.048c.017-.184.033-.37.052-.559a1.412,1.412,0,0,1,1.38-1.309,1.359,1.359,0,0,1,1.119.6,22.748,22.748,0,0,1,2.591,4.893C405.895,87.872,406.092,89.512,405.453,90.611Z" transform="translate(-375.062 -76.426)" fill="#fff"/>
      <rect id="사각형_360" data-name="사각형 360" width="5.826" height="2.97" rx="1.485" transform="translate(14.087 14.161)" fill="#fff"/>
    </g>
  </g>
</svg>
