<svg xmlns="http://www.w3.org/2000/svg" xmlns:xlink="http://www.w3.org/1999/xlink" width="38" height="38" viewBox="0 0 38 38">
  <defs>
    <linearGradient id="linear-gradient" x1="0.5" x2="0.5" y2="1" gradientUnits="objectBoundingBox">
      <stop offset="0" stop-color="#ffb6a5"/>
      <stop offset="1" stop-color="#ffe7a4"/>
    </linearGradient>
  </defs>
  <g id="그룹_922" data-name="그룹 922" transform="translate(-104 -414)">
    <g id="그룹_921" data-name="그룹 921" transform="translate(104 414)">
      <path id="사각형_186" data-name="사각형 186" d="M10,0H28A10,10,0,0,1,38,10V38a0,0,0,0,1,0,0H10A10,10,0,0,1,0,28V10A10,10,0,0,1,10,0Z" fill="url(#linear-gradient)"/>
    </g>
    <g id="그룹_594" data-name="그룹 594" transform="translate(110 418)">
      <path id="패스_271" data-name="패스 271" d="M213.829,162.841V151.587a2.686,2.686,0,0,0-4.384-2.084l-6.3,5.143H199.26l-6.3-5.143a2.686,2.686,0,0,0-4.385,2.084v11.184a10.987,10.987,0,0,0-.384,2.879v2.239a11.01,11.01,0,0,0,10.992,11H203.2a11.01,11.01,0,0,0,10.991-11V165.65A11,11,0,0,0,213.829,162.841ZM210.754,152.4v5.262a11.015,11.015,0,0,0-3.633-2.295Zm-19.1,0,3.627,2.962a11.008,11.008,0,0,0-3.627,2.281Zm19.467,15.485a7.931,7.931,0,0,1-7.917,7.926h-4.017a7.931,7.931,0,0,1-7.917-7.926V165.65a7.931,7.931,0,0,1,7.917-7.926H203.2a7.93,7.93,0,0,1,7.917,7.926Z" transform="translate(-188.193 -148.893)" fill="#fff"/>
      <path id="패스_272" data-name="패스 272" d="M220,199.718l-2.05-1.867c-.016-.014-.035-.024-.051-.038a1.2,1.2,0,0,0-.1-.075,1.123,1.123,0,0,0-.1-.058,1.173,1.173,0,0,0-.106-.05c-.037-.015-.074-.028-.112-.039s-.07-.019-.106-.026a1.116,1.116,0,0,0-.12-.017,1.067,1.067,0,0,0-.108-.005c-.04,0-.08,0-.12.006s-.073.009-.109.016a1.069,1.069,0,0,0-.116.028c-.036.011-.07.023-.105.037a1.147,1.147,0,0,0-.111.052c-.033.018-.065.036-.1.057a1.148,1.148,0,0,0-.1.075c-.016.014-.035.023-.051.038l-2.05,1.867a1.2,1.2,0,1,0,1.614,1.772l1.243-1.132,1.243,1.132A1.2,1.2,0,0,0,220,199.718Z" transform="translate(-204.141 -178.94)" fill="#fff"/>
    </g>
  </g>
</svg>
