<svg xmlns="http://www.w3.org/2000/svg" width="92" height="91.999" viewBox="0 0 92 91.999">
  <g id="ADD_ITEM_92" data-name="ADD ITEM 92" transform="translate(-4448.481 -586.322)" opacity="0.8">
    <path id="패스_1150" data-name="패스 1150" d="M4494.48,586.322a46,46,0,1,0,46,46A46,46,0,0,0,4494.48,586.322Zm17.487,48.5h-14.989v14.988a2.5,2.5,0,1,1-4.995,0V634.819H4477a2.5,2.5,0,0,1,0-5h14.988V614.836a2.5,2.5,0,1,1,4.995,0v14.987h14.989a2.5,2.5,0,0,1,0,5Z" transform="translate(0 0)" fill="#fff"/>
  </g>
</svg>
