<svg xmlns="http://www.w3.org/2000/svg" xmlns:xlink="http://www.w3.org/1999/xlink" width="451.633" height="304.504" viewBox="0 0 451.633 304.504">
  <defs>
    <clipPath id="clip-path">
      <rect id="사각형_1069" data-name="사각형 1069" width="451.633" height="304.504" fill="#ff9888"/>
    </clipPath>
  </defs>
  <g id="그룹_5750" data-name="그룹 5750" transform="translate(-218 -514)">
    <g id="그룹_4865" data-name="그룹 4865" transform="translate(218 514)">
      <g id="그룹_4864" data-name="그룹 4864" clip-path="url(#clip-path)">
        <path id="패스_1462" data-name="패스 1462" d="M632.023,218.623c-9.884-7.8-9.633-6.123-10.133-11.609-.761-8.363,11.343-16.835,14.369-40.438,3.17-24.728,0-42.363-7.868-68.991a56.649,56.649,0,0,1-6.016-18.155c-1.246-9.683-.035-55.073-18.8-73.834S551.533,20.954,547.9,24.585s-14.525,15.13-17.55,16.719c-4.081,2.142-12.709-1.21-27.234.6-16.489,2.061-21.181,4.842-26.023,4.236S441.388,14.07,413.549,15.28c-20.542.893-25.593,31.761-27.56,52.264,7.319.46,22.411.749,32.619,1.657,14.7,1.308,56.671,10.23,77.852,21.728s31.47,18.156,40.548,41.758-1.816,43.573-6.53,49.916-16.467,12.419-25.545,14.234a60.628,60.628,0,0,1-15.735,1.211s-.605,1.21,1.21,9.683a94.766,94.766,0,0,1-.431,42.656c28.145,1.007,73.177,1.829,89.967.38,21.818-1.884,55.87-6.075,62.366-13.382,4.841-5.446,1.21-9.683-10.288-18.761m-81.7-90.778a9.078,9.078,0,1,1,9.078-9.078,9.078,9.078,0,0,1-9.078,9.078" transform="translate(-192.767 0)" fill="#ff9888"/>
        <path id="패스_1463" data-name="패스 1463" d="M206.863,289.421c-16.34-16.34-25.418-46.6-26.023-73.833s7.055-52.989,8.871-63.882c.476-2.855,1.815-8.624,3.511-17-1.08-.068-2-.139-2.7-.217,0,0-91.988,3.026-130.721,16.34S4.739,189.307,1.1,203.485c-3.631,14.146.677,45.4,29.049,57.493,13.314,5.674,24.208,3.253,24.208,3.253s-6.8,26.3,2.42,47.809c1.816,4.236-4.841,6.657-4.841,6.657s-12.1,6.052-19.384,13.434c-5.92,6,1.833,12.362,5.464,14.782s33.89,13.919,52.652,16.34,69.108,10.592,99.856,7.867,62.539-8.034,78.675-18.761c13.314-8.851,22.635-18.517,26.447-29.532.561-1.62,1.084-3.393,1.566-5.275-8.427-.3-15.358-.62-19.541-.9-18.156-1.21-54.467-10.893-70.807-27.234m-73.732-32.075a9.078,9.078,0,1,1,9.078-9.078,9.077,9.077,0,0,1-9.078,9.078M185.984,264c-1.21,2.118-1.513,5.145-8.472,5.749-6.934.6-9.246-.846-11.2-3.631a6.409,6.409,0,0,1,.3-8.17c1.815-1.816,3.934-2.421,9.078-2.421,3.342,0,6.354.3,7.867,1.816,1.435,1.435,3.631,4.539,2.421,6.657" transform="translate(0 -67.167)" fill="#ff9888"/>
        <path id="패스_1464" data-name="패스 1464" d="M524.574,219.12a9.078,9.078,0,1,0,9.078,9.078,9.078,9.078,0,0,0-9.078-9.078" transform="translate(-257.444 -109.431)" fill="#ff9888"/>
        <path id="패스_1465" data-name="패스 1465" d="M437.53,343.642a9.078,9.078,0,1,0,9.078,9.078,9.078,9.078,0,0,0-9.078-9.078" transform="translate(-213.973 -171.618)" fill="#ff9888"/>
        <path id="패스_1466" data-name="패스 1466" d="M595.793,303.3a5.143,5.143,0,0,0,7.078-1.644,70.6,70.6,0,0,1,7.653-10.292,76.951,76.951,0,0,1,7.528,10.288,5.138,5.138,0,0,0,8.726-5.426c-9.975-16.042-14.308-16.042-16.158-16.042-1.774,0-6.485,0-16.471,16.04a5.14,5.14,0,0,0,1.644,7.076" transform="translate(-296.336 -139.926)" fill="#ff9888"/>
      </g>
    </g>
  </g>
</svg>
