<svg id="그룹_6637" data-name="그룹 6637" xmlns="http://www.w3.org/2000/svg" xmlns:xlink="http://www.w3.org/1999/xlink" width="42.93" height="29.59" viewBox="0 0 42.93 29.59">
  <defs>
    <clipPath id="clip-path">
      <rect id="사각형_1607" data-name="사각형 1607" width="42.93" height="29.59" transform="translate(0 0)" fill="#000000"/>
    </clipPath>
  </defs>
  <g id="그룹_6636" data-name="그룹 6636" clip-path="url(#clip-path)">
    <path id="패스_1719" data-name="패스 1719" d="M39.844,5.186C36.451,1.793,32.011,0,21.329,0,10.983,0,5.494,3.156,3.143,5.037A7.99,7.99,0,0,0,.305,13.672,7.048,7.048,0,0,0,5.995,18.7,9.8,9.8,0,0,0,5.572,22a7.007,7.007,0,0,0,1.675,4.31,6.924,6.924,0,0,0,3.328,2.064,24.988,24.988,0,0,0,7.473,1c5.85.184,5.556.27,6.858.135l0,.079c.041,0,.314.009.753.009a37.383,37.383,0,0,0,6.611-.549,7.7,7.7,0,0,0,3.021-1.25,7.02,7.02,0,0,0,2.643-3.633,7.567,7.567,0,0,0-.178-5.374,6.678,6.678,0,0,0,5.079-5.41,9.361,9.361,0,0,0-2.989-8.188m.3,7.773a4,4,0,0,1-3.9,3.278c-.363-.575-.859-1.359-1.135-1.792a1.362,1.362,0,1,0-2.3,1.463c.467.733,1.575,2.487,1.575,2.488a1.205,1.205,0,0,0,.141.185,5,5,0,0,1,.827,4.716,4.331,4.331,0,0,1-1.64,2.277,4.986,4.986,0,0,1-1.961.793,37,37,0,0,1-6.766.493.541.541,0,0,0-.09,0c-.509,0-3.669-.117-6.831-.216a22.535,22.535,0,0,1-6.717-.889,4.2,4.2,0,0,1-2.028-1.223,4.29,4.29,0,0,1-1.02-2.6,7.618,7.618,0,0,1,.431-2.862c.1-.319.2-.666.305-1.07.113-.283.533-1.326,1.035-2.482a1.361,1.361,0,0,0-2.5-1.085c-.271.624-.516,1.208-.707,1.672C5.626,15.882,3.5,15.184,2.944,13a5.265,5.265,0,0,1,1.9-5.832c2.072-1.659,6.969-4.441,16.484-4.441,13.226,0,14.95,2.749,16.59,4.388a6.645,6.645,0,0,1,2.223,5.848" fill="#000000"/>
  </g>
</svg>
