<svg xmlns="http://www.w3.org/2000/svg" width="33.934" height="28.135" viewBox="0 0 33.934 28.135">
  <path id="패스_1713" data-name="패스 1713" d="M14.626,31.975c-.778,0-1.544-.018-2.28-.055a17.059,17.059,0,0,1-8.27-1.77,7.962,7.962,0,0,1-2.278-1.6C-.8,25.824-.126,22.278.994,16.4l.273-1.442c.317-3.193,1.172-8.636,3.345-9.695,1.646-.8,3.621-.127,5.869,2.013.913.871,1.631,1.683,2.207,2.336.274.31.6.679.8.88l.7-.032c1.4-.065,3.725-.173,5.176-.143.247-.31.565-.723.919-1.184.774-1.008,1.736-2.261,2.531-3.169.9-1.024,2.281-2.359,3.924-2.095,1.569.248,2.391,1.77,2.872,2.894a30.268,30.268,0,0,1,1.428,4.6c.16.634.325,1.285.513,1.957.337,1.208.715,2.273,1.081,3.3,1.094,3.081,2.038,5.741.487,9.088a8.768,8.768,0,0,1-3.373,3.738c-2.513,2.05-7.6,2.277-8.179,2.3-1.174.089-2.267.1-3.065.114-.394,0-.716.008-.947.021-.972.058-1.959.086-2.928.086M12.4,29.363a47.284,47.284,0,0,0,5-.027c.26-.015.622-.021,1.064-.026.764-.01,1.812-.024,2.96-.11,1.392-.049,5.206-.456,6.739-1.757a1.239,1.239,0,0,1,.155-.113A6.2,6.2,0,0,0,30.8,24.642c1.112-2.4.44-4.292-.577-7.157-.362-1.021-.774-2.178-1.134-3.472-.193-.692-.362-1.363-.529-2.015a28.3,28.3,0,0,0-1.3-4.224c-.549-1.282-.916-1.373-.919-1.374s-.472-.035-1.6,1.254C24,8.5,23.064,9.718,22.312,10.7c-.406.529-.766,1-1.032,1.326a2.222,2.222,0,0,1-1.858.86c-1.351-.029-3.708.073-5.116.139-.577.026-.994.045-1.13.045-.858,0-1.408-.624-2.408-1.756-.543-.616-1.22-1.382-2.054-2.177C7.4,7.882,6.285,7.295,5.732,7.568c-.657.486-1.569,4.092-1.925,7.7a.963.963,0,0,1-.016.109l-.285,1.5c-1.074,5.634-1.481,8.2.142,9.894a5.555,5.555,0,0,0,1.6,1.1c.038.019.077.04.113.062A14.89,14.89,0,0,0,12.4,29.363" transform="translate(0 -3.84)" fill="#fff"/>
</svg>
