<svg xmlns="http://www.w3.org/2000/svg" width="33.289" height="32" viewBox="0 0 33.289 32">
  <path id="패스_1714" data-name="패스 1714" d="M119.952,32c-.779,0-1.544-.019-2.277-.056h-.217c-5,0-7.268-1.075-7.512-1.2a9.5,9.5,0,0,1-2.935-2.316c-2.357-3.3-1.915-5.388-1.034-9.544.191-.9.408-1.918.629-3.1.114-.92,1.234-9.713,1.844-11.747A5.666,5.666,0,0,1,113.583.36a4.936,4.936,0,0,1,5.035,2.591c.84,1.735.888,4.765.927,7.2.006.386.013.817.025,1.187,1.384-.064,3.614-.165,5.052-.142a26.109,26.109,0,0,0,.265-3.7,19.867,19.867,0,0,1,.348-4.062,4.657,4.657,0,0,1,4.386-3.42,5.144,5.144,0,0,1,5.113,2.769,35.8,35.8,0,0,1,1.354,6.813c.264,1.815.536,3.692.791,4.61l.18.643c1.295,4.632,2.008,7.183,1.071,10.666a6.537,6.537,0,0,1-3.057,3.969c-2.513,2.049-7.6,2.276-8.179,2.3-1.168.089-2.258.1-3.055.114-.4.006-.723.009-.955.022-.977.057-1.966.086-2.932.086m-2.22-2.613a47.343,47.343,0,0,0,5-.026c.259-.016.624-.02,1.071-.027.763-.01,1.807-.024,2.95-.11,1.393-.049,5.206-.455,6.74-1.757a1.17,1.17,0,0,1,.154-.113,4.053,4.053,0,0,0,2.01-2.5c.754-2.806.147-4.981-1.064-9.313l-.181-.646a48.946,48.946,0,0,1-.859-4.929,38.8,38.8,0,0,0-1.174-6.172,2.7,2.7,0,0,0-2.6-1.224,2.169,2.169,0,0,0-2.088,1.57,21.239,21.239,0,0,0-.252,3.435c-.084,2.846-.163,4.5-.834,5.328a2.3,2.3,0,0,1-1.858.86c-1.352-.03-3.708.073-5.115.139-.577.026-1,.045-1.131.045-1.459,0-1.48-1.332-1.519-3.75-.029-1.833-.078-4.9-.671-6.126a2.533,2.533,0,0,0-2.529-1.156A3.218,3.218,0,0,0,110.9,4.775c-.464,1.549-1.434,8.759-1.767,11.407-.238,1.278-.458,2.318-.652,3.233-.838,3.95-1.091,5.141.612,7.528a7.446,7.446,0,0,0,1.994,1.513c.024.012,1.984.931,6.456.931h.189" transform="translate(-105.27)" fill="#000000"/>
</svg>
