<svg id="그룹_3784" data-name="그룹 3784" xmlns="http://www.w3.org/2000/svg" width="136" height="60" viewBox="0 0 136 60">
  <rect id="사각형_1044" data-name="사각형 1044" width="136" height="60" rx="22" fill="#ff9888"/>
  <text id="고양이" transform="translate(56 12)" fill="#fff" font-size="24" font-weight="bold" font-family="" letter-spacing="-0.025em"><tspan x="4.19" y="26">고양이</tspan></text>
  <g id="그룹_4755" data-name="그룹 4755" transform="translate(12 10.213)">
    <path id="패스_271" data-name="패스 271" d="M222.178,167.292V152.446a3.562,3.562,0,0,0-5.812-2.749l-8.349,6.785h-5.152l-8.349-6.785a3.563,3.563,0,0,0-5.813,2.749V167.2a14.425,14.425,0,0,0-.509,3.8v2.954a14.56,14.56,0,0,0,14.571,14.516h5.326a14.56,14.56,0,0,0,14.571-14.516V171A14.441,14.441,0,0,0,222.178,167.292ZM218.1,153.525v6.941a14.613,14.613,0,0,0-4.816-3.027Zm-25.325,0,4.808,3.907a14.6,14.6,0,0,0-4.808,3.01Zm25.808,20.427a10.488,10.488,0,0,1-10.5,10.456h-5.326a10.488,10.488,0,0,1-10.5-10.456V171a10.488,10.488,0,0,1,10.5-10.456h5.326A10.488,10.488,0,0,1,218.586,171Z" transform="translate(-188.193 -148.893)" fill="#fff"/>
    <path id="패스_272" data-name="패스 272" d="M222.242,200.518l-2.8-2.553c-.022-.02-.048-.033-.07-.052a1.638,1.638,0,0,0-.138-.1,1.546,1.546,0,0,0-.136-.08,1.592,1.592,0,0,0-.145-.068c-.05-.02-.1-.038-.154-.053s-.1-.026-.145-.036a1.525,1.525,0,0,0-.164-.023,1.471,1.471,0,0,0-.148-.007c-.055,0-.109,0-.164.008s-.1.012-.149.022a1.462,1.462,0,0,0-.158.039c-.049.015-.1.031-.144.05a1.575,1.575,0,0,0-.151.071c-.045.024-.089.05-.132.078a1.577,1.577,0,0,0-.139.1c-.022.019-.048.032-.069.051l-2.8,2.553a1.639,1.639,0,1,0,2.207,2.424l1.7-1.548,1.7,1.548a1.639,1.639,0,0,0,2.208-2.424Z" transform="translate(-200.523 -173.153)" fill="#fff"/>
  </g>
</svg>
