<svg xmlns="http://www.w3.org/2000/svg" width="53.502" height="45.506" viewBox="0 0 53.502 45.506">
  <path id="패스_1621" data-name="패스 1621" d="M219.523,13.757h0c-.7-2.5-3.726-6.249-7.573-8.207-3.238-1.654-10.229-1.306-14.4,3.651-.683.812-1.5,1.8-2.313,2.8a7.354,7.354,0,0,0-.535.639c-.049.059-.2.221-.315.372l-.036.058-1.064,1.305-.193-.242c-.953-1.194-2.268-2.832-4-4.92a13.062,13.062,0,0,0-10.049-4.563,9.853,9.853,0,0,0-4.364.9c-3.9,1.989-6.806,5.693-7.559,8.169-1.664,5.473-.051,11.03,4.792,16.518,5.654,6.4,6.915,7.734,8.634,9.453l.347.356c1.935,1.988,7.075,7.27,8.958,8.832a5.109,5.109,0,0,0,3.308,1.277c1.811,0,3.777-1.038,5.84-3.085l.55-.545A160.628,160.628,0,0,0,214.6,29.773c6.157-8.2,5.761-13.068,4.928-16.016M179.176,32.338l-.185.23-.2-.219c-1.041-1.158-2.353-2.636-4.084-4.6-3.928-4.446-5.281-8.8-4.022-12.946l.02-.062.133-.4,1.678,1.79a2.028,2.028,0,0,0,1.361.551,1.916,1.916,0,0,0,1.36-.573l0,0a2.047,2.047,0,0,0,.2-.238l.1-.149.037-.062.082-.313a1.929,1.929,0,0,0-.475-1.815L173.1,11.3l.176-.171c.248-.242.522-.487.838-.752l.184-.155,2.169,2.4a1.931,1.931,0,0,0,2.723.008,1.962,1.962,0,0,0,.219-.266,1.984,1.984,0,0,0-.233-2.316L177.74,8.467l.5-.046a9.543,9.543,0,0,1,7.982,3.166c2.032,2.453,3.493,4.29,4.459,5.506l.189.238L186.3,22.888c-.911,1.1-2.633,3.428-4.151,5.479l-.164.221c-1.031,1.4-2.283,3.086-2.813,3.75m36.939-13.917c-.436,2.617-1.992,5.769-4.5,9.114a156.659,156.659,0,0,1-14.688,16.338l-.552.547c-1.516,1.508-2.5,1.963-3.176,1.963a1.46,1.46,0,0,1-.959-.37c-1.135-.945-3.842-3.611-8.046-7.925l-.169-.174.012-.013-.935-.944c-.561-.511-1.381-1.61-1.3-1.825l.083-.195.085-.1c.545-.661,1.835-2.4,3.024-4.01,1.222-1.654,3.267-4.424,4.133-5.48.142-.142.246-.264.352-.389.2-.233.474-.57.82-1l2.683-3.3c.689-.847,1.22-1.52,1.736-2.174l.32-.405c.539-.682,1.089-1.378,1.8-2.253a1.831,1.831,0,0,1,.946-.564l.045-.011.045.006a.931.931,0,0,1,.478.3c.368.349.16,1.014-.657,2.089-.37.482-1.091,1.392-2.432,3a1.885,1.885,0,0,0,.235,2.641,1.919,1.919,0,0,0,2.669-.29c1.045-1.252,1.927-2.342,2.483-3.069,2.809-3.669,1.374-6.01.268-7.078a5.742,5.742,0,0,0-.8-.527l-.273-.147.2-.236c1.28-1.494,3.249-3.308,5.358-3.467l.585-.045-.373.453c-1.144,1.388-2.236,2.629-2.267,2.658a1.881,1.881,0,0,0,.184,2.633,1.907,1.907,0,0,0,2.625-.17c.021-.023,2.446-2.764,4.057-4.908l.129-.173.19.1c.227.124.452.256.671.4l.235.148-3.773,4.755a2.027,2.027,0,0,0-.077,2.317,1.92,1.92,0,0,0,2.681.323,2.148,2.148,0,0,0,.288-.277l3.685-4.644.2.238c.174.21.341.429.5.651l.112.156-3.674,4.491a2.005,2.005,0,0,0-.1,2.328,1.912,1.912,0,0,0,2.667.351,1.872,1.872,0,0,0,.29-.273l2.038-2.5Z" transform="translate(-166.488 -4.646)" fill="#000"/>
</svg>
