<svg xmlns="http://www.w3.org/2000/svg" width="54" height="46" viewBox="0 0 54 46">
  <path id="패스_1406" data-name="패스 1406" d="M3766.5,1953.813c-.716-2.547-3.792-6.373-7.7-8.362-3.308-1.69-10.45-1.342-14.707,3.713-.683.813-1.5,1.8-2.316,2.8a7.071,7.071,0,0,0-.75.85.906.906,0,0,0-.135.218l-.869,1.066c-.987-1.238-2.3-2.872-4-4.923-4.211-5.088-11.377-5.432-14.719-3.726-3.965,2.022-6.919,5.8-7.685,8.319-1.691,5.562-.06,11.2,4.844,16.756,5.655,6.4,6.922,7.742,8.644,9.464l.078.08c1.8,1.849,7.262,7.479,9.245,9.124a5.35,5.35,0,0,0,3.464,1.335c1.884,0,3.909-1.063,6.019-3.158l.55-.545a160.367,160.367,0,0,0,15.066-16.773C3767.756,1961.758,3767.348,1956.813,3766.5,1953.813Zm-36.488,23.088a3.892,3.892,0,0,1-1.117-1.783c.541-.655,1.777-2.319,3.032-4.02,1.387-1.878,3.287-4.449,4.126-5.471.129-.127.238-.254.349-.385.2-.234.476-.573.823-1,.6-.734,1.4-1.724,2.315-2.845l.369-.455c.75-.923,1.314-1.639,1.873-2.347.6-.759,1.191-1.51,1.985-2.484a1.587,1.587,0,0,1,.81-.479s.11.014.336.234c.316.3-.2,1.126-.682,1.76-.368.479-1.083,1.382-2.424,2.99a2.13,2.13,0,0,0,.265,2.992,2.181,2.181,0,0,0,3.022-.321c1.032-1.235,1.917-2.328,2.49-3.078,3.036-3.965,1.2-6.484.243-7.409a5.9,5.9,0,0,0-.858-.567c1.182-1.378,3.134-3.226,5.187-3.381-1.154,1.4-2.233,2.624-2.247,2.637a2.13,2.13,0,0,0,.192,3,2.159,2.159,0,0,0,2.974-.187c.022-.025,2.451-2.769,4.073-4.928.222.121.442.25.657.387l-3.6,4.537a2.273,2.273,0,0,0-.091,2.608,2.171,2.171,0,0,0,3.044.384,2.362,2.362,0,0,0,.324-.311l3.5-4.41c.17.206.334.42.491.638l-3.553,4.343a2.257,2.257,0,0,0-.118,2.622,2.161,2.161,0,0,0,3.356.106l1.447-1.773c-.431,2.587-1.953,5.67-4.452,9.005a156.078,156.078,0,0,1-14.662,16.309l-.554.548c-2.593,2.58-3.437,1.878-3.8,1.578-1.119-.93-3.82-3.589-8.026-7.907l.013-.013Zm-7.854-20.494a2.276,2.276,0,0,0,.223-.267l.427-.606h-.167a2.166,2.166,0,0,0-.537-2.052l-1.919-2.049c.262-.254.538-.5.824-.739l2.007,2.222a2.181,2.181,0,0,0,3.085.017,2.34,2.34,0,0,0,.248-.3,2.243,2.243,0,0,0-.251-2.624l-1.1-1.214a9.24,9.24,0,0,1,7.772,3.083c2.071,2.5,3.568,4.385,4.515,5.575l0,0-4.437,5.4c-.909,1.1-2.636,3.432-4.16,5.491l-.163.219c-1.168,1.582-2.31,3.12-2.808,3.744-1.041-1.159-2.352-2.635-4.083-4.6-3.869-4.381-5.2-8.659-3.97-12.709.006-.02.012-.037.018-.055l1.392,1.485A2.178,2.178,0,0,0,3722.159,1956.406Z" transform="translate(-3712.978 -1944.525)" />
</svg>
