<svg xmlns="http://www.w3.org/2000/svg" width="54.005" height="46.001" viewBox="0 0 54.005 46.001">
  <path id="ANIMAL_SAVING_TAB_FILLED" data-name="ANIMAL SAVING TAB FILLED" d="M3932.967,1938.431c-.716-2.547-3.792-6.373-7.7-8.362-3.308-1.69-10.45-1.342-14.707,3.713-.683.813-1.5,1.8-2.316,2.8a7.129,7.129,0,0,0-.75.85.932.932,0,0,0-.135.218l-.869,1.066c-.987-1.238-2.3-2.872-4-4.923-4.211-5.088-11.377-5.432-14.719-3.726-3.965,2.022-6.919,5.8-7.685,8.319-1.691,5.562-.06,11.2,4.844,16.756,5.655,6.4,6.922,7.742,8.644,9.464l.078.08c1.8,1.849,7.262,7.479,9.245,9.124a5.351,5.351,0,0,0,3.464,1.335c1.884,0,3.909-1.063,6.019-3.158l.55-.545A160.126,160.126,0,0,0,3928,1954.669C3934.223,1946.376,3933.815,1941.431,3932.967,1938.431Z" transform="translate(-3879.44 -1929.144)" fill="#ff9888"/>
</svg>
