<svg id="그룹_4756" data-name="그룹 4756" xmlns="http://www.w3.org/2000/svg" width="120" height="60" viewBox="0 0 120 60">
  <rect id="사각형_1045" data-name="사각형 1045" width="120" height="60" rx="22" fill="#fff"/>
  <g id="그룹_4757" data-name="그룹 4757" transform="translate(12 8.936)">
    <path id="패스_273" data-name="패스 273" d="M219.454,76.886V62.554a6.733,6.733,0,0,0-13.465,0v3.7c-.2-.008-.4-.015-.6-.015h-5.326c-.2,0-.4.007-.6.015v-3.7a6.733,6.733,0,0,0-13.465,0V76.886a14.267,14.267,0,0,0-.509,3.774v2.935a14.514,14.514,0,0,0,14.571,14.423h5.326a14.514,14.514,0,0,0,14.571-14.423V80.66A14.246,14.246,0,0,0,219.454,76.886Zm-9.389-14.332a2.657,2.657,0,0,1,5.314,0v7.618A14.614,14.614,0,0,0,210.064,67Zm-19.984,0a2.657,2.657,0,0,1,5.314,0V67a14.62,14.62,0,0,0-5.314,3.169Zm25.808,18.8v2.246a10.455,10.455,0,0,1-10.5,10.389h-5.326a10.455,10.455,0,0,1-10.5-10.389V80.66a10.231,10.231,0,0,1,.569-3.345,10.489,10.489,0,0,1,9.33-7.013c.2-.011.4-.03.6-.03h5.326c.2,0,.4.019.6.03a10.488,10.488,0,0,1,9.33,7.013,10.23,10.23,0,0,1,.569,3.345Z" transform="translate(-185.495 -55.89)" fill="#ff9888"/>
    <path id="패스_274" data-name="패스 274" d="M219.406,113.206l-2.757-2.511c-.021-.019-.046-.033-.069-.051a1.529,1.529,0,0,0-.136-.1,1.452,1.452,0,0,0-.133-.078c-.047-.025-.094-.047-.143-.067s-.1-.037-.151-.052-.1-.026-.143-.035a1.484,1.484,0,0,0-.162-.023,1.446,1.446,0,0,0-.145-.007,1.477,1.477,0,0,0-.162.008c-.049,0-.1.012-.146.021a1.57,1.57,0,0,0-.156.039c-.048.015-.1.031-.142.049a1.544,1.544,0,0,0-.148.069c-.045.024-.088.049-.13.077a1.523,1.523,0,0,0-.137.1c-.022.018-.047.031-.068.051l-2.757,2.511a1.612,1.612,0,1,0,2.17,2.384l1.672-1.522,1.672,1.522a1.612,1.612,0,0,0,2.17-2.384Z" transform="translate(-198.33 -83.118)" fill="#ff9888"/>
  </g>
  <text id="그_외" data-name="그 외" transform="translate(56 12)" fill="#ff9888" font-size="26" font-weight="bold" font-family="" letter-spacing="-0.025em"><tspan x="3.846" y="26">그 외</tspan></text>
</svg>
