<svg xmlns="http://www.w3.org/2000/svg" width="54.006" height="46.001" viewBox="0 0 54.006 46.001">
  <path id="패스_1711" data-name="패스 1711" d="M222.809,91.638c-.716-2.547-3.792-6.373-7.7-8.362-3.308-1.69-10.45-1.342-14.707,3.713-.683.813-1.5,1.8-2.316,2.8a7.126,7.126,0,0,0-.75.85.944.944,0,0,0-.135.218l-.869,1.066c-.987-1.238-2.3-2.872-4-4.923-4.211-5.088-11.377-5.432-14.719-3.726-3.965,2.022-6.919,5.8-7.685,8.319-1.691,5.562-.06,11.2,4.844,16.756,5.655,6.4,6.922,7.742,8.644,9.464l.078.08c1.8,1.849,7.262,7.479,9.245,9.124a5.351,5.351,0,0,0,3.464,1.335c1.884,0,3.909-1.063,6.019-3.158l.55-.545a160.072,160.072,0,0,0,15.07-16.773c6.223-8.293,5.815-13.238,4.967-16.238" transform="translate(-169.281 -82.351)" fill="#070203"/>
</svg>
