<svg id="그룹_3784" data-name="그룹 3784" xmlns="http://www.w3.org/2000/svg" width="100" height="60" viewBox="0 0 100 60">
  <path id="패스_1443" data-name="패스 1443" d="M22,0H78a22,22,0,0,1,22,22V38A22,22,0,0,1,78,60H22A22,22,0,0,1,0,38V22A22,22,0,0,1,22,0Z" fill="#fff"/>
  <g id="그룹_3783" data-name="그룹 3783" transform="translate(12 14.042)">
    <path id="패스_280" data-name="패스 280" d="M414.77,79.882a6.132,6.132,0,0,0-7.632-1.823,14.673,14.673,0,0,0-6.743-1.633h-6.052a14.659,14.659,0,0,0-7.691,2.166,6.176,6.176,0,0,0-1.718-.243,6.077,6.077,0,0,0-4.9,2.46c-2.8,3.826-7.019,11.009-3.833,16.124a7.146,7.146,0,0,0,4.933,3.109,14.6,14.6,0,0,0,13.21,8.3H400.4a14.578,14.578,0,0,0,13.634-9.286,7.069,7.069,0,0,0,4.574-3.049C421.79,90.891,417.57,83.708,414.77,79.882ZM383.254,96a3.566,3.566,0,0,1-3.45-1.234l-.005-.011c-.739-1.2-.615-2.915,0-4.795a25.818,25.818,0,0,1,3.662-6.726,1.829,1.829,0,0,1,3.244.678,1.747,1.747,0,0,1,.039.2c.462,4.367.434,7.77-.073,9.336a3.671,3.671,0,0,1-2.5,2.353A5.052,5.052,0,0,1,383.254,96Zm17.142,8.189h-6.052a10.382,10.382,0,0,1-8.6-4.53,7.853,7.853,0,0,0,4.955-4.952c.708-2.184.793-5.894.25-11.026a5.867,5.867,0,0,0-.721-2.258,10.424,10.424,0,0,1,4.115-.844H400.4a10.428,10.428,0,0,1,3.807.723,5.879,5.879,0,0,0-.348,1.451c-.542,5.134-.458,8.844.25,11.027a7.9,7.9,0,0,0,5.38,5.09A10.375,10.375,0,0,1,400.4,104.188ZM415,93.838c-.012.019-.029.035-.041.053a3.6,3.6,0,0,1-3.408,1.181,5.142,5.142,0,0,1-.861-.186,3.686,3.686,0,0,1-2.559-2.37c-.481-1.482-.53-4.614-.142-8.651.022-.226.044-.454.068-.686a1.832,1.832,0,0,1,3.283-.875,27.35,27.35,0,0,1,3.405,6.006C415.58,90.476,415.84,92.489,415,93.838Z" transform="translate(-375.062 -76.426)" fill="#ff9888"/>
    <rect id="사각형_360" data-name="사각형 360" width="4.962" height="3.18" rx="1.59" transform="translate(19.859 17.668)" fill="#ff9888"/>
  </g>
  <text id="개" transform="translate(66 12)" fill="#ff9888" font-size="26" font-family="" font-weight="700" letter-spacing="-0.025em"><tspan x="0.88" y="26">개</tspan></text>
</svg>
