<svg xmlns="http://www.w3.org/2000/svg" xmlns:xlink="http://www.w3.org/1999/xlink" width="46" height="53.854" viewBox="0 0 46 53.854">
  <defs>
    <clipPath id="clip-path">
      <rect id="사각형_1276" data-name="사각형 1276" width="46" height="53.854" fill="none"/>
    </clipPath>
  </defs>
  <g id="그룹_5822" data-name="그룹 5822" clip-path="url(#clip-path)">
    <path id="패스_1537" data-name="패스 1537" d="M45.834,36.132a6.447,6.447,0,0,0-3.583-4.6,4.969,4.969,0,0,0-5.74,1.015A6.967,6.967,0,0,0,35.254,34.5a12.161,12.161,0,0,0-4.841-5.965,14.011,14.011,0,0,0-7.421-2.088h0a13.135,13.135,0,0,0-11.432,6.2,11.7,11.7,0,0,0-.843,1.806,7.637,7.637,0,0,0-.485-.908A5.042,5.042,0,0,0,5.192,31.1a6.132,6.132,0,0,0-4.6,3.682,10.586,10.586,0,0,0-.2,6.368,40.428,40.428,0,0,0,4.943,12.16A33.333,33.333,0,0,1,7.84,58.63c.124.341.248.684.341,1.036.029.108.043.229.08.335-.024.53-.018,1.062-.051,1.594-.126,2.082,3.114,2.075,3.241,0a8.43,8.43,0,0,0-.163-2.853,27.323,27.323,0,0,0-1.81-4.6c-.766-1.57-1.714-3.042-2.541-4.578a36.6,36.6,0,0,1-2.412-5.622c-.846-2.492-2.887-8.109.662-9.524,1.294-.515,2.166.388,2.659,1.528.73,1.688.946,3.589,1.539,5.329,1.461,4.285,4.369,8.444,9.042,9.478a1.622,1.622,0,0,0,.861-3.125,9.753,9.753,0,0,1-6.051-7.709,8.863,8.863,0,0,1,4.093-8.7,10.847,10.847,0,0,1,5.661-1.538,9.922,9.922,0,0,1,8.6,4.553,9.216,9.216,0,0,1-.448,9.8,9.094,9.094,0,0,1-4.45,3.59,1.622,1.622,0,0,0,.861,3.125c4.063-.9,6.9-4.251,8.453-7.941A54.393,54.393,0,0,0,37.774,37c.315-1.065.846-2.655,2.144-2.742,1.475-.1,2.579,1.414,2.791,2.731a13.238,13.238,0,0,1-.806,5.539,36.882,36.882,0,0,1-2.252,5.852c-.788,1.6-1.732,3.105-2.585,4.666a27.524,27.524,0,0,0-2.248,5.361,10.981,10.981,0,0,0-.29,3.183,1.621,1.621,0,0,0,3.241,0c0-.478-.008-.956-.008-1.434,0-.065.008-.129.012-.193.074-.28.128-.563.215-.841a24.677,24.677,0,0,1,1.985-4.637c.963-1.739,2.007-3.425,2.841-5.233a41.849,41.849,0,0,0,2.375-6.429,14.968,14.968,0,0,0,.644-6.7" transform="translate(0 -9.305)" fill="#1a1311"/>
    <path id="패스_1538" data-name="패스 1538" d="M23.321,14.811a1.621,1.621,0,0,1-1.464-.924l-3.4-7.124a1.621,1.621,0,1,1,2.926-1.395l3.4,7.124a1.621,1.621,0,0,1-1.461,2.318" transform="translate(-6.44 -1.565)" fill="#1a1311"/>
    <path id="패스_1539" data-name="패스 1539" d="M39.671,12.264a1.647,1.647,0,0,1-.231-.016,1.62,1.62,0,0,1-1.375-1.833l1.292-9.022a1.62,1.62,0,1,1,3.207.46l-1.292,9.022a1.621,1.621,0,0,1-1.6,1.391" transform="translate(-13.389 0)" fill="#1a1311"/>
    <path id="패스_1540" data-name="패스 1540" d="M53.806,20.8A1.62,1.62,0,0,1,52.691,18l4.747-4.5a1.62,1.62,0,1,1,2.229,2.352l-4.746,4.5a1.618,1.618,0,0,1-1.115.445" transform="translate(-18.364 -4.596)" fill="#1a1311"/>
    <path id="패스_1541" data-name="패스 1541" d="M10.12,26.06a1.605,1.605,0,0,1-.746-.183l-5.558-2.89a1.62,1.62,0,0,1,1.5-2.875L10.869,23a1.62,1.62,0,0,1-.749,3.058" transform="translate(-1.036 -7.013)" fill="#1a1311"/>
  </g>
</svg>
