<svg id="그룹_6858" data-name="그룹 6858" xmlns="http://www.w3.org/2000/svg" xmlns:xlink="http://www.w3.org/1999/xlink" width="48" height="48" viewBox="0 0 48 48">
  <defs>
    <clipPath id="clip-path">
      <rect id="사각형_1562" data-name="사각형 1562" width="48" height="48" fill="none"/>
    </clipPath>
  </defs>
  <g id="그룹_6466" data-name="그룹 6466" clip-path="url(#clip-path)">
    <path id="패스_1676" data-name="패스 1676" d="M43.462,35.564c-.043-3.714-.083-7.684-.122-11.645l-.109-10.808a1.623,1.623,0,0,0-.054-.383c-.688-3.8-4.416-4.182-8.34-4.018l-.886.033.125-.88A1.509,1.509,0,0,0,31.066,8l-.014.845h-.729c-5.276-.023-9.529-.011-13.383.035h-.749V8a1.492,1.492,0,0,0-.475-1.036,1.474,1.474,0,0,0-1.074-.422,1.533,1.533,0,0,0-1.455,1.508v.889l-1.128.02c-.222,0-.449,0-.68,0l-.344,0c-2.19.008-4.579,0-5.906,2.133a5.643,5.643,0,0,0-.6,3.133l.046,11.814q.006,1.683,0,3.369c0,2.232,0,4.54.041,6.713a5.212,5.212,0,0,0,1.206,3.8c1.494,1.573,4.239,1.519,6.449,1.479.437-.008.766-.014,1.078-.014h.387c7.171.17,14.3.146,21.184-.066.3-.009.623-.014.955-.017,2.385-.03,5.654-.072,7.071-2.521a5.972,5.972,0,0,0,.524-3.15ZM7.393,16.711a25.242,25.242,0,0,1,.126-3.334c.225-1.129,1.71-1.592,4.805-1.537h.728v.738q0,.627.042,1.247a1.489,1.489,0,0,0,.512,1.046,1.689,1.689,0,0,0,1.208.4A1.325,1.325,0,0,0,16.1,13.9l-.007-.107q-.037-.556-.043-1.106v-.749h.738c2.635-.031,5.3-.048,7.912-.048,1.544-.006,3.111,0,4.675.011l1.661.01.021.714c.008.192.018.392.03.594a1.557,1.557,0,0,0,.53,1.073,1.594,1.594,0,0,0,1.136.387A1.359,1.359,0,0,0,34.1,13.289l-.007-.1c-.012-.188-.02-.375-.027-.565l-.03-.731.731-.039c3.747-.177,5.326.166,5.457,1.183.013.691.019,1.52.025,2.358l.018,2.332-.8-.057a71.667,71.667,0,0,0-8.583.053c-1.476.069-3.138.147-4.695.162l-1.382.007c-3.613,0-7.3-.135-10.558-.254-2.062-.077-4.1-.15-6.135-.2l-.7-.019ZM40.476,36.588h0l-.005.038v0l-.005.022c-.278,1.262-1.375,1.337-2.537,1.417l-.436.032c-1.428.12-2.842.179-4.318.182H30.493q-3.345,0-6.679.011-1.366.01-2.733.03h-.373c-1.844.026-3.941.052-5.964.026-.308,0-.708.01-1.168.028-.576.02-1.142.034-1.68.034-2.085,0-4.045-.173-4.269-1.427A38.31,38.31,0,0,1,7.6,30.749L7.554,20.474l.762.02c1.944.049,3.889.121,5.833.194l.188.009c3.7.138,7.527.281,11.345.245,1.9-.018,3.8-.055,5.689-.092l3.326-.061a43.921,43.921,0,0,1,4.91-.038l.7.032.106,9.7a33.016,33.016,0,0,1,.067,6.108" fill="#000" />
    <path id="패스_1677" data-name="패스 1677" d="M12.744,23.871h-.73a1.5,1.5,0,0,0,0,3h.73a1.5,1.5,0,1,0,0-3" fill="#000"/>
    <path id="패스_1678" data-name="패스 1678" d="M20.366,23.871h-.73a1.5,1.5,0,0,0,0,3h.73a1.5,1.5,0,0,0,0-3" fill="#000"/>
    <path id="패스_1679" data-name="패스 1679" d="M27.988,23.871h-.73a1.5,1.5,0,0,0,0,3h.73a1.5,1.5,0,0,0,0-3" fill="#000"/>
    <path id="패스_1680" data-name="패스 1680" d="M35.611,23.871h-.73a1.5,1.5,0,0,0,0,3h.73a1.5,1.5,0,0,0,0-3" fill="#000"/>
  </g>
</svg>
