<svg xmlns="http://www.w3.org/2000/svg" width="48" height="48" viewBox="0 0 48 48">
  <g id="CALENDAR_48_FILLED" data-name="CALENDAR 48 FILLED" transform="translate(-48 -516)">
    <path id="사각형_152" data-name="사각형 152" d="M20,0h8A20,20,0,0,1,48,20v8A20,20,0,0,1,28,48H20A20,20,0,0,1,0,28V20A20,20,0,0,1,20,0Z" transform="translate(48 516)" fill="#ff9888"/>
    <path id="패스_1393" data-name="패스 1393" d="M1000.238,1952.814l0-.017c-.035-2.983-.068-6.179-.1-9.36l-.084-8.1a1.6,1.6,0,0,0-.056-.394c-.6-3.226-3.92-3.533-7.075-3.414l-.23.008.033-.223a1.608,1.608,0,0,0-1.626-1.5h-.027a1.6,1.6,0,0,0-1.551,1.546l0,.276h-.189c-4.2-.018-7.6-.009-10.712.027h-.194v-.291a1.545,1.545,0,0,0-.506-1.089,1.6,1.6,0,0,0-2.7,1.122v.315l-.51.009c-.263.006-.534,0-.812,0-1.714,0-3.875-.015-5.064,1.842a4.685,4.685,0,0,0-.541,2.679l.034,9.155q.006,1.308,0,2.617c0,1.74,0,3.538.033,5.231a4.352,4.352,0,0,0,1.059,3.2c1.339,1.372,3.644,1.322,5.5,1.288h.054c.268-.006.528-.01.774-.01h.31c5.694.131,11.46.114,16.961-.052.24-.007.494-.011.755-.013,2.006-.025,4.753-.059,6-2.155A4.913,4.913,0,0,0,1000.238,1952.814Zm-24.976-6.385h-.584a1.556,1.556,0,1,1,0-3.111h.584a1.556,1.556,0,1,1,0,3.111Zm6.1,0h-.584a1.556,1.556,0,1,1,0-3.111h.584a1.556,1.556,0,1,1,0,3.111Zm6.1,0h-.584a1.556,1.556,0,1,1,0-3.111h.584a1.556,1.556,0,1,1,0,3.111Zm6.1,0h-.584a1.556,1.556,0,1,1,0-3.111h.584a1.556,1.556,0,1,1,0,3.111Zm3.116-7.938a59.628,59.628,0,0,0-6.922.041c-1.25.057-2.517.114-3.733.125-.366,0-.734.005-1.1.005-2.891,0-5.828-.1-8.453-.2-1.631-.059-3.261-.117-4.892-.156l-.182,0-.007-.179a18.714,18.714,0,0,1,.1-2.541c.125-.6,1.289-.882,3.44-.847h.189v.185q0,.5.034,1a1.541,1.541,0,0,0,.546,1.081,1.78,1.78,0,0,0,1.258.407,1.438,1.438,0,0,0,1.4-1.474c0-.031,0-.062-.006-.093-.019-.281-.03-.562-.034-.839v-.189h.191c2.111-.024,4.24-.037,6.33-.037,1.234,0,2.487,0,3.737.009l.943.005.006.181c.006.156.014.314.025.473a1.638,1.638,0,0,0,1.758,1.5h.014a1.455,1.455,0,0,0,1.435-1.477c0-.032,0-.063-.006-.094-.01-.143-.016-.286-.022-.43l-.008-.187.19-.009c2.555-.117,3.881.078,3.947.582.009.589.014,1.395.021,2.169l.008,1.011Z" transform="translate(-912.266 -1403.807)" fill="#fff"/>
  </g>
</svg>
