<svg xmlns="http://www.w3.org/2000/svg" width="48" height="48" viewBox="0 0 48 48">
  <g id="그룹_131" data-name="그룹 131" transform="translate(0.333)">
    <rect id="사각형_141" data-name="사각형 141" width="48" height="48" transform="translate(-0.333)" fill="none" opacity="0.4"/>
    <g id="그룹_3859" data-name="그룹 3859" transform="translate(4 5.999)">
      <g id="그룹_3858" data-name="그룹 3858">
        <path id="패스_1296" data-name="패스 1296" d="M4341.348,252.4c-.044-3.835-.085-7.944-.126-12.034l-.105-10.418a2.088,2.088,0,0,0-.071-.507c-.75-4.147-4.9-4.542-8.843-4.389l-.287.011.041-.287a2.034,2.034,0,0,0-2.032-1.933h-.034a2.029,2.029,0,0,0-1.939,1.987l-.006.355h-.237c-5.253-.023-9.506-.012-13.389.035l-.243,0v-.375a2.012,2.012,0,0,0-.632-1.4,1.986,1.986,0,0,0-1.429-.558,2.034,2.034,0,0,0-1.943,2v.405l-.637.012c-.329.007-.667,0-1.015,0-2.142,0-4.844-.019-6.33,2.368a6.168,6.168,0,0,0-.676,3.444l.043,11.77q.007,1.682,0,3.365c0,2.237,0,4.549.041,6.725a5.7,5.7,0,0,0,1.324,4.11c1.674,1.764,4.554,1.7,6.874,1.656h.067c.335-.007.66-.013.968-.013.132,0,.261,0,.387,0,7.117.168,14.323.146,21.2-.066.3-.009.616-.014.943-.017,2.508-.032,5.941-.076,7.5-2.77a6.485,6.485,0,0,0,.588-3.454Zm-36.069-18.862a24.687,24.687,0,0,1,.123-3.267c.156-.774,1.611-1.134,4.3-1.089l.236,0v.238q0,.643.043,1.28a2,2,0,0,0,.682,1.39,2.178,2.178,0,0,0,1.572.523,1.827,1.827,0,0,0,1.748-2.015c-.024-.361-.038-.722-.042-1.079l0-.243.239,0c2.638-.031,5.3-.048,7.912-.048,1.542-.006,3.109,0,4.671.011l1.179.007.007.232q.012.3.031.608a2.068,2.068,0,0,0,2.214,1.929,1.847,1.847,0,0,0,1.786-2.02c-.011-.183-.02-.367-.027-.552l-.01-.241.238-.012c3.193-.151,4.851.1,4.934.748.011.758.018,1.793.026,2.789l.01,1.3-.259-.019a72.31,72.31,0,0,0-8.652.053c-1.562.073-3.146.146-4.666.161-.457,0-.917.007-1.377.007-3.614,0-7.285-.135-10.566-.255-2.038-.076-4.076-.15-6.115-.2l-.228-.006Zm32.085,19.848c-.18.816-.772.936-2.083,1.025l-.438.032c-1.418.119-2.82.178-4.283.181l-2.668,0c-2.236,0-4.465,0-6.694.011-.914.007-1.826.018-2.738.03l-.366,0c-1.954.026-3.975.051-5.958.026-.319,0-.725.01-1.193.028-.568.02-1.128.034-1.661.034-2.016,0-3.631-.2-3.777-1.014a37.862,37.862,0,0,1-.023-6.11l-.04-9.8.246.007c1.943.049,3.886.121,5.828.194l.183.008c3.728.139,7.582.281,11.373.245,1.9-.017,3.8-.054,5.694-.091l.431-.008c.949-.018,1.9-.037,2.893-.053a43.3,43.3,0,0,1,4.878-.039l.226.011.1,9.224A32.776,32.776,0,0,1,4337.364,253.389Z" transform="translate(-4301.384 -222.845)" fill="#ff634a"/>
      </g>
      <path id="패스_1297" data-name="패스 1297" d="M4310.429,240.816h-.73a2,2,0,0,0,0,4h.73a2,2,0,0,0,0-4Z" transform="translate(-4301.682 -223.448)" fill="#ff634a"/>
      <path id="패스_1298" data-name="패스 1298" d="M4318.429,240.816h-.73a2,2,0,0,0,0,4h.73a2,2,0,0,0,0-4Z" transform="translate(-4302.06 -223.448)" fill="#ff634a"/>
      <path id="패스_1299" data-name="패스 1299" d="M4326.429,240.816h-.73a2,2,0,0,0,0,4h.73a2,2,0,0,0,0-4Z" transform="translate(-4302.438 -223.448)" fill="#ff634a"/>
      <path id="패스_1300" data-name="패스 1300" d="M4334.429,240.816h-.73a2,2,0,0,0,0,4h.73a2,2,0,0,0,0-4Z" transform="translate(-4302.815 -223.448)" fill="#ff634a"/>
    </g>
  </g>
</svg>
