<svg xmlns="http://www.w3.org/2000/svg" xmlns:xlink="http://www.w3.org/1999/xlink" width="116" height="100" viewBox="0 0 116 100">
  <defs>
    <filter id="Icon_-_Camera-2" x="0" y="0" width="116" height="100" filterUnits="userSpaceOnUse">
      <feOffset dy="5" input="SourceAlpha"/>
      <feGaussianBlur stdDeviation="5" result="blur"/>
      <feFlood flood-opacity="0.161"/>
      <feComposite operator="in" in2="blur"/>
      <feComposite in="SourceGraphic"/>
    </filter>
  </defs>
  <g transform="matrix(1, 0, 0, 1, 0, 0)" filter="url(#Icon_-_Camera-2)">
    <path id="Icon_-_Camera-2-2" data-name="Icon - Camera-2" d="M637.413,1947.172c-7.055-.56-9.317-4.342-9.694-11-.414-7.27,0-14.6.226-21.868.161-5.176-1.226-13.586,1.483-18.242,2-3.442,7.67-3.287,11.153-3.572,3.3-.267,6.622-.408,9.943-.467.363-1.494.806-2.957,1.142-4.491a16.075,16.075,0,0,1,2.185-7.24c3.187-3.759,12.051-2.6,16.523-2.6s13.271-1.132,16.523,2.6a15.936,15.936,0,0,1,2.188,7.24c.352,1.54.806,3.01,1.164,4.51,3,.056,5.993.16,8.979.376s7.775.1,10.57,1.942a2.373,2.373,0,0,1,1.389,1.348c.038.085.067.173.1.267a2.5,2.5,0,0,1,.124.314c2.419,6.071,1.3,14.329,1.5,20.68.231,7.584,1.5,16.516-.4,23.975-1.642,6.457-8.678,6.34-14.147,6.253-6.633-.109-13.271-.064-19.911-.025-3.959.021-7.917.051-11.873.043-3.225,0-6.493.072-9.769.154-3.168.075-6.345.154-9.508.154C643.987,1947.521,640.687,1947.436,637.413,1947.172ZM670.448,1905c-7.751.362-10.865,5.823-11.027,12.832.126,7.485,4.977,13.308,12.962,12.824a12.531,12.531,0,0,0,12.357-12.7l0-.043a13.568,13.568,0,0,0-13.639-12.925c-.22,0-.438.008-.658.029Z" transform="translate(-612.54 -1867.52)" fill="#fff" opacity="0.9"/>
  </g>
</svg>
