<svg xmlns="http://www.w3.org/2000/svg" width="53.253" height="45.251" viewBox="0 0 53.253 45.251">
  <g id="그룹_6346" data-name="그룹 6346" transform="translate(-289 -833.361)">
    <path id="패스_1635" data-name="패스 1635" d="M26.345,38.785H26.8A10.439,10.439,0,0,0,37.111,28.33,10.8,10.8,0,0,0,26.354,17.8c-5.859,0-9.742,4.119-9.888,10.5.1,6.077,4.258,10.487,9.879,10.487M25.328,21.142h0a.994.994,0,0,1,.189,0l.373-.04c.066-.006.133-.009.2-.01l.144-.007H26.3a7.5,7.5,0,0,1,7.547,7.26,7.023,7.023,0,0,1-6.87,7.158c-.191.018-.4.029-.606.029A6.548,6.548,0,0,1,22,33.864,7.662,7.662,0,0,1,19.74,28.3c.1-4.279,2.033-6.753,5.588-7.157" transform="translate(289 832)" fill="#1a1311"/>
    <path id="패스_1636" data-name="패스 1636" d="M11.575,46.6c.331,0,.654.008,1,.008,1.932,0,3.883-.051,5.77-.1l.578-.015c4.289-.1,7.622-.085,11.124-.107l2.642-.015c1.765-.011,3.562-.02,5.37-.022h.107c1.985,0,3.984.007,5.983.041.549.01,1.12.019,1.7.012.521-.006,1.046-.024,1.562-.071.119-.011.237-.027.355-.04.1-.012.193-.02.287-.033,2.123-.3,3.978-1.167,4.584-3.556.875-3.484.632-7.462.4-11.31-.071-1.2-.142-2.373-.177-3.5s0-2.374.02-3.385c.071-3.122.15-6.661-.916-9.353-.035-.106-.061-.169-.095-.253l-.056-.135a1.218,1.218,0,0,0-.674-.684,5.261,5.261,0,0,0-1.009-.48,14.315,14.315,0,0,0-4.113-.649l-.348-.017-.053,0-.145-.008c-.289-.014-.567-.029-.826-.047-1.053-.076-2.158-.131-3.337-.172-.163-.006-.315-.014-.482-.019a2.563,2.563,0,0,1-2.4-1.906c-.1-.37-.2-.748-.272-1.051a10.2,10.2,0,0,0-1.159-4.2A1.96,1.96,0,0,0,36.59,5a5.56,5.56,0,0,0-2.842-1.162,27.373,27.373,0,0,0-5.225-.159c-.3.011-.581.019-.851.024-.612.013-1.182.011-1.817,0-.223-.006-.448-.011-.7-.02-2.714-.111-6.43-.26-8.129,1.333a2.052,2.052,0,0,0-.369.505,9.661,9.661,0,0,0-.884,2.379.678.678,0,0,0,.068.529.666.666,0,0,0,.413.311.6.6,0,0,0,.168.02c.323,0,.47,0,.587-.006l.087,0c.107-.005.24-.005.481-.005h.008a1.374,1.374,0,0,1,.169,0c.008,0,.015,0,.023,0a1.117,1.117,0,0,0,.3,0,.981.981,0,0,0,.714-.5l.037-.085a2.145,2.145,0,0,1,.1-.215.142.142,0,0,0,.012-.013l.007-.011c.6-.916,2.212-1.188,4.126-1.234.851-.021,1.754,0,2.665.034l.211.009.465.018c.152.005.294.008.411.008.291,0,.646-.014,1.05-.032l.217-.008.708-.025.327-.011h.006q.5-.015.977-.017h.072c.283,0,.562,0,.83.011.223.007.432.022.641.038.064,0,.134.006.2.011a5.745,5.745,0,0,1,1.829.415,2.13,2.13,0,0,1,.618.384,3.965,3.965,0,0,1,.853,2.42,9.2,9.2,0,0,0,.164.908,28.439,28.439,0,0,1,.829,3.146,1.629,1.629,0,0,0,1.236,1.606,1.584,1.584,0,0,0,.31.04c1.254.01,2.52.048,3.78.1.474.019.954.034,1.418.059H42.9c.285.013.69.015,1.159.017a30.183,30.183,0,0,1,3.313.133A2.514,2.514,0,0,1,49.6,18.163a13.078,13.078,0,0,1,.031,2.594c.025,1.488.074,3.051.124,4.615l.07,2.192c.094,2.969.2,6.334.175,9.695a13.965,13.965,0,0,1-.262,4.56c-.76,1.816-2.937,1.7-4.52,1.618l-.052,0c-.262-.014-.505-.027-.726-.03-.143,0-.287,0-.43-.005-3.418-.051-6.856-.035-9.831-.012-.234,0-.467,0-.7,0q-2.148.012-4.294.017l-1.731,0c-.492,0-.985,0-1.477,0q-4.233,0-8.466-.013l-4.173-.009c-.623,0-1.245.008-1.868.016h-.678c-.954.022-1.927.022-2.9.022h-.48c-.122.01-.246.01-.369.012a5.369,5.369,0,0,1-1.871-.3c-1.271-.64-1.335-1.88-1.391-2.974l-.019-.328a201.618,201.618,0,0,1,.3-20.673,1.77,1.77,0,0,0-.386-1.316l-.006,0a.725.725,0,0,0-.212-.119.62.62,0,0,0-.282-.031c-.117,0-.205,0-.287,0-.282.008-.569.014-.85.047-.351.031-.827.189-1.014,1.2a23.248,23.248,0,0,0-.185,4.808c.037.913.056,1.679.033,2.482q-.039,1.26-.086,2.526C.651,32.373.516,36.117.727,39.8c.217,3.881,1.479,5.782,4.4,6.406a10.706,10.706,0,0,0,1.353.19c1.543.126,3.194.192,5.1.209" transform="translate(289 832)" fill="#1a1311"/>
    <path id="패스_1637" data-name="패스 1637" d="M1.25,15.546l.27-.013c1.472-.069,3.687-.126,5.83-.178l1.472-.039a1.566,1.566,0,0,1,1.558,1.463l.01.188c.042.61.087,1.424.132,2.289.09,1.626.187,3.389.29,4.429l.01.091a1.664,1.664,0,0,0,1.655,1.4h.008a2.493,2.493,0,0,0,.5,0,.953.953,0,0,0,.771-1.076c-.119-1.208-.219-3.076-.308-4.725-.055-1-.1-1.84-.145-2.372l.021-.254a1.468,1.468,0,0,1,.4-1.012,2.655,2.655,0,0,1,2.175-.52c.123,0,.285.01.445.01H18.71c1.346,0,2.8.01,3.672.021a1.461,1.461,0,0,0-.012-2.919c-.786-.009-1.774-.018-2.828-.021-1.782-.01-3.732-.01-4.977,0a1.571,1.571,0,0,1-1.578-1.53c-.091-2.614-.12-5.312-.086-8.016A1.46,1.46,0,0,0,9.982,2.8c-.034,2.655-.006,5.338.084,7.975A1.583,1.583,0,0,1,8.541,12.4l-1.946.049c-1.742.043-3.91.1-5.154.163A1.546,1.546,0,0,0,0,14.239,1.185,1.185,0,0,0,1.066,15.55a1.409,1.409,0,0,0,.184,0" transform="translate(289 832)" fill="#1a1311"/>
  </g>
</svg>
