<!-- <svg xmlns="http://www.w3.org/2000/svg" width="54" height="54" viewBox="0 0 54 54">
  <g id="CAMERA_54" data-name="CAMERA 54" transform="translate(0.001)">
    <rect id="사각형_665" data-name="사각형 665" width="54" height="54" fill="none"/>
    <g id="그룹_3563" data-name="그룹 3563" transform="translate(-0.001 4)">
      <path id="패스_1226" data-name="패스 1226" d="M518.274,1881.692h.459a10.788,10.788,0,0,0,10.682-10.831,11.215,11.215,0,0,0-11.129-10.9c-6.113,0-10.114,4.265-10.266,10.861v.018C508.127,1877.127,512.44,1881.692,518.274,1881.692Zm-.974-17.644a.506.506,0,0,1,.11,0l.446-.04c.112-.01.229-.007.34-.016a7.155,7.155,0,0,1,7.2,6.9,6.637,6.637,0,0,1-6.515,6.769c-.195.019-.391.028-.586.028a6.174,6.174,0,0,1-4.111-1.572,7.244,7.244,0,0,1-2.14-5.278C512.14,1866.775,513.956,1864.428,517.3,1864.048Z" transform="translate(-491.558 -1843.521)" fill="#ff9888"/>
      <rect id="사각형_666" data-name="사각형 666" transform="translate(19.903 7.367)" fill="#ff9888"/>
      <path id="패스_1227" data-name="패스 1227" d="M518.029,1849.75c.468.019.829.035,1.1.035.3,0,.668-.015,1.087-.033l.195-.007c2.521-.1,5.055-.14,5.927.7a3.555,3.555,0,0,1,.738,2.152,9.127,9.127,0,0,0,.174.991,28.7,28.7,0,0,1,.827,3.136,1.966,1.966,0,0,0,1.906,1.947c1.734.014,3.481.067,5.185.158.291.015.708.017,1.189.019a30.381,30.381,0,0,1,3.279.131,2.138,2.138,0,0,1,1.887,1.889,12.668,12.668,0,0,1,.031,2.519c.025,1.533.073,3.1.123,4.672l.069,2.18c.1,2.97.2,6.335.175,9.68a13.759,13.759,0,0,1-.253,4.481c-.632,1.5-2.573,1.408-4.134,1.326-.287-.016-.548-.03-.788-.034-3.427-.059-6.848-.044-10.274-.017q-2.495.015-4.988.019-5.839,0-11.677-.011l-4.173-.009c-.626,0-1.251.008-1.877.016l-.67,0c-.962.022-1.933.022-2.9.022h-.48a5.054,5.054,0,0,1-2.112-.267c-1.031-.522-1.087-1.6-1.141-2.639l-.019-.33a200.524,200.524,0,0,1,.3-20.628,2.124,2.124,0,0,0-.47-1.577,1.135,1.135,0,0,0-.81-.292c-.1,0-.194-.005-.288-.005a7.681,7.681,0,0,0-.876.049c-.719.064-1.166.572-1.339,1.509a23.523,23.523,0,0,0-.191,4.9c.028.795.058,1.605.032,2.447s-.055,1.68-.086,2.524c-.13,3.628-.265,7.38-.053,11.081.259,4.609,2.026,6.623,6.1,6.949,1.831.149,3.778.217,6.127.217,1.933,0,3.916-.051,5.782-.1l.577-.015c2.179-.053,4.422-.088,6.6-.088,1.507,0,3.012-.01,4.517-.019l2.258-.013c3.861-.023,7.853-.049,11.835.017,3.295.058,7.811.137,8.854-3.971.887-3.532.645-7.545.409-11.425-.072-1.194-.142-2.365-.177-3.489-.032-1.086-.005-2.3.02-3.364.071-3.158.151-6.739-.943-9.5-.032-.1-.063-.174-.105-.278l-.047-.115a1.592,1.592,0,0,0-.881-.889c-1.529-.977-3.782-1.087-5.592-1.174l-.2-.011c-.289-.014-.565-.029-.821-.047-1.19-.086-2.442-.15-3.829-.192a2.2,2.2,0,0,1-2.052-1.628c-.1-.366-.2-.739-.269-1.038a10.341,10.341,0,0,0-1.193-4.292,2.318,2.318,0,0,0-.472-.63c-1.815-1.658-5.588-1.524-8.342-1.425-1.235.048-2.093.047-3.336,0-2.782-.112-6.588-.264-8.4,1.435a2.394,2.394,0,0,0-.445.606,10.022,10.022,0,0,0-.917,2.468,1.05,1.05,0,0,0,.753,1.286.26.26,0,0,1,.038.012,1.21,1.21,0,0,0,.236.021c.342,0,.479,0,.6-.007s.255-.008.551-.009a1.2,1.2,0,0,1,.149,0,1.356,1.356,0,0,0,1.386-.7l.049-.109a1.683,1.683,0,0,1,.089-.188C512.327,1849.618,515.3,1849.641,518.029,1849.75Z" transform="translate(-491.935 -1843.652)" fill="#ff9888"/>
      <path id="패스_1228" data-name="패스 1228" d="M511.567,1850.78a1.683,1.683,0,0,0-.089.188l-.049.109a1.356,1.356,0,0,1-1.386.7,1.2,1.2,0,0,0-.149,0c-.3,0-.426,0-.551.009s-.263.011-.6.007a1.21,1.21,0,0,1-.236-.021.26.26,0,0,0-.038-.012,1.05,1.05,0,0,1-.753-1.286,10.022,10.022,0,0,1,.917-2.468,2.394,2.394,0,0,1,.445-.606c1.812-1.7,5.618-1.547,8.4-1.435,1.242.045,2.1.046,3.336,0,2.754-.1,6.527-.234,8.342,1.425a2.318,2.318,0,0,1,.472.63,10.341,10.341,0,0,1,1.193,4.292c.072.3.166.671.269,1.038a2.2,2.2,0,0,0,2.052,1.628c1.387.043,2.64.106,3.829.192.257.018.532.033.821.047l.2.011c1.81.088,4.063.2,5.592,1.174a1.592,1.592,0,0,1,.881.889l.047.115c.043.1.073.18.105.278,1.094,2.762,1.014,6.343.943,9.5-.025,1.068-.053,2.278-.02,3.364.034,1.123.1,2.294.177,3.489.236,3.88.479,7.893-.409,11.425-1.043,4.108-5.559,4.029-8.854,3.971-3.983-.066-7.974-.041-11.835-.017l-2.258.013c-1.505.009-3.01.019-4.517.019-2.182,0-4.425.036-6.6.088l-.577.015c-1.866.051-3.849.1-5.782.1-2.349,0-4.3-.068-6.127-.217-4.075-.326-5.843-2.339-6.1-6.949-.212-3.7-.077-7.453.053-11.081q.047-1.267.086-2.524c.025-.841,0-1.652-.032-2.447a23.523,23.523,0,0,1,.191-4.9c.172-.937.62-1.445,1.339-1.509a7.681,7.681,0,0,1,.876-.049c.094,0,.191,0,.288.005a1.135,1.135,0,0,1,.81.292,2.124,2.124,0,0,1,.47,1.577,200.524,200.524,0,0,0-.3,20.628l.019.33c.054,1.04.11,2.117,1.141,2.639a5.054,5.054,0,0,0,2.112.267h.48c.97,0,1.94,0,2.9-.022l.67,0c.626-.008,1.251-.016,1.877-.016l4.173.009q5.839.017,11.677.011,2.493,0,4.988-.019c3.427-.026,6.848-.042,10.274.017.24,0,.5.017.788.034,1.561.082,3.5.178,4.134-1.326a13.759,13.759,0,0,0,.253-4.481c.027-3.345-.08-6.71-.175-9.68l-.069-2.18c-.05-1.57-.1-3.139-.123-4.672a12.668,12.668,0,0,0-.031-2.519,2.138,2.138,0,0,0-1.887-1.889,30.381,30.381,0,0,0-3.279-.131c-.481,0-.9,0-1.189-.019-1.7-.091-3.451-.143-5.185-.158a1.966,1.966,0,0,1-1.906-1.947,28.7,28.7,0,0,0-.827-3.136,9.127,9.127,0,0,1-.174-.991,3.555,3.555,0,0,0-.738-2.152c-.872-.841-3.406-.806-5.927-.7l-.195.007c-.419.018-.79.033-1.087.033-.272,0-.633-.015-1.1-.035C515.3,1849.641,512.327,1849.618,511.567,1850.78Z" transform="translate(-491.935 -1843.652)" fill="#ff9888"/>
      <path id="패스_1229" data-name="패스 1229" d="M501.127,1858.355a1.187,1.187,0,0,1,1.184,1.112l.01.184c.042.615.086,1.426.132,2.289.089,1.609.186,3.382.291,4.446l.01.094a2.053,2.053,0,0,0,2.038,1.737,2.614,2.614,0,0,0,.54-.007,1.337,1.337,0,0,0,1.1-1.5c-.118-1.2-.219-3.088-.309-4.755-.052-.942-.1-1.786-.142-2.32l.02-.184a1.147,1.147,0,0,1,.3-.8,2.262,2.262,0,0,1,1.821-.406c.188.01.356.018.522.018.577,0,1.447,0,2.371,0,1.345,0,2.8.011,3.667.021a1.835,1.835,0,0,0,1.766-1.889,1.842,1.842,0,0,0-1.755-1.78c-.8-.009-1.789-.018-2.845-.021-1.783-.01-3.735-.011-4.981,0h-.005a1.2,1.2,0,0,1-1.195-1.166c-.091-2.6-.12-5.3-.086-8a1.835,1.835,0,0,0-3.669.036c-.034,2.65-.006,5.34.084,7.992a1.205,1.205,0,0,1-1.163,1.238l-1.754.044c-1.828.045-4.059.1-5.353.169a1.914,1.914,0,0,0-1.791,2.017,1.54,1.54,0,0,0,1.418,1.665,1.694,1.694,0,0,0,.235-.005l.018,0,.239-.012c1.522-.072,3.9-.131,5.819-.178l1.417-.035Z" transform="translate(-491.935 -1843.652)" fill="#ff9888"/>
    </g>
  </g>
</svg> -->

<svg xmlns="http://www.w3.org/2000/svg" width="54.001" height="54" viewBox="0 0 54.001 54">
  <g id="그룹_3564" data-name="그룹 3564" transform="translate(-53.999 -527)">
    <rect id="사각형_665" data-name="사각형 665" width="54" height="54" transform="translate(54 527)" fill="none"/>
    <g id="그룹_3563" data-name="그룹 3563" transform="translate(-437.936 -1312.652)">
      <path id="패스_1226" data-name="패스 1226" d="M518.274,1881.692h.459a10.788,10.788,0,0,0,10.682-10.831,11.215,11.215,0,0,0-11.129-10.9c-6.113,0-10.114,4.265-10.266,10.861v.018C508.127,1877.127,512.44,1881.692,518.274,1881.692Zm-.974-17.644a.506.506,0,0,1,.11,0l.446-.04c.112-.01.229-.007.34-.016a7.155,7.155,0,0,1,7.2,6.9,6.637,6.637,0,0,1-6.515,6.769c-.195.019-.391.028-.586.028a6.174,6.174,0,0,1-4.111-1.572,7.244,7.244,0,0,1-2.14-5.278C512.14,1866.775,513.956,1864.428,517.3,1864.048Z" transform="translate(0.376 0.131)" fill="#ff9888"/>
      <rect id="사각형_666" data-name="사각형 666" transform="translate(511.837 1851.019)" fill="#ff9888"/>
      <path id="패스_1227" data-name="패스 1227" d="M518.029,1849.75c.468.019.829.035,1.1.035.3,0,.668-.015,1.087-.033l.195-.007c2.521-.1,5.055-.14,5.927.7a3.555,3.555,0,0,1,.738,2.152,9.127,9.127,0,0,0,.174.991,28.7,28.7,0,0,1,.827,3.136,1.966,1.966,0,0,0,1.906,1.947c1.734.014,3.481.067,5.185.158.291.015.708.017,1.189.019a30.381,30.381,0,0,1,3.279.131,2.138,2.138,0,0,1,1.887,1.889,12.668,12.668,0,0,1,.031,2.519c.025,1.533.073,3.1.123,4.672l.069,2.18c.1,2.97.2,6.335.175,9.68a13.759,13.759,0,0,1-.253,4.481c-.632,1.5-2.573,1.408-4.134,1.326-.287-.016-.548-.03-.788-.034-3.427-.059-6.848-.044-10.274-.017q-2.495.015-4.988.019-5.839,0-11.677-.011l-4.173-.009c-.626,0-1.251.008-1.877.016l-.67,0c-.962.022-1.933.022-2.9.022h-.48a5.054,5.054,0,0,1-2.112-.267c-1.031-.522-1.087-1.6-1.141-2.639l-.019-.33a200.524,200.524,0,0,1,.3-20.628,2.124,2.124,0,0,0-.47-1.577,1.135,1.135,0,0,0-.81-.292c-.1,0-.194-.005-.288-.005a7.681,7.681,0,0,0-.876.049c-.719.064-1.166.572-1.339,1.509a23.523,23.523,0,0,0-.191,4.9c.028.795.058,1.605.032,2.447s-.055,1.68-.086,2.524c-.13,3.628-.265,7.38-.053,11.081.259,4.609,2.026,6.623,6.1,6.949,1.831.149,3.778.217,6.127.217,1.933,0,3.916-.051,5.782-.1l.577-.015c2.179-.053,4.422-.088,6.6-.088,1.507,0,3.012-.01,4.517-.019l2.258-.013c3.861-.023,7.853-.049,11.835.017,3.295.058,7.811.137,8.854-3.971.887-3.532.645-7.545.409-11.425-.072-1.194-.142-2.365-.177-3.489-.032-1.086-.005-2.3.02-3.364.071-3.158.151-6.739-.943-9.5-.032-.1-.063-.174-.105-.278l-.047-.115a1.592,1.592,0,0,0-.881-.889c-1.529-.977-3.782-1.087-5.592-1.174l-.2-.011c-.289-.014-.565-.029-.821-.047-1.19-.086-2.442-.15-3.829-.192a2.2,2.2,0,0,1-2.052-1.628c-.1-.366-.2-.739-.269-1.038a10.341,10.341,0,0,0-1.193-4.292,2.318,2.318,0,0,0-.472-.63c-1.815-1.658-5.588-1.524-8.342-1.425-1.235.048-2.093.047-3.336,0-2.782-.112-6.588-.264-8.4,1.435a2.394,2.394,0,0,0-.445.606,10.022,10.022,0,0,0-.917,2.468,1.05,1.05,0,0,0,.753,1.286.26.26,0,0,1,.038.012,1.21,1.21,0,0,0,.236.021c.342,0,.479,0,.6-.007s.255-.008.551-.009a1.2,1.2,0,0,1,.149,0,1.356,1.356,0,0,0,1.386-.7l.049-.109a1.683,1.683,0,0,1,.089-.188C512.327,1849.618,515.3,1849.641,518.029,1849.75Z" fill="#ff9888"/>
      <path id="패스_1228" data-name="패스 1228" d="M511.567,1850.78a1.683,1.683,0,0,0-.089.188l-.049.109a1.356,1.356,0,0,1-1.386.7,1.2,1.2,0,0,0-.149,0c-.3,0-.426,0-.551.009s-.263.011-.6.007a1.21,1.21,0,0,1-.236-.021.26.26,0,0,0-.038-.012,1.05,1.05,0,0,1-.753-1.286,10.022,10.022,0,0,1,.917-2.468,2.394,2.394,0,0,1,.445-.606c1.812-1.7,5.618-1.547,8.4-1.435,1.242.045,2.1.046,3.336,0,2.754-.1,6.527-.234,8.342,1.425a2.318,2.318,0,0,1,.472.63,10.341,10.341,0,0,1,1.193,4.292c.072.3.166.671.269,1.038a2.2,2.2,0,0,0,2.052,1.628c1.387.043,2.64.106,3.829.192.257.018.532.033.821.047l.2.011c1.81.088,4.063.2,5.592,1.174a1.592,1.592,0,0,1,.881.889l.047.115c.043.1.073.18.105.278,1.094,2.762,1.014,6.343.943,9.5-.025,1.068-.053,2.278-.02,3.364.034,1.123.1,2.294.177,3.489.236,3.88.479,7.893-.409,11.425-1.043,4.108-5.559,4.029-8.854,3.971-3.983-.066-7.974-.041-11.835-.017l-2.258.013c-1.505.009-3.01.019-4.517.019-2.182,0-4.425.036-6.6.088l-.577.015c-1.866.051-3.849.1-5.782.1-2.349,0-4.3-.068-6.127-.217-4.075-.326-5.843-2.339-6.1-6.949-.212-3.7-.077-7.453.053-11.081q.047-1.267.086-2.524c.025-.841,0-1.652-.032-2.447a23.523,23.523,0,0,1,.191-4.9c.172-.937.62-1.445,1.339-1.509a7.681,7.681,0,0,1,.876-.049c.094,0,.191,0,.288.005a1.135,1.135,0,0,1,.81.292,2.124,2.124,0,0,1,.47,1.577,200.524,200.524,0,0,0-.3,20.628l.019.33c.054,1.04.11,2.117,1.141,2.639a5.054,5.054,0,0,0,2.112.267h.48c.97,0,1.94,0,2.9-.022l.67,0c.626-.008,1.251-.016,1.877-.016l4.173.009q5.839.017,11.677.011,2.493,0,4.988-.019c3.427-.026,6.848-.042,10.274.017.24,0,.5.017.788.034,1.561.082,3.5.178,4.134-1.326a13.759,13.759,0,0,0,.253-4.481c.027-3.345-.08-6.71-.175-9.68l-.069-2.18c-.05-1.57-.1-3.139-.123-4.672a12.668,12.668,0,0,0-.031-2.519,2.138,2.138,0,0,0-1.887-1.889,30.381,30.381,0,0,0-3.279-.131c-.481,0-.9,0-1.189-.019-1.7-.091-3.451-.143-5.185-.158a1.966,1.966,0,0,1-1.906-1.947,28.7,28.7,0,0,0-.827-3.136,9.127,9.127,0,0,1-.174-.991,3.555,3.555,0,0,0-.738-2.152c-.872-.841-3.406-.806-5.927-.7l-.195.007c-.419.018-.79.033-1.087.033-.272,0-.633-.015-1.1-.035C515.3,1849.641,512.327,1849.618,511.567,1850.78Z" fill="#ff9888"/>
      <path id="패스_1229" data-name="패스 1229" d="M501.127,1858.355a1.187,1.187,0,0,1,1.184,1.112l.01.184c.042.615.086,1.426.132,2.289.089,1.609.186,3.382.291,4.446l.01.094a2.053,2.053,0,0,0,2.038,1.737,2.614,2.614,0,0,0,.54-.007,1.337,1.337,0,0,0,1.1-1.5c-.118-1.2-.219-3.088-.309-4.755-.052-.942-.1-1.786-.142-2.32l.02-.184a1.147,1.147,0,0,1,.3-.8,2.262,2.262,0,0,1,1.821-.406c.188.01.356.018.522.018.577,0,1.447,0,2.371,0,1.345,0,2.8.011,3.667.021a1.835,1.835,0,0,0,1.766-1.889,1.842,1.842,0,0,0-1.755-1.78c-.8-.009-1.789-.018-2.845-.021-1.783-.01-3.735-.011-4.981,0h-.005a1.2,1.2,0,0,1-1.195-1.166c-.091-2.6-.12-5.3-.086-8a1.835,1.835,0,0,0-3.669.036c-.034,2.65-.006,5.34.084,7.992a1.205,1.205,0,0,1-1.163,1.238l-1.754.044c-1.828.045-4.059.1-5.353.169a1.914,1.914,0,0,0-1.791,2.017,1.54,1.54,0,0,0,1.418,1.665,1.694,1.694,0,0,0,.235-.005l.018,0,.239-.012c1.522-.072,3.9-.131,5.819-.178l1.417-.035Z" fill="#ff9888"/>
    </g>
  </g>
</svg>
