<svg xmlns="http://www.w3.org/2000/svg" width="62" height="62" viewBox="0 0 62 62">
  <g id="CANCEL_62" data-name="CANCEL 62" transform="translate(-151 -2776)">
    <rect id="사각형_971" data-name="사각형 971" width="62" height="62" transform="translate(151 2776)" fill="none"/>
    <path id="CANCEL_62-2" data-name="CANCEL 62" d="M4704.041,604.654a33.032,33.032,0,0,0,22.013,16.836,30.685,30.685,0,0,0,25.838-5.4c.061-.045.113-.091.168-.14s.126-.092.193-.145c9.4-7.65,13.325-18.693,10.5-29.547a36.529,36.529,0,0,0-19.1-23.093c-9.792-4.709-20.136-3.5-27.68,3.233C4705.59,575.667,4697.419,591.592,4704.041,604.654Zm20.86-23.6c2.617,2.509,5.226,5.116,7.75,7.752l.432.449.5-.452c2.543-2.273,5.149-4.536,7.75-6.721a2.172,2.172,0,0,1,2.961.029l.058.055.027.03.036.028.017.016a1.605,1.605,0,0,1,.088,2.234,1.91,1.91,0,0,1-.292.28l-.027.023c-2.642,2.217-5.287,4.514-7.868,6.822l-.559.5.473.509c2.5,2.713,4.984,5.526,7.378,8.352a2.268,2.268,0,0,1-.421,3.151c-.017.02-.036.041-.055.061a1.636,1.636,0,0,1-2.347.031c-.039-.038-.075-.079-.113-.122-2.474-2.922-5.044-5.827-7.637-8.632l-.437-.473-.515.476c-2.667,2.471-5.336,5.03-7.934,7.591a2.142,2.142,0,0,1-1.483.607,1.805,1.805,0,0,1-1.381-.61,2.094,2.094,0,0,1,.088-2.769c2.612-2.579,5.289-5.143,7.97-7.627l.559-.512-.484-.5c-2.446-2.552-4.989-5.1-7.519-7.518a1.932,1.932,0,0,1-.468-1.47,2.289,2.289,0,0,1,.716-1.469A1.992,1.992,0,0,1,4724.9,581.052Z" transform="translate(-4550.652 2215.669)" fill="#fff" opacity="0.7"/>
  </g>
</svg>
