<svg xmlns="http://www.w3.org/2000/svg" width="38.115" height="38.216" viewBox="0 0 38.115 38.216">
  <path id="패스_1200" data-name="패스 1200" d="M4703.04,586.067a19.179,19.179,0,0,0,12.781,9.776,17.816,17.816,0,0,0,15-3.135c.035-.026.066-.053.1-.081s.074-.054.112-.084c5.456-4.442,7.737-10.854,6.1-17.156a21.214,21.214,0,0,0-11.09-13.409c-5.686-2.734-11.692-2.033-16.072,1.877C4703.938,569.236,4699.194,578.482,4703.04,586.067Zm12.112-13.7c1.52,1.457,3.034,2.971,4.5,4.5l.25.261.292-.262c1.477-1.32,2.99-2.634,4.5-3.9a1.261,1.261,0,0,1,1.72.017l.033.032.016.018.021.016.01.009a.931.931,0,0,1,.051,1.3,1.066,1.066,0,0,1-.169.163l-.016.013c-1.533,1.288-3.069,2.621-4.568,3.961l-.324.291.275.3c1.45,1.575,2.894,3.209,4.284,4.849a1.317,1.317,0,0,1-.244,1.83l-.032.036a.95.95,0,0,1-1.363.018c-.023-.022-.044-.046-.066-.071-1.436-1.7-2.929-3.384-4.434-5.012l-.254-.275-.3.276c-1.548,1.435-3.1,2.921-4.606,4.408a1.246,1.246,0,0,1-.861.353,1.048,1.048,0,0,1-.8-.354,1.216,1.216,0,0,1,.051-1.608c1.517-1.5,3.071-2.987,4.628-4.429l.324-.3-.281-.29c-1.42-1.482-2.9-2.959-4.365-4.365a1.122,1.122,0,0,1-.272-.854,1.328,1.328,0,0,1,.415-.853A1.157,1.157,0,0,1,4715.151,572.362Z" transform="translate(-4700.628 -559.167)" fill="#fff" stroke="#767676" stroke-width="2" opacity="0.7"/>
</svg>
