<svg xmlns="http://www.w3.org/2000/svg" width="40" height="40" viewBox="0 0 40 40">
  <g id="CAT_38" data-name="CAT 38" transform="translate(-395 -383)">
    <g id="그룹_3654" data-name="그룹 3654" transform="translate(396 384)">
      <rect id="사각형_152" data-name="사각형 152" width="38" height="38" rx="19" transform="translate(0)" fill="#ff9888" stroke="#fff" stroke-width="2"/>
    </g>
    <g id="그룹_594" data-name="그룹 594" transform="translate(403.355 390.129)">
      <path id="패스_271" data-name="패스 271" d="M211.157,160.861V151.2a2.283,2.283,0,0,0-1.374-2.085,2.469,2.469,0,0,0-2.553.3l-5.642,4.413h-3.482l-5.642-4.413a2.471,2.471,0,0,0-2.553-.3,2.284,2.284,0,0,0-1.374,2.085v9.6a9.056,9.056,0,0,0-.344,2.471v1.921a9.661,9.661,0,0,0,9.846,9.442h3.6a9.661,9.661,0,0,0,9.846-9.442v-1.921A9.063,9.063,0,0,0,211.157,160.861Zm-2.754-8.955v4.515a9.936,9.936,0,0,0-3.254-1.969Zm-17.112,0,3.249,2.542a9.932,9.932,0,0,0-3.249,1.958Zm17.438,13.287a6.959,6.959,0,0,1-7.092,6.8h-3.6a6.959,6.959,0,0,1-7.092-6.8v-1.921a6.959,6.959,0,0,1,7.092-6.8h3.6a6.959,6.959,0,0,1,7.092,6.8Z" transform="translate(-188.193 -148.893)" fill="#fff"/>
      <path id="패스_272" data-name="패스 272" d="M220.016,199.725l-2.056-1.872c-.016-.014-.035-.024-.051-.038a1.2,1.2,0,0,0-.1-.075,1.139,1.139,0,0,0-.1-.059,1.172,1.172,0,0,0-.107-.05c-.037-.015-.074-.028-.113-.039s-.071-.019-.107-.026a1.117,1.117,0,0,0-.121-.017,1.082,1.082,0,0,0-.108-.005c-.04,0-.08,0-.12.006s-.073.009-.109.016a1.079,1.079,0,0,0-.116.028c-.036.011-.071.023-.105.037a1.162,1.162,0,0,0-.111.052c-.033.018-.065.036-.1.057a1.149,1.149,0,0,0-.1.076c-.016.014-.035.023-.051.038l-2.056,1.872A1.2,1.2,0,1,0,215.9,201.5l1.246-1.135L218.4,201.5a1.2,1.2,0,0,0,1.619-1.778Z" transform="translate(-205.127 -182.027)" fill="#fff"/>
    </g>
  </g>
</svg>
