<svg xmlns="http://www.w3.org/2000/svg" width="62" height="62" viewBox="0 0 62 62">
  <g id="CAT_62" data-name="CAT 62" transform="translate(-396 -384)">
    <g id="그룹_3654" data-name="그룹 3654" transform="translate(68.54 -1450.718)">
      <rect id="사각형_152" data-name="사각형 152" width="62" height="62" rx="20" transform="translate(327.46 1834.718)" fill="#ff9888"/>
    </g>
    <g id="그룹_594" data-name="그룹 594" transform="translate(410 394)">
      <path id="패스_271" data-name="패스 271" d="M225.661,168.42V152.664a3.725,3.725,0,0,0-2.242-3.4,4.028,4.028,0,0,0-4.166.484l-9.2,7.2h-5.68l-9.2-7.2a4.032,4.032,0,0,0-4.166-.484,3.726,3.726,0,0,0-2.242,3.4v15.658a14.775,14.775,0,0,0-.562,4.031v3.135c0,8.5,7.206,15.406,16.065,15.406h5.871c8.858,0,16.064-6.911,16.064-15.406v-3.135A14.787,14.787,0,0,0,225.661,168.42Zm-4.493-14.61v7.367a16.212,16.212,0,0,0-5.31-3.213Zm-27.92,0,5.3,4.147a16.2,16.2,0,0,0-5.3,3.194ZM221.7,175.487a11.354,11.354,0,0,1-11.571,11.1h-5.871a11.354,11.354,0,0,1-11.571-11.1v-3.135a11.354,11.354,0,0,1,11.571-11.1h5.871a11.354,11.354,0,0,1,11.571,11.1Z" transform="translate(-190.193 -148.893)" fill="#fff"/>
      <path id="패스_272" data-name="패스 272" d="M223.884,201.1l-3.355-3.055c-.027-.023-.057-.04-.084-.062a1.951,1.951,0,0,0-.165-.122,1.859,1.859,0,0,0-.162-.1,1.911,1.911,0,0,0-.174-.082c-.06-.024-.121-.045-.184-.063s-.115-.031-.174-.043a1.826,1.826,0,0,0-.2-.028,1.76,1.76,0,0,0-.177-.009c-.066,0-.131,0-.2.009s-.119.014-.178.026a1.754,1.754,0,0,0-.19.046c-.058.018-.115.037-.172.06a1.9,1.9,0,0,0-.181.084c-.054.029-.107.06-.158.094a1.877,1.877,0,0,0-.166.124c-.027.022-.057.038-.083.061l-3.354,3.055a1.961,1.961,0,1,0,2.641,2.9l2.034-1.852L221.242,204a1.962,1.962,0,0,0,2.642-2.9Z" transform="translate(-201.59 -172.228)" fill="#fff"/>
    </g>
  </g>
</svg>
