<svg xmlns="http://www.w3.org/2000/svg" width="50" height="50" viewBox="0 0 50 50">
  <g id="그룹_4870" data-name="그룹 4870" transform="translate(-48 -636)">
    <rect id="사각형_28" data-name="사각형 28" width="50" height="50" transform="translate(48 636)" fill="none"/>
    <g id="그룹_3453" data-name="그룹 3453" transform="translate(2 2)">
      <path id="패스_1524" data-name="패스 1524" d="M20,0h6A20,20,0,0,1,46,20v6A20,20,0,0,1,26,46H20A20,20,0,0,1,0,26V20A20,20,0,0,1,20,0Z" transform="translate(48 636)" fill="#ff634a"/>
      <path id="Icon_-_White_Checked" data-name="Icon - White Checked" d="M4386.688,597c2.808,2.72,5.452,5.3,7.935,7.7a2.715,2.715,0,0,0,3.77,0c5.09-5.344,9.194-9.609,13.846-14.611,3.407-3.892-1.529-6.418-3.77-3.789-4.814,5.313-7.456,7.929-12.136,12.665h0c-2.482-2.4-2.907-2.766-5.873-5.757C4387.746,590.824,4384.1,594.222,4386.688,597Z" transform="translate(-4328.603 63.659)" fill="#fff"/>
    </g>
  </g>
</svg>
