<svg xmlns="http://www.w3.org/2000/svg" width="64" height="64" viewBox="0 0 64 64">
  <g id="그룹_4870" data-name="그룹 4870" transform="translate(-18 -631)">
    <g id="그룹_3453" data-name="그룹 3453" transform="translate(49.68 637.68)">
      <circle id="타원_110" data-name="타원 110" cx="32" cy="32" r="32" transform="translate(-31.68 -6.68)" fill="#ff9888"/>
      <path id="Icon_-_White_Checked" data-name="Icon - White Checked" d="M4386.546,595.114c2.358,2.284,4.58,4.456,6.666,6.47a2.281,2.281,0,0,0,3.167,0c4.276-4.489,7.723-8.072,11.63-12.273,2.862-3.269-1.284-5.391-3.167-3.183-4.044,4.463-6.264,6.66-10.194,10.638h0c-2.084-2.014-2.442-2.323-4.934-4.836A2.247,2.247,0,1,0,4386.546,595.114Z" transform="translate(-4397.074 -568.402)" fill="#fff"/>
    </g>
  </g>
</svg>
