<svg xmlns="http://www.w3.org/2000/svg" xmlns:xlink="http://www.w3.org/1999/xlink" width="36" height="36" viewBox="0 0 36 36">
  <defs>
    <clipPath id="clip-path">
      <rect id="사각형_1754" data-name="사각형 1754" width="24" height="16" fill="none"/>
    </clipPath>
  </defs>
  <g id="그룹_7162" data-name="그룹 7162" transform="translate(-53 -572)">
    <rect id="사각형_1747" data-name="사각형 1747" width="36" height="36" transform="translate(53 572)" fill="none"/>
    <g id="그룹_7257" data-name="그룹 7257" transform="translate(52 577.602)">
      <g id="그룹_7256" data-name="그룹 7256" transform="translate(7 4.398)" clip-path="url(#clip-path)">
        <path id="패스_1955" data-name="패스 1955" d="M23.209,0A1.2,1.2,0,0,0,22.3.419L22.258.46c-4.309,4.559-6.851,7.023-10.7,10.753l-2.8,2.714L6.02,11.39C4.627,10.106,3.859,9.4,1.533,7.15a.915.915,0,0,0-.654-.272.906.906,0,0,0-.6.226A.789.789,0,0,0,.241,8.27l.087.079c1.259,1.169,2.458,2.287,3.625,3.375l.119.111q2.189,2.042,4.233,3.938a.912.912,0,0,0,1.185.017L12.862,12.4c3.685-3.7,6.867-6.9,10.432-10.575.625-.692.788-1.244.671-1.484A.859.859,0,0,0,23.209,0" transform="translate(0 0)" fill="#1a1311"/>
      </g>
    </g>
  </g>
</svg>
