<svg xmlns="http://www.w3.org/2000/svg" width="48" height="48" viewBox="0 0 48 48">
  <g id="CHECK_48" data-name="CHECK 48" transform="translate(-526.669 -1866.469)">
    <g id="그룹_4223" data-name="그룹 4223">
      <rect id="사각형_152" data-name="사각형 152" width="48" height="48" rx="20" transform="translate(526.669 1866.469)" fill="#ff9888"/>
    </g>
    <path id="Icon_-_White_Checked" data-name="Icon - White Checked" d="M535.692,1893.435c3.255,3.225,6.321,6.29,9.2,9.133a3.1,3.1,0,0,0,4.371,0c5.9-6.337,10.66-11.394,16.053-17.325,3.95-4.615-1.772-7.611-4.371-4.493-5.582,6.3-8.645,9.4-14.07,15.018h0c-2.877-2.843-3.371-3.28-6.81-6.827a3.137,3.137,0,1,0-4.515,4.356Q535.62,1893.367,535.692,1893.435Z" transform="translate(0 -1)" fill="#fff"/>
  </g>
</svg>
