<svg xmlns="http://www.w3.org/2000/svg" width="72" height="72" viewBox="0 0 72 72">
  <g id="CLIP_72" data-name="CLIP 72" transform="translate(-159 -3750.5)">
    <circle id="타원_84" data-name="타원 84" cx="36" cy="36" r="36" transform="translate(159 3750.5)" fill="#ff9888"/>
    <g id="그룹_3574" data-name="그룹 3574" transform="translate(-946.424 1786.773)">
      <g id="Icon_-_Attacth" data-name="Icon - Attacth" transform="translate(1129.424 1975.727)">
        <path id="Icon_-_Attacth-2" data-name="Icon - Attacth-2" d="M1150.152,1992.1a157.535,157.535,0,0,1-.523,16.024c-.49,4.6-.769,8.666-5.215,11.292a8.4,8.4,0,0,1-7.858.3c-2.427-1.245-3.163-3.793-3.473-6.284a102.405,102.405,0,0,1,.6-25.528c.479-3.646,1.287-11.159,6.971-8.409,3.66,1.771,3.227,6.326,3.294,9.728.086,4.165.2,8.415.093,12.575a11.039,11.039,0,0,1-1.028,5.034,3.2,3.2,0,0,1-1.361,1.534c-2.45.921-2.332-1.6-2.387-2.76-.12-2.563.017-5.169.027-7.735a1.637,1.637,0,0,0-3.269,0c-.014,3.952-1.8,14.607,5.174,13.9,7.1-.714,6.023-10.631,6.006-15.327a84.053,84.053,0,0,0-.452-13.544c-.768-4.649-5.614-8.368-10.531-6.818-5.063,1.594-5.378,8.249-5.891,12.518a133.176,133.176,0,0,0-.877,18.3c.087,5-.182,11.578,4.376,14.887,4.744,3.45,11.1,1.957,15.1-1.8,4.039-3.8,3.957-10.12,4.211-15.267.208-4.2.267-8.419.286-12.627a1.636,1.636,0,0,0-3.272,0Z" transform="translate(-1129.424 -1975.727)" fill="#fff"/>
      </g>
    </g>
  </g>
</svg>
