<svg xmlns="http://www.w3.org/2000/svg" width="54" height="47.997" viewBox="0 0 54 47.997">
  <g id="COMMUNITY_TAB_FILLED" data-name="COMMUNITY TAB FILLED" transform="translate(-4043.445 -1928.147)">
    <path id="패스_1409" data-name="패스 1409" d="M4094.529,1968.661l-.144-.078a7.136,7.136,0,0,1-.827-.575,16.863,16.863,0,0,0,.716-16.191,15.775,15.775,0,0,0-7.055-7.373c-.161-4.622-1.587-8.5-4.022-10.762-6.236-5.787-11.327-5.652-17.766-5.479-1.2.032-2.481.067-3.858.067-1.071,0-10.592.264-14.957,9.387a16.871,16.871,0,0,0,.717,16.19,7.165,7.165,0,0,1-.827.576l-.144.078c-1.033.555-3.182,1.709-2.89,3.785.3,2.107,2.8,2.657,3.736,2.864a42.261,42.261,0,0,0,6.555.659c.322,3.381,1.364,7.181,3.545,9.347,3.332,3.3,8.624,4.981,15.73,4.981h1.512c.875,0,1.874.007,2.95.007,5.425,0,12.822-.1,16.181-.837.941-.207,3.44-.758,3.736-2.864C4097.711,1970.361,4095.562,1969.211,4094.529,1968.661Zm-40.828-10.9c-1.8-.086-3.263-.2-4.358-.347.291-.209.584-.439.9-.685l.356-.277a3.156,3.156,0,0,0,1.242-2.127,2.728,2.728,0,0,0-.643-2.077v.005a12.74,12.74,0,0,1,10.375-19.935c1.417,0,2.73-.035,3.968-.068,6.358-.17,9.855-.265,14.87,4.39a10.271,10.271,0,0,1,2.618,6.256,16.934,16.934,0,0,0-3.711-.463c-1.375,0-2.653-.034-3.857-.067-6.447-.173-11.53-.308-17.767,5.479C4055.41,1949.964,4053.994,1953.508,4053.7,1957.759Zm27.85,6.992a7.014,7.014,0,0,1-4.277,2.006,13.2,13.2,0,0,1-6.27-.463,6.551,6.551,0,0,1-4.056-3.92,9.727,9.727,0,0,1,.065-5.507c.226-.917.519-1.815.826-2.706.341-.993,1.362-2.5,2.241-2.72,1.149-.289,1.5.292,2.232,1.147a17.811,17.811,0,0,1,1.017,1.479c.334.484.449,1,.849,1q.728,0,1.455-.051c.608.051,1.8-3.606,3.3-3.658,1.411-.049,2.727,2.117,3.251,3.725C4083.2,1958.2,4083.944,1962.034,4081.551,1964.751Z" fill="#ff9888"/>
  </g>
</svg>
