<svg xmlns="http://www.w3.org/2000/svg" width="48" height="48" viewBox="0 0 48 48">
  <g id="COMMENT_48_BORDER" data-name="COMMENT 48 BORDER" transform="translate(-602 -1175)">
    <rect id="사각형_643" data-name="사각형 643" width="48" height="48" transform="translate(602 1175)" fill="none"/>
    <path id="패스_1179" data-name="패스 1179" d="M1114.74,1787.717c-6.72-7.624-17.471-7.778-23.282-7.191-8.466.855-18.185,4.851-20.074,13.507-1.953,8.948,4.987,16.451,13.1,18.9.4,2.846,1.219,6.984,4.993,7.36a3.8,3.8,0,0,0,.39.02c2.932,0,4.938-3.324,6.315-5.771a36.879,36.879,0,0,0,8.392-1.12,22.169,22.169,0,0,0,8.889-3.657,13.993,13.993,0,0,0,5.531-9.882A16.37,16.37,0,0,0,1114.74,1787.717Zm-23.008,22.33c-.363.566-.791,1.22-1.214,1.857-.048-.276-.1-.556-.144-.842-.072-.42-.142-.839-.22-1.256l-.023-.106a3,3,0,0,0-2.158-2.153l-.146-.03a13.97,13.97,0,0,1-9.169-5.592,7.861,7.861,0,0,1,.521-9.818c3.746-4.125,9.933-5.881,15.891-5.881a28.9,28.9,0,0,1,7.508.969c4.64,1.267,9.049,5.239,10.257,9.24a7.236,7.236,0,0,1-1.7,7.225h0c-1.976,2.255-4.623,3.044-7.438,3.727a29.824,29.824,0,0,1-9.146,1.052A2.756,2.756,0,0,0,1091.732,1810.047Z" transform="translate(-469.051 -601.316)" fill="#999"/>
  </g>
</svg>
