<svg xmlns="http://www.w3.org/2000/svg" width="48" height="48" viewBox="0 0 48 48">
  <g id="그룹_6318" data-name="그룹 6318" transform="translate(-164 -1654)">
    <path id="패스_1599" data-name="패스 1599" d="M106.7,36l-.136-.075a7.2,7.2,0,0,1-.834-.581l-.345-.268.237-.366a15.488,15.488,0,0,0,.638-14.764,14.339,14.339,0,0,0-6.375-6.717,15.79,15.79,0,0,0-3.793-1.415,15.18,15.18,0,0,0-3.357-.424c-1.288,0-2.485-.033-3.612-.063-5.9-.161-10.561-.285-16.24,5.024-2.034,1.905-3.3,5.1-3.575,9.011l.058,3.751c.355,3.73,1.51,6.819,3.17,8.479,3.016,3.016,7.841,4.545,14.341,4.545l1.412,0c.816,0,1.748.007,2.751.007,4.939,0,11.867-.081,14.994-.777,1.345-.3,2.914-.829,3.118-2.295.228-1.624-1.515-2.568-2.452-3.075m-2.489,2.79a126.7,126.7,0,0,1-13.352.5c-.991,0-1.866,0-2.559-.006l-1.425,0c-3.927,0-9.255-.643-12.321-3.709-1.112-1.111-1.975-3.451-2.307-6.258a26.418,26.418,0,0,1-.07-3.9c.241-3.12,1.184-5.6,2.656-6.977,4.817-4.506,8.146-4.417,14.193-4.256l.1,0c1.126.03,2.321.061,3.605.061a13.074,13.074,0,0,1,3.663.617,18.158,18.158,0,0,1,3.754,1.9l0,0a11.767,11.767,0,0,1,3.526,4.406,12.416,12.416,0,0,1-.9,12.6,2.116,2.116,0,0,0-.492,1.592,2.5,2.5,0,0,0,.977,1.674l.336.263c.324.254.577.452.826.633l.967.7Z" transform="translate(98.758 1651.289)" fill="#767676"/>
    <g id="그룹_6317" data-name="그룹 6317" transform="translate(-298 479)">
      <rect id="사각형_641" data-name="사각형 641" width="48" height="48" transform="translate(462 1175)" fill="none"/>
    </g>
  </g>
</svg>
