<svg xmlns="http://www.w3.org/2000/svg" width="54" height="54" viewBox="0 0 54 54">
  <g id="그룹_7060" data-name="그룹 7060" transform="translate(-598 -577)">
    <g id="그룹_6955" data-name="그룹 6955" transform="translate(-1.105 -152.46)">
      <path id="패스_1909" data-name="패스 1909" d="M560.978,40.685l-.029-.014-.139-.076a7.448,7.448,0,0,1-.838-.582l-.165-.134.11-.18a16.017,16.017,0,0,0,.683-15.449,15.1,15.1,0,0,0-6.727-7.031l-.126-.067,0-.142c-.156-4.469-1.511-8.111-3.818-10.253-4.772-4.429-8.766-5.3-14.053-5.3-.964,0-1.942.027-2.979.054-1.123.03-2.391.064-3.746.064-1.021,0-10.1.252-14.267,8.955a16.03,16.03,0,0,0,.683,15.451l.11.18-.164.133a7.332,7.332,0,0,1-.829.578l-.148.08c-.953.512-2.934,1.576-2.674,3.419.267,1.873,2.562,2.38,3.426,2.571a40.825,40.825,0,0,0,6.305.633l.215.006.02.214c.371,3.905,1.6,7.15,3.364,8.9,3.185,3.154,8.253,4.753,15.064,4.753l2.746,0c.5,0,1.027,0,1.576,0,8.044,0,13.153-.262,15.618-.8.868-.191,3.168-.7,3.431-2.571.259-1.838-1.683-2.89-2.644-3.4m-39.214-10.77-.016.237-.237-.012c-1.767-.084-3.193-.2-4.242-.337l-.6-.082.5-.355c.247-.177.5-.371.759-.576l.45-.35a2.835,2.835,0,0,0,1.111-1.9,2.407,2.407,0,0,0-.29-1.426L518.9,24.7A12.58,12.58,0,0,1,529.144,5.013c1.43,0,2.822-.038,3.839-.065,6.219-.169,9.643-.26,14.573,4.316a10.249,10.249,0,0,1,2.613,6.221l.019.326-.316-.074a16.2,16.2,0,0,0-3.542-.443c-1.3,0-2.5-.031-3.659-.062l-.08,0c-6.186-.169-11.067-.3-17.036,5.241-2.162,2.008-3.509,5.362-3.79,9.443m36.442,13.6a122.75,122.75,0,0,1-13.754.515c-.877,0-1.669,0-2.334-.006l-1.872,0c-4.031,0-9.492-.65-12.613-3.75-1.1-1.092-1.99-3.507-2.323-6.3a27.3,27.3,0,0,1-.073-3.963c.242-3.11,1.219-5.672,2.68-7.032,4.924-4.571,8.341-4.477,14.545-4.317l.116,0c1.184.031,2.41.063,3.75.063a13.452,13.452,0,0,1,3.728.624,18.9,18.9,0,0,1,3.812,1.909l.039.03a11.926,11.926,0,0,1,3.562,4.431,12.416,12.416,0,0,1-.892,12.7A2.446,2.446,0,0,0,556,40.257a2.822,2.822,0,0,0,1.106,1.891l.48.374c.256.2.5.386.735.557l.49.358Z" transform="translate(88.367 732)" />
      <path id="패스_1910" data-name="패스 1910" d="M550.146,27.969H550.1c-.81.028-1.581,1.333-2.143,2.287-.5.843-.786,1.279-1.068,1.257-.461.031-.938.048-1.4.049-.346,0-.511-.3-.686-.622a4.441,4.441,0,0,0-.237-.4,17.062,17.062,0,0,0-.981-1.427l-.172-.2c-.477-.568-.781-.933-1.369-.933a2.038,2.038,0,0,0-.5.069c-.806.2-1.773,1.65-2.085,2.556-.28.813-.571,1.694-.8,2.61a9.308,9.308,0,0,0-.064,5.272,6.2,6.2,0,0,0,3.85,3.715,12.722,12.722,0,0,0,6.014.444,6.7,6.7,0,0,0,4.077-1.91c2.351-2.67,1.459-6.553.584-9.239-.448-1.374-1.649-3.526-2.987-3.526" transform="translate(84.23 727.849)" />
    </g>
    <rect id="사각형_1712" data-name="사각형 1712" width="54" height="54" transform="translate(598 577)" fill="none"/>
  </g>
</svg>
