<svg id="COMMUNITY_TAB_BORDER" data-name="COMMUNITY TAB BORDER" xmlns="http://www.w3.org/2000/svg" width="54" height="48" viewBox="0 0 54 48">
  <path id="패스_1403" data-name="패스 1403" d="M3625.681,1964.5l-.144-.078a7.219,7.219,0,0,1-.827-.575,16.864,16.864,0,0,0,.716-16.191,15.775,15.775,0,0,0-7.055-7.373c-.161-4.622-1.587-8.5-4.022-10.762-6.236-5.787-11.327-5.652-17.766-5.479-1.2.032-2.481.067-3.858.067-1.071,0-10.592.264-14.957,9.387a16.87,16.87,0,0,0,.717,16.19,7.222,7.222,0,0,1-.827.576l-.144.078c-1.033.555-3.182,1.709-2.89,3.785.3,2.107,2.8,2.657,3.735,2.864a42.3,42.3,0,0,0,6.555.659c.322,3.381,1.364,7.181,3.546,9.347,3.332,3.3,8.624,4.981,15.73,4.981l1.512,0c.875,0,1.874.007,2.95.007,5.425,0,12.822-.1,16.181-.837.941-.207,3.44-.758,3.736-2.864C3628.863,1966.2,3626.714,1965.05,3625.681,1964.5Zm-43.331-16.41a12.74,12.74,0,0,1,10.375-19.935c1.417,0,2.73-.035,3.968-.068,6.358-.17,9.855-.265,14.87,4.39a10.272,10.272,0,0,1,2.618,6.256,16.952,16.952,0,0,0-3.711-.463c-1.375,0-2.653-.034-3.857-.067-6.447-.173-11.53-.308-17.767,5.479h0c-2.284,2.121-3.7,5.665-3.993,9.916-1.805-.086-3.263-.2-4.358-.347.291-.209.584-.439.9-.685l.356-.277a3.156,3.156,0,0,0,1.242-2.127A2.731,2.731,0,0,0,3582.35,1948.085Zm35.766-3.2a12,12,0,0,1,3.627,4.5,12.588,12.588,0,0,1-.9,12.86,2.734,2.734,0,0,0-.644,2.072,3.153,3.153,0,0,0,1.241,2.126l.357.278c.317.246.612.476.9.685-4.307.573-13.033.54-16.983.523l-1.527,0c-4.115,0-9.685-.66-12.848-3.8-1.118-1.111-1.993-3.57-2.326-6.358a27.848,27.848,0,0,1-.074-4.049c.243-3.126,1.2-5.707,2.688-7.092,5.016-4.656,8.513-4.557,14.872-4.39,1.237.033,2.551.068,3.967.068a13.672,13.672,0,0,1,3.774.633A19.158,19.158,0,0,1,3618.115,1944.888Z" transform="translate(-3574.597 -1923.982)" />
  <path id="패스_1404" data-name="패스 1404" d="M3613.14,1951.011c-.524-1.608-1.84-3.774-3.251-3.725-1.5.052-2.692,3.709-3.3,3.658q-.727.049-1.455.051c-.4,0-.515-.516-.849-1a17.677,17.677,0,0,0-1.017-1.479c-.728-.855-1.083-1.436-2.232-1.147-.879.221-1.9,1.727-2.241,2.72-.307.891-.6,1.789-.826,2.706a9.732,9.732,0,0,0-.065,5.507,6.553,6.553,0,0,0,4.056,3.92,13.212,13.212,0,0,0,6.27.463,7.015,7.015,0,0,0,4.277-2.006C3614.9,1957.962,3614.155,1954.126,3613.14,1951.011Z" transform="translate(-3574.401 -1924.071)" fill="#999"/>
</svg>
