<!-- <svg xmlns="http://www.w3.org/2000/svg" width="48" height="48" viewBox="0 0 48 48">
  <g id="COMMENT_48_BORDER" data-name="COMMENT 48 BORDER" transform="translate(-602 -1175)">
    <rect id="사각형_643" data-name="사각형 643" width="48" height="48" transform="translate(602 1175)" fill="none"/>
    <path id="패스_1179" data-name="패스 1179" d="M1114.74,1787.717c-6.72-7.624-17.471-7.778-23.282-7.191-8.466.855-18.185,4.851-20.074,13.507-1.953,8.948,4.987,16.451,13.1,18.9.4,2.846,1.219,6.984,4.993,7.36a3.8,3.8,0,0,0,.39.02c2.932,0,4.938-3.324,6.315-5.771a36.879,36.879,0,0,0,8.392-1.12,22.169,22.169,0,0,0,8.889-3.657,13.993,13.993,0,0,0,5.531-9.882A16.37,16.37,0,0,0,1114.74,1787.717Zm-23.008,22.33c-.363.566-.791,1.22-1.214,1.857-.048-.276-.1-.556-.144-.842-.072-.42-.142-.839-.22-1.256l-.023-.106a3,3,0,0,0-2.158-2.153l-.146-.03a13.97,13.97,0,0,1-9.169-5.592,7.861,7.861,0,0,1,.521-9.818c3.746-4.125,9.933-5.881,15.891-5.881a28.9,28.9,0,0,1,7.508.969c4.64,1.267,9.049,5.239,10.257,9.24a7.236,7.236,0,0,1-1.7,7.225h0c-1.976,2.255-4.623,3.044-7.438,3.727a29.824,29.824,0,0,1-9.146,1.052A2.756,2.756,0,0,0,1091.732,1810.047Z" transform="translate(-469.051 -601.316)" fill="#999"/>
  </g>
</svg> -->
<svg xmlns="http://www.w3.org/2000/svg" width="48" height="48" viewBox="0 0 48 48">
  <g id="그룹_6318" data-name="그룹 6318" transform="translate(-164 -1654)">
    <path id="패스_1599" data-name="패스 1599" d="M106.7,36l-.136-.075a7.2,7.2,0,0,1-.834-.581l-.345-.268.237-.366a15.488,15.488,0,0,0,.638-14.764,14.339,14.339,0,0,0-6.375-6.717,15.79,15.79,0,0,0-3.793-1.415,15.18,15.18,0,0,0-3.357-.424c-1.288,0-2.485-.033-3.612-.063-5.9-.161-10.561-.285-16.24,5.024-2.034,1.905-3.3,5.1-3.575,9.011l.058,3.751c.355,3.73,1.51,6.819,3.17,8.479,3.016,3.016,7.841,4.545,14.341,4.545l1.412,0c.816,0,1.748.007,2.751.007,4.939,0,11.867-.081,14.994-.777,1.345-.3,2.914-.829,3.118-2.295.228-1.624-1.515-2.568-2.452-3.075m-2.489,2.79a126.7,126.7,0,0,1-13.352.5c-.991,0-1.866,0-2.559-.006l-1.425,0c-3.927,0-9.255-.643-12.321-3.709-1.112-1.111-1.975-3.451-2.307-6.258a26.418,26.418,0,0,1-.07-3.9c.241-3.12,1.184-5.6,2.656-6.977,4.817-4.506,8.146-4.417,14.193-4.256l.1,0c1.126.03,2.321.061,3.605.061a13.074,13.074,0,0,1,3.663.617,18.158,18.158,0,0,1,3.754,1.9l0,0a11.767,11.767,0,0,1,3.526,4.406,12.416,12.416,0,0,1-.9,12.6,2.116,2.116,0,0,0-.492,1.592,2.5,2.5,0,0,0,.977,1.674l.336.263c.324.254.577.452.826.633l.967.7Z" transform="translate(98.758 1651.289)" fill="#767676"/>
    <g id="그룹_6317" data-name="그룹 6317" transform="translate(-298 479)">
      <rect id="사각형_641" data-name="사각형 641" width="48" height="48" transform="translate(462 1175)" fill="none"/>
    </g>
  </g>
</svg>
