<svg xmlns="http://www.w3.org/2000/svg" width="53.748" height="47.747" viewBox="0 0 53.748 47.747">
  <g id="그룹_6477" data-name="그룹 6477" transform="translate(24231.876 3390.248)">
    <path id="패스_1626" data-name="패스 1626" d="M337.477,17.359c3.764-3.449,8.036-7.352,20.763-6.754,6.351.3,8.985.711,10.831,1.316a12.612,12.612,0,0,0-3.417-6.42C360.481.7,356.1,0,351.06,0c-1,0-2.022.027-3.083.056-1.16.031-2.474.066-3.862.066-1.063,0-10.511.262-14.844,9.316a16.673,16.673,0,0,0,.712,16.072l.056.092-.085.07a7.5,7.5,0,0,1-.842.586l-.148.081c-1.008.541-3.1,1.667-2.825,3.657.287,2.018,2.719,2.557,3.634,2.759.912.164,1.835.292,2.761.4l.061-3.97c.021-.393.5-7.8,4.882-11.822" transform="translate(-24557.988 -3390.248)" fill="#070203"/>
    <path id="패스_1627" data-name="패스 1627" d="M377.012,40.5h0l-.144-.079a7.4,7.4,0,0,1-.845-.588l-.086-.069.057-.093A16.666,16.666,0,0,0,376.7,23.6a15.719,15.719,0,0,0-6.983-7.306c-.113-.052-.236-.106-.344-.155-1.687-.777-2.905-1.338-11.317-1.738-11.151-.519-14.487,2.526-18.016,5.759-3.239,2.971-3.649,9.1-3.653,9.163l.027,4.092.011.11c.386,4.061,1.665,7.44,3.509,9.27,3.313,3.282,8.576,4.945,15.642,4.945h1.512l1.324,0c.516,0,1.06,0,1.626,0,8.314,0,13.6-.273,16.154-.834.918-.2,3.355-.739,3.639-2.759.283-2-1.815-3.118-2.823-3.654m-12.919-4.021a7.014,7.014,0,0,1-4.277,2.006,13.212,13.212,0,0,1-6.27-.463,6.555,6.555,0,0,1-4.056-3.92,9.727,9.727,0,0,1,.065-5.507c.226-.917.519-1.815.826-2.706.341-.993,1.362-2.5,2.241-2.72,1.149-.289,1.5.292,2.232,1.147a17.611,17.611,0,0,1,1.017,1.479c.334.484.449,1,.849,1q.727,0,1.455-.051c.608.051,1.8-3.606,3.3-3.658,1.411-.049,2.727,2.117,3.251,3.725,1.015,3.115,1.76,6.951-.633,9.668" transform="translate(-24557.988 -3390.248)" fill="#070203"/>
  </g>
</svg>
