<svg xmlns="http://www.w3.org/2000/svg" width="53.748" height="47.744" viewBox="0 0 53.748 47.744">
  <g id="그룹_6856" data-name="그룹 6856" transform="translate(23282.181 3733.997)" fill="#000">
    <path id="패스_1618" data-name="패스 1618" d="M374.719,40.5h0l-.144-.078a7.549,7.549,0,0,1-.846-.588l-.085-.07.056-.092A16.666,16.666,0,0,0,374.41,23.6a15.72,15.72,0,0,0-7-7.316l-.065-.034,0-.073c-.161-4.648-1.575-8.44-3.982-10.675C358.187.7,353.8,0,348.766,0c-1,0-2.022.027-3.083.055-1.16.032-2.474.067-3.862.067-1.063,0-10.511.262-14.844,9.316a16.671,16.671,0,0,0,.712,16.071l.056.093-.085.07a7.628,7.628,0,0,1-.842.586l-.148.081c-1.008.541-3.105,1.667-2.825,3.657.287,2.017,2.719,2.556,3.634,2.759a42.441,42.441,0,0,0,6.535.656l.111,0,.01.11c.387,4.062,1.666,7.441,3.51,9.271,3.313,3.281,8.575,4.944,15.642,4.944H354.8l1.324,0c.516,0,1.061,0,1.627,0,8.313,0,13.6-.273,16.153-.834.918-.2,3.355-.738,3.64-2.759.282-2-1.815-3.118-2.823-3.654m-40.645-11-.008.122-.123-.006c-1.823-.087-3.293-.2-4.368-.348l-.312-.042.256-.183c.259-.187.521-.391.8-.608l.453-.351a3.049,3.049,0,0,0,1.194-2.044,2.61,2.61,0,0,0-.394-1.684v.027l-.228-.329A12.865,12.865,0,0,1,341.82,3.919c1.455,0,2.848-.037,3.966-.068,6.391-.173,9.908-.265,14.958,4.423a10.44,10.44,0,0,1,2.658,6.34l.01.169-.163-.039a16.949,16.949,0,0,0-3.684-.46c-1.377,0-2.639-.034-3.859-.066-6.415-.172-11.477-.309-17.679,5.445-2.256,2.1-3.66,5.588-3.953,9.833M369.42,40.2a3.039,3.039,0,0,0,1.191,2.039l.42.327c.293.227.568.441.835.635l.254.185-.31.041a135.862,135.862,0,0,1-14.184.531c-1.092,0-2.057-.005-2.816-.008h-1.527c-4.138,0-9.742-.665-12.936-3.836-1.115-1.109-2.02-3.574-2.362-6.433a28.225,28.225,0,0,1-.075-4.07c.248-3.179,1.242-5.793,2.728-7.177,5.045-4.683,8.555-4.592,14.93-4.423l.12,0c1.226.033,2.494.066,3.875.066a13.761,13.761,0,0,1,3.811.639,19.287,19.287,0,0,1,3.906,1.957l.031.024a12.193,12.193,0,0,1,3.642,4.529,12.7,12.7,0,0,1-.911,12.985,2.625,2.625,0,0,0-.622,1.987" transform="translate(-23606 -3734)" fill="#000" />
    <path id="패스_1619" data-name="패스 1619" d="M359.182,23.086c-1.5.052-2.692,3.709-3.3,3.658-.485.032-.97.05-1.455.051-.4,0-.515-.516-.849-1q-.471-.765-1.017-1.479c-.728-.855-1.083-1.436-2.232-1.147-.879.221-1.9,1.727-2.241,2.72-.307.891-.6,1.789-.826,2.706A9.727,9.727,0,0,0,347.2,34.1a6.555,6.555,0,0,0,4.056,3.92,13.212,13.212,0,0,0,6.27.463,7.014,7.014,0,0,0,4.277-2.006c2.393-2.717,1.648-6.553.633-9.668-.524-1.608-1.84-3.774-3.251-3.725" transform="translate(-23606 -3734)"/>
  </g>
</svg>
