<svg xmlns="http://www.w3.org/2000/svg" width="30" height="30" viewBox="0 0 30 30">
  <g id="그룹_6318" data-name="그룹 6318" transform="translate(-164 -1654)">
    <path id="패스_1599" data-name="패스 1599" d="M92.679,26.728l-.085-.047a4.5,4.5,0,0,1-.521-.363l-.216-.168.148-.229a9.68,9.68,0,0,0,.4-9.228,8.962,8.962,0,0,0-3.984-4.2,9.869,9.869,0,0,0-2.371-.884,9.488,9.488,0,0,0-2.1-.265c-.805,0-1.553-.021-2.257-.039-3.687-.1-6.6-.178-10.15,3.14a8.449,8.449,0,0,0-2.234,5.632l.036,2.344a8.87,8.87,0,0,0,1.981,5.3c1.885,1.885,4.9,2.841,8.963,2.841l.882,0c.51,0,1.092,0,1.719,0a59.161,59.161,0,0,0,9.371-.486c.841-.187,1.821-.518,1.949-1.434.143-1.015-.947-1.605-1.533-1.922m-1.556,1.744a79.185,79.185,0,0,1-8.345.314c-.619,0-1.166,0-1.6,0l-.891,0c-2.454,0-5.784-.4-7.7-2.318a7.035,7.035,0,0,1-1.442-3.911,16.512,16.512,0,0,1-.044-2.44,6.679,6.679,0,0,1,1.66-4.361c3.011-2.816,5.091-2.761,8.871-2.66l.065,0c.7.019,1.451.038,2.253.038a8.171,8.171,0,0,1,2.289.386A11.349,11.349,0,0,1,88.587,14.7h0a7.355,7.355,0,0,1,2.2,2.754,7.76,7.76,0,0,1-.564,7.876,1.323,1.323,0,0,0-.308,1,1.562,1.562,0,0,0,.611,1.046l.21.164c.2.159.361.282.516.4l.6.436Z" transform="translate(97.233 1648.078)" fill="#767676"/>
    <g id="그룹_6317" data-name="그룹 6317" transform="translate(164 1654)">
      <rect id="사각형_641" data-name="사각형 641" width="30" height="30" fill="none"/>
    </g>
  </g>
</svg>
