<svg xmlns="http://www.w3.org/2000/svg" xmlns:xlink="http://www.w3.org/1999/xlink" width="90" height="90.001" viewBox="0 0 90 90.001">
  <defs>
    <filter id="패스_1475" x="0" y="0" width="90" height="90.001" filterUnits="userSpaceOnUse">
      <feOffset dy="3" input="SourceAlpha"/>
      <feGaussianBlur stdDeviation="3" result="blur"/>
      <feFlood flood-opacity="0.161"/>
      <feComposite operator="in" in2="blur"/>
      <feComposite in="SourceGraphic"/>
    </filter>
  </defs>
  <g id="그룹_4891" data-name="그룹 4891" transform="translate(9 6)" opacity="0.8">
    <g transform="matrix(1, 0, 0, 1, -9, -6)" filter="url(#패스_1475)">
      <path id="패스_1475-2" data-name="패스 1475" d="M70.946,29.825A42.744,42.744,0,0,0,48.487,2.84C36.976-2.66,21.47.223,12.6,8.091.384,18.924-3.854,36.769,3.93,52.03,8.9,61.78,16.555,68.421,27.79,70.983a36.265,36.265,0,0,0,30.384-6.306c.067-.051.131-.106.193-.163.08-.052.157-.108.232-.168,11.046-8.94,15.664-21.841,12.347-34.521M21.5,21.5V37.6a2.174,2.174,0,0,1-4.347,0V19.33a2.177,2.177,0,0,1,2.174-2.174H37.6a2.174,2.174,0,0,1,0,4.348ZM54.848,52.671a2.176,2.176,0,0,1-2.173,2.173H34.4a2.174,2.174,0,0,1,0-4.347H50.5V34.4a2.174,2.174,0,1,1,4.347,0Z" transform="translate(9 6)" fill="#fff"/>
    </g>
  </g>
</svg>
