<svg xmlns="http://www.w3.org/2000/svg" width="46" height="46" viewBox="0 0 46 46">
  <g id="CROSS_46" data-name="CROSS 46" transform="translate(0.334 0.334)">
    <g id="그룹_3328" data-name="그룹 3328" transform="translate(-0.333 -0.333)">
      <rect id="사각형_573" data-name="사각형 573" width="46" height="46" transform="translate(0 -0.001)" fill="none"/>
    </g>
    <path id="패스_1145" data-name="패스 1145" d="M4340.428,503.275l12.316-12.323a2.164,2.164,0,0,0,0-3.055,2.21,2.21,0,0,0-3.053,0l-12.316,12.323L4325.059,487.9a2.211,2.211,0,0,0-3.054,0,2.167,2.167,0,0,0,0,3.055l12.317,12.323L4322,515.6a2.16,2.16,0,0,0,1.527,3.688,2.143,2.143,0,0,0,1.527-.633l12.316-12.323,12.316,12.323a2.159,2.159,0,0,0,3.053,0,2.165,2.165,0,0,0,0-3.055Z" transform="translate(-4314.708 -480.621)" fill="#999"/>
  </g>
</svg>
