<svg xmlns="http://www.w3.org/2000/svg" width="50" height="50" viewBox="0 0 50 50">
  <g id="그룹_7059" data-name="그룹 7059" transform="translate(-486 -1296)">
    <path id="Rect48_APRI10" d="M20,0h8A20,20,0,0,1,48,20v8A20,20,0,0,1,28,48H20A20,20,0,0,1,0,28V20A20,20,0,0,1,20,0Z" transform="translate(486 1296)" fill="#ff9888"/>
    <g id="Cross48" transform="translate(482 1294)">
      <g id="그룹_3328" data-name="그룹 3328" transform="translate(4 2)">
        <rect id="사각형_573" data-name="사각형 573" width="50" height="50" fill="none"/>
      </g>
      <path id="패스_1145" data-name="패스 1145" d="M4339.236,501.776l11.546-11.167a1.915,1.915,0,0,0,0-2.768,2.124,2.124,0,0,0-2.862,0l-11.546,11.167-11.545-11.167a2.126,2.126,0,0,0-2.864,0,1.916,1.916,0,0,0,0,2.768l11.546,11.167-11.546,11.167a1.917,1.917,0,0,0,0,2.769,2.075,2.075,0,0,0,2.864,0l11.545-11.167,11.546,11.167a2.073,2.073,0,0,0,2.862,0,1.916,1.916,0,0,0,0-2.769Z" transform="translate(-4307.376 -474.784)" fill="#f5f1f1"/>
    </g>
  </g>
</svg>
