<svg xmlns="http://www.w3.org/2000/svg" xmlns:xlink="http://www.w3.org/1999/xlink" width="80" height="80" viewBox="0 0 80 80">
  <defs>
    <filter id="사각형_1281" x="0" y="0" width="80" height="80" filterUnits="userSpaceOnUse">
      <feOffset dy="3" input="SourceAlpha"/>
      <feGaussianBlur stdDeviation="3" result="blur"/>
      <feFlood flood-opacity="0.161"/>
      <feComposite operator="in" in2="blur"/>
      <feComposite in="SourceGraphic"/>
    </filter>
    <clipPath id="clip-path">
      <rect id="사각형_1280" data-name="사각형 1280" width="42" height="41.999" fill="#191919"/>
    </clipPath>
  </defs>
  <g id="그룹_5836" data-name="그룹 5836" transform="translate(-672 -774)">
    <g transform="matrix(1, 0, 0, 1, 672, 774)" filter="url(#사각형_1281)">
      <rect id="사각형_1281-2" data-name="사각형 1281" width="62" height="62" rx="20" transform="translate(9 6)" fill="#fff"/>
    </g>
    <g id="그룹_5834" data-name="그룹 5834" transform="translate(691 790)">
      <g id="그룹_5833" data-name="그룹 5833" transform="translate(0 0)" clip-path="url(#clip-path)">
        <path id="패스_1568" data-name="패스 1568" d="M39.882,18.882h-5.9a13.313,13.313,0,0,0-1.512-4.087,13.908,13.908,0,0,0-9.356-6.836V2.118a2.118,2.118,0,0,0-4.236,0v5.65a13.921,13.921,0,0,0-1.534.243,11.185,11.185,0,0,0-7.684,5.117l-.042.072a16.245,16.245,0,0,0-1.761,5.681H2.118a2.118,2.118,0,0,0,0,4.236H7.863a12.524,12.524,0,0,0,8.18,10.817l.007,0a13.45,13.45,0,0,0,2.831.637v5.307a2.118,2.118,0,0,0,4.236,0V34.446a14.358,14.358,0,0,0,7.988-4.316,13.433,13.433,0,0,0,3.027-7.012h5.75a2.118,2.118,0,0,0,0-4.236m-9.707,4.236a8.575,8.575,0,0,1-1.24,3.347,9.518,9.518,0,0,1-5.817,3.947,10.853,10.853,0,0,1-2.118.3,10.6,10.6,0,0,1-2.118-.129c-.057-.008-.114-.014-.171-.024-4.1-.729-6.271-4.009-6.842-7.436a11.423,11.423,0,0,1-.161-1.927c0-.062,0-.128.005-.191a16.153,16.153,0,0,1,.173-2.118c.405-2.67,1.612-5.405,4.667-6.55h0a10.666,10.666,0,0,1,2.327-.569,10.865,10.865,0,0,1,1.421-.1c.233,0,.465.018.7.032a9.922,9.922,0,0,1,7.224,3.792A10.444,10.444,0,0,1,30.264,21a9.807,9.807,0,0,1-.089,2.118m-4.013-.789a4.881,4.881,0,0,1-.706,1.9,5.412,5.412,0,0,1-3.308,2.244,6.227,6.227,0,0,1-1.2.169,6.1,6.1,0,0,1-1.2-.074c-.032-.005-.065-.008-.1-.014a4.844,4.844,0,0,1-3.892-4.229,6.443,6.443,0,0,1-.091-1.1c0-.035,0-.072,0-.109a9.143,9.143,0,0,1,.1-1.2,4.351,4.351,0,0,1,2.654-3.725h0a6.028,6.028,0,0,1,1.323-.323,6.1,6.1,0,0,1,.808-.059c.133,0,.264.011.4.018a5.646,5.646,0,0,1,4.108,2.157,5.926,5.926,0,0,1,1.16,3.136,5.557,5.557,0,0,1-.05,1.2" transform="translate(0 0)" fill="#191919"/>
      </g>
    </g>
  </g>
</svg>
