<svg xmlns="http://www.w3.org/2000/svg" width="40" height="40" viewBox="0 0 40 40">
  <g id="DOG_38" data-name="DOG 38" transform="translate(-279 -383)">
    <g id="그룹_3654" data-name="그룹 3654" transform="translate(280 384)">
      <rect id="사각형_152" data-name="사각형 152" width="38" height="38" rx="19" transform="translate(0)" fill="#ff9888" stroke="#fff" stroke-width="2"/>
    </g>
    <g id="그룹_3784" data-name="그룹 3784" transform="translate(284 392)">
      <g id="그룹_3783" data-name="그룹 3783" transform="translate(0)">
        <path id="패스_280" data-name="패스 280" d="M401.723,78.808a4.043,4.043,0,0,0-5.124-1.257,9.647,9.647,0,0,0-4.528-1.125h-4.063a9.653,9.653,0,0,0-5.164,1.493,4.042,4.042,0,0,0-4.444,1.529c-1.879,2.637-4.713,7.589-2.574,11.115a4.788,4.788,0,0,0,3.312,2.143,9.784,9.784,0,0,0,8.869,5.72h4.063a9.8,9.8,0,0,0,9.154-6.4,4.743,4.743,0,0,0,3.071-2.1C406.437,86.4,403.6,81.446,401.723,78.808ZM380.562,89.919a2.362,2.362,0,0,1-2.316-.851l0-.008a4.125,4.125,0,0,1,0-3.305,17.95,17.95,0,0,1,2.458-4.637,1.216,1.216,0,0,1,2.178.468,1.243,1.243,0,0,1,.026.135,19.837,19.837,0,0,1-.049,6.436,2.49,2.49,0,0,1-1.68,1.622A3.319,3.319,0,0,1,380.562,89.919Zm11.509,5.645h-4.063a6.923,6.923,0,0,1-5.774-3.123,5.346,5.346,0,0,0,3.327-3.414c.476-1.506.532-4.063.168-7.6a4.121,4.121,0,0,0-.484-1.556,6.844,6.844,0,0,1,2.763-.582h4.063a6.842,6.842,0,0,1,2.556.5,4.151,4.151,0,0,0-.233,1c-.364,3.539-.307,6.1.168,7.6a5.369,5.369,0,0,0,3.612,3.509A6.94,6.94,0,0,1,392.071,95.564Zm9.806-7.135c-.008.013-.019.024-.028.037a2.384,2.384,0,0,1-2.288.814,3.377,3.377,0,0,1-.578-.128,2.5,2.5,0,0,1-1.718-1.634,18.566,18.566,0,0,1-.1-5.963c.015-.156.03-.313.046-.473a1.221,1.221,0,0,1,2.2-.6,18.989,18.989,0,0,1,2.286,4.14C402.267,86.111,402.442,87.5,401.878,88.429Z" transform="translate(-375.062 -76.426)" fill="#fff"/>
        <rect id="사각형_360" data-name="사각형 360" width="3.915" height="2.509" rx="1.255" transform="translate(13.043 11.985)" fill="#fff"/>
      </g>
    </g>
  </g>
</svg>
