<svg xmlns="http://www.w3.org/2000/svg" width="62" height="62" viewBox="0 0 62 62">
  <g id="DOG_62" data-name="DOG 62" transform="translate(-280 -384)">
    <g id="그룹_3654" data-name="그룹 3654" transform="translate(-48.46 -1450.718)">
      <rect id="사각형_152" data-name="사각형 152" width="62" height="62" rx="20" transform="translate(328.46 1834.718)" fill="#ff9888"/>
    </g>
    <g id="그룹_3784" data-name="그룹 3784" transform="translate(-84.999 -1546)">
      <g id="그룹_3783" data-name="그룹 3783" transform="translate(371 1942)">
        <path id="패스_280" data-name="패스 280" d="M419.5,80.541a6.677,6.677,0,0,0-5.484-2.929,6.523,6.523,0,0,0-3.056.758,15.63,15.63,0,0,0-7.546-1.944h-6.772a15.678,15.678,0,0,0-8.607,2.58,6.526,6.526,0,0,0-1.922-.289,6.674,6.674,0,0,0-5.484,2.93c-3.132,4.555-7.855,13.108-4.289,19.2a7.965,7.965,0,0,0,5.52,3.7,16.29,16.29,0,0,0,14.782,9.879h6.772a16.37,16.37,0,0,0,15.257-11.057,7.909,7.909,0,0,0,5.118-3.63C427.353,93.649,422.63,85.1,419.5,80.541ZM384.229,99.732a3.869,3.869,0,0,1-3.86-1.469l-.006-.013c-.827-1.425-.689-3.47,0-5.709a31.4,31.4,0,0,1,4.1-8.009,2,2,0,0,1,1.645-.872,2.053,2.053,0,0,1,1.985,1.68,2.211,2.211,0,0,1,.044.234c.517,5.2.486,9.251-.082,11.116a4.214,4.214,0,0,1-2.8,2.8A5.366,5.366,0,0,1,384.229,99.732Zm19.182,9.75h-6.772a11.442,11.442,0,0,1-9.623-5.394,9.09,9.09,0,0,0,5.545-5.9c.793-2.6.887-7.018.28-13.129a7.3,7.3,0,0,0-.807-2.688,11.066,11.066,0,0,1,4.6-1.005h6.772a11.056,11.056,0,0,1,4.26.86,7.383,7.383,0,0,0-.389,1.728c-.607,6.112-.512,10.53.28,13.129a9.1,9.1,0,0,0,6.02,6.06A11.519,11.519,0,0,1,403.411,109.482Zm16.344-12.324c-.013.022-.032.041-.046.064a3.9,3.9,0,0,1-3.814,1.406,5.46,5.46,0,0,1-.964-.221,4.225,4.225,0,0,1-2.864-2.822c-.539-1.765-.593-5.493-.159-10.3.024-.269.049-.54.076-.816a2.071,2.071,0,0,1,2.029-1.913,2,2,0,0,1,1.645.871,33.175,33.175,0,0,1,3.81,7.151C420.4,93.155,420.695,95.551,419.755,97.158Z" transform="translate(-375.062 -76.426)" fill="#fff"/>
        <rect id="사각형_360" data-name="사각형 360" width="6.311" height="4.045" rx="2.023" transform="translate(21.844 20.878)" fill="#fff"/>
      </g>
    </g>
  </g>
</svg>
