<svg id="그룹_7150" data-name="그룹 7150" xmlns="http://www.w3.org/2000/svg" xmlns:xlink="http://www.w3.org/1999/xlink" width="46" height="46" viewBox="0 0 46 46">
  <defs>
    <clipPath id="clip-path">
      <rect id="사각형_1556" data-name="사각형 1556" width="46" height="46" fill="none"/>
    </clipPath>
  </defs>
  <g id="그룹_6455" data-name="그룹 6455" clip-path="url(#clip-path)">
    <path id="패스_1673" data-name="패스 1673" d="M16.684,33.985l-.208.007c-2.439.071-3.353.1-5.961.08L7.452,34A24.009,24.009,0,0,1,4.623,33.8c-.5-.062-1.065-.132-2.292-.214A1.633,1.633,0,0,0,.514,35.013c0,.048-.008.107-.008.166a2.282,2.282,0,0,0,.348,1.4,1.875,1.875,0,0,0,1.483.84c1.258.084,1.8.155,2.284.219a20.569,20.569,0,0,0,2.557.181l3.048.086c2.763.022,3.79-.007,6.524-.087a1.916,1.916,0,0,0-.066-3.829" fill="#ff9888"/>
    <path id="패스_1674" data-name="패스 1674" d="M44.35,10.69c-.613-.7-2.2-2.5-4.029-2.594-.048,0-.095,0-.143,0a3.58,3.58,0,0,0-2.439,1.1h0c-2.222,2.067-4.393,4.438-6.138,6.345-.97,1.055-1.973,2.146-2.964,3.187l-5.4,5.657a15.053,15.053,0,0,0-1.255,1.353c-1.158,1.557-1.274,3.638-1.376,5.473-.022.412-.043.808-.076,1.191a1.534,1.534,0,0,0,.414,1.273,1.347,1.347,0,0,0,1,.483h.182l.8-.064c2.493-.211,4.651-.393,6.58-2.351q1.452-1.48,2.885-2.975l1.391-1.438Q35.5,25.556,37.23,23.8c2.149-2.186,4.586-4.666,6.879-7.137.124-.114.209-.2.291-.283a4.155,4.155,0,0,0-.05-5.691m-2.282,2.788a1.515,1.515,0,0,1-.514,1.078L27.87,28.693c-.08.081-.156.165-.233.25l-.113.124a7.881,7.881,0,0,1-.588.6,5.82,5.82,0,0,1-2.466.981l-.668.1.1-.668a6.36,6.36,0,0,1,1.425-3.144L38.637,12.992c.165-.177.286-.316.4-.454.486-.559.794-.887,1.147-.939l.063-.009.063.007a1.13,1.13,0,0,1,.608.259,2.5,2.5,0,0,1,1.127,1.464l.022.077Z" fill="#ff9888"/>
  </g>
</svg>
