<svg xmlns="http://www.w3.org/2000/svg" width="72" height="72" viewBox="0 0 72 72">
  <g id="EMAIL_72" data-name="EMAIL 72" transform="translate(-445.426 -711.776)">
    <circle id="타원_84" data-name="타원 84" cx="36" cy="36" r="36" transform="translate(445.426 711.776)" fill="#ff9888"/>
    <g id="그룹_3575" data-name="그룹 3575" transform="translate(-748.664 -1251.87)">
      <g id="Icon_-_Envelope" data-name="Icon - Envelope" transform="translate(1206.09 1983.646)">
        <path id="Icon_-_Envelope-2" data-name="Icon - Envelope-2" d="M1253.712,1985.18a1.352,1.352,0,0,0-.251-.764,1.443,1.443,0,0,0-1.34-.705c-7.689.09-15.378-.012-23.066-.052-3.73-.017-7.459-.022-11.186.021q-3.021.036-6.043.114a22.309,22.309,0,0,0-4.568.229,1.512,1.512,0,0,0-1.168,1.418,275.436,275.436,0,0,1,.3,28.37,1.558,1.558,0,0,0,1.593,1.47c7.484.266,14.912.347,22.4.309a206.594,206.594,0,0,0,22.112-.664,1.57,1.57,0,0,0,1.593-1.471C1253.825,2004.029,1253.97,1994.608,1253.712,1985.18Zm-40.383,1.517q2.775-.064,5.55-.087c3.731-.034,7.461-.027,11.191,0,5.907.033,11.815.093,17.724.074a54.33,54.33,0,0,0-7.092,5.491,56.965,56.965,0,0,0-4.758,4.952c-1.248,1.462-2.43,3.618-4.242,4.536-2.442,1.238-4.62-2.162-6.15-3.611q-2.517-2.39-5.168-4.658c-2.748-2.355-5.607-4.571-8.55-6.712.526.011,1.033.029,1.5.015Zm17.049,25.951c-6.942.034-13.833-.039-20.762-.261.271-7.907.246-15.812-.159-23.713a132.707,132.707,0,0,1,11.116,8.931c1.95,1.751,3.787,3.594,5.678,5.4a5.848,5.848,0,0,0,4.75,2.062c4.149-.479,6.764-5.523,9.215-8.112a52.4,52.4,0,0,1,10.384-8.488c.151,7.9.083,15.784.268,23.676-6.814.626-13.637.474-20.49.5Z" transform="translate(-1206.09 -1983.646)" fill="#fff"/>
      </g>
    </g>
  </g>
</svg>
