<svg id="그룹_6007" data-name="그룹 6007" xmlns="http://www.w3.org/2000/svg" xmlns:xlink="http://www.w3.org/1999/xlink" width="210" height="216.948" viewBox="0 0 210 216.948">
  <defs>
    <clipPath id="clip-path">
      <rect id="사각형_1395" data-name="사각형 1395" width="210" height="216.948" fill="none"/>
    </clipPath>
  </defs>
  <g id="그룹_6006" data-name="그룹 6006" clip-path="url(#clip-path)">
    <path id="패스_1576" data-name="패스 1576" d="M24.032,95.435c7.089-8.179,21.812-14.723,33.807-16.358s31.627,0,39.261,2.181,21.266,10.361,30.536,18.54,15.813,13.632,26.719,16.358,26.174,6,32.717,11.451,14.178,7.088,16.9,18.539,2.726,21.812,3.272,32.172,2.726,21.811,0,26.719-8.724,17.994-15.813,21.812-26.719,9.269-33.807,10.36-29.991,0-36.534-2.181S99.827,220.3,94.919,217.033s-13.087-10.905-20.176-12.542-22.357-4.908-28.9-8.179-22.357-6.544-29.991-16.359S5.493,168.5,5.493,160.324,7.674,139.6,9.855,130.333s6-21.812,7.634-26.174,6.544-8.724,6.544-8.724" transform="translate(-1.678 -23.96)" fill="#ffbbb1"/>
    <path id="패스_1577" data-name="패스 1577" d="M164.891,204.925s14.178-12,29.991-12.542,25.083.545,31.626,4.908,9.27,6.544,9.27,6.544-7.634,7.634-16.359,9.815-22.356,4.908-28.355,3.272-20.721-6-26.173-12" transform="translate(-50.384 -58.745)" fill="#d87f72"/>
    <path id="패스_1578" data-name="패스 1578" d="M50.25,146.819s14.178-12,29.991-12.542,25.083.545,31.626,4.908,9.27,6.544,9.27,6.544-7.634,7.634-16.359,9.815-22.356,4.908-28.355,3.272-20.721-6-26.173-12" transform="translate(-15.354 -40.99)" fill="#d87f72"/>
    <path id="패스_1579" data-name="패스 1579" d="M44.15,137.01c8.63,7.846,22.365,12.2,37.409,12.26,21.234-.565,43.151-7.8,45.114-28.089C123.807,74.768,5.78,91.069,44.15,137.01m7.766-2.672C69,122.421,94.9,122.249,112.583,133.331c-13.788,11.48-46.08,11.854-60.668,1.007m29.644-34.3c23.21.463,45.034,11.665,35.871,28.226-19.614-13.839-52.937-13.007-70.725,1.365C34.935,112.9,57.734,100.3,81.559,100.037" transform="translate(-11.149 -28.55)" fill="#1a1311"/>
    <path id="패스_1580" data-name="패스 1580" d="M149.155,179.255c3.924,34.147,66.124,35.121,84.483,13.853,31.679-46.966-83.505-57.479-84.483-13.853m15.474,13.163c17.3-11.993,42.881-12.066,60.657-1.009-13.8,11.471-46.091,11.854-60.657,1.009m29.639-34.307c23.21.464,45.034,11.664,35.871,28.226-20.467-13.6-50.97-13.592-70.73,1.359-11.756-16.726,11.035-29.319,34.859-29.585" transform="translate(-45.576 -46.323)" fill="#1a1311"/>
    <path id="패스_1581" data-name="패스 1581" d="M209.093,156.136c.665-16.824-15.863-32.8-32.807-38.655l.009-.021c-12.243-5.127-23.97-6.337-36.607-13.189-10.8-6.981-14.4-15.482-29.339-22.334C78.327,64.234,16.5,72.4,8.782,113.092l-.028-.006c-1.668,8.315-7.106,34.6-8.685,42.43C-1.153,171.841,14.233,187.74,30.6,194.056l-.013.031c12.858,5.355,35.251,8.849,46.4,13.707,8.092,4.258,16.456,13.534,25.029,19.071,31.66,22.967,103.554,14.857,107.91-30.8H210ZM71.873,79.982c20.648-.308,41.309,8.478,53.69,21.919,4.165,4.279,8.62,7.967,14.082,10.286,10.583,5.426,22.948,7.212,33.54,11.649l.007-.017c17.042,7.233,26.914,17.071,28.616,32.464H201.8l.056,2.5c0-.017,0-.035,0-.052-4.372,25.442-36.071,36.506-61.682,34.1-33.607-2.546-33.478-23.544-57.882-32.315-9.752-3.3-13.369-3.44-21.716-5.8-65.9-13.532-56.475-72.79,11.292-74.726M202.657,195.2c1.68,28.773-51.46,45.368-81.136,33.434l.006-.02C102.116,223.33,92.879,206.2,75.2,199.658c-23.521-6.994-67.963-12.983-68.247-43.135,1.23-6.143,3.808-18.51,5.058-24.71,5.514,11.124,16.651,19.136,28.459,23.814l-.009.021c8.467,3.487,21.361,6.513,30.935,8.987,34.18,7.016,28,36.819,79.11,35.353,19.058-.231,40.032-8.213,51.757-23.714l.453,19.951Z" transform="translate(0 -22.337)" fill="#1a1311"/>
    <path id="패스_1582" data-name="패스 1582" d="M160.258,42.006a3.474,3.474,0,0,1-3.309-2.421l-8.5-26.759a3.472,3.472,0,1,1,6.619-2.1l8.5,26.758a3.473,3.473,0,0,1-3.31,4.525" transform="translate(-45.309 -2.537)" fill="#1a1311"/>
    <path id="패스_1583" data-name="패스 1583" d="M199.473,43.259a3.477,3.477,0,0,1-3.416-4.12l6.89-36.314a3.472,3.472,0,1,1,6.822,1.294l-6.89,36.314a3.473,3.473,0,0,1-3.406,2.826" transform="translate(-59.888 0)" fill="#1a1311"/>
    <path id="패스_1584" data-name="패스 1584" d="M230.143,72.239a3.472,3.472,0,0,1-2.128-6.217l17.868-13.834a3.472,3.472,0,1,1,4.251,5.49L232.266,71.512a3.455,3.455,0,0,1-2.123.727" transform="translate(-69.261 -15.724)" fill="#1a1311"/>
    <path id="패스_1585" data-name="패스 1585" d="M119.738,235.557a4.454,4.454,0,0,0-6.9-2.2c-1.064.669-2.987,2.2-4.288,2.549a4.931,4.931,0,0,0-3.562,3.406,4.76,4.76,0,0,0,2.031,5.679c1.51.936,2.944.238,5.443,1.11,1.978.862,3.227,3.546,5.764,3.085a4.78,4.78,0,0,0,3.071-6.137l-.473-1.409s-.453-2.587-.449-2.59a11.649,11.649,0,0,0-.638-3.5" transform="translate(-31.993 -71.038)" fill="#1a1311"/>
    <path id="패스_1586" data-name="패스 1586" d="M116.394,226.674a2.525,2.525,0,0,0,3.036.1c2.185-1.3,3.015-3.429,3.072-5.9.054-2.5-1.853-3.552-3.887-2.243a5.453,5.453,0,0,0-2.4,2.676,6.025,6.025,0,0,0-.868,2.626,2.592,2.592,0,0,0,1.052,2.737" transform="translate(-35.223 -66.634)" fill="#1a1311"/>
    <path id="패스_1587" data-name="패스 1587" d="M127.269,230.611c1.158.283,1.96-.172,2.752-1.65a5.8,5.8,0,0,0,.9-2.135c.1-1.472.9-3.16-.535-4.374-1.817-1.536-3.5-.921-4.634,1.577a6.636,6.636,0,0,0-.918,3.483,2.826,2.826,0,0,0,2.431,3.1" transform="translate(-38.145 -67.717)" fill="#1a1311"/>
    <path id="패스_1588" data-name="패스 1588" d="M110.291,225.294c-1.2-1.185-4.133.13-5.306,1.465a4.235,4.235,0,0,0,.139,5.5c.89.945,2.935.694,4.04-.5,1.724-1.862,2.381-5.23,1.128-6.468" transform="translate(-31.79 -68.7)" fill="#1a1311"/>
    <path id="패스_1589" data-name="패스 1589" d="M131.7,241.9a6.043,6.043,0,0,0,3.3-4.41,3.574,3.574,0,0,0-1.516-3.267c-.982-.627-1.563-.156-2.483.533a5.1,5.1,0,0,0-2.121,4,5.243,5.243,0,0,0,.144,1.071,2.967,2.967,0,0,0,1.029,1.744c.479.39.931.74,1.649.326" transform="translate(-39.379 -71.48)" fill="#1a1311"/>
  </g>
</svg>
