<svg xmlns="http://www.w3.org/2000/svg" width="138" height="31" viewBox="0 0 138 31">
  <g id="EUTHANASIA" transform="translate(-4617.333 -1182.238)" style="isolation: isolate">
    <g id="패스_1379" data-name="패스 1379" transform="translate(0 0)" fill="#ff3120">
      <path d="M 4641.87451171875 1211.750732421875 L 4640.87451171875 1211.750732421875 L 4622.89013671875 1211.750732421875 L 4621.89013671875 1211.750732421875 L 4621.89013671875 1210.750732421875 L 4621.89013671875 1201.844848632812 L 4621.89013671875 1200.844848632812 L 4622.89013671875 1200.844848632812 L 4626.67626953125 1200.844848632812 L 4627.67626953125 1200.844848632812 L 4627.67626953125 1201.844848632812 L 4627.67626953125 1206.67431640625 L 4640.87451171875 1206.67431640625 L 4641.87451171875 1206.67431640625 L 4641.87451171875 1207.67431640625 L 4641.87451171875 1210.750732421875 L 4641.87451171875 1211.750732421875 Z M 4640.92822265625 1204.865478515625 L 4639.92822265625 1204.865478515625 L 4636.14208984375 1204.865478515625 L 4635.14208984375 1204.865478515625 L 4635.14208984375 1203.865478515625 L 4635.14208984375 1184.238159179688 L 4635.14208984375 1183.238159179688 L 4636.14208984375 1183.238159179688 L 4639.92822265625 1183.238159179688 L 4640.92822265625 1183.238159179688 L 4640.92822265625 1184.238159179688 L 4640.92822265625 1190.972045898438 L 4643.42822265625 1190.972045898438 L 4644.42822265625 1190.972045898438 L 4644.42822265625 1191.972045898438 L 4644.42822265625 1195.13623046875 L 4644.42822265625 1196.13623046875 L 4643.42822265625 1196.13623046875 L 4640.92822265625 1196.13623046875 L 4640.92822265625 1203.865478515625 L 4640.92822265625 1204.865478515625 Z M 4626.50390625 1200.676635742188 C 4624.2802734375 1200.676635742188 4622.22412109375 1199.888671875 4620.7138671875 1198.4580078125 C 4619.1787109375 1197.00341796875 4618.3330078125 1195.001708984375 4618.3330078125 1192.821655273438 C 4618.3330078125 1188.343627929688 4621.845703125 1184.966796875 4626.50390625 1184.966796875 C 4631.14599609375 1184.966796875 4634.646484375 1188.343627929688 4634.646484375 1192.821655273438 C 4634.646484375 1194.999877929688 4633.802734375 1197.001220703125 4632.27001953125 1198.45703125 C 4630.76318359375 1199.888427734375 4628.71533203125 1200.676635742188 4626.50390625 1200.676635742188 Z M 4626.50390625 1190.305908203125 C 4624.97998046875 1190.305908203125 4624.03369140625 1191.269897460938 4624.03369140625 1192.821655273438 C 4624.03369140625 1194.372924804688 4624.97998046875 1195.336547851562 4626.50390625 1195.336547851562 C 4628.00439453125 1195.336547851562 4628.97412109375 1194.349365234375 4628.97412109375 1192.821655273438 C 4628.97412109375 1191.293334960938 4628.00439453125 1190.305908203125 4626.50390625 1190.305908203125 Z" stroke="none"/>
      <path d="M 4640.87451171875 1210.750732421875 L 4640.87451171875 1207.67431640625 L 4626.67626953125 1207.67431640625 L 4626.67626953125 1201.844848632812 L 4622.89013671875 1201.844848632812 L 4622.89013671875 1210.750732421875 L 4640.87451171875 1210.750732421875 M 4639.92822265625 1203.865478515625 L 4639.92822265625 1195.13623046875 L 4643.42822265625 1195.13623046875 L 4643.42822265625 1191.972045898438 L 4639.92822265625 1191.972045898438 L 4639.92822265625 1184.238159179688 L 4636.14208984375 1184.238159179688 L 4636.14208984375 1203.865478515625 L 4639.92822265625 1203.865478515625 M 4626.50390625 1199.676635742188 C 4630.52001953125 1199.676635742188 4633.646484375 1196.776123046875 4633.646484375 1192.821655273438 C 4633.646484375 1188.837158203125 4630.52001953125 1185.966796875 4626.50390625 1185.966796875 C 4622.458984375 1185.966796875 4619.3330078125 1188.837158203125 4619.3330078125 1192.821655273438 C 4619.3330078125 1196.776123046875 4622.458984375 1199.676635742188 4626.50390625 1199.676635742188 M 4626.50390625 1189.305908203125 C 4628.455078125 1189.305908203125 4629.97412109375 1190.624267578125 4629.97412109375 1192.821655273438 C 4629.97412109375 1195.019165039062 4628.455078125 1196.336547851562 4626.50390625 1196.336547851562 C 4624.5244140625 1196.336547851562 4623.03369140625 1195.019165039062 4623.03369140625 1192.821655273438 C 4623.03369140625 1190.624267578125 4624.5244140625 1189.305908203125 4626.50390625 1189.305908203125 M 4642.87451171875 1212.750732421875 L 4620.89013671875 1212.750732421875 L 4620.89013671875 1199.903076171875 C 4620.587890625 1199.682495117188 4620.298828125 1199.442504882812 4620.02587890625 1199.183959960938 C 4618.28955078125 1197.53857421875 4617.3330078125 1195.279052734375 4617.3330078125 1192.821655273438 C 4617.3330078125 1190.351928710938 4618.2900390625 1188.087646484375 4620.0283203125 1186.446044921875 C 4621.72119140625 1184.847290039062 4624.02099609375 1183.966796875 4626.50390625 1183.966796875 C 4628.9755859375 1183.966796875 4631.26708984375 1184.847900390625 4632.95654296875 1186.447875976562 C 4633.40478515625 1186.872436523438 4633.80078125 1187.33837890625 4634.14208984375 1187.838623046875 L 4634.14208984375 1182.238159179688 L 4641.92822265625 1182.238159179688 L 4641.92822265625 1189.972045898438 L 4645.42822265625 1189.972045898438 L 4645.42822265625 1197.13623046875 L 4641.92822265625 1197.13623046875 L 4641.92822265625 1205.67431640625 L 4642.87451171875 1205.67431640625 L 4642.87451171875 1212.750732421875 Z M 4628.67626953125 1205.67431640625 L 4634.14208984375 1205.67431640625 L 4634.14208984375 1197.7919921875 C 4633.80126953125 1198.291381835938 4633.40625 1198.757080078125 4632.95849609375 1199.18212890625 C 4631.77587890625 1200.306030273438 4630.30029296875 1201.0771484375 4628.67626953125 1201.439819335938 L 4628.67626953125 1205.67431640625 Z M 4626.50390625 1191.305908203125 C 4625.5283203125 1191.305908203125 4625.03369140625 1191.81591796875 4625.03369140625 1192.821655273438 C 4625.03369140625 1193.826904296875 4625.5283203125 1194.336547851562 4626.50390625 1194.336547851562 C 4627.1748046875 1194.336547851562 4627.97412109375 1194.07373046875 4627.97412109375 1192.821655273438 C 4627.97412109375 1191.56884765625 4627.1748046875 1191.305908203125 4626.50390625 1191.305908203125 Z" stroke="none" fill="#fff"/>
    </g>
    <g id="패스_1380" data-name="패스 1380" transform="translate(-4.547 -0.005)" fill="#ff3120">
      <path d="M 4671.49169921875 1212.21484375 L 4670.49169921875 1212.21484375 L 4666.705078125 1212.21484375 L 4665.705078125 1212.21484375 L 4665.705078125 1211.21484375 L 4665.705078125 1205.947021484375 L 4652.87890625 1205.947021484375 L 4651.87890625 1205.947021484375 L 4651.87890625 1204.947021484375 L 4651.87890625 1201.87255859375 L 4651.87890625 1200.87255859375 L 4652.87890625 1200.87255859375 L 4665.705078125 1200.87255859375 L 4665.705078125 1200.642578125 L 4665.705078125 1199.780029296875 L 4665.40087890625 1199.838134765625 C 4661.6953125 1200.546508789062 4658.28662109375 1200.676025390625 4652.90771484375 1200.676025390625 L 4650.6416015625 1200.676025390625 L 4649.6416015625 1200.676025390625 L 4649.6416015625 1199.676025390625 L 4649.6416015625 1191.15380859375 L 4649.6416015625 1190.15380859375 L 4650.6416015625 1190.15380859375 L 4657.931640625 1190.15380859375 L 4657.931640625 1189.810791015625 L 4650.61279296875 1189.810791015625 L 4649.61279296875 1189.810791015625 L 4649.61279296875 1188.810791015625 L 4649.61279296875 1185.736328125 L 4649.61279296875 1184.736328125 L 4650.61279296875 1184.736328125 L 4662.6611328125 1184.736328125 L 4663.6611328125 1184.736328125 L 4663.6611328125 1185.736328125 L 4663.6611328125 1194.024169921875 L 4663.6611328125 1194.951416015625 C 4664.00830078125 1194.895385742188 4664.35888671875 1194.834594726562 4664.71435546875 1194.768310546875 L 4665.705078125 1194.58349609375 L 4665.705078125 1184.271118164062 L 4665.705078125 1183.271118164062 L 4666.705078125 1183.271118164062 L 4670.49169921875 1183.271118164062 L 4671.49169921875 1183.271118164062 L 4671.49169921875 1184.271118164062 L 4671.49169921875 1189.656005859375 L 4673.99072265625 1189.656005859375 L 4674.99072265625 1189.656005859375 L 4674.99072265625 1190.656005859375 L 4674.99072265625 1193.848388671875 L 4674.99072265625 1194.848388671875 L 4673.99072265625 1194.848388671875 L 4671.49169921875 1194.848388671875 L 4671.49169921875 1200.642578125 L 4671.49169921875 1201.642578125 L 4671.49169921875 1201.87255859375 L 4671.49169921875 1211.21484375 L 4671.49169921875 1212.21484375 Z M 4655.39990234375 1195.024169921875 L 4655.39990234375 1195.562377929688 C 4658.2890625 1195.524169921875 4660.6728515625 1195.401245117188 4663.19287109375 1195.024169921875 L 4662.6611328125 1195.024169921875 L 4655.39990234375 1195.024169921875 Z" stroke="none"/>
      <path d="M 4666.705078125 1184.271118164062 L 4666.705078125 1200.642578125 L 4670.49169921875 1200.642578125 L 4670.49169921875 1193.848388671875 L 4673.99072265625 1193.848388671875 L 4673.99072265625 1190.656005859375 L 4670.49169921875 1190.656005859375 L 4670.49169921875 1184.271118164062 L 4666.705078125 1184.271118164062 M 4650.61279296875 1185.736328125 L 4650.61279296875 1188.810791015625 L 4658.931640625 1188.810791015625 L 4658.931640625 1191.15380859375 L 4650.6416015625 1191.15380859375 L 4650.6416015625 1199.676025390625 L 4652.90771484375 1199.676025390625 C 4658.185546875 1199.676025390625 4661.541015625 1199.557861328125 4665.21337890625 1198.85595703125 L 4664.8974609375 1195.751342773438 C 4661.59912109375 1196.366333007812 4658.7021484375 1196.542236328125 4654.39990234375 1196.572265625 L 4654.39990234375 1194.024169921875 L 4662.6611328125 1194.024169921875 L 4662.6611328125 1185.736328125 L 4650.61279296875 1185.736328125 M 4652.87890625 1201.87255859375 L 4652.87890625 1204.947021484375 L 4666.705078125 1204.947021484375 L 4666.705078125 1211.21484375 L 4670.49169921875 1211.21484375 L 4670.49169921875 1201.87255859375 L 4652.87890625 1201.87255859375 M 4664.705078125 1182.271118164062 L 4672.49169921875 1182.271118164062 L 4672.49169921875 1188.656005859375 L 4675.99072265625 1188.656005859375 L 4675.99072265625 1195.848388671875 L 4672.49169921875 1195.848388671875 L 4672.49169921875 1213.21484375 L 4664.705078125 1213.21484375 L 4664.705078125 1206.947021484375 L 4650.87890625 1206.947021484375 L 4650.87890625 1201.676025390625 L 4648.6416015625 1201.676025390625 L 4648.6416015625 1190.810791015625 L 4648.61279296875 1190.810791015625 L 4648.61279296875 1183.736328125 L 4664.6611328125 1183.736328125 L 4664.6611328125 1193.760986328125 L 4664.705078125 1193.752685546875 L 4664.705078125 1182.271118164062 Z" stroke="none" fill="#fff"/>
    </g>
    <g id="패스_1381" data-name="패스 1381" transform="translate(-8.708 0)" fill="#ff3120">
      <path d="M 4701.53515625 1212.209716796875 L 4700.53515625 1212.209716796875 L 4696.74951171875 1212.209716796875 L 4695.74951171875 1212.209716796875 L 4695.74951171875 1211.209716796875 L 4695.74951171875 1203.711181640625 L 4694.19189453125 1205.778198242188 L 4693.68212890625 1206.454345703125 L 4692.93115234375 1206.063354492188 C 4691.4677734375 1205.301147460938 4690.185546875 1204.211303710938 4689.12109375 1202.823852539062 C 4688.59130859375 1202.13330078125 4688.1142578125 1201.368286132812 4687.6943359375 1200.535278320312 C 4686.337890625 1203.311767578125 4684.40625 1205.374877929688 4682.0224609375 1206.568481445312 L 4681.26220703125 1206.949096679688 L 4680.76416015625 1206.260131835938 L 4678.49853515625 1203.126220703125 L 4677.7978515625 1202.1572265625 L 4678.8759765625 1201.63916015625 C 4683.21630859375 1199.552734375 4684.7626953125 1194.38330078125 4684.7626953125 1190.2412109375 L 4684.7626953125 1186.316650390625 L 4684.7626953125 1185.316650390625 L 4685.7626953125 1185.316650390625 L 4689.578125 1185.316650390625 L 4690.578125 1185.316650390625 L 4690.578125 1186.316650390625 L 4690.578125 1190.2412109375 C 4690.578125 1195.179809570312 4692.50244140625 1199.172729492188 4695.74951171875 1201.029541015625 L 4695.74951171875 1184.238159179688 L 4695.74951171875 1183.238159179688 L 4696.74951171875 1183.238159179688 L 4700.53515625 1183.238159179688 L 4701.53515625 1183.238159179688 L 4701.53515625 1184.238159179688 L 4701.53515625 1193.604125976562 L 4704.37939453125 1193.604125976562 L 4705.37939453125 1193.604125976562 L 4705.37939453125 1194.604125976562 L 4705.37939453125 1197.826782226562 L 4705.37939453125 1198.826782226562 L 4704.37939453125 1198.826782226562 L 4701.53515625 1198.826782226562 L 4701.53515625 1211.209716796875 L 4701.53515625 1212.209716796875 Z" stroke="none"/>
      <path d="M 4696.74951171875 1184.238159179688 L 4696.74951171875 1211.209716796875 L 4700.53515625 1211.209716796875 L 4700.53515625 1197.826782226562 L 4704.37939453125 1197.826782226562 L 4704.37939453125 1194.604125976562 L 4700.53515625 1194.604125976562 L 4700.53515625 1184.238159179688 L 4696.74951171875 1184.238159179688 M 4685.7626953125 1186.316650390625 L 4685.7626953125 1190.2412109375 C 4685.7626953125 1195.248657226562 4683.7548828125 1200.4033203125 4679.30908203125 1202.540405273438 L 4681.57470703125 1205.67431640625 C 4684.5576171875 1204.180541992188 4686.53759765625 1201.340576171875 4687.68408203125 1197.913940429688 C 4688.77392578125 1201.134643554688 4690.638671875 1203.742065429688 4693.39306640625 1205.176391601562 L 4695.68798828125 1202.131225585938 C 4691.44287109375 1199.9931640625 4689.578125 1195.102172851562 4689.578125 1190.2412109375 L 4689.578125 1186.316650390625 L 4685.7626953125 1186.316650390625 M 4694.74951171875 1182.238159179688 L 4702.53515625 1182.238159179688 L 4702.53515625 1192.604125976562 L 4706.37939453125 1192.604125976562 L 4706.37939453125 1199.826782226562 L 4702.53515625 1199.826782226562 L 4702.53515625 1213.209716796875 L 4694.74951171875 1213.209716796875 L 4694.74951171875 1206.699584960938 L 4693.97119140625 1207.732299804688 L 4692.46923828125 1206.950317382812 C 4690.5810546875 1205.966918945312 4688.97607421875 1204.478881835938 4687.7138671875 1202.560546875 C 4686.34375 1204.74609375 4684.57177734375 1206.41015625 4682.47021484375 1207.462646484375 L 4680.9501953125 1208.223876953125 L 4676.287109375 1201.774047851562 L 4678.4423828125 1200.737915039062 C 4682.365234375 1198.852294921875 4683.7626953125 1194.079345703125 4683.7626953125 1190.2412109375 L 4683.7626953125 1184.316650390625 L 4691.578125 1184.316650390625 L 4691.578125 1190.2412109375 C 4691.578125 1193.969604492188 4692.73388671875 1197.10009765625 4694.74951171875 1199.037109375 L 4694.74951171875 1182.238159179688 Z" stroke="none" fill="#fff"/>
    </g>
    <g id="패스_1382" data-name="패스 1382" transform="translate(-14.316)" fill="#ff3120">
      <path d="M 4740.26513671875 1211.89404296875 L 4739.26513671875 1211.89404296875 L 4721.681640625 1211.89404296875 L 4720.681640625 1211.89404296875 L 4720.681640625 1210.89404296875 L 4720.681640625 1200.729370117188 L 4720.681640625 1199.729370117188 L 4721.681640625 1199.729370117188 L 4734.44970703125 1199.729370117188 L 4734.44970703125 1199.5283203125 L 4734.44970703125 1184.238037109375 L 4734.44970703125 1183.238037109375 L 4735.44970703125 1183.238037109375 L 4739.26513671875 1183.238037109375 L 4740.26513671875 1183.238037109375 L 4740.26513671875 1184.238037109375 L 4740.26513671875 1199.5283203125 L 4740.26513671875 1200.5283203125 L 4740.26513671875 1200.729370117188 L 4740.26513671875 1210.89404296875 L 4740.26513671875 1211.89404296875 Z M 4726.41015625 1206.876708984375 L 4734.56494140625 1206.876708984375 L 4734.56494140625 1204.746826171875 L 4726.41015625 1204.746826171875 L 4726.41015625 1206.876708984375 Z M 4724.89453125 1199.444458007812 C 4722.6533203125 1199.444458007812 4720.59228515625 1198.708251953125 4719.0908203125 1197.371459960938 C 4717.544921875 1195.995483398438 4716.69384765625 1194.077514648438 4716.69384765625 1191.971069335938 C 4716.69384765625 1189.85205078125 4717.54443359375 1187.925415039062 4719.08935546875 1186.545776367188 C 4720.58935546875 1185.206176757812 4722.65087890625 1184.468383789062 4724.89453125 1184.468383789062 C 4727.13671875 1184.468383789062 4729.193359375 1185.206787109375 4730.6865234375 1186.547607421875 C 4732.220703125 1187.925537109375 4733.06591796875 1189.851684570312 4733.06591796875 1191.971069335938 C 4733.06591796875 1194.078002929688 4732.220703125 1195.995239257812 4730.685546875 1197.36962890625 C 4729.19091796875 1198.707641601562 4727.13427734375 1199.444458007812 4724.89453125 1199.444458007812 Z M 4724.89453125 1189.690063476562 C 4723.68603515625 1189.690063476562 4722.39453125 1190.289306640625 4722.39453125 1191.971069335938 C 4722.39453125 1193.630493164062 4723.68603515625 1194.221801757812 4724.89453125 1194.221801757812 C 4726.0888671875 1194.221801757812 4727.36474609375 1193.630493164062 4727.36474609375 1191.971069335938 C 4727.36474609375 1190.289306640625 4726.0888671875 1189.690063476562 4724.89453125 1189.690063476562 Z" stroke="none"/>
      <path d="M 4735.44970703125 1184.238037109375 L 4735.44970703125 1199.5283203125 L 4739.26513671875 1199.5283203125 L 4739.26513671875 1184.238037109375 L 4735.44970703125 1184.238037109375 M 4724.89453125 1185.468383789062 C 4720.79150390625 1185.468383789062 4717.69384765625 1188.162719726562 4717.69384765625 1191.971069335938 C 4717.69384765625 1195.749267578125 4720.79150390625 1198.444458007812 4724.89453125 1198.444458007812 C 4728.99609375 1198.444458007812 4732.06591796875 1195.749267578125 4732.06591796875 1191.971069335938 C 4732.06591796875 1188.162719726562 4728.99609375 1185.468383789062 4724.89453125 1185.468383789062 M 4724.89453125 1195.221801757812 C 4722.88671875 1195.221801757812 4721.39453125 1193.991577148438 4721.39453125 1191.971069335938 C 4721.39453125 1189.920288085938 4722.88671875 1188.690063476562 4724.89453125 1188.690063476562 C 4726.87353515625 1188.690063476562 4728.36474609375 1189.920288085938 4728.36474609375 1191.971069335938 C 4728.36474609375 1193.991577148438 4726.87353515625 1195.221801757812 4724.89453125 1195.221801757812 M 4721.681640625 1200.729370117188 L 4721.681640625 1210.89404296875 L 4739.26513671875 1210.89404296875 L 4739.26513671875 1200.729370117188 L 4721.681640625 1200.729370117188 M 4735.56494140625 1207.876708984375 L 4725.41015625 1207.876708984375 L 4725.41015625 1203.746826171875 L 4735.56494140625 1203.746826171875 L 4735.56494140625 1207.876708984375 M 4733.44970703125 1182.238037109375 L 4741.26513671875 1182.238037109375 L 4741.26513671875 1212.89404296875 L 4719.681640625 1212.89404296875 L 4719.681640625 1199.04541015625 C 4719.23388671875 1198.773315429688 4718.8134765625 1198.463745117188 4718.42578125 1198.118408203125 C 4716.6640625 1196.550048828125 4715.69384765625 1194.366821289062 4715.69384765625 1191.971069335938 C 4715.69384765625 1189.5634765625 4716.6630859375 1187.371826171875 4718.42333984375 1185.799926757812 C 4720.10693359375 1184.29638671875 4722.4052734375 1183.468383789062 4724.89453125 1183.468383789062 C 4727.3837890625 1183.468383789062 4729.677734375 1184.297729492188 4731.3544921875 1185.803588867188 C 4732.28369140625 1186.637817382812 4732.99072265625 1187.647216796875 4733.44970703125 1188.771118164062 L 4733.44970703125 1182.238037109375 Z M 4724.89453125 1193.221801757812 C 4725.5654296875 1193.221801757812 4726.36474609375 1193.004760742188 4726.36474609375 1191.971069335938 C 4726.36474609375 1191.12109375 4725.8701171875 1190.690063476562 4724.89453125 1190.690063476562 C 4723.8994140625 1190.690063476562 4723.39453125 1191.12109375 4723.39453125 1191.971069335938 C 4723.39453125 1192.541625976562 4723.65478515625 1193.221801757812 4724.89453125 1193.221801757812 Z M 4733.44970703125 1198.729370117188 L 4733.44970703125 1195.155395507812 C 4732.990234375 1196.275512695312 4732.28271484375 1197.281982421875 4731.3525390625 1198.114624023438 C 4731.107421875 1198.334106445312 4730.84912109375 1198.539184570312 4730.5791015625 1198.729370117188 L 4733.44970703125 1198.729370117188 Z M 4733.56494140625 1205.746826171875 L 4727.41015625 1205.746826171875 L 4727.41015625 1205.876708984375 L 4733.56494140625 1205.876708984375 L 4733.56494140625 1205.746826171875 Z" stroke="none" fill="#fff"/>
    </g>
    <g id="패스_1383" data-name="패스 1383" transform="translate(-18.79)" fill="#ff3120">
      <path d="M 4769.62255859375 1212.23828125 L 4768.62255859375 1212.23828125 L 4764.83544921875 1212.23828125 L 4763.83544921875 1212.23828125 L 4763.83544921875 1211.23828125 L 4763.83544921875 1205.678833007812 L 4750.98095703125 1205.678833007812 L 4749.98095703125 1205.678833007812 L 4749.98095703125 1204.678833007812 L 4749.98095703125 1201.602905273438 L 4749.98095703125 1200.602905273438 L 4750.98095703125 1200.602905273438 L 4763.83544921875 1200.602905273438 L 4763.83544921875 1200.402954101562 L 4763.83544921875 1184.238037109375 L 4763.83544921875 1183.238037109375 L 4764.83544921875 1183.238037109375 L 4768.62255859375 1183.238037109375 L 4769.62255859375 1183.238037109375 L 4769.62255859375 1184.238037109375 L 4769.62255859375 1189.797607421875 L 4772.12255859375 1189.797607421875 L 4773.12255859375 1189.797607421875 L 4773.12255859375 1190.797607421875 L 4773.12255859375 1193.959838867188 L 4773.12255859375 1194.959838867188 L 4772.12255859375 1194.959838867188 L 4769.62255859375 1194.959838867188 L 4769.62255859375 1200.402954101562 L 4769.62255859375 1201.402954101562 L 4769.62255859375 1201.602905273438 L 4769.62255859375 1211.23828125 L 4769.62255859375 1212.23828125 Z M 4762.25048828125 1200.0556640625 L 4761.25048828125 1200.0556640625 L 4748.60107421875 1200.0556640625 L 4747.60107421875 1200.0556640625 L 4747.60107421875 1199.0556640625 L 4747.60107421875 1185.965942382812 L 4747.60107421875 1184.965942382812 L 4748.60107421875 1184.965942382812 L 4752.32958984375 1184.965942382812 L 4753.32958984375 1184.965942382812 L 4753.32958984375 1185.965942382812 L 4753.32958984375 1188.508911132812 L 4756.52099609375 1188.508911132812 L 4756.52099609375 1185.965942382812 L 4756.52099609375 1184.965942382812 L 4757.52099609375 1184.965942382812 L 4761.25048828125 1184.965942382812 L 4762.25048828125 1184.965942382812 L 4762.25048828125 1185.965942382812 L 4762.25048828125 1199.0556640625 L 4762.25048828125 1200.0556640625 Z M 4753.32958984375 1195.009887695312 L 4756.52099609375 1195.009887695312 L 4756.52099609375 1193.466918945312 L 4753.32958984375 1193.466918945312 L 4753.32958984375 1195.009887695312 Z" stroke="none"/>
      <path d="M 4768.62255859375 1211.23828125 L 4768.62255859375 1201.602905273438 L 4750.98095703125 1201.602905273438 L 4750.98095703125 1204.678833007812 L 4764.83544921875 1204.678833007812 L 4764.83544921875 1211.23828125 L 4768.62255859375 1211.23828125 M 4768.62255859375 1200.402954101562 L 4768.62255859375 1193.959838867188 L 4772.12255859375 1193.959838867188 L 4772.12255859375 1190.797607421875 L 4768.62255859375 1190.797607421875 L 4768.62255859375 1184.238037109375 L 4764.83544921875 1184.238037109375 L 4764.83544921875 1200.402954101562 L 4768.62255859375 1200.402954101562 M 4761.25048828125 1199.0556640625 L 4761.25048828125 1185.965942382812 L 4757.52099609375 1185.965942382812 L 4757.52099609375 1189.508911132812 L 4752.32958984375 1189.508911132812 L 4752.32958984375 1185.965942382812 L 4748.60107421875 1185.965942382812 L 4748.60107421875 1199.0556640625 L 4761.25048828125 1199.0556640625 M 4752.32958984375 1192.466918945312 L 4757.52099609375 1192.466918945312 L 4757.52099609375 1196.009887695312 L 4752.32958984375 1196.009887695312 L 4752.32958984375 1192.466918945312 M 4770.62255859375 1213.23828125 L 4762.83544921875 1213.23828125 L 4762.83544921875 1206.678833007812 L 4748.98095703125 1206.678833007812 L 4748.98095703125 1201.0556640625 L 4746.60107421875 1201.0556640625 L 4746.60107421875 1183.965942382812 L 4754.32958984375 1183.965942382812 L 4754.32958984375 1187.508911132812 L 4755.52099609375 1187.508911132812 L 4755.52099609375 1183.965942382812 L 4762.83544921875 1183.965942382812 L 4762.83544921875 1182.238037109375 L 4770.62255859375 1182.238037109375 L 4770.62255859375 1188.797607421875 L 4774.12255859375 1188.797607421875 L 4774.12255859375 1195.959838867188 L 4770.62255859375 1195.959838867188 L 4770.62255859375 1213.23828125 Z" stroke="none" fill="#fff"/>
    </g>
  </g>
</svg>
