<svg xmlns="http://www.w3.org/2000/svg" width="52" height="52" viewBox="0 0 52 52">
  <g id="EYE_52_MAINCOLOR" data-name="EYE 52 MAINCOLOR" transform="translate(0 0)">
    <g id="그룹_3342" data-name="그룹 3342" transform="translate(0 0)">
      <g id="그룹_1249" data-name="그룹 1249">
        <rect id="사각형_193" data-name="사각형 193" width="52" height="52" transform="translate(0 0)" fill="none"/>
      </g>
    </g>
    <g id="그룹_3426" data-name="그룹 3426" transform="translate(2.114 9.999)">
      <g id="그룹_3424" data-name="그룹 3424">
        <path id="패스_1148" data-name="패스 1148" d="M4407.182,521.07c-11.789,0-18.886-7.689-22.3-11.384a6.758,6.758,0,0,1,.324-9.632c3.984-3.725,12.262-11.467,23.073-10.96,7.3.349,14.427,4.431,21.188,12.134h0a6.318,6.318,0,0,1-.346,8.666c-.285.289-.585.6-.9.936C4424.556,514.661,4418.425,521.07,4407.182,521.07Zm.068-27.284c-8.321,0-15.008,6.252-18.653,9.659a2.149,2.149,0,0,0-.114,3.057c3.428,3.712,9.1,9.851,18.7,9.851,9.111,0,14.133-5.251,17.457-8.725.334-.35.651-.681.951-.985a1.774,1.774,0,0,0,.16-2.364c-5.853-6.669-11.811-10.193-17.709-10.475Q4407.644,493.785,4407.25,493.786Z" transform="translate(-4383.024 -489.07)" fill="#ff9888"/>
      </g>
      <g id="그룹_3425" data-name="그룹 3425" transform="translate(13.683 5.563)">
        <path id="패스_1149" data-name="패스 1149" d="M4407.2,515.932a10.324,10.324,0,1,1,10.322-10.323A10.334,10.334,0,0,1,4407.2,515.932Zm0-15.733a5.41,5.41,0,1,0,5.41,5.41A5.416,5.416,0,0,0,4407.2,500.2Z" transform="translate(-4396.88 -495.285)" fill="#ff9888"/>
      </g>
    </g>
  </g>
</svg>
