<svg xmlns="http://www.w3.org/2000/svg" width="52" height="52" viewBox="0 0 52 52">
  <g id="그룹_3447" data-name="그룹 3447" transform="translate(0 0.001)">
    <g id="그룹_3342" data-name="그룹 3342" transform="translate(0 0)">
      <g id="그룹_1249" data-name="그룹 1249">
        <rect id="사각형_193" data-name="사각형 193" width="52" height="52" transform="translate(0 0)" fill="none"/>
      </g>
    </g>
    <g id="그룹_3426" data-name="그룹 3426" transform="translate(6 13.999)">
      <g id="그룹_3424" data-name="그룹 3424">
        <path id="패스_1148" data-name="패스 1148" d="M4403.156,513.07c-9.824,0-15.739-5.767-18.582-8.538a4.722,4.722,0,0,1,.271-7.224c3.32-2.794,10.218-8.6,19.228-8.22,6.083.261,12.022,3.323,17.656,9.1h0a4.4,4.4,0,0,1-.289,6.5c-.237.217-.488.452-.753.7C4417.633,508.263,4412.524,513.07,4403.156,513.07Zm.057-20.463c-6.934,0-12.507,4.689-15.544,7.244a1.5,1.5,0,0,0-.1,2.293c2.857,2.784,7.58,7.389,15.583,7.389,7.592,0,11.777-3.938,14.546-6.544.279-.263.544-.511.793-.739a1.235,1.235,0,0,0,.133-1.773c-4.877-5-9.843-7.645-14.757-7.857C4403.649,492.611,4403.431,492.607,4403.212,492.607Z" transform="translate(-4383.023 -489.07)" fill="#ff9888"/>
      </g>
      <g id="그룹_3425" data-name="그룹 3425" transform="translate(11.751 3.344)">
        <path id="패스_1149" data-name="패스 1149" d="M4405.134,512.461a8.595,8.595,0,1,1,8.253-8.587A8.435,8.435,0,0,1,4405.134,512.461Zm0-13.088a4.5,4.5,0,1,0,4.325,4.5A4.42,4.42,0,0,0,4405.134,499.373Z" transform="translate(-4396.879 -495.285)" fill="#ff9888"/>
      </g>
    </g>
  </g>
</svg>
