<svg id="그룹_6299" data-name="그룹 6299" xmlns="http://www.w3.org/2000/svg" xmlns:xlink="http://www.w3.org/1999/xlink" width="52" height="52" viewBox="0 0 52 52">
  <defs>
    <clipPath id="clip-path">
      <rect id="사각형_1522" data-name="사각형 1522" width="52" height="52" fill="none"/>
    </clipPath>
  </defs>
  <g id="그룹_6298" data-name="그룹 6298" clip-path="url(#clip-path)">
    <path id="패스_1596" data-name="패스 1596" d="M26.728,34.047l.26-.014a8.069,8.069,0,0,0,6.871-8.081c0-.129,0-.238-.006-.341a8.205,8.205,0,1,0-10.609,8.146c.2.062.407.116.632.165a19.148,19.148,0,0,0,2.255.142c.2,0,.4-.008.6-.017m4.2-8.1h-.2v.175a4.887,4.887,0,0,1-4.891,4.708h-.2a4.9,4.9,0,0,1,.1-9.8h.28a4.842,4.842,0,0,1,4.7,4.907l.2,0Z" fill="#767676"/>
    <path id="패스_1597" data-name="패스 1597" d="M44.7,23.711a3.713,3.713,0,0,0-.28-.31l0,0c-5.563-5.7-11.415-8.727-17.39-8.984-8.808-.407-15.649,5.345-18.936,8.113a4.455,4.455,0,0,0-.576.531,4.333,4.333,0,0,0,.3,6.1C10.631,31.9,16.49,37.6,26.132,37.6c9.214,0,14.248-4.74,17.256-7.572l.737-.691a4,4,0,0,0,.579-5.627M10.261,27.355a1.894,1.894,0,0,1,.169-2.908c2.438-2.052,6.521-5.487,11.714-6.786a16.471,16.471,0,0,1,4.051-.519c.222,0,.445,0,.667.013.355.015.743.049,1.221.108,4.62.566,9.262,3.209,13.791,7.852l.055.06A1.644,1.644,0,0,1,41.72,27.5l-.772.707v0c-2.672,2.514-6.709,6.313-13.88,6.622l-.161.007a19.424,19.424,0,0,1-3.207-.131c-6.723-.8-10.925-4.9-13.438-7.351" fill="#767676"/>
  </g>
</svg>
