<svg id="FAVORITE_TAG_BORDER_48" data-name="FAVORITE TAG BORDER 48" xmlns="http://www.w3.org/2000/svg" width="48" height="48" viewBox="0 0 48 48">
  <rect id="사각형_135" data-name="사각형 135" width="48" height="48" fill="none" opacity="0.4"/>
  <path id="패스_1288" data-name="패스 1288" d="M4406.915,419.8l0-4.028a1.967,1.967,0,0,0-.774-1.6h0l-.074-.059a2.621,2.621,0,0,0-1.691-.558h-18.923a2.4,2.4,0,0,0-2.527,2.187l0,4.212c0,6.318-.008,12.85.081,19.28.027,1.748.057,3.5.107,5.243.005.189,0,.4-.009.621-.038,1.169-.093,2.935,1.422,3.906a3.187,3.187,0,0,0,1.746.548,5.309,5.309,0,0,0,3.409-1.826l4.522-4.228a1.032,1.032,0,0,1,1.388,0l4.353,4.02.26.249c.922.9,2.641,2.562,4.889,1.379,1.748-.921,1.686-2.879,1.65-4.05-.008-.22-.015-.429-.009-.614q.076-2.625.107-5.244C4406.926,432.747,4406.92,426.163,4406.915,419.8Zm-4,15.523c-.026,3.041-.061,6.083-.149,9.123-.006.24-.014.481-.021.72l-.953-.89-5.973-5.377a1.7,1.7,0,0,0-2.012,0l-5.454,5.094c-.1.1-.667.59-1.236,1.09-.012-.144-.032-.288-.038-.414-.093-3.115-.134-6.231-.155-9.347-.048-5.84-.039-11.68-.036-17.519a.965.965,0,0,1,.99-.937h14.083a.964.964,0,0,1,.991.937C4402.95,423.639,4402.96,429.479,4402.912,435.319Z" transform="translate(-4370.918 -407.545)" fill="#767676"/>
</svg>
