<svg id="그룹_3809" data-name="그룹 3809" xmlns="http://www.w3.org/2000/svg" xmlns:xlink="http://www.w3.org/1999/xlink" width="46" height="46" viewBox="0 0 46 46">
  <defs>
    <clipPath id="clip-path">
      <rect id="사각형_1540" data-name="사각형 1540" width="21.06" height="36.483"/>
    </clipPath>
  </defs>
  <rect id="사각형_135" data-name="사각형 135" width="46" height="46" fill="none" opacity="0.4"/>
  <g id="그룹_6372" data-name="그룹 6372" transform="translate(12.47 4.758)">
    <g id="그룹_6371" data-name="그룹 6371" clip-path="url(#clip-path)">
      <path id="패스_1659" data-name="패스 1659" d="M21.057,6.449V2.072a1.932,1.932,0,0,0-.621-1.48l-.07-.063A1.989,1.989,0,0,0,19.035,0L2.078,0c-.052,0-.09,0-.128,0A2.085,2.085,0,0,0,0,2.071V7.914c0,5.965,0,12.132.072,18.2.027,2.011.054,3.693.1,5.368,0,.174,0,.381-.008.65-.033,1.152-.084,2.892,1.187,3.827a2.428,2.428,0,0,0,1.478.527A4.366,4.366,0,0,0,5.694,34.7l4.061-4.357a1.058,1.058,0,0,1,1.505,0l4.121,4.373c.6.668,1.583,1.771,2.848,1.771a2.488,2.488,0,0,0,1.3-.389c1.464-.885,1.411-2.814,1.379-3.967v-.038c-.006-.208-.012-.421-.007-.608.045-1.739.077-3.545.1-5.365.073-6.591.069-13.238.064-19.667M3.4,32.539l-.031-.418c0-.056-.01-.114-.015-.167l-.005-.06c-.007-.076-.012-.141-.015-.2-.072-2.783-.116-5.83-.138-9.587-.038-5.4-.036-10.859-.033-16.137V4.159A1.121,1.121,0,0,1,4.213,2.995H16.847a.981.981,0,0,1,.721.329,1.254,1.254,0,0,1,.324.823v3.04c0,4.879,0,9.924-.035,14.887-.018,2.8-.048,6.108-.131,9.385l-.031,1.205-1.161-1.245-5.342-5.513a1.154,1.154,0,0,0-.746-.279,1.242,1.242,0,0,0-.807.312l-4.848,5.2c-.051.058-.251.259-.487.5Z" transform="translate(0 0)"/>
    </g>
  </g>
</svg>
