<svg xmlns="http://www.w3.org/2000/svg" xmlns:xlink="http://www.w3.org/1999/xlink" width="48" height="48" viewBox="0 0 48 48">
  <defs>
    <clipPath id="clip-path">
      <rect id="사각형_1529" data-name="사각형 1529" width="48" height="48" fill="none"/>
    </clipPath>
  </defs>
  <g id="그룹_6329" data-name="그룹 6329" transform="translate(-34)">
    <g id="그룹_6328" data-name="그룹 6328" transform="translate(34)" clip-path="url(#clip-path)">
      <path id="패스_1610" data-name="패스 1610" d="M35.644,5.9a2.032,2.032,0,0,0-.649-1.553l-.078-.07a2.092,2.092,0,0,0-1.391-.552l-.064,0H14.532c-.055,0-.095-.005-.135-.005A2.192,2.192,0,0,0,12.354,5.9l0,6.538c0,6.677,0,13.583.081,20.368.029,2.236.059,4.114.107,6.007,0,.2,0,.43-.009.734-.037,1.261-.091,3.165,1.274,4.17a2.571,2.571,0,0,0,1.549.561,4.766,4.766,0,0,0,3.127-1.952l4.548-4.88a1.3,1.3,0,0,1,.946-.408h0a1.289,1.289,0,0,1,.94.405l4.616,4.9c.86.963,2.448,2.736,4.462,1.52,1.568-.947,1.51-3.055,1.476-4.316-.008-.249-.015-.507-.009-.73.051-1.981.086-4,.107-6,.082-7.365.077-14.812.072-22.012ZM14.4,5.332c0,5.461,5.962,15.506,5.922,21.063-.022,3.38,9.307,8.913,9.217,12.45l2.616,1.641L30.62,38.846,29.065,19.581c-.452-.379-5.49,12.732-5.959,13.129L16.93,34.155c-.057.066.5,4.631.2,4.931v-1.64l-1.284,2.1c-.005-.062,1.089-.671,1.083-.732-.011-.116,2.175.087,2.171,0-.081-3.115,6.413-5.945,6.388-10.153-.043-6.035,8.034-11.577,8.037-17.49L15.617,8.233a1.391,1.391,0,0,1,1.313-1.44l14.1,0a.242.242,0,0,1,.04,0,1.237,1.237,0,0,1,.91.414c.248.269,1.47-1.694,1.48-1.307Z" fill="#ff9888"/>
    </g>
  </g>
</svg>
