<svg xmlns="http://www.w3.org/2000/svg" xmlns:xlink="http://www.w3.org/1999/xlink" width="48" height="48" viewBox="0 0 48 48">
  <defs>
    <clipPath id="clip-path">
      <rect id="사각형_1529" data-name="사각형 1529" width="48" height="48" fill="none"/>
    </clipPath>
  </defs>
  <g id="그룹_6328" data-name="그룹 6328" clip-path="url(#clip-path)">
    <path id="패스_1610" data-name="패스 1610" d="M35.644,5.9a2.032,2.032,0,0,0-.649-1.553l-.078-.07a2.092,2.092,0,0,0-1.391-.552l-.064,0H14.532c-.055,0-.095-.005-.135-.005A2.192,2.192,0,0,0,12.354,5.9l0,6.538c0,6.677,0,13.583.081,20.368.029,2.236.059,4.114.107,6.007,0,.2,0,.43-.009.734-.037,1.261-.091,3.165,1.274,4.17a2.571,2.571,0,0,0,1.549.561,4.766,4.766,0,0,0,3.127-1.952l4.548-4.88a1.3,1.3,0,0,1,.946-.408h0a1.289,1.289,0,0,1,.94.405l4.616,4.9c.86.963,2.448,2.736,4.462,1.52,1.568-.947,1.51-3.055,1.476-4.316-.008-.249-.015-.507-.009-.73.051-1.981.086-4,.107-6,.082-7.365.077-14.812.072-22.012Zm-3.263,5.726c0,5.461,0,11.107-.04,16.664-.022,3.38-.056,6.97-.146,10.507l-.043,1.69L30.62,38.846l-5.968-6.161a1.173,1.173,0,0,0-1.546.025l-5.423,5.812c-.057.066-.254.264-.552.564L15.9,40.318l-.057-.773c-.005-.062-.01-.125-.016-.186-.011-.116-.019-.212-.023-.3-.081-3.115-.13-6.525-.155-10.733-.043-6.035-.04-12.15-.037-18.063V8.233a1.391,1.391,0,0,1,1.313-1.44l14.1,0a.242.242,0,0,1,.04,0,1.237,1.237,0,0,1,.91.414,1.55,1.55,0,0,1,.4,1.016Z" fill="#767676"/>
  </g>
</svg>
