<svg xmlns="http://www.w3.org/2000/svg" width="54" height="54" viewBox="0 0 54 54">
  <g id="그룹_7213" data-name="그룹 7213" transform="translate(-96 -577)">
    <path id="패스_1908" data-name="패스 1908" d="M49.6,8.674c.123-2.908.123-8.748-7.2-8.673-4.255,0-22.142.006-26.4.063-1.047.014-2.115,0-3.19-.009A54.563,54.563,0,0,0,4.772.367C.814.919-.011,4.393,0,7.763L.083,32.195c.008,2.537-.09,5.1.026,7.635.308,6.767,7.355,6.039,12.385,6.134q2.747.05,5.478.032c5.929,0,11.856-.143,17.785-.143.5,0,1.028.014,1.578.014,5.179.072,12.2.14,12.471-6.325.293-7.133-.135-23.727-.2-30.868M42.4,3.321c4.7-.135,3.632,3.716,3.881,5.353.013,1.458.026,3.455.04,5.73-2.616-.014-6.857-.007-11.733.011-.031-4.413-.062-8.367-.085-11.09,3.483,0,6.465-.005,7.9,0M18.263,17.838c4.621-.025,9.007-.049,11.64-.074l1.365-.009c.021,4.008.043,7.787.064,10.343-4.247.019-8.772.044-13.009.071-.016-3.366-.037-6.915-.06-10.331M14.98,28.19c-4.858.032-9.052.063-11.589.084l-.036-10.35c2.884-.024,7.162-.047,11.56-.07.021,4.017.043,7.8.065,10.335M18.154,3.367c3.144-.017,8.242-.03,13.032-.037.021,2.959.043,7,.064,11.1-4.252.019-8.777.043-13.009.07-.031-4.423-.062-8.391-.086-11.131M34.615,17.74c4.014-.017,9.455-.034,11.729-.02.019,3.371.037,7.036.055,10.354-2.595-.014-6.836-.007-11.725.011-.016-3.373-.037-6.927-.06-10.346M5.28,3.741a13.867,13.867,0,0,1,3.354-.308c.607.031,1.17.064,1.638.053,1.521-.036,3.041-.059,4.561-.082.022,2.976.043,7.021.065,11.115-4.853.032-9.035.063-11.554.085q-.005-1.63-.011-3.263c-.006-1.85-.279-6.676,1.947-7.6M10.824,42.6c-.445-.02-.944-.009-1.467,0-2.53.047-5.626.094-5.928-2.774a59.275,59.275,0,0,1-.02-6.04L3.4,31.6c2.9-.023,7.2-.046,11.6-.069.02,3.625.048,9.724.018,11.14-1.4,0-2.8-.02-4.2-.069m16.418.032c-2.6-.017-5.2-.04-7.784,0-.372.006-.745.005-1.116.01.019-2.37.014-6.421,0-11.131,4.594-.024,8.948-.049,11.566-.073.157,0,.681-.005,1.452-.009.02,3.6.049,9.775.019,11.227q-2.065,0-4.132-.024m19.242-3.352c-.19,3.444-4.023,3.04-6.708,3.2-1.689.1-3.384.137-5.08.16.019-2.386.014-6.476-.005-11.222,4.053-.017,9.517-.034,11.73-.02.012,1.932.024,3.627.036,4.906.009.986.084,2,.028,2.98" transform="translate(98 581)"/>
    <rect id="사각형_1710" data-name="사각형 1710" width="54" height="54" transform="translate(96 577)" fill="none"/>
  </g>
</svg>
