<svg xmlns="http://www.w3.org/2000/svg" width="65.999" height="48" viewBox="0 0 65.999 48">
  <g id="그룹_4548" data-name="그룹 4548" transform="translate(-3709.445 -1928.147)">
    <path id="패스_1411" data-name="패스 1411" d="M3775.267,1967q-.064-5-.078-10c-.027-6.707-.025-13.411-.083-20.117a2.058,2.058,0,0,0-.114-.645c-.007-.037-.007-.07-.015-.106-.545-2.178-3.176-3.7-5.05-4.7a27.309,27.309,0,0,0-9.822-3.116c-6.111-.684-13.088.822-18.023,4.534a24.961,24.961,0,0,0-18.119-4.443,27.024,27.024,0,0,0-9.272,3.113c-1.823,1-4.355,2.485-4.887,4.617a.925.925,0,0,0-.015.1,2.07,2.07,0,0,0-.114.647c-.059,6.7-.057,13.411-.083,20.117q-.021,4.87-.075,9.74c-.018,1.529-.088,3.063-.066,4.592a4.512,4.512,0,0,0,.638,2.55,1.754,1.754,0,0,0,1.016,1.031c2.008.888,3.942-.2,5.832-.874a31.442,31.442,0,0,1,8.81-1.851,24.771,24.771,0,0,1,8.66,1.073,21.2,21.2,0,0,1,4.167,1.7,8.125,8.125,0,0,0,3.356,1.148c.058.011.122.013.184.02s.145.021.224.023h.105c.1,0,.18-.021.272-.028a.465.465,0,0,0,.123-.011,7.762,7.762,0,0,0,3.2-1.055,22.28,22.28,0,0,1,4.089-1.725,24.9,24.9,0,0,1,8.909-1.149,31.733,31.733,0,0,1,8.694,1.81c1.928.676,3.9,1.821,5.948.915a1.741,1.741,0,0,0,1.036-1.089C3775.9,1971.975,3775.288,1968.972,3775.267,1967Zm-48.246-22.519c.039-2.106,1.083-3.091,2.9-2.629,1.434.366,1.379,1.8,1.773,2.853a4.293,4.293,0,0,1,.01,1.78c-.116,1.287-.561,1.868-1.5,2.055a2.189,2.189,0,0,1-2.757-1.34A4.841,4.841,0,0,1,3727.021,1944.477Zm-5.607,1.062a4.231,4.231,0,0,1,.921-2.652c1.079-1.581,2.812-1.483,3.561.266a4.882,4.882,0,0,1-.4,5.108,2.128,2.128,0,0,1-2.261.935,1.931,1.931,0,0,1-1.635-1.549A4.422,4.422,0,0,1,3721.414,1945.539Zm-3.3,8.691a3.093,3.093,0,0,1-1.837-3.766c.44-1.315,2.179-3.2,3.432-2.774,1.313.443,1.89,2.994,1.213,4.858C3720.488,1953.739,3719.065,1954.586,3718.114,1954.23Zm14.565,5.837c-1.713,1.16-3.476-.285-5.2-.228-2.108.225-2.945,1.184-4.345,1.035a3.541,3.541,0,0,1-3.283-3.263,3.873,3.873,0,0,1,1.54-3.541,17.083,17.083,0,0,0,2.344-3.188,3.672,3.672,0,0,1,5.755-.764,8.469,8.469,0,0,1,1.572,2.212l1.147,1.647.787.819c.07.073.137.148.2.226A3.586,3.586,0,0,1,3732.679,1960.067Zm2.433-7.375c-.4.522-.837.433-1.313.322a2.254,2.254,0,0,1-1.306-.867,3.441,3.441,0,0,1-.151-4.174c.454-.781.737-1.3,1.654-1.192a2.673,2.673,0,0,1,2.144,1.761A4.615,4.615,0,0,1,3735.112,1952.692Zm35.915,18.132q-.522-.183-1.037-.382c-1.072-.416-2.153-.778-3.265-1.089v0a34.728,34.728,0,0,0-8.659-1.335,28.579,28.579,0,0,0-8.341,1.109,34.413,34.413,0,0,0-4.257,1.561c-.439.191-.893.484-1.357.747q.084-17.461.1-34.921c4.007-3.342,9.862-4.51,15.037-4.161a21.081,21.081,0,0,1,7.653,2.2,17.488,17.488,0,0,1,2.919,1.708,6.711,6.711,0,0,1,.878.78,1.019,1.019,0,0,1,.115.163c.051,5.981.055,11.963.076,17.945q.014,4.347.049,8.693.021,2.237.051,4.475c.011.79.026,1.581.038,2.373Z" />
  </g>
</svg>
