<svg xmlns="http://www.w3.org/2000/svg" width="65.75" height="47.748" viewBox="0 0 65.75 47.748">
  <path id="패스_1739" data-name="패스 1739" d="M65.572,49.246c-.042-3.32-.068-6.685-.077-10q-.014-3.316-.021-6.632c-.012-4.419-.023-8.988-.062-13.483a1.951,1.951,0,0,0-.108-.6.754.754,0,0,1-.013-.077.315.315,0,0,0,0-.043c-.565-2.257-3.552-3.851-4.988-4.616a27.058,27.058,0,0,0-9.777-3.1C44.112,9.97,37.24,11.7,32.588,15.194l-.074.056L32.44,15.2a24.718,24.718,0,0,0-18.029-4.42,26.765,26.765,0,0,0-9.229,3.1c-1.5.82-4.28,2.347-4.827,4.537a.3.3,0,0,0-.006.04.485.485,0,0,1-.008.055,2,2,0,0,0-.111.623c-.041,4.6-.053,9.285-.064,13.813q-.007,3.15-.019,6.3C.133,42.5.107,45.775.072,48.983c-.007.552-.02,1.1-.033,1.657C.016,51.6-.008,52.6.006,53.571a4.384,4.384,0,0,0,.62,2.488,1.656,1.656,0,0,0,.954.979c1.636.724,3.246.092,4.8-.518.315-.123.629-.246.942-.358A31.574,31.574,0,0,1,16.169,54.3q.678-.036,1.353-.036a24.752,24.752,0,0,1,7.352,1.115,21.285,21.285,0,0,1,4.189,1.709,8.062,8.062,0,0,0,3.311,1.134c.04.007.073.01.107.013l.133.014a1.549,1.549,0,0,0,.157.015h.1a1,1,0,0,0,.152-.015l.109-.013a.414.414,0,0,0,.1-.007A7.718,7.718,0,0,0,36.4,57.192a22.383,22.383,0,0,1,4.116-1.737A24.971,24.971,0,0,1,49.473,54.3a31.845,31.845,0,0,1,8.73,1.818c.343.12.69.256,1.037.392,1.565.615,3.181,1.249,4.818.526a1.611,1.611,0,0,0,.967-1.014l.014-.028c.889-1.378.743-3.423.614-5.228-.039-.545-.076-1.058-.081-1.52M30.487,18.756c0,11.449-.033,23.03-.1,34.421v.2l-.219-.113c-.072-.038-.145-.075-.218-.109a34,34,0,0,0-4.257-1.594l-.089-.028a28.262,28.262,0,0,0-8.458-1.149A34.481,34.481,0,0,0,8.768,51.65a33.8,33.8,0,0,0-3.347,1.09l-.189.073c-.338.13-.676.26-1.014.379l-.168.059,0-.178c0-.46.012-.92.02-1.38q.009-.437.015-.874.035-2.237.055-4.474c.027-2.969.044-5.982.052-8.954q.009-2.314.013-4.628c.012-4.367.024-8.883.062-13.325l.014-.058.066-.107c.111-.1.218-.2.324-.306a6.8,6.8,0,0,1,.506-.458A16.058,16.058,0,0,1,7.73,16.944,22.347,22.347,0,0,1,15.3,14.532c5.553-.644,11.354.944,15.139,4.129l.044.037ZM61.416,53.189c-.349-.123-.7-.25-1.041-.384-1.082-.42-2.146-.774-3.253-1.085l-.092-.027a34.592,34.592,0,0,0-8.537-1.305,28.916,28.916,0,0,0-8.3,1.1,34.375,34.375,0,0,0-4.241,1.554,9.4,9.4,0,0,0-.957.516c-.129.076-.259.152-.389.226l-.187.106v-.216c.055-11.541.089-23.289.1-34.916V18.7l.045-.037c3.616-3.017,9.271-4.583,15.125-4.191a21.12,21.12,0,0,1,7.7,2.214,17.737,17.737,0,0,1,2.936,1.718,6.82,6.82,0,0,1,.9.8,1.144,1.144,0,0,1,.134.187l.016.061c.037,4.382.049,8.839.061,13.148q.008,2.4.014,4.795c.009,2.854.026,5.777.05,8.691q.02,2.236.05,4.474.01.688.022,1.377l.017,1.31Z" transform="translate(0 -10.52)" fill="#000"/>
  <g id="그룹_6853" data-name="그룹 6853" transform="translate(23607 3724.312)" fill="#000">
    <path id="패스_1611" data-name="패스 1611" d="M14.165,33.13a17.147,17.147,0,0,1-2.344,3.188,3.873,3.873,0,0,0-1.54,3.541,3.542,3.542,0,0,0,3.283,3.263c1.4.149,2.237-.81,4.345-1.035,1.724-.057,3.487,1.388,5.2.228a3.586,3.586,0,0,0,.517-5.045c-.064-.078-.13-.154-.2-.226l-.787-.819-1.147-1.647a8.464,8.464,0,0,0-1.572-2.212,3.67,3.67,0,0,0-5.755.764" transform="translate(-23606 -3733.999)" fill="#000"/>
    <path id="패스_1612" data-name="패스 1612" d="M12.765,25.137a4.228,4.228,0,0,0-.921,2.652,4.422,4.422,0,0,0,.191,2.107,1.93,1.93,0,0,0,1.635,1.549,2.128,2.128,0,0,0,2.261-.935,4.881,4.881,0,0,0,.4-5.107c-.749-1.749-2.482-1.847-3.561-.266" transform="translate(-23606 -3733.999)" fill="#000"/>
    <path id="패스_1613" data-name="패스 1613" d="M20.634,30.786c.939-.187,1.384-.768,1.5-2.055a4.288,4.288,0,0,0-.01-1.78c-.394-1.052-.339-2.487-1.773-2.853-1.817-.462-2.861.523-2.9,2.629a4.841,4.841,0,0,0,.426,2.719,2.188,2.188,0,0,0,2.757,1.34" transform="translate(-23606 -3733.999)" fill="#000"/>
    <path id="패스_1614" data-name="패스 1614" d="M11.352,34.8c.677-1.863.1-4.414-1.213-4.857-1.253-.425-2.992,1.459-3.432,2.774a3.094,3.094,0,0,0,1.837,3.766c.951.356,2.374-.491,2.808-1.683" transform="translate(-23606 -3733.999)" fill="#000" />
    <path id="패스_1615" data-name="패스 1615" d="M22.923,34.4a2.258,2.258,0,0,0,1.306.867c.476.111.917.2,1.313-.322a4.615,4.615,0,0,0,1.028-4.149,2.673,2.673,0,0,0-2.144-1.761c-.917-.109-1.2.411-1.654,1.192a3.439,3.439,0,0,0,.151,4.173" transform="translate(-23606 -3733.999)" fill="#000"/>
  </g>
</svg>
