<svg xmlns="http://www.w3.org/2000/svg" width="65.75" height="47.494" viewBox="0 0 65.75 47.494">
  <path id="패스_1739" data-name="패스 1739" d="M14.411,19.137a26.785,26.785,0,0,0-9.229,3.1c-1.5.821-4.28,2.348-4.827,4.537a.216.216,0,0,0-.006.04c0,.019,0,.039-.008.056a2,2,0,0,0-.111.623C.189,32.092.177,36.775.166,41.3q-.009,3.15-.019,6.3c-.014,3.255-.04,6.532-.075,9.74C.065,57.9.052,58.448.038,59c-.023.962-.047,1.956-.032,2.931a4.386,4.386,0,0,0,.62,2.488,1.652,1.652,0,0,0,.954.978c1.636.725,3.245.093,4.8-.517.315-.123.629-.246.942-.359a31.538,31.538,0,0,1,8.844-1.857q.678-.036,1.353-.036a24.757,24.757,0,0,1,7.352,1.115,21.249,21.249,0,0,1,4.189,1.709,8.074,8.074,0,0,0,1.293.627L30.507,22.3a24.7,24.7,0,0,0-16.1-3.162m3.04,15.951c.039-2.106,1.083-3.091,2.9-2.629,1.434.366,1.379,1.8,1.773,2.853a4.288,4.288,0,0,1,.01,1.78c-.116,1.287-.561,1.868-1.5,2.055a2.189,2.189,0,0,1-2.757-1.34,4.841,4.841,0,0,1-.426-2.719M11.844,36.15a4.24,4.24,0,0,1,.921-2.652c1.079-1.581,2.812-1.483,3.561.266a4.881,4.881,0,0,1-.4,5.107,2.128,2.128,0,0,1-2.261.935,1.932,1.932,0,0,1-1.635-1.549,4.434,4.434,0,0,1-.191-2.107m-3.3,8.69a3.094,3.094,0,0,1-1.837-3.766c.44-1.315,2.179-3.2,3.432-2.774,1.313.443,1.89,2.994,1.213,4.857-.434,1.192-1.857,2.039-2.808,1.683m14.565,5.836c-1.713,1.16-3.476-.285-5.2-.228-2.108.225-2.945,1.184-4.345,1.035a3.541,3.541,0,0,1-3.283-3.263,3.873,3.873,0,0,1,1.54-3.541,17.069,17.069,0,0,0,2.344-3.188,3.716,3.716,0,0,1,.565-.738,3.67,3.67,0,0,1,5.19-.026,8.441,8.441,0,0,1,1.572,2.212l1.147,1.647.787.819c.07.073.137.148.2.226a3.585,3.585,0,0,1-.517,5.045M25.542,43.3c-.4.522-.837.433-1.313.322a2.258,2.258,0,0,1-1.306-.867,3.441,3.441,0,0,1-.151-4.173c.454-.781.737-1.3,1.654-1.192a2.673,2.673,0,0,1,2.144,1.761A4.615,4.615,0,0,1,25.542,43.3" transform="translate(0 -18.881)" fill="#1a1311"/>
  <path id="패스_1740" data-name="패스 1740" d="M65.653,59.127c-.039-.545-.076-1.059-.081-1.521-.042-3.319-.068-6.684-.077-10q-.014-3.316-.021-6.632c-.011-4.419-.023-8.989-.062-13.483a1.951,1.951,0,0,0-.108-.6.682.682,0,0,1-.012-.077c0-.014,0-.029-.006-.043-.565-2.257-3.552-3.851-4.987-4.617a27.081,27.081,0,0,0-9.778-3.1,26.772,26.772,0,0,0-16.007,3.236L34.4,66.375a7.65,7.65,0,0,0,2.005-.822,22.485,22.485,0,0,1,4.116-1.738,25,25,0,0,1,8.953-1.154,31.845,31.845,0,0,1,8.73,1.818c.344.12.69.255,1.037.392,1.565.614,3.182,1.249,4.818.526a1.611,1.611,0,0,0,.967-1.014l.014-.028c.889-1.378.743-3.423.614-5.228" transform="translate(0 -18.881)" fill="#1a1311"/>
</svg>
