<svg id="FEED_TAB_BORDER" data-name="FEED TAB BORDER" xmlns="http://www.w3.org/2000/svg" width="66" height="48" viewBox="0 0 66 48">
  <path id="패스_1397" data-name="패스 1397" d="M3521.418,1951.06l-1.147-1.647a8.464,8.464,0,0,0-1.572-2.212,3.67,3.67,0,0,0-5.755.764,17.125,17.125,0,0,1-2.344,3.188,3.871,3.871,0,0,0-1.54,3.541,3.541,3.541,0,0,0,3.283,3.263c1.4.149,2.237-.81,4.345-1.035,1.724-.057,3.487,1.388,5.2.228a3.586,3.586,0,0,0,.317-5.271Z" transform="translate(-3498.654 -1925.23)" fill="#999"/>
  <path id="패스_1398" data-name="패스 1398" d="M3512.321,1946.945a2.129,2.129,0,0,0,2.261-.935,4.882,4.882,0,0,0,.395-5.107c-.749-1.749-2.482-1.847-3.561-.266a4.231,4.231,0,0,0-.921,2.652,4.421,4.421,0,0,0,.191,2.107A1.931,1.931,0,0,0,3512.321,1946.945Z" transform="translate(-3498.526 -1925.895)" fill="#999"/>
  <path id="패스_1399" data-name="패스 1399" d="M3518.563,1946.289c.939-.187,1.384-.768,1.5-2.055a4.292,4.292,0,0,0-.01-1.78c-.394-1.052-.339-2.487-1.773-2.853-1.817-.462-2.861.523-2.9,2.629a4.837,4.837,0,0,0,.426,2.719A2.188,2.188,0,0,0,3518.563,1946.289Z" transform="translate(-3497.804 -1925.898)" fill="#999"/>
  <path id="패스_1400" data-name="패스 1400" d="M3510.92,1949.761c.677-1.863.1-4.414-1.213-4.857-1.253-.425-2.992,1.459-3.432,2.774a3.093,3.093,0,0,0,1.837,3.766C3509.063,1951.8,3510.486,1950.953,3510.92,1949.761Z" transform="translate(-3499.443 -1925.36)" fill="#999"/>
  <path id="패스_1401" data-name="패스 1401" d="M3521.748,1944.075c-.917-.109-1.2.411-1.654,1.192a3.439,3.439,0,0,0,.151,4.173,2.256,2.256,0,0,0,1.306.867c.476.111.917.2,1.313-.322a4.615,4.615,0,0,0,1.028-4.149A2.673,2.673,0,0,0,3521.748,1944.075Z" transform="translate(-3497.197 -1925.439)" fill="#999"/>
  <path id="패스_1402" data-name="패스 1402" d="M3565.879,1965.987q-.064-5-.078-10c-.027-6.706-.025-13.41-.083-20.115a2.065,2.065,0,0,0-.114-.645c-.007-.037-.007-.07-.015-.106-.545-2.178-3.176-3.7-5.05-4.7a27.316,27.316,0,0,0-9.822-3.116c-6.111-.684-13.088.822-18.023,4.533a24.961,24.961,0,0,0-18.119-4.442,26.985,26.985,0,0,0-9.272,3.113c-1.823,1-4.355,2.485-4.888,4.616-.009.035-.008.068-.015.1a2.088,2.088,0,0,0-.114.647c-.059,6.7-.057,13.409-.083,20.115q-.021,4.868-.075,9.739c-.018,1.529-.088,3.063-.066,4.591a4.516,4.516,0,0,0,.638,2.55,1.758,1.758,0,0,0,1.016,1.031c2.008.888,3.942-.2,5.832-.874a31.417,31.417,0,0,1,8.81-1.851,24.752,24.752,0,0,1,8.66,1.073,21.176,21.176,0,0,1,4.167,1.7,8.135,8.135,0,0,0,3.356,1.148c.058.011.122.013.184.02s.145.021.224.023c.019,0,.034,0,.052,0s.034,0,.053,0c.1,0,.18-.021.272-.028.04,0,.083,0,.123-.011a7.756,7.756,0,0,0,3.2-1.055,22.265,22.265,0,0,1,4.089-1.725,24.884,24.884,0,0,1,8.909-1.149,31.729,31.729,0,0,1,8.694,1.81c1.928.676,3.9,1.821,5.948.915a1.742,1.742,0,0,0,1.036-1.089C3566.513,1970.966,3565.9,1967.963,3565.879,1965.987Zm-39.969,2.2a28.5,28.5,0,0,0-8.586-1.18,34.577,34.577,0,0,0-8.408,1.267,33.609,33.609,0,0,0-3.358,1.093c-.4.154-.8.31-1.2.451.006-.751.025-1.5.036-2.253q.034-2.237.054-4.475.041-4.477.053-8.955c.02-5.985.024-11.968.074-17.952l.038-.072c.281-.248.529-.526.825-.759a15.837,15.837,0,0,1,2.529-1.552,22.3,22.3,0,0,1,7.535-2.4c5.225-.6,11.035.729,15.042,4.1q0,17.211-.1,34.42c-.087-.045-.174-.091-.261-.131A33.983,33.983,0,0,0,3525.91,1968.189Zm31.427.155a34.716,34.716,0,0,0-8.659-1.335,28.588,28.588,0,0,0-8.341,1.109,34.35,34.35,0,0,0-4.257,1.561c-.439.191-.893.484-1.357.747q.083-17.459.1-34.917c4.007-3.342,9.862-4.509,15.037-4.161a21.088,21.088,0,0,1,7.653,2.2,17.58,17.58,0,0,1,2.919,1.708,6.667,6.667,0,0,1,.878.78,1.021,1.021,0,0,1,.115.163c.051,5.98.055,11.962.076,17.943q.013,4.347.049,8.692.02,2.236.051,4.475c.011.79.026,1.581.038,2.373,0,.041,0,.09,0,.135q-.522-.183-1.037-.382C3559.53,1969.017,3558.449,1968.655,3557.337,1968.344Z" transform="translate(-3500.057 -1927.139)" fill="#999"/>
</svg>
