<svg xmlns="http://www.w3.org/2000/svg" width="48" height="48" viewBox="0 0 48 48">
  <g id="FEMALE_48" data-name="FEMALE 48" transform="translate(0 0.462)">
    <rect id="사각형_307" data-name="사각형 307" width="48" height="48" rx="24" transform="translate(0 -0.462)" fill="#ff9888"/>
    <path id="패스_1289" data-name="패스 1289" d="M4442.784,364.266c-5.359-2.931-12.963-2.265-17.435,3.038-3.828,4.538-4.238,9.594-1.65,14.191a15.138,15.138,0,0,0,10.69,6.993c.009.374,0,.752,0,1.127h-3.039a2,2,0,1,0,0,3.977h2.961c0,.048,0,.1,0,.143-.035.962-.068,1.922-.085,2.881a1.8,1.8,0,0,0,.638,1.415,2.224,2.224,0,0,0,1.425.507,2.092,2.092,0,0,0,2.239-1.955c.017-.948.05-1.9.084-2.857,0-.045,0-.09,0-.134h3.2a2,2,0,1,0,0-3.977h-3.119c0-.379.012-.758,0-1.136a13.431,13.431,0,0,0,11.014-9.849C4451.081,372.933,4448.3,367.153,4442.784,364.266ZM4438.7,384.48a10.947,10.947,0,0,1-10.368-3.635h0c-3.263-3.924-2.017-8.014.155-10.84a9.744,9.744,0,0,1,10.638-3,10.5,10.5,0,0,1,3.365,1.921,9.079,9.079,0,0,1,3.285,7.182A9.24,9.24,0,0,1,4438.7,384.48Z" transform="translate(-4412.057 -356.074)" fill="#fff"/>
  </g>
</svg>
