<svg xmlns="http://www.w3.org/2000/svg" width="60" height="60" viewBox="0 0 60 60">
  <g id="그룹_5497" data-name="그룹 5497" transform="translate(-48 -316)">
    <path id="패스_1445" data-name="패스 1445" d="M22,0H38A22,22,0,0,1,60,22V38A22,22,0,0,1,38,60H22A22,22,0,0,1,0,38V22A22,22,0,0,1,22,0Z" transform="translate(48 316)" fill="#ff634a"/>
    <g id="그룹_4780" data-name="그룹 4780" transform="translate(-1284.354 -1607.458)">
      <path id="패스_1446" data-name="패스 1446" d="M1346.617,1947.846h16.123a6.921,6.921,0,0,0,.857,1.813l.306.472a8.834,8.834,0,0,0,1.957,1.958,7.031,7.031,0,0,0,3.954,1.229c.119,0,.236,0,.355-.009,3.059-.148,5.481-2.169,6.61-5.463h1.313a2.469,2.469,0,0,0,0-4.921h-.9a7,7,0,0,0-6.882-5.467,7.7,7.7,0,0,0-7.683,5.467h-16.01a2.469,2.469,0,0,0,0,4.921Zm20.269-3.436a3.208,3.208,0,0,1,3.236-2.175c.072,0,.144,0,.216.007a2.544,2.544,0,0,1,2.547,2.047l.036.2c.005.028.012.057.017.087a6.3,6.3,0,0,1-.356,1.667,2.915,2.915,0,0,1-2.544,2.2h-.011a3.034,3.034,0,0,1-3.075-2.245,2.559,2.559,0,0,1-.088-.3A3.452,3.452,0,0,1,1366.886,1944.411Z" transform="translate(0 0)" fill="#fff"/>
      <path id="패스_1447" data-name="패스 1447" d="M1378.091,1956.926h-16.01a7.673,7.673,0,0,0-7.683-5.467,7,7,0,0,0-6.882,5.467h-.9a2.469,2.469,0,0,0,0,4.921h1.314c1.128,3.294,3.55,5.316,6.608,5.463.119.006.236.009.354.009a7.031,7.031,0,0,0,3.954-1.228,8.891,8.891,0,0,0,1.987-2l.263-.41a6.953,6.953,0,0,0,.87-1.834h16.125a2.469,2.469,0,0,0,0-4.921Zm-20.246,2.967a3.357,3.357,0,0,1-.116.394,3.011,3.011,0,0,1-3.061,2.165,2.915,2.915,0,0,1-2.543-2.2,6.314,6.314,0,0,1-.347-1.564l.045-.393a2.547,2.547,0,0,1,2.547-2.05,3.252,3.252,0,0,1,3.453,2.169A3.437,3.437,0,0,1,1357.845,1959.893Z" transform="translate(0 2.139)" fill="#fff"/>
    </g>
  </g>
</svg>
