<svg xmlns="http://www.w3.org/2000/svg" xmlns:xlink="http://www.w3.org/1999/xlink" width="60" height="60" viewBox="0 0 60 60">
  <defs>
    <clipPath id="clip-path">
      <rect id="사각형_1602" data-name="사각형 1602" width="32.159" height="26.283" transform="translate(0 0)" fill="none"/>
    </clipPath>
  </defs>
  <g id="그룹_6624" data-name="그룹 6624" transform="translate(-28 -292)">
    <g id="패스_1445" data-name="패스 1445" transform="translate(28 292)" fill="#fff">
      <path d="M 38 59 L 22 59 C 19.16457939147949 59 16.41449928283691 58.44490051269531 13.8261604309082 57.35012817382812 C 11.3256196975708 56.29248809814453 9.079689979553223 54.77817153930664 7.150760173797607 52.84923934936523 C 5.221829891204834 50.92031860351562 3.707520008087158 48.67438888549805 2.649869918823242 46.1738395690918 C 1.555099964141846 43.58549880981445 1 40.83541870117188 1 38 L 1 22 C 1 19.16457939147949 1.555099964141846 16.41449928283691 2.649869918823242 13.8261604309082 C 3.707520008087158 11.3256196975708 5.221829891204834 9.079689979553223 7.150760173797607 7.150760173797607 C 9.079689979553223 5.221829891204834 11.3256196975708 3.707520008087158 13.8261604309082 2.649869918823242 C 16.41449928283691 1.555099964141846 19.16457939147949 1 22 1 L 38 1 C 40.83541870117188 1 43.58549880981445 1.555099964141846 46.1738395690918 2.649869918823242 C 48.67438888549805 3.707520008087158 50.92031860351562 5.221829891204834 52.84923934936523 7.150760173797607 C 54.77817153930664 9.079689979553223 56.29248809814453 11.3256196975708 57.35012817382812 13.8261604309082 C 58.44490051269531 16.41449928283691 59 19.16457939147949 59 22 L 59 38 C 59 40.83541870117188 58.44490051269531 43.58549880981445 57.35012817382812 46.1738395690918 C 56.29248809814453 48.67438888549805 54.77817153930664 50.92031860351562 52.84923934936523 52.84923934936523 C 50.92031860351562 54.77817153930664 48.67438888549805 56.29248809814453 46.1738395690918 57.35012817382812 C 43.58549880981445 58.44490051269531 40.83541870117188 59 38 59 Z" stroke="none"/>
      <path d="M 22 2 C 19.29912948608398 2 16.68011856079102 2.528518676757812 14.2157096862793 3.570880889892578 C 11.83435821533203 4.578098297119141 9.695270538330078 6.020450592041016 7.857860565185547 7.857860565185547 C 6.020450592041016 9.695270538330078 4.578098297119141 11.83435821533203 3.570880889892578 14.2157096862793 C 2.528518676757812 16.68011856079102 2 19.29912948608398 2 22 L 2 38 C 2 40.70085906982422 2.528518676757812 43.31987762451172 3.570880889892578 45.7842903137207 C 4.578098297119141 48.16563034057617 6.020450592041016 50.30471801757812 7.857860565185547 52.14212799072266 C 9.695270538330078 53.97954940795898 11.83435821533203 55.42189788818359 14.2157096862793 56.42911911010742 C 16.68011856079102 57.47148132324219 19.29912948608398 58 22 58 L 38 58 C 40.70085906982422 58 43.31986999511719 57.47148132324219 45.7842903137207 56.42911911010742 C 48.16563034057617 55.42189788818359 50.30471801757812 53.97954940795898 52.14212799072266 52.14212799072266 C 53.97954940795898 50.30471801757812 55.42189788818359 48.16563034057617 56.42911911010742 45.7842903137207 C 57.47148132324219 43.31986999511719 58 40.70085906982422 58 38 L 58 22 C 58 19.29912948608398 57.47148132324219 16.68011856079102 56.42911911010742 14.2157096862793 C 55.42189788818359 11.83435821533203 53.97954940795898 9.695270538330078 52.14212799072266 7.857860565185547 C 50.30471801757812 6.020450592041016 48.16563034057617 4.578098297119141 45.7842903137207 3.570880889892578 C 43.31987762451172 2.528518676757812 40.70085906982422 2 38 2 L 22 2 M 22 0 L 38 0 C 50.15026092529297 0 60 9.8497314453125 60 22 L 60 38 C 60 50.15026092529297 50.15026092529297 60 38 60 L 22 60 C 9.8497314453125 60 0 50.15026092529297 0 38 L 0 22 C 0 9.8497314453125 9.8497314453125 0 22 0 Z" stroke="none" fill="#dbdbdb"/>
    </g>
    <g id="그룹_6601" data-name="그룹 6601" transform="translate(41.92 308.859)">
      <g id="그룹_6600" data-name="그룹 6600" clip-path="url(#clip-path)">
        <path id="패스_1705" data-name="패스 1705" d="M1.475,7.615H16.886l.144.423a5.048,5.048,0,0,0,.707,1.378l.291.414a7.417,7.417,0,0,0,1.634,1.5,6.382,6.382,0,0,0,3.642.949,6.116,6.116,0,0,0,5.575-4.257l.152-.406h1.653a1.475,1.475,0,1,0,0-2.95H29.362l-.118-.473A5.82,5.82,0,0,0,23.451,0C20.83.013,17.8,1.323,16.932,4.219l-.133.446H1.475a1.475,1.475,0,1,0,0,2.95M19.683,5.141C20.14,3.5,22,2.74,23.527,2.833A2.9,2.9,0,0,1,26.47,5.1l.055.373a5.569,5.569,0,0,1-.37,1.629,3.272,3.272,0,0,1-2.9,2.276c-.087.006-.173.009-.259.009a3.419,3.419,0,0,1-3.242-2.342,2.607,2.607,0,0,1-.1-.336,3.347,3.347,0,0,1,.029-1.569" fill="#1a1311"/>
        <path id="패스_1706" data-name="패스 1706" d="M30.683,18.665H15.36l-.133-.447C14.358,15.3,11.332,14,8.836,14H8.707a5.821,5.821,0,0,0-5.793,4.191l-.117.474H1.475a1.474,1.474,0,1,0,0,2.949H3.128l.151.406a6.113,6.113,0,0,0,5.574,4.256,6.329,6.329,0,0,0,3.641-.946,7.344,7.344,0,0,0,1.678-1.556l.227-.328a5.174,5.174,0,0,0,.73-1.408l.144-.424h15.41a1.474,1.474,0,1,0,0-2.949M12.507,20.7V20.7a2.64,2.64,0,0,1-.107.349,3.459,3.459,0,0,1-3.242,2.337c-.086,0-.171,0-.257-.008A3.274,3.274,0,0,1,6,21.1a5.617,5.617,0,0,1-.362-1.5l-.006-.057.05-.418a2.911,2.911,0,0,1,2.95-2.3c1.518-.074,3.369.613,3.84,2.308a3.308,3.308,0,0,1,.031,1.556" fill="#1a1311"/>
      </g>
    </g>
  </g>
</svg>
