<svg xmlns="http://www.w3.org/2000/svg" width="72" height="72.002" viewBox="0 0 72 72.002">
  <g id="FLASH_OFF_72" data-name="FLASH OFF 72" transform="translate(-4667.661 -841.56)">
    <path id="패스_1211" data-name="패스 1211" d="M4738.606,871.385a42.744,42.744,0,0,0-22.458-26.985c-11.512-5.5-27.018-2.616-35.885,5.251-12.218,10.833-16.456,28.678-8.672,43.939,4.973,9.75,12.625,16.391,23.86,18.954a36.266,36.266,0,0,0,30.384-6.307c.066-.051.13-.106.192-.163a2.682,2.682,0,0,0,.232-.168C4737.306,896.967,4741.923,884.066,4738.606,871.385Zm-10.221,25.2a2.5,2.5,0,0,1-3.512.412l-12.948-10.229q-4.041,7.155-8.762,13.9a1.208,1.208,0,0,1-2.19-.782c.6-5.384,1.466-11.614,1.871-16.347a2.077,2.077,0,0,0-.386-1.742,2.286,2.286,0,0,0-1.877-.294l-9.212,1.248c-.877.119-1.843.224-2.463-.686-.522-.769-.076-1.38.184-2.132l4.108-7.961-12.5-9.872a2.5,2.5,0,1,1,3.1-3.923l11.732,9.268,4.281-8.3a33.777,33.777,0,0,1,2.584-4.846,1.04,1.04,0,0,1,1.846.537c.324,5.41.1,12.379.211,17.576l11.451-1.1a2.845,2.845,0,0,1,2.344.467c.722.739.335,1.934-.1,2.857h0q-1.8,3.888-3.795,7.674l13.62,10.759A2.5,2.5,0,0,1,4728.385,896.587Z" fill="#fff"/>
  </g>
</svg>
