<svg xmlns="http://www.w3.org/2000/svg" width="72" height="72" viewBox="0 0 72 72">
  <path id="FLASH_ON_72" data-name="FLASH ON 72" d="M4721.117,937.249c-11.511-5.5-27.017-2.616-35.885,5.251-12.218,10.833-16.456,28.678-8.672,43.939,4.973,9.75,12.625,16.391,23.86,18.954a36.266,36.266,0,0,0,30.384-6.307c.067-.051.131-.106.193-.163.08-.052.157-.108.232-.168,11.047-8.939,15.664-21.84,12.347-34.521A42.745,42.745,0,0,0,4721.117,937.249Zm2,30.242a167.7,167.7,0,0,1-14.985,26.029,1.208,1.208,0,0,1-2.19-.782c.6-5.384,1.466-11.614,1.871-16.347a2.071,2.071,0,0,0-.386-1.742,2.282,2.282,0,0,0-1.877-.294l-9.212,1.248c-.877.119-1.843.224-2.463-.686-.522-.769-.076-1.38.184-2.132L4704.785,952a33.641,33.641,0,0,1,2.584-4.846,1.039,1.039,0,0,1,1.845.537c.324,5.41.1,12.379.211,17.576l11.451-1.1a2.844,2.844,0,0,1,2.344.467C4723.943,965.373,4723.556,966.568,4723.12,967.491Z" transform="translate(-4672.63 -934.411)" fill="#fff"/>
</svg>
