<svg xmlns="http://www.w3.org/2000/svg" xmlns:xlink="http://www.w3.org/1999/xlink" width="120" height="68" viewBox="0 0 120 68">
  <defs>
    <clipPath id="clip-path">
      <rect id="사각형_1725" data-name="사각형 1725" width="58" height="36" fill="none"/>
    </clipPath>
  </defs>
  <g id="그룹_7229" data-name="그룹 7229" transform="translate(-63.999 -2)">
    <g id="사각형_586" data-name="사각형 586" transform="translate(63.999 2)" fill="#fff" stroke="#dbdbdb" stroke-width="2">
      <rect width="120" height="68" rx="30" stroke="none"/>
      <rect x="1" y="1" width="118" height="66" rx="29" fill="none"/>
    </g>
    <g id="그룹_7110" data-name="그룹 7110" transform="translate(95 18)">
      <g id="그룹_7109" data-name="그룹 7109" clip-path="url(#clip-path)">
        <path id="패스_1941" data-name="패스 1941" d="M56.968,3.486C56.118,2.526,53.99.115,51.737,0A4.164,4.164,0,0,0,48.682,1.34h0c-3.09,2.874-6.034,6.082-8.882,9.183-1.42,1.548-2.879,3.139-4.344,4.67l-7.866,8.241a21.648,21.648,0,0,0-1.778,1.918c-1.482,1.99-1.633,4.742-1.779,7.4-.032.6-.064,1.188-.112,1.757a1.255,1.255,0,0,0,.324,1.066l.071.077a.951.951,0,0,0,.711.335h.249c-.024,0-.064,0-.1.01l1.169-.106c3.465-.3,6.444-.548,9-3.146Q37.18,30.867,39,28.968l2.554-2.645q2.5-2.588,5.033-5.143C49.9,17.819,53.316,14.337,56.6,10.8l.123-.121c.106-.094.209-.195.308-.3a5.028,5.028,0,0,0-.062-6.9M54.646,8.7l-.343.4L34.334,29.727c-.16.164-.321.342-.481.518a12.4,12.4,0,0,1-.918.941l-.2.158a9.444,9.444,0,0,1-3.909,1.521l-2.285.333.354-2.306a10.246,10.246,0,0,1,2.312-5.076l.067-.076L48.64,5.455c.209-.222.345-.381.482-.541l.08-.091c.814-.94,1.411-1.563,2.261-1.687l.215-.032.217.024a2.616,2.616,0,0,1,1.355.561,4.64,4.64,0,0,1,2,2.662l.029.111A2.607,2.607,0,0,1,54.646,8.7" transform="translate(-0.368)" fill="#1a1311"/>
        <path id="패스_1942" data-name="패스 1942" d="M25.423,12.8a1.432,1.432,0,0,0-1.02-.459H24.4c-2.871.085-5.745.113-8.537.092l-1.248-.009.066-1.246c.141-2.7.236-5.465.285-8.231a1.383,1.383,0,0,0-1.33-1.228,1.447,1.447,0,0,0-1.029.367,1.4,1.4,0,0,0-.458.981c-.048,2.7-.143,5.445-.283,8.153L11.8,12.387l-1.169-.027c-3.124-.088-6.273-.237-9.352-.441a1.109,1.109,0,0,0-1.264.935l0,.02c0,.039,0,.079,0,.114a1.843,1.843,0,0,0,.275,1.146,1.366,1.366,0,0,0,1.068.6c3.041.2,6.083.344,9.026.433l1.246.037-.091,1.243c-.185,2.524-.415,5.1-.687,7.657a1.275,1.275,0,0,0-.017.312,1.036,1.036,0,0,0,1.042.942h.158a1.587,1.587,0,0,0,1.636-1.4c.267-2.536.5-5.088.679-7.59l.083-1.115,1.119.01c3,.023,6-.01,8.919-.1a1.411,1.411,0,0,0,.958-2.359" transform="translate(0)" fill="#1a1311"/>
      </g>
    </g>
  </g>
</svg>
