<svg xmlns="http://www.w3.org/2000/svg" xmlns:xlink="http://www.w3.org/1999/xlink" width="120" height="68" viewBox="0 0 120 68">
  <defs>
    <clipPath id="clip-path">
      <rect id="사각형_1724" data-name="사각형 1724" width="72" height="40" fill="none"/>
    </clipPath>
  </defs>
  <g id="사각형_586" data-name="사각형 586" fill="#fff" stroke="#dbdbdb" stroke-width="2">
    <rect width="120" height="68" rx="30" stroke="none"/>
    <rect x="1" y="1" width="118" height="66" rx="29" fill="none"/>
  </g>
  <g id="그룹_7107" data-name="그룹 7107" transform="translate(24.001 14)">
    <g id="그룹_7106" data-name="그룹 7106" transform="translate(0 0)" clip-path="url(#clip-path)">
      <path id="패스_1935" data-name="패스 1935" d="M25.909,19.444a1.471,1.471,0,0,0-1.04-.461h-.007c-2.926.086-5.855.114-8.7.093l-1.273-.009.067-1.251c.144-2.707.241-5.484.29-8.26a1.4,1.4,0,0,0-1.355-1.232,1.489,1.489,0,0,0-1.049.368,1.4,1.4,0,0,0-.467.984c-.049,2.711-.145,5.465-.288,8.182l-.062,1.17L10.834,19c-3.185-.088-6.394-.237-9.532-.442a1.127,1.127,0,0,0-1.291.958c0,.039-.006.08-.006.115a1.836,1.836,0,0,0,.28,1.15,1.4,1.4,0,0,0,1.089.6c3.1.2,6.2.345,9.2.434l1.269.038L11.751,23.1c-.189,2.533-.423,5.121-.7,7.684a1.258,1.258,0,0,0-.018.313,1.051,1.051,0,0,0,1.062.946h.161a1.61,1.61,0,0,0,1.668-1.407c.272-2.544.506-5.106.692-7.617L14.7,21.9l1.14.01c3.059.023,6.117-.01,9.091-.1a1.411,1.411,0,0,0,1.35-1.355,1.377,1.377,0,0,0-.374-1.012" transform="translate(0 -0.183)" fill="#1a1311"/>
      <path id="패스_1936" data-name="패스 1936" d="M63.974,27.057l-.02-.017a16.084,16.084,0,0,1-3.6-5.555c-.886-2.481-3.2-4.268-6.361-4.9-3.444-.7-7.04.215-8.946,2.262a10.934,10.934,0,0,0-2.266,4.168c-.115.315-.231.631-.355.945a14.874,14.874,0,0,1-2.388,3.79A11.552,11.552,0,0,0,37.5,32.2,5.811,5.811,0,0,0,38.949,37.7a8.369,8.369,0,0,0,7.135,2.573,7.522,7.522,0,0,0,2.874-.945,9.914,9.914,0,0,1,2.132-.838,3.542,3.542,0,0,1,1.136-.191,6.492,6.492,0,0,1,2.912.956,10.763,10.763,0,0,0,1.7.752,7.923,7.923,0,0,0,2.31.354A7.693,7.693,0,0,0,65.833,36.2a7.009,7.009,0,0,0-1.859-9.14m-.415,7.571.115.046-.119-.036a5.069,5.069,0,0,1-6.219,2.6c-2.257-1.232-4.047-2.064-6.525-1.5a18,18,0,0,0-2.515.842,10.444,10.444,0,0,1-3.681.949A4.833,4.833,0,0,1,41.3,36.155c-2.438-2.572-.241-5.27,1.526-7.441a18.119,18.119,0,0,0,1.509-2.021A13.1,13.1,0,0,0,45.4,24.166c.579-1.7,1.177-3.461,3.211-4.413a9.255,9.255,0,0,1,3.453-.759c4.146,0,5.966,3.94,7.49,7.239a14.052,14.052,0,0,0,1.833,2.24c1.606,1.715,3.267,3.489,2.174,6.155" transform="translate(-0.256 -0.359)" fill="#1a1311"/>
      <path id="패스_1937" data-name="패스 1937" d="M44.82,14.487h0a5.78,5.78,0,0,0,1.209.135c2.8,0,4.443-2.326,5.071-4.719.942-3.591-.214-8.1-3.731-9.132-3.757-.772-5.85,2.26-6.5,5.091-.805,3.536.3,7.759,3.945,8.624m.667-11.013.127-.044a1.692,1.692,0,0,1,.262-.055l.031-.007a.679.679,0,0,1,.443.023,2.286,2.286,0,0,1,.923.359l.214.214a3.286,3.286,0,0,1,.584.794A7.519,7.519,0,0,1,48.5,8.3a5.612,5.612,0,0,1-.445,1.827,3.208,3.208,0,0,1-.756,1.183l-.06.065a.712.712,0,0,1-.115.109l-.128.1a.759.759,0,0,1-.325.165,2.043,2.043,0,0,1-2.059-.444,4.025,4.025,0,0,1-1.2-3.5l0-.014A6.82,6.82,0,0,1,45.23,3.7a1.507,1.507,0,0,1,.2-.157l.056-.036Z" transform="translate(-0.279 -0.015)" fill="#1a1311"/>
      <path id="패스_1938" data-name="패스 1938" d="M41.359,22.743c1.137-1.975,1.11-4.559-.08-7.9l-.117.04.116-.046c-.748-2.329-2.25-3.665-4.122-3.665a4.2,4.2,0,0,0-.741.067c-2.486.451-4.995,3.185-4.748,7.338a6.117,6.117,0,0,0,3.993,6.577,4.587,4.587,0,0,0,5.7-2.414m-2.977-7.593c.039.088.075.169.11.241a8.9,8.9,0,0,1,.882,4.486l.013.065-.031.159a6.844,6.844,0,0,1-.221.838,2.642,2.642,0,0,1-.938,1.269,2.065,2.065,0,0,1-.809.436l-.062.021a2.243,2.243,0,0,1-2.034-.88,5.235,5.235,0,0,1-.719-4.027,7.883,7.883,0,0,1,.91-2.984l.072-.087a2.539,2.539,0,0,1,1.327-.753.711.711,0,0,1,.244-.042.9.9,0,0,1,.461.131,2.336,2.336,0,0,1,.8,1.128" transform="translate(-0.217 -0.246)" fill="#1a1311"/>
      <path id="패스_1939" data-name="패스 1939" d="M57.722,14.031h.007c3.833-.148,5.239-3.6,5.28-6.507C63.057,4.049,61.161.232,57.539,0c-3.6,0-5.273,3.517-5.3,6.785-.025,3.562,1.848,7.194,5.479,7.246M56.5,10.873a4.421,4.421,0,0,1-1.337-2.911c-.007-.037-.012-.076-.017-.116l-.013-.066L55.122,7.5c-.039-1.244-.1-3.124,1.133-4.251l0,0a.872.872,0,0,1,.154-.119.981.981,0,0,1,.134-.086A1.547,1.547,0,0,1,58.1,2.863l.064.036a2.427,2.427,0,0,1,.6.525,6.718,6.718,0,0,1,1.217,5.942l-.1.207a4.555,4.555,0,0,1-.862,1.119l-.137.113a.958.958,0,0,1-.208.148,1.919,1.919,0,0,1-.771.3l-.194.02h-.073a2.2,2.2,0,0,1-.417-.038,1.087,1.087,0,0,1-.38-.133,1.288,1.288,0,0,1-.337-.231" transform="translate(-0.358 0)" fill="#1a1311"/>
      <path id="패스_1940" data-name="패스 1940" d="M69.5,11.25l-.064.106.062-.107a3.9,3.9,0,0,0-4.788.067c-2.333,1.86-3.536,6.7-2.426,9.766a5.042,5.042,0,0,0,4.739,3.608,4.872,4.872,0,0,0,.844-.074,5.7,5.7,0,0,0,4.56-5.766c0-3.963-.961-6.449-2.927-7.6m-3,10.655-.2-.111c-.015-.007-.036-.022-.06-.035A2.87,2.87,0,0,1,65,20.341c-.8-2.312.221-4.852,1.05-6.545a1.221,1.221,0,0,1,1-.537,1.172,1.172,0,0,1,.536.131,7.117,7.117,0,0,1,.8.434l.108.1a1.914,1.914,0,0,1,.41.685,10.966,10.966,0,0,1,.68,4.531l.124.007-.125,0a3.722,3.722,0,0,1-.669,1.759l-.074.113a2.015,2.015,0,0,1-1.28.933L67.4,22l-.352.027-.147-.01a1.244,1.244,0,0,1-.408-.111" transform="translate(-0.424 -0.23)" fill="#1a1311"/>
    </g>
  </g>
</svg>
