<svg xmlns="http://www.w3.org/2000/svg" width="126" height="92" viewBox="0 0 126 92">
  <g id="FLOAT_ADD_ARTICLE_126" data-name="FLOAT ADD ARTICLE 126" transform="translate(-139.619 -1708.075)">
    <rect id="사각형_823" data-name="사각형 823" width="126" height="92" rx="35" transform="translate(139.619 1708.075)" fill="#ff9888"/>
    <g id="그룹_4278" data-name="그룹 4278" transform="translate(0.227 -2.591)">
      <g id="그룹_3507-2" data-name="그룹 3507-2" transform="translate(159.393 1738.848)">
        <path id="패스_1186-2" data-name="패스 1186-2" d="M192.367,1754.46a3.02,3.02,0,0,0-.8-2.191h0a3.061,3.061,0,0,0-2.194-.988c-3.272.095-6.639.133-10.019.108.166-3.172.278-6.4.334-9.669a3.01,3.01,0,0,0-2.906-2.869,3.072,3.072,0,0,0-2.2.8,3.042,3.042,0,0,0-.987,2.142c-.056,3.149-.167,6.344-.33,9.5-3.629-.1-7.294-.273-10.9-.513a2.674,2.674,0,0,0-2.957,2.356c-.01.094-.016.188-.017.281a3.494,3.494,0,0,0,.538,2.1,3,3,0,0,0,2.373,1.351c3.5.231,7.055.4,10.581.506-.22,2.988-.489,5.994-.8,8.921a2.589,2.589,0,0,0-.022.64,2.616,2.616,0,0,0,2.628,2.366c.055,0,.111,0,.167,0h.1a3.224,3.224,0,0,0,3.214-2.9c.31-2.936.578-5.936.8-8.922,3.488.028,7.012-.009,10.491-.11A3.026,3.026,0,0,0,192.367,1754.46Z" transform="translate(-159.393 -1738.848)" fill="#fff"/>
      </g>
      <path id="패스_1331" data-name="패스 1331" d="M231.059,1734.854c-3.7,3.558-7.208,7.5-10.6,11.3-1.662,1.868-3.379,3.8-5.084,5.642l-9.277,10.03a27.411,27.411,0,0,0-2.2,2.452c-2.171,3.007-2.377,6.847-2.558,10.234-.037.707-.074,1.4-.129,2.072a3.661,3.661,0,0,0,.951,2.948,3.1,3.1,0,0,0,2.325,1.131c.043,0,.086,0,.128,0h.2c.049,0,.1,0,.148-.007.435-.042.865-.079,1.291-.117,4.28-.375,8.322-.73,11.852-4.441q2.5-2.627,4.964-5.283l2.387-2.551q2.943-3.136,5.918-6.244c3.917-4.113,7.968-8.367,11.841-12.678.171-.156.335-.321.493-.493a8.443,8.443,0,0,0-.08-11.307C241.882,1735.493,236.668,1729.457,231.059,1734.854Zm6.553,9.517-23.549,25.1c-.2.218-.407.447-.609.678a13.218,13.218,0,0,1-.959,1.017,8.889,8.889,0,0,1-3.777,1.514,10.523,10.523,0,0,1,2.266-5.132l22.835-24.687c.024-.027.047-.053.069-.079.225-.248.443-.507.66-.765.467-.555,1.1-1.307,1.441-1.359a1.083,1.083,0,0,1,.587.259c.024.022.05.042.075.062a3.568,3.568,0,0,1,1.586,2.1A1.814,1.814,0,0,1,237.612,1744.37Z" transform="translate(-0.453 0)" fill="#fff"/>
    </g>
  </g>
</svg>
