<svg xmlns="http://www.w3.org/2000/svg" width="128" height="68" viewBox="0 0 128 68">
  <g id="그룹_7896" data-name="그룹 7896" transform="translate(-140.953 -1835.805)">
    <g id="그룹_7895" data-name="그룹 7895">
      <rect id="사각형_823" data-name="사각형 823" width="128" height="68" rx="34" transform="translate(140.953 1835.805)" fill="#ff9888"/>
      <g id="그룹_4276" data-name="그룹 4276" transform="translate(168.438 1849.806)">
        <g id="그룹_4275" data-name="그룹 4275" transform="translate(32.234)">
          <path id="패스_1326" data-name="패스 1326" d="M234.536,1876.327c-.352-.386-.7-.768-1.021-1.154a18.124,18.124,0,0,1-2.518-4.545,8.989,8.989,0,0,0-7.406-5.458,2.44,2.44,0,0,0-.578-.082,1.909,1.909,0,0,0-.471.022q-4.708.257-7.022,2.729a11.621,11.621,0,0,0-2.274,4.357c-.116.329-.234.661-.358,1a16.043,16.043,0,0,1-2.394,3.956,11.951,11.951,0,0,0-2.5,4.622,6.882,6.882,0,0,0,4.146,7.863,9.126,9.126,0,0,0,4.571.7,10.61,10.61,0,0,0,3.883-1.49l.105-.1.164-.042a7.8,7.8,0,0,1,.815-.218,7.261,7.261,0,0,1,1.394-.167,3.353,3.353,0,0,1,.79.089,3.957,3.957,0,0,1,1.179.563l.21.131a10.682,10.682,0,0,0,2.053.95,7.849,7.849,0,0,0,8.364-2.664,7.726,7.726,0,0,0,.97-8.309A12.629,12.629,0,0,0,234.536,1876.327Z" transform="translate(-200.391 -1850.405)" fill="#fff"/>
          <path id="패스_1327" data-name="패스 1327" d="M214.8,1861.072a4.82,4.82,0,0,0,3.871-.611,6.536,6.536,0,0,0,2.381-3.161,10.482,10.482,0,0,0-.153-7.735,5.41,5.41,0,0,0-3.4-3.035,4.778,4.778,0,0,0-1.338-.192,4.276,4.276,0,0,0-3.064,1.228,8.448,8.448,0,0,0-2.024,3.239,10.657,10.657,0,0,0-.751,3.89A6.626,6.626,0,0,0,214.8,1861.072Z" transform="translate(-200.697 -1845.733)" fill="#fff"/>
          <path id="패스_1328" data-name="패스 1328" d="M209.5,1863.743c-.454-1.293-1.16-2.861-2.6-3.522a4.327,4.327,0,0,0-1.8-.382,4.946,4.946,0,0,0-2.632.774c-1.877.975-2.91,3.352-3.114,7.1-.138,2.531.886,5.606,3.482,6.767a4.846,4.846,0,0,0,3.99.1,5.818,5.818,0,0,0,2.742-2.5C210.761,1869.985,210.739,1867.26,209.5,1863.743Z" transform="translate(-199.345 -1848.475)" fill="#fff"/>
          <path id="패스_1329" data-name="패스 1329" d="M231.132,1860.534a6.189,6.189,0,0,0,5.527-5.278,9.916,9.916,0,0,0-.473-4.723,8.435,8.435,0,0,0-2.155-3.646,4.173,4.173,0,0,0-3.064-1.239,5.6,5.6,0,0,0-1.008.094,5.251,5.251,0,0,0-3.349,2.34,8.2,8.2,0,0,0-1.185,4.132,10.961,10.961,0,0,0,.363,3.626C226.466,1858.253,228.362,1860.634,231.132,1860.534Z" transform="translate(-202.555 -1845.648)" fill="#fff"/>
          <path id="패스_1330" data-name="패스 1330" d="M245.193,1859.83a5.18,5.18,0,0,0-2.738-.806,4.45,4.45,0,0,0-1.011.114,4.388,4.388,0,0,0-2.871,2.653c-1.045,2.36-2.067,5.736-1,8.43.913,2.3,3.242,4.477,6.175,3.823,2.889-.64,4.348-3.568,4.513-6.186a13.629,13.629,0,0,0-.591-4.509A5.544,5.544,0,0,0,245.193,1859.83Z" transform="translate(-203.999 -1848.314)" fill="#fff"/>
        </g>
        <g id="그룹_3507-2" data-name="그룹 3507-2" transform="translate(-3.483 6.649)">
          <path id="패스_1186-2" data-name="패스 1186-2" d="M186.971,1868.267a2.652,2.652,0,0,0-.7-1.921h0a2.687,2.687,0,0,0-1.925-.866c-2.869.083-5.821.117-8.785.095.146-2.781.244-5.614.293-8.478a2.638,2.638,0,0,0-2.548-2.515,2.671,2.671,0,0,0-2.791,2.577c-.049,2.761-.146,5.563-.289,8.333-3.182-.089-6.4-.24-9.556-.45a2.344,2.344,0,0,0-2.593,2.066c-.009.083-.014.165-.015.247a3.064,3.064,0,0,0,.473,1.84,2.624,2.624,0,0,0,2.081,1.185c3.066.2,6.185.351,9.277.444-.192,2.62-.429,5.256-.7,7.822a2.235,2.235,0,0,0-.018.562,2.291,2.291,0,0,0,2.3,2.073c.048,0,.1,0,.147,0h.084a2.827,2.827,0,0,0,2.818-2.538c.272-2.574.508-5.2.7-7.823,3.058.025,6.148-.008,9.2-.1A2.654,2.654,0,0,0,186.971,1868.267Z" transform="translate(-158.058 -1854.578)" fill="#fff"/>
        </g>
      </g>
    </g>
  </g>
</svg>
