<svg xmlns="http://www.w3.org/2000/svg" xmlns:xlink="http://www.w3.org/1999/xlink" width="146" height="86" viewBox="0 0 146 86">
  <defs>
    <filter id="사각형_823" x="0" y="0" width="146" height="86" filterUnits="userSpaceOnUse">
      <feOffset dy="3" input="SourceAlpha"/>
      <feGaussianBlur stdDeviation="3" result="blur"/>
      <feFlood flood-opacity="0.161"/>
      <feComposite operator="in" in2="blur"/>
      <feComposite in="SourceGraphic"/>
    </filter>
  </defs>
  <g id="그룹_4279" data-name="그룹 4279" transform="translate(-130.619 -1702.075)">
    <g transform="matrix(1, 0, 0, 1, 130.62, 1702.08)" filter="url(#사각형_823)">
      <rect id="사각형_823-2" data-name="사각형 823" width="128" height="68" rx="34" transform="translate(9 6)" fill="#ff9888"/>
    </g>
    <g id="그룹_4278" data-name="그룹 4278" transform="translate(169.253 1722.075)">
      <g id="그룹_3507-2" data-name="그룹 3507-2" transform="translate(-1.634 6.759)">
        <path id="패스_1186-2" data-name="패스 1186-2" d="M188.066,1752.424a2.626,2.626,0,0,0-.692-1.905h0a2.661,2.661,0,0,0-1.908-.859c-2.845.083-5.773.116-8.712.094.144-2.758.242-5.568.29-8.408a2.617,2.617,0,0,0-2.527-2.495,2.671,2.671,0,0,0-1.91.693,2.645,2.645,0,0,0-.858,1.863c-.049,2.738-.145,5.516-.287,8.264-3.156-.088-6.343-.237-9.477-.446a2.325,2.325,0,0,0-2.571,2.049c-.009.082-.014.163-.015.244a3.039,3.039,0,0,0,.468,1.826,2.605,2.605,0,0,0,2.063,1.175c3.042.2,6.135.348,9.2.44-.191,2.6-.425,5.212-.7,7.757a2.251,2.251,0,0,0-.019.557,2.275,2.275,0,0,0,2.285,2.057c.048,0,.1,0,.145,0h.084a2.8,2.8,0,0,0,2.795-2.517c.27-2.553.5-5.162.7-7.758,3.033.024,6.1-.008,9.123-.1A2.631,2.631,0,0,0,188.066,1752.424Z" transform="translate(-159.393 -1738.848)" fill="#fff"/>
      </g>
      <path id="패스_1331" data-name="패스 1331" d="M227.163,1734.489c-3.221,2.965-6.268,6.247-9.214,9.42-1.445,1.557-2.938,3.166-4.421,4.7l-8.067,8.358a23.179,23.179,0,0,0-1.912,2.043c-1.888,2.506-2.067,5.706-2.224,8.528-.032.589-.064,1.168-.112,1.727a2.971,2.971,0,0,0,.827,2.457,2.739,2.739,0,0,0,2.022.943l.111,0h.173c.043,0,.086,0,.129-.006.378-.035.752-.066,1.123-.1,3.722-.312,7.237-.608,10.306-3.7,1.448-1.459,2.882-2.931,4.317-4.4l2.076-2.126q2.559-2.614,5.146-5.2c3.406-3.428,6.929-6.973,10.3-10.565.149-.13.291-.268.429-.411a6.82,6.82,0,0,0-.07-9.423C236.574,1735.022,232.04,1729.992,227.163,1734.489Zm5.7,7.931-20.477,20.918c-.177.182-.354.373-.53.565a11.226,11.226,0,0,1-.834.848,7.925,7.925,0,0,1-3.284,1.262,8.6,8.6,0,0,1,1.97-4.277l19.857-20.572c.021-.022.041-.044.06-.066.2-.206.385-.422.574-.637.406-.463.957-1.09,1.253-1.133a.962.962,0,0,1,.51.216c.021.018.043.035.065.052a2.983,2.983,0,0,1,1.379,1.752A1.486,1.486,0,0,1,232.861,1742.42Z" transform="translate(-169.655 -1732.666)" fill="#fff"/>
    </g>
  </g>
</svg>
