<svg xmlns="http://www.w3.org/2000/svg" width="126" height="92" viewBox="0 0 126 92">
  <g id="FLOAT_ADD_PET_126" data-name="FLOAT ADD PET 126" transform="translate(-140.954 -1823.805)">
    <rect id="사각형_823" data-name="사각형 823" width="126" height="92" rx="35" transform="translate(140.954 1823.805)" fill="#ff9888"/>
    <g id="그룹_4276" data-name="그룹 4276" transform="translate(0.896 0.157)">
      <g id="그룹_4275" data-name="그룹 4275" transform="translate(197.553 1845.648)">
        <path id="패스_1326" data-name="패스 1326" d="M238.288,1877.907c-.4-.44-.8-.876-1.164-1.316a20.669,20.669,0,0,1-2.872-5.184,10.252,10.252,0,0,0-8.447-6.225,2.781,2.781,0,0,0-.659-.094,2.18,2.18,0,0,0-.537.025q-5.37.294-8.008,3.112a13.255,13.255,0,0,0-2.593,4.969c-.132.375-.267.754-.408,1.135a18.292,18.292,0,0,1-2.73,4.512,13.632,13.632,0,0,0-2.854,5.271,7.848,7.848,0,0,0,4.728,8.967,10.406,10.406,0,0,0,5.213.8,12.1,12.1,0,0,0,4.429-1.7l.12-.11.187-.048a8.839,8.839,0,0,1,.929-.248,8.28,8.28,0,0,1,1.59-.191,3.822,3.822,0,0,1,.9.1,4.513,4.513,0,0,1,1.345.642l.24.149a12.176,12.176,0,0,0,2.341,1.084,8.951,8.951,0,0,0,9.539-3.038,8.812,8.812,0,0,0,1.106-9.476A14.4,14.4,0,0,0,238.288,1877.907Z" transform="translate(-199.345 -1845.963)" fill="#fff"/>
        <path id="패스_1327" data-name="패스 1327" d="M215.43,1863.142a5.5,5.5,0,0,0,4.415-.7,7.454,7.454,0,0,0,2.715-3.6,11.955,11.955,0,0,0-.175-8.822,6.17,6.17,0,0,0-3.879-3.461,5.446,5.446,0,0,0-1.526-.219,4.876,4.876,0,0,0-3.494,1.4,9.635,9.635,0,0,0-2.308,3.694,12.154,12.154,0,0,0-.857,4.437A7.556,7.556,0,0,0,215.43,1863.142Z" transform="translate(-199.345 -1845.648)" fill="#fff"/>
        <path id="패스_1328" data-name="패스 1328" d="M210.932,1864.292c-.518-1.475-1.323-3.263-2.968-4.017a4.934,4.934,0,0,0-2.051-.436,5.641,5.641,0,0,0-3,.883c-2.141,1.112-3.319,3.823-3.552,8.092-.157,2.886,1.01,6.393,3.971,7.718a5.526,5.526,0,0,0,4.551.111,6.634,6.634,0,0,0,3.127-2.849C212.365,1871.411,212.34,1868.3,210.932,1864.292Z" transform="translate(-199.345 -1845.792)" fill="#fff"/>
        <path id="패스_1329" data-name="패스 1329" d="M231.937,1862.625a7.059,7.059,0,0,0,6.3-6.02,11.308,11.308,0,0,0-.539-5.386,9.62,9.62,0,0,0-2.458-4.158,4.759,4.759,0,0,0-3.494-1.413,6.393,6.393,0,0,0-1.15.107,5.991,5.991,0,0,0-3.819,2.669,9.35,9.35,0,0,0-1.352,4.713,12.5,12.5,0,0,0,.414,4.136C226.616,1860.024,228.778,1862.739,231.937,1862.625Z" transform="translate(-199.345 -1845.648)" fill="#fff"/>
        <path id="패스_1330" data-name="패스 1330" d="M246.327,1859.943a5.907,5.907,0,0,0-3.123-.919,5.074,5.074,0,0,0-1.153.13,5,5,0,0,0-3.274,3.026c-1.192,2.692-2.357,6.542-1.138,9.614,1.041,2.621,3.7,5.106,7.043,4.36,3.295-.73,4.959-4.069,5.147-7.055a15.543,15.543,0,0,0-.674-5.142A6.322,6.322,0,0,0,246.327,1859.943Z" transform="translate(-199.345 -1845.784)" fill="#fff"/>
      </g>
      <g id="그룹_3507-2" data-name="그룹 3507-2" transform="translate(158.058 1854.421)">
        <path id="패스_1186-2" data-name="패스 1186-2" d="M191.033,1870.19a3.025,3.025,0,0,0-.8-2.191h0a3.065,3.065,0,0,0-2.195-.988c-3.272.095-6.639.133-10.019.108.166-3.172.278-6.4.334-9.669a3.009,3.009,0,0,0-2.906-2.869,3.073,3.073,0,0,0-2.2.8,3.041,3.041,0,0,0-.987,2.142c-.056,3.149-.167,6.344-.33,9.5-3.629-.1-7.294-.273-10.9-.513a2.674,2.674,0,0,0-2.957,2.356c-.01.094-.016.188-.017.282a3.494,3.494,0,0,0,.539,2.1,2.993,2.993,0,0,0,2.373,1.351c3.5.231,7.054.4,10.58.506-.219,2.988-.489,5.994-.8,8.921a2.547,2.547,0,0,0-.021.641,2.613,2.613,0,0,0,2.627,2.365c.055,0,.112,0,.168,0h.1a3.224,3.224,0,0,0,3.214-2.895c.31-2.936.579-5.936.8-8.922,3.488.028,7.012-.009,10.492-.11A3.027,3.027,0,0,0,191.033,1870.19Z" transform="translate(-158.058 -1854.578)" fill="#fff"/>
      </g>
    </g>
  </g>
</svg>
