<svg id="그룹_6644" data-name="그룹 6644" xmlns="http://www.w3.org/2000/svg" xmlns:xlink="http://www.w3.org/1999/xlink" width="38" height="38" viewBox="0 0 38 38">
  <defs>
    <clipPath id="clip-path">
      <rect id="사각형_1610" data-name="사각형 1610" width="38" height="38" fill="none"/>
    </clipPath>
  </defs>
  <g id="그룹_6644-2" data-name="그룹 6644" clip-path="url(#clip-path)">
    <path id="패스_1721" data-name="패스 1721" d="M21.937,20.319A5.99,5.99,0,0,0,21.294,20c-.173-.08-.3-.132-.388-.171-.239-.1-.411-.175-.46-.4a.461.461,0,0,1,.143-.417,5.789,5.789,0,0,0,1.385-3.071,8.1,8.1,0,0,0-1.391-5.67,7.419,7.419,0,0,0-5.566-2.537,7.917,7.917,0,0,0-4.587,1.6A6.947,6.947,0,0,0,8.1,14.093a9.02,9.02,0,0,0,.2,2.96,4.974,4.974,0,0,0,.35.894,3.615,3.615,0,0,0,.791,1.125l.366.351-.443.247c-.159.088-.29.155-.424.224-.195.1-.4.2-.714.39l-.088.04a13.835,13.835,0,0,0-1.28.9,11.906,11.906,0,0,0-2.106,2.132A9.987,9.987,0,0,0,2.69,29.224c.006.537.175.9,1,1.017l22.991,0a1.028,1.028,0,0,0,.721-.988,10.817,10.817,0,0,0-5.465-8.93m3.445,7.871-.469,0c-1.311.007-2.616,0-3.914-.012-2.05-.014-3.989-.029-5.9.023h-.021c-1.791-.048-3.738-.035-5.8-.021-1.352.01-2.728.019-4.1.011l-.469,0,.106-.457a8.225,8.225,0,0,1,2.6-4.337,10.879,10.879,0,0,1,2.37-1.64c.152-.079.325-.151.507-.225a2.321,2.321,0,0,0,1.528-1.279c.161-.447-.132-.887-.563-1.457a4.91,4.91,0,0,1-.39-.565c-.068-.122-.136-.246-.2-.369a6.552,6.552,0,0,1-.609-3.925A4.982,4.982,0,0,1,14.93,9.883h.235c2.076,0,4.585,1.661,4.864,4.044a6.566,6.566,0,0,1-.6,3.931c-.065.13-.137.258-.208.386a5.061,5.061,0,0,1-.383.55c-.434.567-.728,1.006-.551,1.489a2.267,2.267,0,0,0,1.467,1.23c.234.094.4.165.552.241a11.019,11.019,0,0,1,2.37,1.638,8.214,8.214,0,0,1,2.6,4.341Z" fill="#999"/>
    <path id="패스_1722" data-name="패스 1722" d="M29.845,20.343h0a6.035,6.035,0,0,0-.645-.319c-.172-.078-.3-.131-.388-.17-.238-.1-.409-.174-.458-.4a.461.461,0,0,1,.141-.417,5.773,5.773,0,0,0,1.387-3.072A8.106,8.106,0,0,0,28.491,10.3a7.417,7.417,0,0,0-5.566-2.538l-.083,0a1,1,0,0,0-.9.626,1.066,1.066,0,0,0,.183,1.136,1.525,1.525,0,0,0,.386.315.92.92,0,0,0,.325.064h.235c2.077,0,4.585,1.662,4.864,4.044a6.567,6.567,0,0,1-.606,3.931c-.06.121-.126.239-.193.359a4.875,4.875,0,0,1-.4.577c-.435.567-.728,1-.551,1.489a2.259,2.259,0,0,0,1.467,1.228c.229.093.4.165.554.245a10.929,10.929,0,0,1,2.368,1.637,8.206,8.206,0,0,1,2.594,4.3l.042.176-.231.315-.21.014q-1.275.008-2.543,0h-.005a1.017,1.017,0,0,0-1.017,1.056,1.025,1.025,0,0,0,1.024.991h4.123a.879.879,0,0,0,.468-.108,1.033,1.033,0,0,0,.485-.886,10.812,10.812,0,0,0-5.464-8.924" fill="#999"/>
  </g>
</svg>
