<svg xmlns="http://www.w3.org/2000/svg" width="50" height="50" viewBox="0 0 50 50">
  <path id="HASH_50" data-name="HASH 50" d="M86.005,34.4l-9.838-.017,2.048-10.522a2.7,2.7,0,0,0-1.893-3.191A2.472,2.472,0,0,0,73.4,22.742L71.137,34.375l-10.971-.02L62.2,23.913a2.7,2.7,0,0,0-1.893-3.191,2.472,2.472,0,0,0-2.922,2.071L55.136,34.347l-10.8-.019a2.7,2.7,0,0,0-.008,5.381l9.763.017L51.805,51.459l-10.878-.02a2.7,2.7,0,0,0-.008,5.381l9.838.017L48.71,67.36A2.7,2.7,0,0,0,50.6,70.551a2.471,2.471,0,0,0,2.921-2.071l2.264-11.632,10.972.02L64.727,67.309A2.7,2.7,0,0,0,66.62,70.5a2.472,2.472,0,0,0,2.922-2.071L71.79,56.875l10.8.019a2.7,2.7,0,0,0,.008-5.381L72.837,51.5l2.284-11.733L86,39.782a2.584,2.584,0,0,0,2.465-2.689h0A2.584,2.584,0,0,0,86.005,34.4Zm-18.2,17.086-10.971-.019,2.283-11.733,10.972.019Z" transform="translate(-38.463 -20.611)" fill="#ff9888"/>
</svg>
