<svg xmlns="http://www.w3.org/2000/svg" width="94" height="94" viewBox="0 0 94 94">
  <g id="ProfileImageSmall" transform="translate(-48 -240)">
    <g id="_5eafa2fa0725d2738de6" data-name="5eafa2fa0725d2738de6" transform="translate(48 240)" fill="none" stroke="#ffb6a5" stroke-width="4">
      <circle cx="47" cy="47" r="47" stroke="none"/>
      <circle cx="47" cy="47" r="45" fill="none"/>
    </g>
    <path id="패스_243" data-name="패스 243" d="M89.809,35.5l-10.625-.019L81.4,24.122a2.914,2.914,0,0,0-2.044-3.446A2.67,2.67,0,0,0,76.2,22.913L73.751,35.476,61.9,35.455,64.1,24.177a2.914,2.914,0,0,0-2.044-3.446A2.67,2.67,0,0,0,58.9,22.968L56.47,35.445,44.8,35.425a2.917,2.917,0,0,0-.009,5.812l10.544.019L52.873,53.927l-11.748-.021a2.917,2.917,0,0,0-.009,5.812l10.625.019L49.53,71.1a2.914,2.914,0,0,0,2.044,3.446,2.669,2.669,0,0,0,3.155-2.237l2.445-12.563,11.849.021L66.828,71.045a2.914,2.914,0,0,0,2.044,3.446,2.67,2.67,0,0,0,3.156-2.237l2.428-12.477,11.667.02a2.917,2.917,0,0,0,.009-5.812l-10.545-.019,2.467-12.672,11.748.021a2.791,2.791,0,0,0,2.662-2.9h0A2.791,2.791,0,0,0,89.809,35.5ZM70.154,53.957l-11.848-.02,2.466-12.672,11.849.02Z" transform="translate(29.537 239.389)" fill="#ff9888"/>
  </g>
</svg>
