<svg xmlns="http://www.w3.org/2000/svg" width="46" height="46" viewBox="0 0 46 46">
  <g id="HEART46_FILLED" transform="translate(-654 -510)">
    <rect id="사각형_135" data-name="사각형 135" width="46" height="46" transform="translate(654 510)" fill="none" opacity="0.4"/>
    <path id="패스_1442" data-name="패스 1442" d="M3754.607,1951.39c-.557-1.883-2.949-4.711-5.988-6.18-2.573-1.249-8.127-.992-11.439,2.744-.532.6-1.166,1.329-1.8,2.069a5.274,5.274,0,0,0-.583.629.638.638,0,0,0-.1.161l-.676.788c-.768-.915-1.789-2.123-3.11-3.639-3.275-3.761-8.849-4.014-11.447-2.754-3.084,1.494-5.382,4.284-5.978,6.148-1.316,4.111-.047,8.279,3.767,12.385,4.4,4.732,5.384,5.722,6.724,6.995l.061.059c1.4,1.366,5.649,5.528,7.19,6.744a4.284,4.284,0,0,0,2.694.986c1.466,0,3.041-.786,4.682-2.333l.428-.4a120.877,120.877,0,0,0,11.717-12.4C3755.583,1957.263,3755.266,1953.607,3754.607,1951.39Zm-34.488,1.917a1.757,1.757,0,0,0,.173-.2l.332-.448h-.13a1.549,1.549,0,0,0-.418-1.517l-1.493-1.514c.2-.188.419-.371.642-.546l1.56,1.642a1.76,1.76,0,0,0,2.4.013,1.722,1.722,0,0,0,.194-.22,1.6,1.6,0,0,0-.195-1.94l-.854-.9a7.383,7.383,0,0,1,6.044,2.278c1.611,1.849,2.776,3.241,3.512,4.121v0l-3.451,3.992c-.707.812-2.051,2.537-3.236,4.059l-.127.161c-.909,1.169-1.8,2.306-2.184,2.767-.809-.857-1.828-1.948-3.175-3.4-3.01-3.239-4.047-6.4-3.088-9.394.006-.015.009-.028.014-.041l1.083,1.1A1.757,1.757,0,0,0,3720.119,1953.307Z" transform="translate(-3056.978 -1428.525)" fill="#ff9888"/>
  </g>
</svg>
