<svg id="HEART_48_BORDER" data-name="HEART 48 BORDER" xmlns="http://www.w3.org/2000/svg" width="48" height="48" viewBox="0 0 48 48">
  <rect id="사각형_361" data-name="사각형 361" width="48" height="48" fill="#fff"/>
  <path id="패스_1293" data-name="패스 1293" d="M4793.9,371.68c-5.762-1.96-10.138,1.234-13.791,5.177-2.711-3.013-5.9-5.743-10.492-5.659-4.537.065-8.068,3.015-10.491,8.767-1.962,4.629-1.055,9.79,2.645,14.947a105.482,105.482,0,0,0,12.831,13.921,3,3,0,0,0,.319.271c.039.036.079.07.121.1h0a7.438,7.438,0,0,0,4.744,1.876c3.925,0,7.367-3.637,10.083-6.508.29-.307.576-.609.857-.9.469-.489.957-.988,1.455-1.5,4.247-4.338,9.059-9.255,9.856-15.626C4802.691,381.293,4799.206,373.487,4793.9,371.68Zm-11.97,11.675c.042-.041.084-.083.148-.154l.533-.639c2.457-2.956,5-6.008,8.677-5.493a5.373,5.373,0,0,1,3.769,2.98,10.169,10.169,0,0,1,.828,8.1c-1.408,3.4-4.057,6.159-6.619,8.831-.407.425-.81.845-1.2,1.263-.465.493-.962,1.076-1.488,1.693-3.013,3.532-5.724,6.311-8.285,4.56-3.019-2.933-5.687-5.683-8.152-8.4-.257-.284-.523-.572-.793-.866-2.5-2.715-5.331-5.792-5.707-9.435a9.726,9.726,0,0,1,2.189-6.608,5.241,5.241,0,0,1,3.445-2.133c3.49-.3,5.918,2.636,8.265,5.469l.585.7A2.664,2.664,0,0,0,4781.931,383.355Z" transform="translate(-4756.118 -367.087)" fill="#767676"/>
</svg>
