<svg xmlns="http://www.w3.org/2000/svg" width="52" height="52" viewBox="0 0 52 52">
  <g id="HEART_52" data-name="HEART 52" transform="translate(-1386 -1488)">
    <g id="그룹_4434" data-name="그룹 4434" transform="translate(879 682)">
      <rect id="사각형_147" data-name="사각형 147" width="48" height="48" transform="translate(509 808)" fill="none" opacity="0.4"/>
      <g id="favorite_black_48dp" transform="translate(513 886)">
        <path id="패스_58" data-name="패스 58" d="M22.425,34.063a3.571,3.571,0,0,1-4.84-.018l-.2-.181C7.941,25.25,1.769,19.611,2,12.575A9.919,9.919,0,0,1,6.213,4.8,10.372,10.372,0,0,1,20,6.79,10.352,10.352,0,0,1,33.779,4.8a9.919,9.919,0,0,1,4.21,7.779C38.241,19.611,32.051,25.25,22.6,33.9l-.18.163Z" transform="translate(0 -73)" fill="#fff"/>
      </g>
    </g>
    <rect id="사각형_893" data-name="사각형 893" width="52" height="52" rx="20" transform="translate(1386 1488)" fill="#ff9888"/>
    <g id="그룹_4435" data-name="그룹 4435" transform="translate(858 6)">
      <rect id="사각형_646" data-name="사각형 646" width="52" height="52" transform="translate(528 1482)" fill="none"/>
      <path id="패스_1192" data-name="패스 1192" d="M960.553,1784.117c-4.714-1.568-8.293.986-11.281,4.136-2.219-2.406-4.825-4.591-8.585-4.523-3.712.051-6.6,2.412-8.584,7.014-1.605,3.7-.864,7.832,2.165,11.951a84.89,84.89,0,0,0,10.5,11.136,1.846,1.846,0,0,0,.261.219.6.6,0,0,0,.1.082v.009a6.2,6.2,0,0,0,3.884,1.5c3.21,0,6.024-2.915,8.247-5.21.238-.247.472-.486.7-.725.384-.386.783-.784,1.193-1.19,3.472-3.475,7.409-7.406,8.062-12.5C967.748,1791.807,964.893,1785.56,960.553,1784.117Z" transform="translate(-395.277 -291.642)" fill="#fff"/>
    </g>
  </g>
</svg>
