<svg xmlns="http://www.w3.org/2000/svg" width="25.999" height="22.001" viewBox="0 0 25.999 22.001">
  <path id="패스_1192" data-name="패스 1192" d="M952.42,1783.969c-3.4-1.078-5.989.678-8.147,2.844-1.6-1.654-3.484-3.156-6.2-3.109-2.681.035-4.767,1.658-6.2,4.822-1.159,2.547-.624,5.385,1.563,8.217a59.674,59.674,0,0,0,7.582,7.656,1.3,1.3,0,0,0,.188.15.432.432,0,0,0,.071.057v.006a4.61,4.61,0,0,0,2.8,1.031c2.318,0,4.351-2,5.956-3.582.172-.17.341-.334.507-.5.277-.266.565-.539.861-.818,2.508-2.389,5.351-5.092,5.822-8.6C957.616,1789.256,955.555,1784.961,952.42,1783.969Zm-7.072,6.42c.025-.021.05-.045.088-.082l.315-.355c1.451-1.625,2.955-3.3,5.126-3.018a3.138,3.138,0,0,1,2.228,1.635,5.256,5.256,0,0,1,.489,4.459,16.783,16.783,0,0,1-3.912,4.859c-.24.23-.478.463-.71.693-.274.268-.568.59-.879.93-1.78,1.943-3.382,3.471-4.9,2.508-1.783-1.615-3.359-3.127-4.817-4.619-.152-.156-.308-.316-.467-.477-1.477-1.494-3.151-3.184-3.373-5.187a5.127,5.127,0,0,1,1.294-3.639,3.133,3.133,0,0,1,2.035-1.17c2.063-.162,3.5,1.449,4.884,3.008l.347.387A1.655,1.655,0,0,0,945.348,1790.389Z" transform="translate(-931.277 -1783.642)" fill="#ff9888"/>
</svg>
