<svg xmlns="http://www.w3.org/2000/svg" width="30" height="30" viewBox="0 0 30 30">
  <g id="HEART_30_FILLED" data-name="HEART 30 FILLED" transform="translate(-528 -1482)">
    <rect id="사각형_646" data-name="사각형 646" width="30" height="30" transform="translate(528 1482)" fill="#fff"/>
    <path id="패스_1192" data-name="패스 1192" d="M952.42,1783.969c-3.4-1.078-5.989.678-8.147,2.844-1.6-1.654-3.484-3.156-6.2-3.109-2.681.035-4.767,1.658-6.2,4.822-1.159,2.547-.624,5.385,1.563,8.217a59.674,59.674,0,0,0,7.582,7.656,1.3,1.3,0,0,0,.188.15.432.432,0,0,0,.071.057v.006a4.61,4.61,0,0,0,2.8,1.031c2.318,0,4.351-2,5.956-3.582.172-.17.341-.334.507-.5.277-.266.565-.539.861-.818,2.508-2.389,5.351-5.092,5.822-8.6C957.616,1789.256,955.555,1784.961,952.42,1783.969Z" transform="translate(-401.275 -297.641)" />
  </g>
</svg>
