<svg xmlns="http://www.w3.org/2000/svg" width="48" height="48" viewBox="0 0 48 48">
  <g id="그룹_6428" data-name="그룹 6428" transform="translate(-643 -216)">
    <g id="사각형_1551" data-name="사각형 1551" transform="translate(643 216)" fill="#fff" stroke="#000" stroke-width="2">
      <rect width="48" height="48" rx="20" stroke="none"/>
      <rect x="1" y="1" width="46" height="46" rx="19" fill="none"/>
    </g>
    <g id="그룹_6426" data-name="그룹 6426" transform="translate(649.727 223)">
      <g id="그룹_6424" data-name="그룹 6424" transform="translate(-0.537 1.437)">
        <g id="그룹_6427" data-name="그룹 6427" transform="translate(0 0)">
          <path id="패스_1670" data-name="패스 1670" d="M19.345,27.125A2.382,2.382,0,0,1,17,24.747V17.973H12.613v6.774a2.384,2.384,0,0,1-2.351,2.378H5.694a2.4,2.4,0,0,1-2.362-2.378V14.921H1.6A1.555,1.555,0,0,1,.39,14.367a1.647,1.647,0,0,1,.15-2.285L13.23.6A2.366,2.366,0,0,1,16.376.6l12.7,11.489a1.643,1.643,0,0,1,.047,2.394,1.524,1.524,0,0,1-1.131.442H26.279v9.815a2.386,2.386,0,0,1-2.35,2.388H19.345ZM10.927,16.248h7.759v8.489a.662.662,0,0,0,.67.663h4.566a.675.675,0,0,0,.671-.672V13.2h3.166L15.265,1.895a.7.7,0,0,0-.924,0L1.854,13.2H5.019V24.737a.675.675,0,0,0,.67.663h4.567a.676.676,0,0,0,.672-.668ZM1.654,13.376h0M28.016,13.2h0Zm-26.432,0h0Z" transform="translate(3.001 2)"/>
        </g>
      </g>
    </g>
  </g>
</svg>
