<svg xmlns="http://www.w3.org/2000/svg" width="48" height="48" viewBox="0 0 48 48">
  <g id="HOUSE_48" data-name="HOUSE 48" transform="translate(-809 -808)">
    <rect id="사각형_152" data-name="사각형 152" width="48" height="48" rx="20" transform="translate(809 808)" fill="#ff9888"/>
    <g id="Icon_-_Home" data-name="Icon - Home" transform="translate(419.275 -1027.047)">
      <path id="Icon_-_Home-2" data-name="Icon - Home-2" d="M431.305,1857.583l-16.732-13.744a1.418,1.418,0,0,0-1.7,0l-16.732,13.744c-1.22,1,.491,2.792,1.7,1.8l1.588-1.3c-.049,5.4-.07,10.8-.123,16.2a1.258,1.258,0,0,0,.182.688.991.991,0,0,0,1.019.583c3.288-.217,6.583-.135,9.871-.3a1.223,1.223,0,0,0,.386-.087,1.034,1.034,0,0,0,.814-1.185c-.307-3.581-.473-7.186-.465-10.782,1.735-.073,3.488-.112,5.225-.026.012,3.6-.156,7.221-.464,10.807a1.032,1.032,0,0,0,.809,1.183,1.2,1.2,0,0,0,.391.089c3.289.162,6.584.081,9.871.3a.991.991,0,0,0,1.012-.575,1.256,1.256,0,0,0,.185-.7c-.054-5.4-.074-10.8-.122-16.2l1.588,1.3C430.816,1860.373,432.526,1858.585,431.305,1857.583Z" transform="translate(0 -0.508)" fill="#fff"/>
    </g>
  </g>
</svg>
