<svg xmlns="http://www.w3.org/2000/svg" width="36" height="36" viewBox="0 0 36 36">
  <g id="그룹_7159" data-name="그룹 7159" transform="translate(-56 -414)">
    <rect id="사각형_1744" data-name="사각형 1744" width="36" height="36" transform="translate(56 414)" fill="#fff"/>
    <path id="패스_1945" data-name="패스 1945" d="M33.687,14.022,18.235.459a1.9,1.9,0,0,0-2.477,0L.307,14.02a.889.889,0,0,0-.085,1.262.9.9,0,0,0,.678.306H4.057V28.2A1.829,1.829,0,0,0,5.893,30h5.572A1.83,1.83,0,0,0,13.3,28.2V19.193h7.392V28.2A1.829,1.829,0,0,0,22.529,30H28.1a1.829,1.829,0,0,0,1.836-1.8V15.59H33.1a.891.891,0,0,0,.585-1.568M28.168,28.178a.074.074,0,0,1-.082.068H22.529a.071.071,0,0,1-.07-.048V17.439H11.534v10.74c0,.037-.031.068-.084.068H5.893a.071.071,0,0,1-.07-.048V13.834H3.186L16.916,1.784a.117.117,0,0,1,.08-.03.116.116,0,0,1,.068.019L30.808,13.836h-2.64V28.178Z" transform="translate(57 417)" fill="black" />
  </g>
</svg>
