<svg xmlns="http://www.w3.org/2000/svg" width="48" height="48" viewBox="0 0 48 48">
  <g id="IMAGE_LIST_48" data-name="IMAGE LIST 48" transform="translate(-89 -808)">
    <rect id="사각형_140" data-name="사각형 140" width="48" height="48" transform="translate(89 808)" fill="none" opacity="0.4"/>
    <g id="그룹_3658" data-name="그룹 3658" transform="translate(-1299.129 -914.417)">
      <g id="그룹_3657" data-name="그룹 3657" transform="translate(1392.129 1730.418)">
        <path id="패스_1255" data-name="패스 1255" d="M1421.483,1748.5h0q-.883-.828-1.771-1.65c-.111-.1-.222-.207-.334-.31Q1420.435,1747.512,1421.483,1748.5Z" transform="translate(-1390.412 -1730.333)" fill="#fff"/>
        <path id="패스_1257" data-name="패스 1257" d="M1415.761,1744.991c-.032.022-.065.05-.1.074Z" transform="translate(-1391.276 -1730.425)" fill="#fff"/>
        <path id="패스_1258" data-name="패스 1258" d="M1422.1,1750.507h0c-.009-.358-.026-.716-.054-1.073h0C1422.072,1749.79,1422.089,1750.148,1422.1,1750.507Z" transform="translate(-1390.606 -1730.371)" fill="#fff"/>
        <path id="패스_1260" data-name="패스 1260" d="M1422.065,1749.511c0-.027-.018-.051-.021-.078.028.357.045.715.054,1.073C1422.089,1750.175,1422.09,1749.842,1422.065,1749.511Z" transform="translate(-1390.606 -1730.371)" fill="#fff"/>
        <path id="패스_1261" data-name="패스 1261" d="M1421.5,1748.514q-.88-.825-1.766-1.643.887.822,1.771,1.65Z" transform="translate(-1390.438 -1730.348)" fill="#fff"/>
        <path id="패스_1262" data-name="패스 1262" d="M1422.117,1751.246c0,.621-.026,1.244-.083,1.861C1422.091,1752.49,1422.115,1751.868,1422.117,1751.246Z" transform="translate(-1390.605 -1730.315)" fill="#fff"/>
        <path id="패스_1263" data-name="패스 1263" d="M1396.222,1751.4c0,.154.006.308.01.462,0-.2,0-.4.005-.592A1.273,1.273,0,0,0,1396.222,1751.4Z" transform="translate(-1392.426 -1730.397)" fill="#fff"/>
        <path id="패스_1264" data-name="패스 1264" d="M1396.337,1753.4c-.05-.372-.079-.745-.1-1.121C1396.259,1752.658,1396.287,1753.031,1396.337,1753.4Z" transform="translate(-1392.428 -1730.361)" fill="#fff"/>
        <path id="패스_1265" data-name="패스 1265" d="M1396.667,1750.139h0l3.614-3.49Z" transform="translate(-1392.459 -1730.246)" fill="#fff"/>
        <path id="패스_1266" data-name="패스 1266" d="M1412.794,1751.141a1.748,1.748,0,0,1-1.56-.611l-.528-.524.471.53A1.789,1.789,0,0,0,1412.794,1751.141Z" transform="translate(-1391.319 -1730.365)" fill="#fff"/>
        <path id="패스_1267" data-name="패스 1267" d="M1422.034,1753.107c.057-.618.081-1.24.083-1.861h0C1422.115,1751.867,1422.091,1752.489,1422.034,1753.107Z" transform="translate(-1390.605 -1730.315)" fill="#fff"/>
        <path id="패스_1268" data-name="패스 1268" d="M1396.243,1750.792c-.007.138,0,.277,0,.416a1.335,1.335,0,0,1,.4-.8Z" transform="translate(-1392.427 -1730.386)" fill="#fff"/>
        <path id="패스_1269" data-name="패스 1269" d="M1415.657,1745.071l-.084.067Z" transform="translate(-1391.28 -1730.425)" fill="#fff"/>
        <path id="패스_1270" data-name="패스 1270" d="M1416.885,1744.447a4.5,4.5,0,0,1,1.546,1.236,5.849,5.849,0,0,0-1.455-1.277c-.038-.014-.269-.038-.762.237a4.784,4.784,0,0,0-.444.3C1416.535,1744.38,1416.835,1744.432,1416.885,1744.447Z" transform="translate(-1391.044 -1730.375)" fill="#fff"/>
        <path id="패스_1271" data-name="패스 1271" d="M1419.324,1746.482c.112.1.223.207.334.31l-.333-.31c-.208-.19-.439-.437-.686-.7C1418.886,1746.047,1419.118,1746.293,1419.324,1746.482Z" transform="translate(-1391.081 -1730.383)" fill="#fff"/>
        <path id="패스_1272" data-name="패스 1272" d="M1422.1,1750.59h0c0,.166.025.33.025.5C1422.127,1750.921,1422.107,1750.756,1422.1,1750.59Z" transform="translate(-1390.61 -1730.403)" fill="#fff"/>
        <path id="패스_1273" data-name="패스 1273" d="M1421.995,1748.974c-.115-.109-.232-.215-.347-.324h0C1421.763,1748.758,1421.88,1748.865,1421.995,1748.974Z" transform="translate(-1390.577 -1730.414)" fill="#fff"/>
        <path id="패스_1274" data-name="패스 1274" d="M1415.428,1745.108l.084-.067c.033-.024.066-.052.1-.074a4.784,4.784,0,0,1,.444-.3,10.61,10.61,0,0,0-2.477,2.2l.592.65-.542-.65A15.363,15.363,0,0,1,1415.428,1745.108Z" transform="translate(-1391.16 -1730.3)" fill="#fff"/>
        <path id="패스_1275" data-name="패스 1275" d="M1422.122,1751.2c0-.037,0-.074,0-.111,0-.166-.02-.33-.025-.5C1422.108,1750.794,1422.123,1751,1422.122,1751.2Z" transform="translate(-1390.61 -1730.397)" fill="#fff"/>
        <path id="패스_1276" data-name="패스 1276" d="M1422.042,1749.4c-.01-.134-.007-.269-.02-.4.013.133.01.269.02.4Z" transform="translate(-1390.604 -1730.409)" fill="#fff"/>
        <path id="패스_1277" data-name="패스 1277" d="M1412.958,1751.193a1.851,1.851,0,0,0,.976-.468A1.882,1.882,0,0,1,1412.958,1751.193Z" transform="translate(-1391.309 -1730.405)" fill="#fff"/>
        <path id="패스_1278" data-name="패스 1278" d="M1396.24,1752.255c-.005-.115-.005-.231-.007-.346C1396.235,1752.025,1396.235,1752.14,1396.24,1752.255Z" transform="translate(-1392.427 -1730.412)" fill="#fff"/>
        <path id="패스_1279" data-name="패스 1279" d="M1422.015,1749.376c-.01-.134-.007-.269-.02-.4-.115-.109-.232-.215-.347-.323A1.237,1.237,0,0,1,1422.015,1749.376Z" transform="translate(-1390.577 -1730.392)" fill="#fff"/>
        <path id="패스_1280" data-name="패스 1280" d="M1422.124,1751.237c0-.037,0-.074,0-.111,0,.037,0,.074,0,.111Z" transform="translate(-1390.612 -1730.426)" fill="#fff"/>
        <path id="패스_1281" data-name="패스 1281" d="M1417.01,1744.406c-.04-.015-.254-.064-.762.237C1416.741,1744.368,1416.972,1744.392,1417.01,1744.406Z" transform="translate(-1391.198 -1730.418)" fill="#fff"/>
        <path id="패스_1282" data-name="패스 1282" d="M1427.369,1752.469q-.1-8.8-.2-17.619a2.044,2.044,0,0,0-.073-.5c-.813-4.262-5.778-4.023-9.065-3.86-.7.033-1.361.066-1.929.066-4.953-.025-10.8-.035-16.612.089h-.888c-1.954-.021-4.4-.023-5.809,2.144a5.225,5.225,0,0,0-.638,3.05l.036,8.835c0,.921,0,1.844,0,2.766,0,1.865,0,3.73.035,5.5a4.823,4.823,0,0,0,1.248,3.652c1.577,1.582,4.138,1.533,6.234,1.491.428-.007.835-.018,1.206-.007,2.668.058,5.421.091,8.183.1,3.45,0,6.845-.049,10.087-.145.257-.008.527-.012.808-.016,2.257-.028,5.346-.067,6.811-2.483A5.48,5.48,0,0,0,1427.369,1752.469Zm-20.092-14.137a3.458,3.458,0,0,1,3.285-3.644c.113-.008.227-.01.341-.007a3.85,3.85,0,0,1,3.856,3.755,3.715,3.715,0,0,1-3.849,3.551h-.01a3.588,3.588,0,0,1-3.623-3.553c0-.034,0-.068,0-.1Zm15.924,12.9c0,.671-.029,1.34-.093,2.006-.07.3-.205.411-1.411.488l-.378.026c-1.219.1-2.414.146-3.654.146h-3.413q-2.323,0-4.651.008-1.279.009-2.558.027c-1.745.022-3.49.043-5.23.023-.3-.005-.68.009-1.193.028-3.613.123-4.09-.345-4.122-.509-.056-.4-.088-.8-.108-1.208-.006-.124-.006-.248-.008-.373,0-.166-.015-.332-.011-.5a1.306,1.306,0,0,1,.018-.14c0-.15,0-.3,0-.448l.439-.409h0l4.037-3.76a21.657,21.657,0,0,1,2.2-2.051,2.186,2.186,0,0,1,1.168-.444,1.113,1.113,0,0,1,.2.015,6.514,6.514,0,0,1,1.307.746c2.918,1.885,3.28,2.529,5.633,5.087l.589.565a1.99,1.99,0,0,0,1.742.659,2.136,2.136,0,0,0,1.09-.5,2.045,2.045,0,0,0,.214-2.985l-.662-.7a11.737,11.737,0,0,1,2.767-2.372c.568-.325.807-.272.851-.256a6.477,6.477,0,0,1,1.625,1.376c.276.282.535.548.767.752l.372.334q.988.883,1.972,1.771l.006.007c.129.117.259.232.387.349.014.144.011.29.023.434,0,.029.022.055.024.084.028.357.027.716.036,1.072.005.179.028.357.028.536C1423.206,1751.152,1423.2,1751.192,1423.2,1751.232Z" transform="translate(-1392.129 -1730.418)" fill="#fff"/>
      </g>
      <path id="패스_1283" data-name="패스 1283" d="M1432.253,1737.963a2.034,2.034,0,0,0-2.105-1.823,1.966,1.966,0,0,0-2.037,1.886c.144,7.8.27,16.2.233,16.753a2.3,2.3,0,0,1-1.514,2.188,10.9,10.9,0,0,1-2.784.54h-24.883a1.866,1.866,0,1,0,0,3.709l25.04,0a14.735,14.735,0,0,0,4.684-1.024,5.959,5.959,0,0,0,3.591-5.184C1432.539,1754.1,1432.341,1742.787,1432.253,1737.963Z" transform="translate(-0.361 1.201)" fill="#fff"/>
    </g>
  </g>
</svg>
