<svg id="그룹_7103" data-name="그룹 7103" xmlns="http://www.w3.org/2000/svg" xmlns:xlink="http://www.w3.org/1999/xlink" width="50" height="50" viewBox="0 0 50 50">
  <defs>
    <clipPath id="clip-path">
      <rect id="사각형_1723" data-name="사각형 1723" width="50" height="50" fill="#767676"/>
    </clipPath>
  </defs>
  <g id="그룹_7102" data-name="그룹 7102" clip-path="url(#clip-path)">
    <path id="패스_1932" data-name="패스 1932" d="M23.8,22.133c-.035,5.536-.07,10.072-.1,15.608a1.251,1.251,0,0,0,2.5,0c.034-5.536.069-10.072.1-15.608a1.251,1.251,0,0,0-2.5,0" fill="#767676"/>
    <path id="패스_1933" data-name="패스 1933" d="M23.584,13.417a2.836,2.836,0,0,0-1.029,3.749,2.744,2.744,0,0,0,3.845.963,2.772,2.772,0,0,0,1-3.778,2.808,2.808,0,0,0-3.811-.934m1.262,2.159c.283-.225.641.181.292.394-.315.209-.637-.12-.292-.394" fill="#767676"/>
    <path id="패스_1934" data-name="패스 1934" d="M41.7,13.643a20.182,20.182,0,0,0-27.6-5.2A20.579,20.579,0,0,0,7.711,36.09c5.5,9.232,18.686,11.655,27.4,5.6,9.7-5.681,13.264-18.642,6.593-28.05m-7.854,25.89c-7.621,5.295-19.083,3.407-23.979-4.705a18.051,18.051,0,0,1,5.5-24.224,17.643,17.643,0,0,1,23.522,3.457c6.755,8.212,3.885,20.248-5.04,25.472" fill="#767676"/>
  </g>
</svg>
