<svg xmlns="http://www.w3.org/2000/svg" width="48" height="48" viewBox="0 0 48 48">
  <g id="그룹_6316" data-name="그룹 6316" transform="translate(-462 -1175)">
    <g id="그룹_3497" data-name="그룹 3497">
      <rect id="사각형_641" data-name="사각형 641" width="48" height="48" transform="translate(462 1175)" fill="none"/>
    </g>
    <g id="그룹_6315" data-name="그룹 6315" transform="translate(338 -482)">
      <path id="패스_1600" data-name="패스 1600" d="M42.294,32.272a6.971,6.971,0,0,0-.667-5.725l-.081-.135.04-.152a6.9,6.9,0,0,0-1.24-5.95A7.286,7.286,0,0,0,34.9,17.815l-.581,0,.243-.529a13.465,13.465,0,0,0,1.077-7.717A6.825,6.825,0,0,0,32.107,4.8a4.341,4.341,0,0,0-1.835-.423,4.26,4.26,0,0,0-2.1.571c-1.425.792-2.01,2.257-2.629,3.809l-.128.319a26.57,26.57,0,0,1-3.3,5.462,30.582,30.582,0,0,0-2.78,4.618,8.779,8.779,0,0,1-.43.783c-.043.068-.089.134-.136.2l-.145.2c-2.706,3.305-2.6,7.58-2.5,11.716.008.339.013.684.017,1.031a15,15,0,0,0,.839,5.854,6.734,6.734,0,0,0,3.571,3.573,17.381,17.381,0,0,0,5.313.919,48.469,48.469,0,0,0,5.683.177c5.6-.207,8.844-1.915,9.647-5.077A9.741,9.741,0,0,0,41.548,35c-.012-.089-.037-.2-.061-.3a4.217,4.217,0,0,1-.091-.519l.045-.135.095-.138a9.23,9.23,0,0,0,.758-1.633m-3.265.112h0l-.016.027h0a3.821,3.821,0,0,0-.518,2.086,7.721,7.721,0,0,1,.073,2.369,3.228,3.228,0,0,1-2.412,2.945,14.644,14.644,0,0,1-3.936.762q-1.3.087-2.61.086a40.206,40.206,0,0,1-6.553-.537,4.209,4.209,0,0,1-3.206-1.986,9.333,9.333,0,0,1-.791-4.649c0-.352,0-.7-.01-1.027a34.691,34.691,0,0,1,.3-7.211,10.2,10.2,0,0,1,.252-.989c.04-.128.086-.254.131-.38l.06-.124c.132-.235.237-.423.346-.609.031-.053.068-.106.106-.159l.075-.106a13.906,13.906,0,0,0,1.818-2.874,31.465,31.465,0,0,1,2.816-4.52,34.451,34.451,0,0,0,2.515-3.932A15.421,15.421,0,0,0,28.142,10c.124-.318.247-.637.383-.952A2.909,2.909,0,0,1,29.56,7.561a1.644,1.644,0,0,1,1.351-.066A3.066,3.066,0,0,1,32.5,9.142c1.22,3.01-.1,6.241-1.706,9.284a1.554,1.554,0,0,0,.672,2.088,1.684,1.684,0,0,0,.653.222l.237.037.173.018a2.074,2.074,0,0,0,.53.009c1.626-.107,3.466-.122,4.754,1.092a3.745,3.745,0,0,1,.9,3.92,1.653,1.653,0,0,0,.211,1.889c1,1.226,1.033,2.8.1,4.683" transform="translate(124 1657)" fill="#767676"/>
      <path id="패스_1601" data-name="패스 1601" d="M10.563,20.5H9.143a3.9,3.9,0,0,0-3.769,3.981V39.637a3.9,3.9,0,0,0,3.779,3.987h1.415a3.893,3.893,0,0,0,3.768-3.979V24.487a3.9,3.9,0,0,0-3.773-3.99m.786,19.137a.792.792,0,0,1-.771.806H9.143a.8.8,0,0,1-.781-.811V24.487a.78.78,0,0,1,.218-.556.788.788,0,0,1,.553-.246h1.435a.794.794,0,0,1,.781.809Z" transform="translate(124 1657)" fill="#767676"/>
    </g>
  </g>
</svg>
