<svg xmlns="http://www.w3.org/2000/svg" width="48" height="48" viewBox="0 0 48 48">
  <g id="그룹_7018" data-name="그룹 7018" transform="translate(-462 -1175)">
    <g id="그룹_3497" data-name="그룹 3497">
      <rect id="사각형_641" data-name="사각형 641" width="48" height="48" transform="translate(462 1175)" fill="none"/>
    </g>
    <g id="그룹_6315" data-name="그룹 6315" transform="translate(338 -482)">
      <path id="패스_1600" data-name="패스 1600" d="M42.294,32.272a6.971,6.971,0,0,0-.667-5.725l-.081-.135.04-.152a6.9,6.9,0,0,0-1.24-5.95A7.286,7.286,0,0,0,34.9,17.815l-.581,0,.243-.529a13.465,13.465,0,0,0,1.077-7.717A6.825,6.825,0,0,0,32.107,4.8a4.341,4.341,0,0,0-1.835-.423,4.26,4.26,0,0,0-2.1.571c-1.425.792-2.01,2.257-2.629,3.809l-.128.319a26.57,26.57,0,0,1-3.3,5.462,30.582,30.582,0,0,0-2.78,4.618,8.779,8.779,0,0,1-.43.783c-.043.068-.089.134-.136.2l-.145.2c-2.706,3.305-2.6,7.58-2.5,11.716.008.339.013.684.017,1.031a15,15,0,0,0,.839,5.854,6.734,6.734,0,0,0,3.571,3.573,17.381,17.381,0,0,0,5.313.919,48.469,48.469,0,0,0,5.683.177c5.6-.207,8.844-1.915,9.647-5.077A9.741,9.741,0,0,0,41.548,35c-.012-.089-.037-.2-.061-.3a4.217,4.217,0,0,1-.091-.519l.045-.135.095-.138a9.23,9.23,0,0,0,.758-1.633m-3.265.112h0l-.016.027h0c-.369.632-20.137-2.232-20.107-1.5.144.744,8.665,8.939,8.567,9.748-.072,1.39,10.053-1.21,8.683-.848-.01,0-4.3-9.623-4.607-9.522-.947.325,2.009,10.212.671,10.284q-1.3.087-2.61.086c-2.192,0,5.679-4.806,3.514-5.164-1.3-.107-6.073-11.478-6.772-12.613-.79-1.368-7.292,12.143-7.292,10.6,0-.352,21.3-.746,21.286-1.076C40.2,30.017,19,27.635,19.354,25.249a10.2,10.2,0,0,1,.252-.989c.04-.128.086-.254.131-.38l.06-.124c.132-.235.237-.423.346-.609.031-.053.068-.106.106-.159l.075-.106a13.906,13.906,0,0,0,1.818-2.874,31.465,31.465,0,0,1,2.816-4.52,34.451,34.451,0,0,0,2.515-3.932A15.421,15.421,0,0,0,28.142,10c.124-.318.247-.637.383-.952A2.909,2.909,0,0,1,29.56,7.561a1.644,1.644,0,0,1,1.351-.066l-2.386-.7L23.057,17.282c1.22,3.01,9.348-1.9,7.741,1.144-.188.365-1.775-1.964-1.648-1.569a19.968,19.968,0,0,0,2.32,3.657c.251.129-9.627,11.5-9.354,11.535L32.36,20.773l.173.018c.264.027-3.133,17.364-2.923,17.345,1.626-.107,6.919-17.458,8.207-16.244,1.035,1.022-10.976-12.108-11.465-10.746-.336.646-9.266,17.421-8.812,17.923,1,1.226,22.417,1.428,21.489,3.315" transform="translate(124 1657)" fill="#ff9888"/>
      <path id="패스_1601" data-name="패스 1601" d="M10.563,20.5H9.143a3.9,3.9,0,0,0-3.769,3.981V39.637a3.9,3.9,0,0,0,3.779,3.987h1.415a3.893,3.893,0,0,0,3.768-3.979V24.487a3.9,3.9,0,0,0-3.773-3.99m.786,19.137.062-2.168L11.349,36.1c-.146.153-.56,4.333-.771,4.339L11.349,22.9c-.446-.013-3,17.164-2.987,16.73L11.94,31.12c-.005-.2-3.506-7.036-3.36-7.189s2.558,18.054,2.769,18.048l-.781-18.294c.445.011-3.294,17.859-3.3,18.294Z" transform="translate(124 1657)" fill="#ff9888"/>
    </g>
  </g>
</svg>
