<!-- <svg xmlns="http://www.w3.org/2000/svg" xmlns:xlink="http://www.w3.org/1999/xlink" width="38" height="40" viewBox="0 0 38 40">
  <defs>
    <clipPath id="clip-path">
      <rect id="사각형_1119" data-name="사각형 1119" width="38" height="40" transform="translate(0 0.001)" 
      fill="#767676"
      />
    </clipPath>
  </defs>
  <g id="그룹_5013" data-name="그룹 5013" transform="translate(0 -0.001)">
    <g id="그룹_5012" data-name="그룹 5012" clip-path="url(#clip-path)">
      <path id="패스_1499" data-name="패스 1499" d="M36.849,30.114a9.546,9.546,0,0,0,.8-1.718,7.353,7.353,0,0,0-.7-6.042,7.235,7.235,0,0,0-1.307-6.275,7.672,7.672,0,0,0-5.735-2.639,13.881,13.881,0,0,0,1.107-7.933c-.677-3.591-4.373-6.92-8.02-4.889-1.646.916-2.251,2.65-2.922,4.317a26.163,26.163,0,0,1-3.251,5.37A30.807,30.807,0,0,0,14,14.99a8.524,8.524,0,0,1-.412.75c-.063.1-.139.2-.206.3l-.045.054c-2.769,3.381-2.689,7.739-2.585,11.964.057,2.322-.068,4.873.888,7.028a7.135,7.135,0,0,0,3.767,3.766,17.79,17.79,0,0,0,5.453.949,48.413,48.413,0,0,0,5.7.177c3.752-.139,8.895-1.009,10-5.359a10.107,10.107,0,0,0,.362-3.649c-.033-.257-.123-.522-.145-.776a.2.2,0,0,0,.067-.08M33.69,28.222a4.2,4.2,0,0,0-.569,2.291,7.547,7.547,0,0,1,.075,2.309,2.871,2.871,0,0,1-2.135,2.627A14.437,14.437,0,0,1,27.2,36.2a39.787,39.787,0,0,1-9.081-.448,3.835,3.835,0,0,1-2.948-1.812c-.906-1.569-.695-3.728-.745-5.49a34.167,34.167,0,0,1,.3-7.146c.064-.314.143-.626.238-.932.041-.13.088-.258.135-.386l.027-.049c.112-.2.224-.4.341-.6.044-.076.1-.143.148-.217a14.257,14.257,0,0,0,1.867-2.952c1.44-3.021,3.783-5.467,5.325-8.439.424-.819.7-1.692,1.063-2.535.177-.408.448-1.086.863-1.3,1.021-.516,2.069.518,2.424,1.39,1.213,2.991-.3,6.336-1.69,8.967a1.928,1.928,0,0,0,1.843,2.806,1.754,1.754,0,0,0,.782.117c1.508-.1,3.278-.131,4.468.991a3.351,3.351,0,0,1,.8,3.52,2,2,0,0,0,.286,2.268c1.063,1.3.719,2.9.047,4.266" transform="translate(0 0)" fill="#767676"/>
      <path id="패스_1500" data-name="패스 1500" d="M5.569,16.123H4.144A4.264,4.264,0,0,0,0,20.487v15.15A4.264,4.264,0,0,0,4.144,40H5.569a4.264,4.264,0,0,0,4.143-4.364V20.487a4.263,4.263,0,0,0-4.143-4.364m.406,19.515a.417.417,0,0,1-.406.427H4.144a.418.418,0,0,1-.406-.427V20.487a.417.417,0,0,1,.406-.427H5.569a.416.416,0,0,1,.406.426h0Z" transform="translate(0 0)" fill="#767676"/>
    </g>
  </g>
</svg> -->
<svg xmlns="http://www.w3.org/2000/svg" width="48" height="48" viewBox="0 0 48 48">
  <g id="그룹_6316" data-name="그룹 6316" transform="translate(-462 -1175)">
    <g id="그룹_3497" data-name="그룹 3497">
      <rect id="사각형_641" data-name="사각형 641" width="48" height="48" transform="translate(462 1175)" fill="none"/>
    </g>
    <g id="그룹_6315" data-name="그룹 6315" transform="translate(338 -482)">
      <path id="패스_1600" data-name="패스 1600" d="M42.294,32.272a6.971,6.971,0,0,0-.667-5.725l-.081-.135.04-.152a6.9,6.9,0,0,0-1.24-5.95A7.286,7.286,0,0,0,34.9,17.815l-.581,0,.243-.529a13.465,13.465,0,0,0,1.077-7.717A6.825,6.825,0,0,0,32.107,4.8a4.341,4.341,0,0,0-1.835-.423,4.26,4.26,0,0,0-2.1.571c-1.425.792-2.01,2.257-2.629,3.809l-.128.319a26.57,26.57,0,0,1-3.3,5.462,30.582,30.582,0,0,0-2.78,4.618,8.779,8.779,0,0,1-.43.783c-.043.068-.089.134-.136.2l-.145.2c-2.706,3.305-2.6,7.58-2.5,11.716.008.339.013.684.017,1.031a15,15,0,0,0,.839,5.854,6.734,6.734,0,0,0,3.571,3.573,17.381,17.381,0,0,0,5.313.919,48.469,48.469,0,0,0,5.683.177c5.6-.207,8.844-1.915,9.647-5.077A9.741,9.741,0,0,0,41.548,35c-.012-.089-.037-.2-.061-.3a4.217,4.217,0,0,1-.091-.519l.045-.135.095-.138a9.23,9.23,0,0,0,.758-1.633m-3.265.112h0l-.016.027h0a3.821,3.821,0,0,0-.518,2.086,7.721,7.721,0,0,1,.073,2.369,3.228,3.228,0,0,1-2.412,2.945,14.644,14.644,0,0,1-3.936.762q-1.3.087-2.61.086a40.206,40.206,0,0,1-6.553-.537,4.209,4.209,0,0,1-3.206-1.986,9.333,9.333,0,0,1-.791-4.649c0-.352,0-.7-.01-1.027a34.691,34.691,0,0,1,.3-7.211,10.2,10.2,0,0,1,.252-.989c.04-.128.086-.254.131-.38l.06-.124c.132-.235.237-.423.346-.609.031-.053.068-.106.106-.159l.075-.106a13.906,13.906,0,0,0,1.818-2.874,31.465,31.465,0,0,1,2.816-4.52,34.451,34.451,0,0,0,2.515-3.932A15.421,15.421,0,0,0,28.142,10c.124-.318.247-.637.383-.952A2.909,2.909,0,0,1,29.56,7.561a1.644,1.644,0,0,1,1.351-.066A3.066,3.066,0,0,1,32.5,9.142c1.22,3.01-.1,6.241-1.706,9.284a1.554,1.554,0,0,0,.672,2.088,1.684,1.684,0,0,0,.653.222l.237.037.173.018a2.074,2.074,0,0,0,.53.009c1.626-.107,3.466-.122,4.754,1.092a3.745,3.745,0,0,1,.9,3.92,1.653,1.653,0,0,0,.211,1.889c1,1.226,1.033,2.8.1,4.683" transform="translate(124 1657)" fill="#767676"/>
      <path id="패스_1601" data-name="패스 1601" d="M10.563,20.5H9.143a3.9,3.9,0,0,0-3.769,3.981V39.637a3.9,3.9,0,0,0,3.779,3.987h1.415a3.893,3.893,0,0,0,3.768-3.979V24.487a3.9,3.9,0,0,0-3.773-3.99m.786,19.137a.792.792,0,0,1-.771.806H9.143a.8.8,0,0,1-.781-.811V24.487a.78.78,0,0,1,.218-.556.788.788,0,0,1,.553-.246h1.435a.794.794,0,0,1,.781.809Z" transform="translate(124 1657)" fill="#767676"/>
    </g>
  </g>
</svg>
