<svg xmlns="http://www.w3.org/2000/svg" xmlns:xlink="http://www.w3.org/1999/xlink" width="30" height="30" viewBox="0 0 30 30">
  <defs>
    <clipPath id="clip-path">
      <rect id="사각형_1118" data-name="사각형 1118" width="20" height="22.5" fill="#999"/>
    </clipPath>
  </defs>
  <g id="그룹_3497" data-name="그룹 3497" transform="translate(-462 -1175)">
    <rect id="사각형_641" data-name="사각형 641" width="30" height="30" transform="translate(462 1175)" fill="none"/>
    <g id="그룹_5011" data-name="그룹 5011" transform="translate(466.824 1178.672)">
      <g id="그룹_5010" data-name="그룹 5010" clip-path="url(#clip-path)">
        <path id="패스_1497" data-name="패스 1497" d="M17.487,8.244a12.31,12.31,0,0,0,1.5-4.387C19,2.159,18.472.235,16.606.018,15.248-.14,14.7.749,14.2,2.169a12.944,12.944,0,0,1-1.254,2.3c-1.163,1.814-1.782,2.222-2.653,4.16C9.356,10.724,7.942,9.4,8.492,18.7a3.862,3.862,0,0,0,.342,1.433,3.371,3.371,0,0,0,2.841,2.033,29.515,29.515,0,0,0,6.79.211c1.711-.27,3.591-.705,3.93-2.467a3.994,3.994,0,0,0,.079-2.149c-.174-.483.474-1.125.639-1.832a3.318,3.318,0,0,0-.657-3.063,3.284,3.284,0,0,0-.521-3.429,4.4,4.4,0,0,0-3.79-1.127" transform="translate(-3.229 0)" fill="#999"/>
        <path id="패스_1498" data-name="패스 1498" d="M2.417,28.659H1.461A1.468,1.468,0,0,1,0,27.182V17.715a1.468,1.468,0,0,1,1.461-1.477h.956a1.469,1.469,0,0,1,1.461,1.477v9.468a1.469,1.469,0,0,1-1.461,1.477" transform="translate(0 -6.159)" fill="#999"/>
      </g>
    </g>
  </g>
</svg>
