<svg xmlns="http://www.w3.org/2000/svg" width="48.001" height="48" viewBox="0 0 48.001 48">
  <g id="LIKE_48_BORDER" data-name="LIKE 48 BORDER" transform="translate(-462 -1175)">
    <rect id="사각형_641" data-name="사각형 641" width="48" height="48" transform="translate(462 1175)" fill="none"/>
    <path id="패스_1180" data-name="패스 1180" d="M1049.995,1787.982a10.094,10.094,0,0,0-3.762-.779h-5.344l.757-3.675a6.911,6.911,0,0,0-11.592-6.224l-5.13,6.846a23,23,0,0,0-4.1,7.2,12.45,12.45,0,0,0-5.467-1.159c-6.63.1-8.952,3.625-8.926,6.608v15.915c-.026,3,2.281,6.547,8.887,6.643l.164,0c3.2-.048,5.4-.9,6.811-2.1a8,8,0,0,0,5.325,2.094h14.276l.507,0c.255.01.544.01.855.01,6.464,0,8.525-2.982,9.116-5.482l.882-6.674.347-2.98c.254-2.13.438-3.668.637-6.163l.066-.753C1054.533,1794.784,1054.967,1790.075,1049.995,1787.982Zm-37.569,8.786c0-.2,1.021-.718,2.927-.754,1.894.027,3.049.517,3.046.788l0,16.005c-.073.168-.956.673-2.957.716-1.873-.026-3.016-.518-3.014-.789Zm22.463-15.561a.845.845,0,0,1,.591.251,1.029,1.029,0,0,1,.277.935l-2.192,10.647h12.607a3.881,3.881,0,0,1,1.44.3c.66.278.992.417.708,3.476l-.068.78c-.2,2.452-.381,3.979-.638,6.139-.1.831-.207,1.75-.326,2.8l-.8,6.141c-.27.71-1.9.861-3.24.861-.257,0-.495,0-.733-.009l-.595-.006-14.259,0a1.919,1.919,0,0,1-1.893-1.948l-.187-13.881a17.226,17.226,0,0,1,4.036-9.921l4.8-6.448A.743.743,0,0,1,1034.889,1781.207Z" transform="translate(-544.424 -598.367)" fill="#999"/>
  </g>
</svg>
