<svg xmlns="http://www.w3.org/2000/svg" xmlns:xlink="http://www.w3.org/1999/xlink" width="38" height="40" viewBox="0 0 38 40">
  <defs>
    <clipPath id="clip-path">
      <rect id="사각형_1119" data-name="사각형 1119" width="38" height="40" transform="translate(0 0.001)" 
      fill="#767676"
      />
    </clipPath>
  </defs>
  <g id="그룹_5013" data-name="그룹 5013" transform="translate(0 -0.001)">
    <g id="그룹_5012" data-name="그룹 5012" clip-path="url(#clip-path)">
      <path id="패스_1499" data-name="패스 1499" d="M36.849,30.114a9.546,9.546,0,0,0,.8-1.718,7.353,7.353,0,0,0-.7-6.042,7.235,7.235,0,0,0-1.307-6.275,7.672,7.672,0,0,0-5.735-2.639,13.881,13.881,0,0,0,1.107-7.933c-.677-3.591-4.373-6.92-8.02-4.889-1.646.916-2.251,2.65-2.922,4.317a26.163,26.163,0,0,1-3.251,5.37A30.807,30.807,0,0,0,14,14.99a8.524,8.524,0,0,1-.412.75c-.063.1-.139.2-.206.3l-.045.054c-2.769,3.381-2.689,7.739-2.585,11.964.057,2.322-.068,4.873.888,7.028a7.135,7.135,0,0,0,3.767,3.766,17.79,17.79,0,0,0,5.453.949,48.413,48.413,0,0,0,5.7.177c3.752-.139,8.895-1.009,10-5.359a10.107,10.107,0,0,0,.362-3.649c-.033-.257-.123-.522-.145-.776a.2.2,0,0,0,.067-.08M33.69,28.222a4.2,4.2,0,0,0-.569,2.291,7.547,7.547,0,0,1,.075,2.309,2.871,2.871,0,0,1-2.135,2.627A14.437,14.437,0,0,1,27.2,36.2a39.787,39.787,0,0,1-9.081-.448,3.835,3.835,0,0,1-2.948-1.812c-.906-1.569-.695-3.728-.745-5.49a34.167,34.167,0,0,1,.3-7.146c.064-.314.143-.626.238-.932.041-.13.088-.258.135-.386l.027-.049c.112-.2.224-.4.341-.6.044-.076.1-.143.148-.217a14.257,14.257,0,0,0,1.867-2.952c1.44-3.021,3.783-5.467,5.325-8.439.424-.819.7-1.692,1.063-2.535.177-.408.448-1.086.863-1.3,1.021-.516,2.069.518,2.424,1.39,1.213,2.991-.3,6.336-1.69,8.967a1.928,1.928,0,0,0,1.843,2.806,1.754,1.754,0,0,0,.782.117c1.508-.1,3.278-.131,4.468.991a3.351,3.351,0,0,1,.8,3.52,2,2,0,0,0,.286,2.268c1.063,1.3.719,2.9.047,4.266" transform="translate(0 0)" fill="#767676"/>
      <path id="패스_1500" data-name="패스 1500" d="M5.569,16.123H4.144A4.264,4.264,0,0,0,0,20.487v15.15A4.264,4.264,0,0,0,4.144,40H5.569a4.264,4.264,0,0,0,4.143-4.364V20.487a4.263,4.263,0,0,0-4.143-4.364m.406,19.515a.417.417,0,0,1-.406.427H4.144a.418.418,0,0,1-.406-.427V20.487a.417.417,0,0,1,.406-.427H5.569a.416.416,0,0,1,.406.426h0Z" transform="translate(0 0)" fill="#767676"/>
    </g>
  </g>
</svg>
