<svg xmlns="http://www.w3.org/2000/svg" width="48" height="48" viewBox="0 0 48 48">
  <g id="LIKE_48_FILLED" data-name="LIKE 48 FILLED" transform="translate(-462 -1175)">
    <rect id="사각형_641" data-name="사각형 641" width="48" height="48" transform="translate(462 1175)" fill="none"/>
    <g id="그룹_71" data-name="그룹 71" transform="translate(-495.699 -668.093)">
      <path id="패스_149" data-name="패스 149" d="M984.089,1846.1l-5.946,7.917a23.218,23.218,0,0,0-5.488,13.356l.233,17.165a4.578,4.578,0,0,0,4.591,4.535h17.8c1.852-.016,7.171.481,7.948-2.727l1.021-7.741c.551-4.781.866-6.83,1.212-11.065.26-3.177.893-6.142-2.174-7.412a7.293,7.293,0,0,0-2.63-.549H987.7l2.175-10.393a3.4,3.4,0,0,0-.941-3.109,3.445,3.445,0,0,0-4.747-.07Zm-20.375,42.975c2.562-.038,6.036-.689,6.014-3.161v-19.528c.023-2.473-3.453-3.125-6.014-3.162-2.563.037-6.037.689-6.014,3.162v19.527C957.677,1888.385,961.152,1889.037,963.714,1889.075Z" fill="#ff9888"/>
    </g>
  </g>
</svg>
