<svg xmlns="http://www.w3.org/2000/svg" xmlns:xlink="http://www.w3.org/1999/xlink" width="32" height="36" viewBox="0 0 32 36">
  <defs>
    <clipPath id="clip-path">
      <rect id="사각형_1118" data-name="사각형 1118" width="32" height="36" fill="#ff9888"/>
    </clipPath>
  </defs>
  <g id="그룹_5010" data-name="그룹 5010" clip-path="url(#clip-path)">
    <path id="패스_1497" data-name="패스 1497" d="M22.957,13.19c.924-1.7,2.376-5.068,2.394-7.018.024-2.716-.818-5.795-3.8-6.143C19.376-.223,18.5,1.2,17.706,3.471A20.711,20.711,0,0,1,15.7,7.156c-1.86,2.9-2.852,3.554-4.245,6.656-1.5,3.347-3.768,1.224-2.888,16.111a6.18,6.18,0,0,0,.547,2.293,5.393,5.393,0,0,0,4.545,3.253,47.224,47.224,0,0,0,10.864.338c2.738-.432,5.745-1.128,6.288-3.948a6.391,6.391,0,0,0,.127-3.438c-.279-.773.759-1.8,1.023-2.932a5.308,5.308,0,0,0-1.051-4.9,5.254,5.254,0,0,0-.834-5.487c-1.534-1.71-3.82-1.969-6.064-1.8" transform="translate(-0.145 0)" fill="#ff9888"/>
    <path id="패스_1498" data-name="패스 1498" d="M3.867,36.112H2.337A2.349,2.349,0,0,1,0,33.749V18.6a2.349,2.349,0,0,1,2.337-2.363h1.53A2.35,2.35,0,0,1,6.2,18.6V33.749a2.35,2.35,0,0,1-2.338,2.363" transform="translate(0 -0.111)" fill="#ff9888"/>
  </g>
</svg>
