<svg xmlns="http://www.w3.org/2000/svg" width="54" height="54" viewBox="0 0 54 54">
  <g id="LOCATION_54_FILLED" data-name="LOCATION 54 FILLED" transform="translate(-301 -527)">
    <rect id="사각형_663" data-name="사각형 663" width="54" height="54" transform="translate(301 527)" fill="none"/>
    <g id="그룹_4304" data-name="그룹 4304" transform="translate(-690.049 -1346.97)">
      <path id="패스_1339" data-name="패스 1339" d="M1031.051,1880.161a22.387,22.387,0,0,0-23.1-1.807c-7.581,3.877-11.8,12.4-10.741,21.719,1.01,8.922,7.578,14.716,13.928,20.317,1.821,1.606,3.7,3.267,5.408,4.961a1.963,1.963,0,0,0,1.437.618h.145a1.977,1.977,0,0,0,1.415-.608c1.707-1.7,3.635-3.368,5.5-4.982,5.7-4.936,11.588-10.039,13.343-17.4C1040.472,1894.251,1037.528,1885.083,1031.051,1880.161Zm-13.056,23.423h-.18a7.007,7.007,0,0,1-7.133-6.871l0-.227c.115-4.305,2.865-7.067,7.018-7.067h.108a7.568,7.568,0,0,1,7.593,7.287A7.253,7.253,0,0,1,1017.995,1903.584Z" transform="translate(0 0)" fill="#ff9888"/>
    </g>
  </g>
</svg>
