<svg xmlns="http://www.w3.org/2000/svg" width="54" height="54" viewBox="0 0 54 54">
  <g id="LOCATION_54_GRAY30" data-name="LOCATION 54 GRAY30" transform="translate(-0.001)">
    <g id="그룹_3559" data-name="그룹 3559" transform="translate(5.998 2)">
      <path id="패스_1219" data-name="패스 1219" d="M701.015,1880.75a22.39,22.39,0,0,0-23.1-1.807c-7.579,3.877-11.8,12.4-10.741,21.719,1.01,8.923,7.578,14.716,13.928,20.317,1.821,1.606,3.7,3.268,5.407,4.961a1.964,1.964,0,0,0,1.437.618h.145a1.977,1.977,0,0,0,1.415-.608c1.706-1.7,3.637-3.368,5.5-4.982,5.7-4.935,11.587-10.039,13.343-17.4C710.436,1894.84,707.49,1885.672,701.015,1880.75Zm3.356,21.4c-1.445,6.74-7.042,11.522-12.451,16.147-1.31,1.119-2.661,2.273-3.915,3.428-1.273-1.162-2.657-2.329-4-3.458-4.6-3.873-9.351-7.875-11.439-13.065-2.5-6.235-1.853-15.308,4.222-20.629l.057-.048a17.431,17.431,0,0,1,11.248-3.978,17.1,17.1,0,0,1,8.613,2.2C703.946,1886.871,705.753,1895.693,704.371,1902.146Z" transform="translate(-667.012 -1876.559)" fill="#dbdbdb"/>
      <path id="패스_1220" data-name="패스 1220" d="M682.792,1884.959h-.117c-4.483,0-7.451,3.139-7.573,8.034l-.005.258a7.759,7.759,0,0,0,7.7,7.812c.064,0,.127,0,.193,0a8.015,8.015,0,0,0,8-7.821A8.38,8.38,0,0,0,682.792,1884.959Zm-.32,4.374.189,0h.024a3.934,3.934,0,0,1,3.933,3.895,3.545,3.545,0,0,1-3.485,3.427,3.1,3.1,0,0,1-.61,0,3.353,3.353,0,0,1-3.041-3.642C679.545,1890.621,680.524,1889.416,682.472,1889.333Z" transform="translate(-662.048 -1872.238)" fill="#dbdbdb"/>
    </g>
    <rect id="사각형_663" data-name="사각형 663" width="54" height="54" transform="translate(0.001)" fill="none"/>
  </g>
</svg>
