<svg xmlns="http://www.w3.org/2000/svg" width="54" height="54" viewBox="0 0 54 54">
  <g id="그룹_3562" data-name="그룹 3562" transform="translate(-301 -527)">
    <rect id="사각형_663" data-name="사각형 663" width="54" height="54" transform="translate(301 527)" fill="none"/>
    <g id="그룹_6347" data-name="그룹 6347" transform="translate(-134.422 -308.361)">
      <path id="패스_1628" data-name="패스 1628" d="M186.127,9.959a21.754,21.754,0,0,0-12.738-4.1,22.024,22.024,0,0,0-9.84,2.34c-7.394,3.784-11.5,12.112-10.469,21.217.988,8.731,7.482,14.458,13.76,20,1.626,1.433,3.649,3.215,5.431,4.982a1.487,1.487,0,0,0,1.078.473h.152a1.481,1.481,0,0,0,1.053-.454c1.686-1.68,3.575-3.316,5.4-4.9l.132-.114c5.638-4.882,11.464-9.928,13.184-17.139,2.041-8.533-.831-17.495-7.145-22.3m4.145,21.086-.005.026c-1.483,6.9-7.136,11.731-12.6,16.405-1.3,1.113-2.652,2.264-3.911,3.423l-.337.312-.338-.309c-1.33-1.213-2.865-2.5-3.985-3.445-4.645-3.911-9.446-7.953-11.581-13.262-2.563-6.389-1.89-15.72,4.356-21.191a17.964,17.964,0,0,1,11.64-4.149h.176a17.719,17.719,0,0,1,8.677,2.263c7.453,4.246,9.325,13.3,7.911,19.928" transform="translate(289 832)"/>
      <path id="패스_1629" data-name="패스 1629" d="M173.158,18.712h-.11c-4.108,0-6.836,2.914-6.948,7.425l-.005.252a7.139,7.139,0,0,0,7.08,7.177h.188a7.349,7.349,0,0,0,7.375-7.211,7.713,7.713,0,0,0-7.58-7.643m.369,11.7c-.1.01-.21.015-.323.015a3.311,3.311,0,0,1-.37-.019,3.978,3.978,0,0,1-3.6-4.308c.076-2.726,1.282-4.163,3.586-4.26h.216a4.587,4.587,0,0,1,4.582,4.514,4.179,4.179,0,0,1-4.089,4.058" transform="translate(289 832)"/>
    </g>
  </g>
</svg>
