<svg id="그룹_5602" data-name="그룹 5602" xmlns="http://www.w3.org/2000/svg" width="40" height="40" viewBox="0 0 40 40">
  <rect id="사각형_663" data-name="사각형 663" width="40" height="40" fill="none"/>
  <g id="그룹_6807" data-name="그룹 6807" transform="translate(9 6.369)">
    <g id="그룹_6808" data-name="그룹 6808" transform="translate(0 0.4)">
      <path id="패스_1739" data-name="패스 1739" d="M18,2.224A11.794,11.794,0,0,0,11.1,0,11.94,11.94,0,0,0,5.761,1.269C1.753,3.32-.475,7.835.086,12.771c.536,4.733,4.056,7.838,7.46,10.841.881.777,1.978,1.743,2.944,2.7a.806.806,0,0,0,.584.256h.082a.8.8,0,0,0,.571-.246c.914-.911,1.938-1.8,2.929-2.656l.072-.062c3.057-2.647,6.215-5.382,7.147-9.291C22.981,9.688,21.424,4.829,18,2.224m2.247,11.431,0,.014c-.8,3.74-3.869,6.36-6.832,8.894-.707.6-1.438,1.227-2.12,1.856l-.183.169-.183-.168c-.721-.658-1.553-1.357-2.16-1.868-2.518-2.12-5.121-4.312-6.278-7.19C1.1,11.9,1.464,6.841,4.85,3.875a9.739,9.739,0,0,1,6.31-2.249h.1a9.606,9.606,0,0,1,4.7,1.227c4.04,2.3,5.055,7.212,4.289,10.8" transform="translate(0 -0.338)" fill="#1a1311"/>
      <path id="패스_1740" data-name="패스 1740" d="M17,12.856h-.06c-2.227,0-3.706,1.58-3.767,4.025l0,.137a3.87,3.87,0,0,0,3.838,3.891h.1a3.984,3.984,0,0,0,4-3.909A4.181,4.181,0,0,0,17,12.856m.2,6.341c-.055.005-.114.008-.175.008a1.8,1.8,0,0,1-.2-.01,2.157,2.157,0,0,1-1.953-2.335c.041-1.478.7-2.257,1.944-2.309h.117A2.487,2.487,0,0,1,19.418,17,2.265,2.265,0,0,1,17.2,19.2" transform="translate(-6.031 -6.225)" fill="#1a1311"/>
    </g>
  </g>
</svg>
