<svg xmlns="http://www.w3.org/2000/svg" xmlns:xlink="http://www.w3.org/1999/xlink" width="48" height="48" viewBox="0 0 48 48">
  <defs>
    <clipPath id="clip-path">
      <rect id="사각형_1527" data-name="사각형 1527" width="48" height="48" fill="none"/>
    </clipPath>
    <clipPath id="clip-path-2">
      <rect id="사각형_1699" data-name="사각형 1699" width="34.006" height="40.383" transform="translate(0 0)" fill="none"/>
    </clipPath>
  </defs>
  <g id="그룹_6324" data-name="그룹 6324" clip-path="url(#clip-path)">
    <g id="그룹_7026" data-name="그룹 7026" transform="translate(7 4)">
      <g id="그룹_7025" data-name="그룹 7025" clip-path="url(#clip-path-2)">
        <path id="패스_1923" data-name="패스 1923" d="M27.65,3.5l-.132-.106A17.919,17.919,0,0,0,16.976,0,18.314,18.314,0,0,0,8.833,1.938C2.692,5.08-.724,11.979.129,19.516c.816,7.2,6.083,11.856,11.18,16.356,1.282,1.129,2.877,2.534,4.267,3.911a1.9,1.9,0,0,0,1.37.6h.128a1.877,1.877,0,0,0,1.323-.566c1.305-1.3,2.775-2.575,4.2-3.816l.161-.14c4.566-3.955,9.287-8.044,10.708-14,1.674-7-.665-14.357-5.821-18.365m2.087,17.042-.02.068c-1.129,5.254-5.533,9.022-9.792,12.664l-.23.2c-.9.766-1.821,1.557-2.7,2.358-.939-.847-1.95-1.7-2.775-2.4l-.212-.179C10.383,30.2,6.631,27.042,5,22.981,3.051,18.128,3.55,11.051,8.26,6.924a13.624,13.624,0,0,1,8.69-3.14h.277a13.415,13.415,0,0,1,6.542,1.708C29.39,8.7,30.8,15.564,29.737,20.541"/>
        <path id="패스_1924" data-name="패스 1924" d="M16.806,10.223h-.1c-3.682,0-6.126,2.586-6.225,6.59l0,.212a6.388,6.388,0,0,0,6.33,6.41h.173A6.583,6.583,0,0,0,23.522,17a6.8,6.8,0,0,0-6.716-6.772m-.281,3.886H16.7a2.954,2.954,0,0,1,2.946,2.871,2.628,2.628,0,0,1-2.587,2.551l-.033,0c-.06.006-.125.009-.166.01l-.1,0c-.047,0-.094,0-.154-.01a2.485,2.485,0,0,1-2.229-2.712c.065-2.322,1.2-2.667,2.154-2.708"/>
      </g>
    </g>
  </g>
</svg>
