<svg xmlns="http://www.w3.org/2000/svg" width="30" height="43.205" viewBox="0 0 30 43.205">
  <g id="그룹_3654" data-name="그룹 3654" transform="translate(-328.46 -1834.718)">
    <path id="사각형_152" data-name="사각형 152" d="M15,0A15,15,0,0,1,30,15L15,40.2c0,8.284,8.284-3.2,0-3.2s0,11.486,0,3.2L0,15A15,15,0,0,1,15,0Z" transform="translate(328.46 1834.718)" fill="#ff9888"/>
    <g id="그룹_3655" data-name="그룹 3655" transform="translate(333.245 1839.503)">
      <path id="패스_1249" data-name="패스 1249" d="M353.9,1861.028a7.891,7.891,0,0,1-1.575-2.675c-.935-2.883-5.189-3.337-6.9-1.312a7.1,7.1,0,0,0-1.173,2.516c-.518,1.5-1.857,2.463-2.179,4.03a3.436,3.436,0,0,0,3.887,4.031c.835-.056,1.448-.678,2.21-.867.965-.359,1.645.439,2.5.735C354.185,1868.661,356.843,1863.585,353.9,1861.028Z" transform="translate(-338.482 -1847.563)" fill="#fff"/>
      <path id="패스_1250" data-name="패스 1250" d="M345.694,1850.915h0c3.653.8,4.488-5.888,1.271-6.844C343.271,1843.3,342.326,1850.105,345.694,1850.915Z" transform="translate(-339.258 -1843.697)" fill="#fff"/>
      <path id="패스_1251" data-name="패스 1251" d="M341.459,1854.266c-1.072-3.391-4.985-1.714-4.779,1.864-.386,2.8,3.191,4.88,4.809,2.054h0A4.652,4.652,0,0,0,341.459,1854.266Z" transform="translate(-336.652 -1846.502)" fill="#fff"/>
      <path id="패스_1252" data-name="패스 1252" d="M355.712,1850.538c3.673-.138,3.333-6.783-.078-7.005C352.064,1843.529,352.143,1850.491,355.712,1850.538Z" transform="translate(-342.767 -1843.533)" fill="#fff"/>
      <path id="패스_1253" data-name="패스 1253" d="M364.178,1852.29c-2.818-1.732-4.374,2.683-3.588,4.89,1.158,3.034,4.982,1.994,5.034-1.112C365.622,1854.873,365.471,1853.06,364.178,1852.29Z" transform="translate(-345.527 -1846.327)" fill="#fff"/>
    </g>
  </g>
</svg>
