<svg id="그룹_3559" data-name="그룹 3559" xmlns="http://www.w3.org/2000/svg" width="31.111" height="37.037" viewBox="0 0 31.111 37.037">
  <path id="패스_1219" data-name="패스 1219" d="M692.2,1879.664a16.585,16.585,0,0,0-17.113-1.339c-5.614,2.872-8.738,9.188-7.956,16.088.748,6.61,5.613,10.9,10.317,15.05,1.349,1.189,2.743,2.421,4.005,3.675a1.455,1.455,0,0,0,1.064.458h.107a1.465,1.465,0,0,0,1.048-.451c1.264-1.257,2.694-2.495,4.076-3.691,4.219-3.656,8.583-7.437,9.883-12.89C699.178,1890.1,697,1883.309,692.2,1879.664Zm2.486,15.849c-1.071,4.992-5.216,8.535-9.223,11.961-.97.829-1.971,1.684-2.9,2.539-.943-.861-1.968-1.725-2.963-2.561-3.406-2.869-6.927-5.833-8.473-9.678-1.855-4.619-1.373-11.339,3.128-15.281l.042-.036a12.912,12.912,0,0,1,8.332-2.947,12.664,12.664,0,0,1,6.38,1.63C694.37,1884.2,695.709,1890.732,694.685,1895.513Z" transform="translate(-667.012 -1876.559)" fill="#767676"/>
  <path id="패스_1220" data-name="패스 1220" d="M680.8,1884.959h-.086c-3.32,0-5.519,2.326-5.61,5.951l0,.191a5.747,5.747,0,0,0,5.7,5.786h.143a5.937,5.937,0,0,0,5.925-5.793A6.207,6.207,0,0,0,680.8,1884.959Zm-.237,3.24.14,0h.018a2.914,2.914,0,0,1,2.913,2.885,2.626,2.626,0,0,1-2.582,2.539,2.325,2.325,0,0,1-.452,0,2.483,2.483,0,0,1-2.253-2.7C678.392,1889.153,679.117,1888.26,680.56,1888.2Z" transform="translate(-665.431 -1875.536)" fill="#767676"/>
</svg>
