<svg id="그룹_5831" data-name="그룹 5831" xmlns="http://www.w3.org/2000/svg" width="63.209" height="79.58" viewBox="0 0 63.209 79.58">
  <g id="그룹_5832" data-name="그룹 5832">
    <path id="패스_1562" data-name="패스 1562" d="M31.66,79.58h-.135a2.377,2.377,0,0,1-1.8-.8C17.988,66.483,2.2,56.591.231,38.289c-1.442-13.413,3.854-27.865,16.163-34.5A32.232,32.232,0,0,1,51.18,6.658c10.564,8.454,13.94,23.433,11.03,36.25-3.543,15.648-18.293,24.93-28.74,35.867a2.389,2.389,0,0,1-1.758.8Z" transform="translate(0 0)" fill="#ff9888"/>
    <path id="패스_1563" data-name="패스 1563" d="M44.385,43.317c-3.029-2.966-8.683-3.551-12.216,1.621-1.21,1.734-3.181,5.337-4.974,6.767a8.215,8.215,0,0,0-3.268,7.517,7.516,7.516,0,0,0,6.967,6.927c2.979.315,4.747-1.721,9.223-2.2,3.66-.123,7.4,2.946,11.046.483,3.645-3.384,3.611-8.184.674-11.189l-1.68-1.74c0-.008-2.439-3.486-2.436-3.495a17.963,17.963,0,0,0-3.336-4.7" transform="translate(-7.305 -12.551)" fill="#fff"/>
    <path id="패스_1564" data-name="패스 1564" d="M32.578,34.543a4.517,4.517,0,0,0,4.8-1.983c2.536-3.447,2.4-7.167.836-10.839-1.588-3.713-5.267-3.921-7.559-.565A8.972,8.972,0,0,0,28.7,26.783a9.37,9.37,0,0,0,.407,4.474,4.1,4.1,0,0,0,3.472,3.286" transform="translate(-8.74 -5.74)" fill="#fff"/>
    <path id="패스_1565" data-name="패스 1565" d="M51.945,33.114c1.994-.4,2.938-1.632,3.183-4.363a9.1,9.1,0,0,0-.02-3.778c-.836-2.233-.721-5.279-3.763-6.056-3.859-.983-6.074,1.108-6.164,5.579-.065,3.163.069,4.008.9,5.771,1.212,2.567,2.979,3.422,5.862,2.848" transform="translate(-13.805 -5.709)" fill="#fff"/>
    <path id="패스_1566" data-name="패스 1566" d="M21.689,36.828c-2.659-.9-6.351,3.1-7.286,5.889a6.568,6.568,0,0,0,3.9,7.995c2.019.764,5.038-1.044,5.96-3.574,1.438-3.952.206-9.369-2.575-10.309" transform="translate(-4.318 -11.217)" fill="#fff"/>
    <path id="패스_1567" data-name="패스 1567" d="M66.237,46.645a9.809,9.809,0,0,0,2.183-8.808,5.676,5.676,0,0,0-4.55-3.74c-1.95-.232-2.54.871-3.511,2.531-1.657,2.4-1.361,4.9-.621,7.384a8.016,8.016,0,0,0,.942,1.473,4.769,4.769,0,0,0,2.77,1.841c1.009.237,1.946.433,2.787-.68" transform="translate(-18.078 -10.412)" fill="#fff"/>
  </g>
</svg>
