<svg xmlns="http://www.w3.org/2000/svg" width="60" height="60" viewBox="0 0 60 60">
  <g id="LOCK_60_BORDER" data-name="LOCK 60 BORDER" transform="translate(-628 -106)">
    <rect id="사각형_696" data-name="사각형 696" width="60" height="60" transform="translate(628 106)" fill="none"/>
    <g id="그룹_4485" data-name="그룹 4485" transform="translate(-999.608 -1748.48)">
      <g id="그룹_4484" data-name="그룹 4484" transform="translate(1641.608 1864.48)">
        <path id="패스_1388" data-name="패스 1388" d="M1673.311,1883.007c-.452-2.508-1.846-4.147-4.859-4.719l-3.4-.226c-4.414-.207-9.357-.145-14.9.069l-.071,0c-.069-1.407-.046-6.688,3.924-8.991a7.037,7.037,0,0,1,7.729.076l.112.072a6.249,6.249,0,0,1,2.378,3.71,1.769,1.769,0,1,0,3.43-.87,9.763,9.763,0,0,0-3.985-5.881,10.566,10.566,0,0,0-11.436-.175c-5.91,3.429-5.795,10.684-5.676,12.429a5.466,5.466,0,0,0-4.448,3.753c-.752,2.6-.5,5.59-.261,8.486.09,1.077.174,2.1.205,3.047a61.172,61.172,0,0,0,.131,7.535,3.682,3.682,0,0,0,3.413,2.979c1.234.118,2.478.176,3.719.176.925,0,1.848-.032,2.764-.1.986,0,1.973-.019,2.959-.037s1.963-.036,2.93-.036c1.782.084,3.589.081,5.34.073l.945,0a29.3,29.3,0,0,0,5.612-.1c3.7-.749,3.512-4.413,3.361-7.358-.035-.7-.07-1.356-.054-1.942.031-1.145.115-2.3.2-3.528A34.359,34.359,0,0,0,1673.311,1883.007Zm-3.094,2.417-.008.422c-.017,1.537-.073,3.1-.126,4.612l-.034.975c-.06,1.669-.121,3.395-.153,5.095-.007.381,0,.767.009,1.155a16.128,16.128,0,0,1-.032,1.928c-.115,1.178-.159,1.619-1.333,1.7a89.924,89.924,0,0,1-10.553-.1c-1.439,0-2.878.018-4.315.035-1.254.016-2.506.032-3.755.036-.271,0-.639.032-1.064.069-1.026.089-2.577.224-3.1-.153-.682-.485-.533-2.66-.443-3.958.03-.449.058-.838.052-1.107-.031-1.489-.087-2.98-.142-4.471-.067-1.8-.135-3.669-.16-5.5,0-.185-.009-.378-.016-.574-.042-1.238-.09-2.643.839-3.467.95-.842,2.537-.872,3.936-.9.212,0,.419-.008.617-.015,1.86-.063,3.742-.081,5.61-.081,1.174,0,2.343.007,3.5.014l1.57.008c.42,0,.95-.016,1.513-.036,2.3-.084,5.451-.2,6.757,1.006C1670.271,1882.941,1670.243,1884.2,1670.217,1885.424Z" transform="translate(-1641.609 -1864.48)" fill="#ff9888"/>
      </g>
      <path id="패스_1389" data-name="패스 1389" d="M1657.517,1883.734l-.236,0c-.236-.005-.465,0-.6.013l-.141,0a6.994,6.994,0,0,0-6.789,7.178c0,.057,0,.118,0,.195a7.286,7.286,0,0,0,7.231,6.952c.082,0,.164,0,.245,0,.145.008.289.012.431.012a7.532,7.532,0,0,0,7.471-6.906,1.75,1.75,0,0,0,0-.206A7.669,7.669,0,0,0,1657.517,1883.734Zm-.155,11.344c-.032,0-.073,0-.112,0h-.067a4.241,4.241,0,0,1-4.435-3.989,1.376,1.376,0,0,0,0-.338,3.994,3.994,0,0,1,3.877-4l.16-.005c.138-.009.275-.009.511-.01a4.639,4.639,0,0,1,4.831,4.29A4.542,4.542,0,0,1,1657.362,1895.078Z" transform="translate(0.168 0.517)" fill="#ff9888"/>
    </g>
  </g>
</svg>
