<svg xmlns="http://www.w3.org/2000/svg" width="60" height="60" viewBox="0 0 60 60">
  <g id="LOCK_60_FILLED" data-name="LOCK 60 FILLED" transform="translate(-628 -106)">
    <rect id="사각형_696" data-name="사각형 696" width="60" height="60" transform="translate(628 106)" fill="none"/>
    <g id="그룹_4485" data-name="그룹 4485" transform="translate(-1043.036 -1747.813)">
      <path id="패스_1390" data-name="패스 1390" d="M1716.742,1882.56c-.452-2.483-1.846-4.1-4.859-4.671l-.5-.033c-.1-3.427.058-8.828-4.34-12.249a11.2,11.2,0,0,0-11.745-.252c-5.91,3.394-5.433,11.018-5.314,12.745a5.45,5.45,0,0,0-4.448,3.715c-.752,2.574-.5,5.533-.261,8.4.09,1.066.174,2.079.2,3.016a59.9,59.9,0,0,0,.131,7.459,3.671,3.671,0,0,0,3.413,2.949c1.234.117,2.478.174,3.719.174.925,0,1.848-.032,2.764-.1.986,0,1.973-.019,2.959-.037s1.963-.036,2.93-.036c1.782.083,3.589.08,5.34.072h.945a29.534,29.534,0,0,0,5.612-.1c3.7-.741,3.512-4.368,3.361-7.284-.035-.693-.07-1.342-.054-1.922.031-1.133.115-2.277.2-3.492A33.716,33.716,0,0,0,1716.742,1882.56Zm-23.159-4.827h-.071c-.069-1.393-.307-7.361,3.663-9.641,2.361-1.5,5.617-1.559,7.449-.111l.753.57a3.415,3.415,0,0,1,.7.721c.932,1.292,1.589,1.7,1.905,4.969a21.408,21.408,0,0,1,.034,3.409C1703.719,1877.47,1698.937,1877.529,1693.583,1877.733Z" fill="#000"/>
      <path id="패스_1389" data-name="패스 1389" d="M1700.936,1897.078h-.238a5.634,5.634,0,0,1-5.89-5.3,1.866,1.866,0,0,0,0-.449,5.3,5.3,0,0,1,5.149-5.312l.212-.007c.184-.012.366-.012.679-.013a6.161,6.161,0,0,1,6.416,5.7,6.033,6.033,0,0,1-6.328,5.382Z" transform="translate(0 -0.309)" fill="#fff"/>
    </g>
  </g>
</svg>
