<svg xmlns="http://www.w3.org/2000/svg" width="60" height="60" viewBox="0 0 60 60">
  <g id="그룹_3651" data-name="그룹 3651" transform="translate(-628 -106)">
    <rect id="사각형_696" data-name="사각형 696" width="60" height="60" transform="translate(628 106)" fill="none"/>
    <g id="그룹_5049" data-name="그룹 5049" transform="translate(608.463 -1595.501)">
      <path id="패스_1501" data-name="패스 1501" d="M45.211,28l0-.022c-.5-2.8-2.17-4.438-5.158-5l-3.306-.221c-3.832-.182-8.3-.166-14.072.048-.015-1.816.334-5.95,3.6-7.855a6.308,6.308,0,0,1,6.975.076l.079.048a5.637,5.637,0,0,1,2.126,3.35,2.2,2.2,0,0,0,1.007,1.358,2.165,2.165,0,0,0,1.667.244,2.214,2.214,0,0,0,1.594-2.678,9.993,9.993,0,0,0-4.068-6.037,10.7,10.7,0,0,0-11.6-.186c-5.529,3.227-5.865,9.648-5.768,12.146A5.836,5.836,0,0,0,14,27.194c-.751,2.611-.508,5.561-.271,8.456.081.988.167,2.011.2,2.911a60.276,60.276,0,0,0,.135,7.466,4.053,4.053,0,0,0,3.742,3.3c1.205.115,2.433.173,3.651.173.923,0,1.838-.033,2.681-.1.913,0,1.827-.017,2.74-.032l.14,0c.952-.019,1.9-.035,2.81-.036,1.713.083,3.438.078,5.2.071l.879,0a28.7,28.7,0,0,0,5.577-.1c4-.814,3.795-4.783,3.643-7.772-.032-.638-.062-1.239-.048-1.767.027-1.024.1-2.06.174-3.156l.017-.243A34.284,34.284,0,0,0,45.211,28M40.942,42.407a15.032,15.032,0,0,1-.029,1.812c-.111,1.146-.112,1.169-.834,1.219a87.434,87.434,0,0,1-10.21-.1c-1.267,0-2.533.016-3.8.029l-.393,0c-1.215.017-2.427.031-3.636.035-.273,0-.643.031-1.077.069a7.2,7.2,0,0,1-2.679-.06c-.294-.21-.37-1.364-.224-3.489.029-.432.053-.8.048-1.066-.029-1.4-.08-2.8-.132-4.2l-.006-.168c-.065-1.752-.13-3.573-.155-5.349,0-.15-.006-.306-.011-.465l0-.116c-.04-1.152-.08-2.346.651-3,.786-.7,2.227-.73,3.494-.754.18,0,.356-.007.615-.016,1.591-.055,3.315-.079,5.425-.079,1.137,0,2.269.007,3.391.015l1.525.007c.412,0,.932-.016,1.492-.036,2.023-.075,5.08-.186,6.2.852.7.653.675,1.72.651,2.85l-.008.426c-.016,1.491-.07,3.007-.122,4.487l-.033.952c-.058,1.631-.117,3.316-.148,4.979-.007.379,0,.762.009,1.158" transform="translate(20.039 1702)" fill="#ff9888"/>
      <path id="패스_1502" data-name="패스 1502" d="M30.08,29.27h-.228a5.013,5.013,0,0,0-.611.014h-.156a7.5,7.5,0,0,0-7.274,7.678v.216a7.784,7.784,0,0,0,7.73,7.43h.215c.154.01.31.014.463.014a7.993,7.993,0,0,0,7.968-7.371,2.026,2.026,0,0,0,0-.27,8.184,8.184,0,0,0-8.108-7.71m-.36,11.346a3.792,3.792,0,0,1-3.916-3.43,1.575,1.575,0,0,0,0-.4,3.476,3.476,0,0,1,3.392-3.5l.18-.006c.121-.009.241-.009.5-.01A4.123,4.123,0,0,1,34.19,37.01a4.032,4.032,0,0,1-4.241,3.606H29.72Z" transform="translate(19.541 1701.004)" fill="#ff9888"/>
    </g>
  </g>
</svg>
