<svg xmlns="http://www.w3.org/2000/svg" width="43" height="60" viewBox="0 0 43 60">
  <g id="그룹_6856" data-name="그룹 6856" transform="translate(-28 -1208)">
    <g id="그룹_6687" data-name="그룹 6687" transform="translate(34.128 1218.126)">
      <path id="패스_1726" data-name="패스 1726" d="M30.583,24.7l-.119.022A5.242,5.242,0,0,0,25.8,20.1l-3.23-.216c-3.8-.188-8.244-.17-13.99.05l-.623.024,0-.644c-.015-1.875.336-6.466,3.893-8.6a6.739,6.739,0,0,1,7.607.1l.095.063a6.434,6.434,0,0,1,2.36,3.807,1.63,1.63,0,0,0,.723.986,1.542,1.542,0,0,0,1.206.181,1.59,1.59,0,0,0,.977-.753,1.658,1.658,0,0,0,.178-1.232,9.657,9.657,0,0,0-3.82-5.826,9.85,9.85,0,0,0-10.924-.175C5.019,11,4.677,17.229,4.772,19.761l.019.522L4.3,20.4A5.266,5.266,0,0,0,.477,24C-.236,26.55,0,29.534.232,32.42c.087,1.084.169,2.1.2,3.021a63.639,63.639,0,0,0,.134,7.624,3.434,3.434,0,0,0,3.165,2.809,36.249,36.249,0,0,0,6.244.077c.956,0,1.879-.018,2.772-.034l.138,0c1.018-.02,1.931-.036,2.818-.037,1.78.087,3.592.079,5.192.073l.878,0a27.484,27.484,0,0,0,5.5-.1c3.428-.718,3.247-4.375,3.1-7.312-.032-.665-.063-1.292-.048-1.859.027-1.028.1-2.063.169-3.16l.024-.352a35.586,35.586,0,0,0-.056-8.432Zm-2.875,2.415h-.121l.121,0-.009.435c-.015,1.479-.065,2.962-.122,4.61l-.033.974c-.054,1.577-.116,3.362-.147,5.094-.007.386,0,.782.009,1.155a16.549,16.549,0,0,1-.032,1.926c-.12,1.29-.222,1.74-1.394,1.824a86.617,86.617,0,0,1-10.279-.1c-1.15,0-2.341.015-3.53.028l-.607.008c-1.214.017-2.427.032-3.637.036-.253,0-.6.031-1,.067-.757.069-1.3.1-1.73.1A2.358,2.358,0,0,1,3.821,43c-.376-.276-.7-.8-.473-4.126l0-.062c.025-.394.047-.736.043-.974-.03-1.457-.084-2.962-.132-4.289l-.006-.183c-.068-1.862-.131-3.685-.155-5.493,0-.152-.006-.3-.011-.454l0-.13c-.043-1.264-.091-2.7.852-3.56s2.506-.9,3.876-.93c.169,0,.32,0,.526-.013C10,22.724,11.7,22.7,13.863,22.7c1.137,0,2.27.007,3.392.015l1.521.007c.411,0,.947-.017,1.466-.037,2.245-.086,5.318-.2,6.622,1.039.9.862.871,2.148.845,3.391" transform="translate(-0.001 -6.302)" fill="#000" />
      <path id="패스_1727" data-name="패스 1727" d="M15.955,26.073h-.227a4.3,4.3,0,0,0-.524.008l-.24.006a6.866,6.866,0,0,0-6.652,7.036v.231a7.15,7.15,0,0,0,7.11,6.807h.207c.183.01.325.014.466.014a7.371,7.371,0,0,0,7.345-6.8,1.451,1.451,0,0,0,0-.174,7.561,7.561,0,0,0-7.485-7.128m.1,11.353c-.089,0-.179,0-.269-.008H15.6c-.061,0-.122,0-.183,0A4.36,4.36,0,0,1,11.057,33.4a2.124,2.124,0,0,0,.01-.342,4.129,4.129,0,0,1,3.992-4.221l.177-.006c.1-.008.225-.009.478-.01.068,0,.137,0,.2,0a4.779,4.779,0,0,1,4.77,4.318,4.691,4.691,0,0,1-4.63,4.287" transform="translate(-0.501 -6.302)" fill="#000" />
    </g>
    <rect id="사각형_871" data-name="사각형 871" width="43" height="60" transform="translate(28 1208)" fill="none"/>
  </g>
</svg>
