<!-- <svg xmlns="http://www.w3.org/2000/svg" xmlns:xlink="http://www.w3.org/1999/xlink" width="121.399" height="90" viewBox="0 0 121.399 90">
  <defs>
    <clipPath id="clip-path">
      <rect id="사각형_1069" data-name="사각형 1069" width="112.028" height="75.533" fill="#ff9888"/>
    </clipPath>
    <clipPath id="clip-path-2">
      <rect id="사각형_1070" data-name="사각형 1070" width="53.612" height="23.94" fill="#ff9888"/>
    </clipPath>
  </defs>
  <g id="그룹_7897" data-name="그룹 7897" transform="translate(-218 -514)">
    <g id="그룹_4865" data-name="그룹 4865" transform="translate(218 514)">
      <g id="그룹_4864" data-name="그룹 4864" clip-path="url(#clip-path)">
        <path id="패스_1462" data-name="패스 1462" d="M447.018,54.23c-2.452-1.936-2.39-1.519-2.513-2.88-.189-2.074,2.814-4.176,3.564-10.031.786-6.134,0-10.508-1.952-17.113a14.052,14.052,0,0,1-1.492-4.5c-.309-2.4-.009-13.661-4.663-18.315S427.052,5.2,426.152,6.1a45.684,45.684,0,0,1-4.353,4.147c-1.012.531-3.152-.3-6.755.15-4.09.511-5.254,1.2-6.455,1.051s-8.857-7.956-15.762-7.656c-5.1.222-6.348,7.878-6.836,12.964,1.816.114,5.559.186,8.091.411,3.646.324,14.057,2.537,19.311,5.39s7.806,4.5,10.058,10.358A13.3,13.3,0,0,1,421.83,45.3c-1.169,1.573-4.085,3.08-6.337,3.531a15.039,15.039,0,0,1-3.9.3s-.15.3.3,2.4a23.507,23.507,0,0,1-.107,10.581c6.981.25,18.152.454,22.316.094,5.412-.467,13.859-1.507,15.47-3.32,1.2-1.351.3-2.4-2.552-4.654M426.752,31.713A2.252,2.252,0,1,1,429,29.461a2.252,2.252,0,0,1-2.252,2.252" transform="translate(-338.06 -0.001)" fill="#ff9888"/>
        <path id="패스_1463" data-name="패스 1463" d="M51.313,172.923c-4.053-4.053-6.3-11.559-6.455-18.314s1.75-13.144,2.2-15.846c.118-.708.45-2.139.871-4.216-.268-.017-.5-.035-.669-.054,0,0-22.818.751-32.425,4.053S1.175,148.09.272,151.607s.168,11.262,7.206,14.261a10.719,10.719,0,0,0,6,.807s-1.686,6.525.6,11.859c.45,1.051-1.2,1.651-1.2,1.651a21.539,21.539,0,0,0-4.808,3.332c-1.469,1.489.455,3.066,1.355,3.667a54.1,54.1,0,0,0,13.06,4.053c4.654.6,17.142,2.627,24.769,1.951s15.513-1.993,19.515-4.654c3.3-2.2,5.615-4.593,6.56-7.326.139-.4.269-.842.388-1.309-2.09-.075-3.809-.154-4.847-.223-4.5-.3-13.511-2.7-17.564-6.755m-18.289-7.956a2.252,2.252,0,1,1,2.252-2.252,2.252,2.252,0,0,1-2.252,2.252m13.11,1.651c-.3.525-.375,1.276-2.1,1.426s-2.294-.21-2.777-.9a1.59,1.59,0,0,1,.075-2.027c.45-.45.976-.6,2.252-.6a2.9,2.9,0,0,1,1.951.45c.356.356.9,1.126.6,1.651" transform="translate(0 -117.793)" fill="#ff9888"/>
        <path id="패스_1464" data-name="패스 1464" d="M517.748,219.12A2.252,2.252,0,1,0,520,221.372a2.252,2.252,0,0,0-2.252-2.252" transform="translate(-451.486 -191.911)" fill="#ff9888"/>
        <path id="패스_1465" data-name="패스 1465" d="M430.7,343.642a2.252,2.252,0,1,0,2.252,2.252,2.252,2.252,0,0,0-2.252-2.252" transform="translate(-375.25 -300.971)" fill="#ff9888"/>
        <path id="패스_1466" data-name="패스 1466" d="M593.973,285.916a1.276,1.276,0,0,0,1.756-.408,17.513,17.513,0,0,1,1.9-2.553,19.09,19.09,0,0,1,1.867,2.552,1.275,1.275,0,0,0,2.165-1.346c-2.474-3.979-3.549-3.979-4.008-3.979-.44,0-1.609,0-4.086,3.979a1.275,1.275,0,0,0,.408,1.755" transform="translate(-519.692 -245.391)" fill="#ff9888"/>
      </g>
    </g>
    <g id="그룹_4867" data-name="그룹 4867" transform="translate(285.788 580.06)">
      <g id="그룹_4866" data-name="그룹 4866" transform="translate(0 0)" clip-path="url(#clip-path-2)">
        <path id="패스_1467" data-name="패스 1467" d="M12.727,11.985a1.226,1.226,0,0,0-.855-2.1c-.732-1.507-1.04-3.371-2.131-4.674a2.193,2.193,0,0,0-2.98-.278A6.2,6.2,0,0,0,5.094,7.67a33.955,33.955,0,0,0-1.22,3.364c-1.193.353-3.8-.112-3.873,1.6a1.239,1.239,0,0,0,1.232,1.232c.665-.088,1.323-.183,1.986-.273a37.444,37.444,0,0,0-.706,4.5,1.232,1.232,0,0,0,2.464,0,32.094,32.094,0,0,1,.85-4.858q2.249-.319,4.494-.667l1.458,3.572a1.233,1.233,0,0,0,2.376-.655q-.714-1.748-1.427-3.5M8,7.216a.8.8,0,0,1,.073-.1C8.6,8.1,8.94,9.2,9.37,10.235c-.938.143-1.877.291-2.817.427A16.853,16.853,0,0,1,8,7.216" transform="translate(0 -2.025)" fill="#ff9888"/>
        <path id="패스_1468" data-name="패스 1468" d="M30.708,15.964a1.727,1.727,0,0,1,1.729-.665c1.161.284,1.067,1.862,1.105,2.824.024,1.124-.523,2.829,1.142,2.934a1.265,1.265,0,0,0,1.232-1.233c.22-2.263.309-5.537-2.156-6.652a4.13,4.13,0,0,0-4.782,1.035,1.258,1.258,0,1,0-2.467.095q.481,2.965.961,5.932a1.22,1.22,0,0,0,1.352.882,1.243,1.243,0,0,0,1.067-1.21,14.433,14.433,0,0,1,.539-3.456,4.236,4.236,0,0,1,.277-.487" transform="translate(-11.978 -5.769)" fill="#ff9888"/>
        <path id="패스_1469" data-name="패스 1469" d="M48.676,10.236a1.232,1.232,0,0,0-2.464,0,43.853,43.853,0,0,0,.655,8.45,1.233,1.233,0,0,0,2.376-.655,40.568,40.568,0,0,1-.567-7.795" transform="translate(-20.894 -4.072)" fill="#ff9888"/>
        <path id="패스_1470" data-name="패스 1470" d="M45.682,4.045c.761-.215,2.279-.3,2.32-1.369a1.2,1.2,0,0,0-.587-1.228l-.294-.124c-.45-.169-1.638.276-2.093.346a1.227,1.227,0,0,0-.882,1.024,1.2,1.2,0,0,0,.588,1.228l.295.124a1.248,1.248,0,0,0,.654,0" transform="translate(-19.954 -0.581)" fill="#ff9888"/>
        <path id="패스_1471" data-name="패스 1471" d="M57.8,1.232A1.24,1.24,0,0,0,56.564,0a1.258,1.258,0,0,0-1.232,1.232A54.347,54.347,0,0,0,55.74,14.6a1.233,1.233,0,0,0,2.376-.655A51.824,51.824,0,0,1,57.8,1.232" transform="translate(-24.916 0)" fill="#ff9888"/>
        <path id="패스_1472" data-name="패스 1472" d="M65.744,11.064h0c-1.806.385-2.7,2.284-2.964,3.945A4.2,4.2,0,0,0,65.49,20.1c4.051,1.377,7.866-3.83,5.529-7.335a4.42,4.42,0,0,0-5.275-1.7m3.5,4.438A2.644,2.644,0,0,1,66.6,17.849a4.875,4.875,0,0,1-.468-.145,1.652,1.652,0,0,1-.924-.876c-1.047-3.653,3.758-5.493,4.037-1.326" transform="translate(-28.332 -4.871)" fill="#ff9888"/>
        <path id="패스_1473" data-name="패스 1473" d="M89.364,19.589A31.477,31.477,0,0,0,87.8,12.675a1.7,1.7,0,0,0-.566-.738c-3.3-2.231-6.893.983-6.893,4.5-.246,4.146,4,5.355,6.453,2.229a10.865,10.865,0,0,1-.537,5.986c-.857,2.082-3.15,2.625-4.363.526a1.678,1.678,0,0,1-.048-1.52,1.243,1.243,0,0,0-.442-1.686,1.257,1.257,0,0,0-1.686.442c-1.923,3.219,1.789,7.323,5.235,6.473,3.841-1.038,4.727-5.858,4.413-9.3M85.34,17.081c-.359.569-1.573,1.492-2.378.56-.646-.963-.081-2.409.514-3.183.655-.974,2.264-1.074,2.45.311a4.019,4.019,0,0,1-.586,2.312Z" transform="translate(-35.811 -5.064)" fill="#ff9888"/>
      </g>
    </g>
  </g>
</svg> -->

<svg xmlns="http://www.w3.org/2000/svg" xmlns:xlink="http://www.w3.org/1999/xlink" width="121.399" height="90" viewBox="0 0 121.399 90">
  <defs>
    <clipPath id="clip-path">
      <rect id="사각형_1069" data-name="사각형 1069" width="112.028" height="75.533" fill="#ff9888"/>
    </clipPath>
    <clipPath id="clip-path-2">
      <rect id="사각형_1070" data-name="사각형 1070" width="53.612" height="23.94" fill="#ff9888"/>
    </clipPath>
  </defs>
  <g id="그룹_4868" data-name="그룹 4868" transform="translate(-218 -514)">
    <g id="그룹_4865" data-name="그룹 4865" transform="translate(218 514)">
      <g id="그룹_4864" data-name="그룹 4864" clip-path="url(#clip-path)">
        <path id="패스_1462" data-name="패스 1462" d="M447.018,54.23c-2.452-1.936-2.39-1.519-2.513-2.88-.189-2.074,2.814-4.176,3.564-10.031.786-6.134,0-10.508-1.952-17.113a14.052,14.052,0,0,1-1.492-4.5c-.309-2.4-.009-13.661-4.663-18.315S427.052,5.2,426.152,6.1a45.684,45.684,0,0,1-4.353,4.147c-1.012.531-3.152-.3-6.755.15-4.09.511-5.254,1.2-6.455,1.051s-8.857-7.956-15.762-7.656c-5.1.222-6.348,7.878-6.836,12.964,1.816.114,5.559.186,8.091.411,3.646.324,14.057,2.537,19.311,5.39s7.806,4.5,10.058,10.358A13.3,13.3,0,0,1,421.83,45.3c-1.169,1.573-4.085,3.08-6.337,3.531a15.039,15.039,0,0,1-3.9.3s-.15.3.3,2.4a23.507,23.507,0,0,1-.107,10.581c6.981.25,18.152.454,22.316.094,5.412-.467,13.859-1.507,15.47-3.32,1.2-1.351.3-2.4-2.552-4.654M426.752,31.713A2.252,2.252,0,1,1,429,29.461a2.252,2.252,0,0,1-2.252,2.252" transform="translate(-338.06 -0.001)" fill="#ff9888"/>
        <path id="패스_1463" data-name="패스 1463" d="M51.313,172.923c-4.053-4.053-6.3-11.559-6.455-18.314s1.75-13.144,2.2-15.846c.118-.708.45-2.139.871-4.216-.268-.017-.5-.035-.669-.054,0,0-22.818.751-32.425,4.053S1.175,148.09.272,151.607s.168,11.262,7.206,14.261a10.719,10.719,0,0,0,6,.807s-1.686,6.525.6,11.859c.45,1.051-1.2,1.651-1.2,1.651a21.539,21.539,0,0,0-4.808,3.332c-1.469,1.489.455,3.066,1.355,3.667a54.1,54.1,0,0,0,13.06,4.053c4.654.6,17.142,2.627,24.769,1.951s15.513-1.993,19.515-4.654c3.3-2.2,5.615-4.593,6.56-7.326.139-.4.269-.842.388-1.309-2.09-.075-3.809-.154-4.847-.223-4.5-.3-13.511-2.7-17.564-6.755m-18.289-7.956a2.252,2.252,0,1,1,2.252-2.252,2.252,2.252,0,0,1-2.252,2.252m13.11,1.651c-.3.525-.375,1.276-2.1,1.426s-2.294-.21-2.777-.9a1.59,1.59,0,0,1,.075-2.027c.45-.45.976-.6,2.252-.6a2.9,2.9,0,0,1,1.951.45c.356.356.9,1.126.6,1.651" transform="translate(0 -117.793)" fill="#ff9888"/>
        <path id="패스_1464" data-name="패스 1464" d="M517.748,219.12A2.252,2.252,0,1,0,520,221.372a2.252,2.252,0,0,0-2.252-2.252" transform="translate(-451.486 -191.911)" fill="#ff9888"/>
        <path id="패스_1465" data-name="패스 1465" d="M430.7,343.642a2.252,2.252,0,1,0,2.252,2.252,2.252,2.252,0,0,0-2.252-2.252" transform="translate(-375.25 -300.971)" fill="#ff9888"/>
        <path id="패스_1466" data-name="패스 1466" d="M593.973,285.916a1.276,1.276,0,0,0,1.756-.408,17.513,17.513,0,0,1,1.9-2.553,19.09,19.09,0,0,1,1.867,2.552,1.275,1.275,0,0,0,2.165-1.346c-2.474-3.979-3.549-3.979-4.008-3.979-.44,0-1.609,0-4.086,3.979a1.275,1.275,0,0,0,.408,1.755" transform="translate(-519.692 -245.391)" fill="#ff9888"/>
      </g>
    </g>
    <g id="그룹_4867" data-name="그룹 4867" transform="translate(285.788 580.06)">
      <g id="그룹_4866" data-name="그룹 4866" transform="translate(0 0)" clip-path="url(#clip-path-2)">
        <path id="패스_1467" data-name="패스 1467" d="M12.727,11.985a1.226,1.226,0,0,0-.855-2.1c-.732-1.507-1.04-3.371-2.131-4.674a2.193,2.193,0,0,0-2.98-.278A6.2,6.2,0,0,0,5.094,7.67a33.955,33.955,0,0,0-1.22,3.364c-1.193.353-3.8-.112-3.873,1.6a1.239,1.239,0,0,0,1.232,1.232c.665-.088,1.323-.183,1.986-.273a37.444,37.444,0,0,0-.706,4.5,1.232,1.232,0,0,0,2.464,0,32.094,32.094,0,0,1,.85-4.858q2.249-.319,4.494-.667l1.458,3.572a1.233,1.233,0,0,0,2.376-.655q-.714-1.748-1.427-3.5M8,7.216a.8.8,0,0,1,.073-.1C8.6,8.1,8.94,9.2,9.37,10.235c-.938.143-1.877.291-2.817.427A16.853,16.853,0,0,1,8,7.216" transform="translate(0 -2.025)" fill="#ff9888"/>
        <path id="패스_1468" data-name="패스 1468" d="M30.708,15.964a1.727,1.727,0,0,1,1.729-.665c1.161.284,1.067,1.862,1.105,2.824.024,1.124-.523,2.829,1.142,2.934a1.265,1.265,0,0,0,1.232-1.233c.22-2.263.309-5.537-2.156-6.652a4.13,4.13,0,0,0-4.782,1.035,1.258,1.258,0,1,0-2.467.095q.481,2.965.961,5.932a1.22,1.22,0,0,0,1.352.882,1.243,1.243,0,0,0,1.067-1.21,14.433,14.433,0,0,1,.539-3.456,4.236,4.236,0,0,1,.277-.487" transform="translate(-11.978 -5.769)" fill="#ff9888"/>
        <path id="패스_1469" data-name="패스 1469" d="M48.676,10.236a1.232,1.232,0,0,0-2.464,0,43.853,43.853,0,0,0,.655,8.45,1.233,1.233,0,0,0,2.376-.655,40.568,40.568,0,0,1-.567-7.795" transform="translate(-20.894 -4.072)" fill="#ff9888"/>
        <path id="패스_1470" data-name="패스 1470" d="M45.682,4.045c.761-.215,2.279-.3,2.32-1.369a1.2,1.2,0,0,0-.587-1.228l-.294-.124c-.45-.169-1.638.276-2.093.346a1.227,1.227,0,0,0-.882,1.024,1.2,1.2,0,0,0,.588,1.228l.295.124a1.248,1.248,0,0,0,.654,0" transform="translate(-19.954 -0.581)" fill="#ff9888"/>
        <path id="패스_1471" data-name="패스 1471" d="M57.8,1.232A1.24,1.24,0,0,0,56.564,0a1.258,1.258,0,0,0-1.232,1.232A54.347,54.347,0,0,0,55.74,14.6a1.233,1.233,0,0,0,2.376-.655A51.824,51.824,0,0,1,57.8,1.232" transform="translate(-24.916 0)" fill="#ff9888"/>
        <path id="패스_1472" data-name="패스 1472" d="M65.744,11.064h0c-1.806.385-2.7,2.284-2.964,3.945A4.2,4.2,0,0,0,65.49,20.1c4.051,1.377,7.866-3.83,5.529-7.335a4.42,4.42,0,0,0-5.275-1.7m3.5,4.438A2.644,2.644,0,0,1,66.6,17.849a4.875,4.875,0,0,1-.468-.145,1.652,1.652,0,0,1-.924-.876c-1.047-3.653,3.758-5.493,4.037-1.326" transform="translate(-28.332 -4.871)" fill="#ff9888"/>
        <path id="패스_1473" data-name="패스 1473" d="M89.364,19.589A31.477,31.477,0,0,0,87.8,12.675a1.7,1.7,0,0,0-.566-.738c-3.3-2.231-6.893.983-6.893,4.5-.246,4.146,4,5.355,6.453,2.229a10.865,10.865,0,0,1-.537,5.986c-.857,2.082-3.15,2.625-4.363.526a1.678,1.678,0,0,1-.048-1.52,1.243,1.243,0,0,0-.442-1.686,1.257,1.257,0,0,0-1.686.442c-1.923,3.219,1.789,7.323,5.235,6.473,3.841-1.038,4.727-5.858,4.413-9.3M85.34,17.081c-.359.569-1.573,1.492-2.378.56-.646-.963-.081-2.409.514-3.183.655-.974,2.264-1.074,2.45.311a4.019,4.019,0,0,1-.586,2.312Z" transform="translate(-35.811 -5.064)" fill="#ff9888"/>
      </g>
    </g>
  </g>
</svg>
