<svg xmlns="http://www.w3.org/2000/svg" width="48" height="48" viewBox="0 0 48 48">
  <g id="MALE_48" data-name="MALE 48" transform="translate(0 0.462)">
    <rect id="사각형_307" data-name="사각형 307" width="48" height="48" rx="24" transform="translate(0 -0.462)" fill="#88b8ff"/>
    <path id="패스_1290" data-name="패스 1290" d="M4407.523,365.055c-.044,0-.087.01-.131.013H4397.7a1.984,1.984,0,1,0,0,3.963h4.52c-1.053.883-2.111,1.781-3.128,2.722a13.817,13.817,0,0,0-14.688-.663,12.925,12.925,0,0,0-6.44,14.388,12.165,12.165,0,0,0,13.078,9.55c6.029-.365,10.679-3.661,12.5-8.512a13.3,13.3,0,0,0-1.634-11.893c1.14-1.056,2.349-2.076,3.542-3.073v4.333a2.075,2.075,0,0,0,4.146,0v-8.844A2.03,2.03,0,0,0,4407.523,365.055Zm-7.5,18.806h0c-.865,4.848-5.239,7.008-8.966,7.235a8.4,8.4,0,0,1-8.623-5.034,9.066,9.066,0,0,1-.726-3.553,9.243,9.243,0,0,1,3.334-7.076,9.793,9.793,0,0,1,11-.968A9.341,9.341,0,0,1,4400.025,383.861Z" transform="translate(-4369.597 -354.588)" fill="#fff"/>
  </g>
</svg>
