<svg xmlns="http://www.w3.org/2000/svg" xmlns:xlink="http://www.w3.org/1999/xlink" width="112" height="112" viewBox="0 0 112 112">
  <defs>
    <filter id="패스_1452-2" x="0" y="0" width="112" height="112" filterUnits="userSpaceOnUse">
      <feOffset dx="3" dy="3" input="SourceAlpha"/>
      <feGaussianBlur stdDeviation="3" result="blur"/>
      <feFlood flood-opacity="0.161"/>
      <feComposite operator="in" in2="blur"/>
      <feComposite in="SourceGraphic"/>
    </filter>
  </defs>
  <g id="Message94" transform="translate(-293.563 -1912.921)">
    <g id="그룹_4844" data-name="그룹 4844">
      <g id="그룹_4845" data-name="그룹 4845">
        <g id="그룹_4855" data-name="그룹 4855">
          <g transform="matrix(1, 0, 0, 1, 293.56, 1912.92)" filter="url(#패스_1452-2)">
            <path id="패스_1452-2-2" data-name="패스 1452-2" d="M334.942,1918.921h23.242a35.379,35.379,0,0,1,35.379,35.379h0v23.242a35.379,35.379,0,0,1-35.379,35.379H334.942a35.379,35.379,0,0,1-35.379-35.379h0V1954.3a35.379,35.379,0,0,1,35.379-35.379h0" transform="translate(-293.56 -1912.92)" fill="#ff9888"/>
          </g>
        </g>
      </g>
    </g>
    <path id="패스_1454" data-name="패스 1454" d="M375.361,1975.533c-2.328-2.768-5.3-4.977-7.851-7.562a15.538,15.538,0,0,0,1.017-5.976c.142-4.356.385-8.708.6-13.061.106-2.173.21-4.346.289-6.52.092-2.523.065-5.106-2.456-6.57-2.141-1.243-5.1-1.14-7.505-1.328q-4.155-.327-8.326-.429a154.345,154.345,0,0,0-17.234.541c-2.86.25-6.04.387-6.579,3.777a42.871,42.871,0,0,0-.307,4.83c-.35,7.965-.777,16.218.417,24.143q-5.966,4.747-11.885,9.548a2.8,2.8,0,0,0-.461,3.458,66.627,66.627,0,0,0,16.641,17.244,2.767,2.767,0,0,0,2.942-.023c.067-.036.134-.078.2-.12s.146-.1.215-.153.143-.09.211-.15l10.17-8.859c2.444,2.41,4.865,4.911,7.467,7.138a5.663,5.663,0,0,0,6.542.918c1.824-.925,3.2-2.658,4.65-4.028,2.475-2.332,5.1-4.5,7.648-6.754a22.589,22.589,0,0,0,4.134-4.02A4.982,4.982,0,0,0,375.361,1975.533Zm-33.431-35.691q5.459-.193,10.924,0c2.632.093,5.356.149,8.011.42q-6.344,5.416-12.838,10.659-5.757-5.35-11.417-10.8C338.382,1940,340.155,1939.9,341.93,1939.842Zm21.46,5.85c-.008.174-.014.349-.022.525-.254,5.529-.562,11.054-.754,16.587-.013.372-.027.744-.058,1.109q-5.2-4.439-10.249-9.047Q357.9,1950.332,363.39,1945.692Zm-30.751,7.158q.033-3.838.18-7.672c.007-.211.019-.421.027-.631q5.284,5.055,10.63,10.052-5.29,4.245-10.609,8.457c-.053-.823-.108-1.647-.14-2.47C332.63,1958.009,332.616,1955.428,332.64,1952.85Zm.421,38.61a59.28,59.28,0,0,1-11.525-11.979c8.687-7.039,17.5-13.939,26.218-20.937q5.658,5.166,11.5,10.136c-.37.3-.738.606-1.086.91l-8.287,7.218Zm37.308-12.428q-1.075,1.018-2.179,2.007c-1.252,1.122-2.532,2.215-3.807,3.314-1.334,1.149-2.656,2.312-3.946,3.51-.8.743-1.583,1.5-2.361,2.264-.3.3-.713.669-1.009.972-.075.078-.118.15-.167.2-2.44-2.139-4.742-4.5-7.058-6.791l11.18-9.739c.887-.773,1.839-1.533,2.757-2.329,1.072,1.085,2.174,2.139,3.317,3.157.631.563,1.268,1.121,1.886,1.7.519.484,1.009,1.108,1.555,1.578C370.48,1978.922,370.424,1978.977,370.368,1979.031Z" transform="translate(-0.122 0.881)" fill="#fff"/>
  </g>
</svg>
