<svg xmlns="http://www.w3.org/2000/svg" width="50" height="48" viewBox="0 0 50 48">
  <path id="MY_TAB_BORDER" data-name="MY TAB BORDER" d="M3413.762,1954.926a11.755,11.755,0,0,0-1.3-.679c-.283-.137-.5-.235-.72-.335-.565-.253-.8-.37-.868-.71a.792.792,0,0,1,.234-.708l.084-.1a12.641,12.641,0,0,0,2.749-6.513,18.059,18.059,0,0,0-2.845-12.162,14.749,14.749,0,0,0-11.328-5.43,15.474,15.474,0,0,0-9.338,3.431,15.1,15.1,0,0,0-4.733,10.2,20.2,20.2,0,0,0,.41,6.341,10.664,10.664,0,0,0,.707,1.912,7.835,7.835,0,0,0,1.634,2.45l.54.545-.656.385c-.315.183-.571.323-.834.464-.422.224-.823.441-1.43.815l-.2.1a27.324,27.324,0,0,0-2.6,1.926,24.763,24.763,0,0,0-4.262,4.548,21.93,21.93,0,0,0-4.182,12.537c.012.982.19,2.056,2.216,2.352l46.13-.009.085-.014a2.37,2.37,0,0,0,1.568-2.3A23.145,23.145,0,0,0,3413.762,1954.926Zm-23.441,2.949a4.889,4.889,0,0,0,3.219-2.844c.384-1.125-.4-2.218-1.167-3.278a9.987,9.987,0,0,1-.76-1.164c-.149-.282-.279-.529-.4-.776a14.25,14.25,0,0,1-1.2-8.18,8.786,8.786,0,0,1,2.253-4.878,10.235,10.235,0,0,1,7.333-3.627h.454a10.245,10.245,0,0,1,7.328,3.6,8.852,8.852,0,0,1,2.258,4.9,14.212,14.212,0,0,1-1.2,8.186c-.116.246-.243.488-.372.732l-.035.068a9.806,9.806,0,0,1-.761,1.144c-.763,1.053-1.553,2.141-1.123,3.372a4.759,4.759,0,0,0,3.036,2.7,11.726,11.726,0,0,1,1.1.509,21.75,21.75,0,0,1,4.717,3.44,17.223,17.223,0,0,1,5.166,9.068l.159.723-.418.1h-.519c-6.969.052-13.749.233-19.54.4-6.29-.181-13.017-.353-19.6-.4l-.7,0,.024-.106h-.256l.157-.71a17.285,17.285,0,0,1,5.156-9.068,21.576,21.576,0,0,1,4.713-3.437C3389.658,1958.169,3390,1958.018,3390.322,1957.875Z" transform="translate(-3374.829 -1928.29)" fill="#999"/>
</svg>
