<svg xmlns="http://www.w3.org/2000/svg" width="50" height="48" viewBox="0 0 50 48">
  <path id="MY_TAB_FILLED" data-name="MY TAB FILLED" d="M4258.885,1974.689a21.179,21.179,0,0,0-6.308-11.186,26.553,26.553,0,0,0-5.755-4.24,14.033,14.033,0,0,0-1.358-.634,5.649,5.649,0,0,1-3.6-3.233c-.5-1.447.437-2.753,1.344-4.019a12.089,12.089,0,0,0,.937-1.423l.042-.082c.159-.3.313-.6.454-.9a17.648,17.648,0,0,0,1.468-10.109,10.981,10.981,0,0,0-2.77-6.076,12.571,12.571,0,0,0-8.992-4.459h-.558a12.541,12.541,0,0,0-8.989,4.489,10.889,10.889,0,0,0-2.767,6.049,17.714,17.714,0,0,0,1.468,10.106c.138.288.289.575.459.9l.029.058a12.53,12.53,0,0,0,.93,1.44c.91,1.27,1.85,2.581,1.4,3.9a5.8,5.8,0,0,1-3.828,3.416.086.086,0,0,0-.026.011l-.045.019c-.381.172-.774.349-1.143.562a26.337,26.337,0,0,0-5.747,4.233,21.275,21.275,0,0,0-6.3,11.188l-.15.694a.125.125,0,0,0,0,.054l.042.192a.123.123,0,0,0,.06.081l.2.114a.116.116,0,0,0,.06.017h.849c7.947.058,16.078.269,22.983.468.274.007.543.011.816.011s.541,0,.815-.011c7.154-.207,14.879-.408,22.916-.468l.955-.035a.141.141,0,0,0,.048-.012l.183-.088a.125.125,0,0,0,.067-.14Z" transform="translate(-4209.081 -1928.327)" fill="#ff9888"/>
</svg>
