<svg id="그룹_7829" data-name="그룹 7829" xmlns="http://www.w3.org/2000/svg" xmlns:xlink="http://www.w3.org/1999/xlink" width="126.643" height="64" viewBox="0 0 126.643 64">
  <defs>
    <clipPath id="clip-path">
      <rect id="사각형_1835" data-name="사각형 1835" width="126.643" height="64" fill="#ff9888"/>
    </clipPath>
  </defs>
  <g id="그룹_7828" data-name="그룹 7828" clip-path="url(#clip-path)">
    <path id="패스_1989" data-name="패스 1989" d="M395.333,102.632a13.009,13.009,0,0,0-5.045-19.824c-2.1-.938-6.065-2.126-7.844-.013a1.258,1.258,0,0,0-.273.543c-3.4,1.979-5.212,6.316-6.077,10.062-1.233,5.34.011,11.881,5.718,14.013,4.979,1.86,10.537-.69,13.521-4.781m-5.359-6.982a4.842,4.842,0,0,1-4.821,4.122c-4.545-.334-3.208-8.134.483-8.63-.033-.582.4-1.17,1.081-.9a5.041,5.041,0,0,1,3.258,5.4" transform="translate(-300.19 -65.219)" fill="#ff9888"/>
    <path id="패스_1990" data-name="패스 1990" d="M19.674,82.74a8.074,8.074,0,0,0-3.84-1.338,9.271,9.271,0,0,0-4.4.261C5.881,83.088,2.019,88.262.615,93.616a14.521,14.521,0,0,0,.139,8.807,7.353,7.353,0,0,0,7.183,4.76,9.281,9.281,0,0,0,6.947-3.795,12.3,12.3,0,0,0,1.159,1.762c.858,1.086,1.884,2.169,3.386,2.015,2.987-.306,3.984-3.765,4.1-6.264a53.036,53.036,0,0,0-.785-10.24c-.408-2.684-.73-6.137-3.066-7.923M12.514,97.359c-1.836,1.7-5,1.438-5.328-1.423-.288-2.491,1.441-4.885,3.367-6.261a.735.735,0,0,1,.81-.079,2.624,2.624,0,0,1,3.51,1.22c1.148,2.3-.71,5.016-2.359,6.543" transform="translate(0 -64.936)" fill="#ff9888"/>
    <path id="패스_1991" data-name="패스 1991" d="M143.094,80.089a9.557,9.557,0,0,0-9.91,1.518,6.733,6.733,0,0,0-.812-1.305,3.082,3.082,0,0,0-4.275-.6c-1.843,1.149-2.385,3.284-2.655,5.3a73.937,73.937,0,0,0-.63,7.373,52.242,52.242,0,0,0,.246,7.431,5.226,5.226,0,0,0,3.061,4.457c3.282,1.312,6.062-1.981,6.634-4.884.4-2.028.191-4.151.814-6.137.464-1.48,1.71-3.178,3.468-2.858,1.436.261,2.07,1.894,2.332,3.151.37,1.771.03,3.635.215,5.429.168,1.633.757,4.066,2.366,4.891a3.27,3.27,0,0,0,4.194-1.115c.929-1.438,1.065-3.448,1.274-5.091a31.347,31.347,0,0,0,.156-6.681c-.391-4.47-2.067-9-6.478-10.874" transform="translate(-99.71 -63.214)" fill="#ff9888"/>
    <path id="패스_1992" data-name="패스 1992" d="M488.732,99.844a22.888,22.888,0,0,0-1.71-7.946c-.892-1.938-2.733-3.318-4.9-2.535a4.3,4.3,0,0,0-2.435,2.206,9.279,9.279,0,0,0-6.181-3.576c-4.019-.532-7.275,1.934-9.435,5.12a14.27,14.27,0,0,0-2.2,11.711,11.163,11.163,0,0,0,7.334,7.7,9.548,9.548,0,0,0,8.183-1.5,15.327,15.327,0,0,1-2.976,8.848c-2.153,2.667-6.109,4.122-9.4,2.806-1.965-.786-2.674-2.533-3.852-4.132s-3.246-2.9-5.237-1.983c-1.921.881-2.5,3.4-2.6,5.318a11.064,11.064,0,0,0,1.438,5.885c2.134,3.82,6.358,5.969,10.6,6.408a18.241,18.241,0,0,0,11.7-3.11c7.8-5.123,11.06-14.159,11.689-23.129a57.831,57.831,0,0,0-.009-8.094M473,96.4a5.384,5.384,0,0,1,3.218,5.072,3.937,3.937,0,1,1-5.5-3.912" transform="translate(-362.235 -70.258)" fill="#ff9888"/>
    <path id="패스_1993" data-name="패스 1993" d="M325.6,19.594c-.12-3.81-.264-7.618-.383-11.428-.084-2.7.215-7.413-3.309-8.138A1.209,1.209,0,0,0,321.15.1c-.04-.006-.081-.01-.123-.013-3.635-.2-5.12,3.548-5.3,6.561-.213,3.5-.2,7.035-.249,10.542-.048,3.72-.046,7.442.065,11.161.053,1.769.131,3.537.247,5.3a18.064,18.064,0,0,0,.676,4.744c.671,1.942,2.1,3.97,4.251,4.391,2.172.425,3.689-1.345,4.389-3.187,1.16-3.05.761-6.632.726-9.823-.037-3.4-.119-6.794-.227-10.189" transform="translate(-252.072 0)" fill="#ff9888"/>
    <path id="패스_1994" data-name="패스 1994" d="M266.71,79.756c-.119-2.071-.733-4.064-2.8-4.892a.949.949,0,0,0-1.1.194,3.4,3.4,0,0,0-3.45.16c-1.729,1.084-2.029,3.3-2.228,5.148-.276,2.564-.369,5.145-.39,7.722-.02,2.421-.094,4.885.093,7.3a7.434,7.434,0,0,0,2.4,5.479,4.329,4.329,0,0,0,5.243.381c1.8-1.273,2.3-3.462,2.355-5.548.068-2.59-.03-5.193-.051-7.784-.021-2.711.075-5.454-.081-8.16" transform="translate(-205.141 -59.662)" fill="#ff9888"/>
    <path id="패스_1995" data-name="패스 1995" d="M260.619,24.127a5.506,5.506,0,0,0,3.644-6.244,4.277,4.277,0,0,0-6.059-2.89c-2.928.219-4.382,3.257-3.7,5.955a4.465,4.465,0,0,0,6.117,3.178" transform="translate(-203.241 -11.626)" fill="#ff9888"/>
    <path id="패스_1996" data-name="패스 1996" d="M98.51,227.112a1.237,1.237,0,0,0-1.483-.842l-.9.131a3.783,3.783,0,0,0-1.365-1.71c-2.425-1.774-5.744-1.6-8.606-1.588-12.194.031-24.388.145-36.581.262q-10.149.1-20.3.227-3.849.052-7.7.118a46.341,46.341,0,0,0-6.141.248c-1.783.274-3.66,1.156-4.057,3.087a1.207,1.207,0,0,0,.077.76c-.006.04-.01.081-.013.123-.129,2.4,1.76,4.226,3.919,4.89a17.045,17.045,0,0,0,4.663.479c1.724.037,3.449.058,5.174.077q8.419.095,16.838.114c12.843.046,25.691.078,38.532-.163,2.057-.039,4.115-.084,6.171-.168,2.347-.1,4.788-.172,6.861-1.419a5.85,5.85,0,0,0,2.494-2.915l1.573-.228a1.213,1.213,0,0,0,.842-1.483m-10.652,3.582a30.874,30.874,0,0,0,.151-5.183,11.6,11.6,0,0,1,4.6.7,2.848,2.848,0,0,1,1.18.837.792.792,0,0,1,.112.962c-.831,2.254-3.885,2.563-5.941,2.674l-.106.005" transform="translate(-9.071 -178.275)" fill="#ff9888"/>
  </g>
</svg>
