<svg xmlns="http://www.w3.org/2000/svg" width="30" height="30" viewBox="0 0 30 30">
  <g id="PAW_30_MIXED" data-name="PAW 30 MIXED" transform="translate(-4417.169 -377.812)">
    <path id="사각형_152" data-name="사각형 152" d="M4432.169,377.812h0a15,15,0,0,1,15,15h0a15,15,0,0,1-15,15h0a15,15,0,0,1-15-15h0A15,15,0,0,1,4432.169,377.812Z" fill="#fabe3e"/>
    <path id="사각형_152-2" data-name="사각형 152" d="M4432.169,377.812h0a15,15,0,0,1,15,15h0a15,15,0,0,1-15,15h0a15,15,0,0,1-15-15h0A15,15,0,0,1,4432.169,377.812Z" fill="#ff9888"/>
    <path id="패스_1425" data-name="패스 1425" d="M4432.169,377.812a15,15,0,0,0-13.18,22.166l19.605-20.7A14.919,14.919,0,0,0,4432.169,377.812Z" fill="#ffd153"/>
    <g id="그룹_3655" data-name="그룹 3655">
      <path id="패스_1249" data-name="패스 1249" d="M4437.539,396.229a7.9,7.9,0,0,1-1.576-2.675c-.935-2.883-5.189-3.337-6.9-1.312a7.112,7.112,0,0,0-1.173,2.516c-.518,1.5-1.857,2.463-2.178,4.03a3.437,3.437,0,0,0,3.887,4.031c.834-.056,1.447-.678,2.209-.867.965-.359,1.645.439,2.5.735C4437.824,403.862,4440.481,398.786,4437.539,396.229Z" fill="#fff"/>
      <path id="패스_1250" data-name="패스 1250" d="M4428.557,389.982h0c3.653.8,4.488-5.888,1.271-6.844C4426.134,382.367,4425.188,389.172,4428.557,389.982Z" fill="#fff"/>
      <path id="패스_1251" data-name="패스 1251" d="M4426.928,390.528c-1.072-3.391-4.985-1.714-4.779,1.864-.386,2.8,3.191,4.88,4.809,2.054h0A4.655,4.655,0,0,0,4426.928,390.528Z" fill="#fff"/>
      <path id="패스_1252" data-name="패스 1252" d="M4435.066,389.769c3.673-.138,3.333-6.783-.078-7.005C4431.418,382.76,4431.5,389.722,4435.066,389.769Z" fill="#fff"/>
      <path id="패스_1253" data-name="패스 1253" d="M4440.772,388.727c-2.818-1.732-4.374,2.683-3.589,4.89,1.158,3.034,4.982,1.994,5.034-1.112C4442.216,391.31,4442.065,389.5,4440.772,388.727Z" fill="#fff"/>
    </g>
  </g>
</svg>
