<svg xmlns="http://www.w3.org/2000/svg" width="36" height="36" viewBox="0 0 36 36">
  <g id="그룹_7161" data-name="그룹 7161" transform="translate(-53 -520)">
    <g id="그룹_7158" data-name="그룹 7158" transform="translate(0.147 -0.169)">
      <path id="패스_1946" data-name="패스 1946" d="M16.261,180.6a4.811,4.811,0,0,0,.721-.054c1.247-.083,2.162-1.011,3.3-1.293a2.084,2.084,0,0,1,.732-.135c1.079,0,1.952.869,3,1.231a4.887,4.887,0,0,0,1.55.26c4.421,0,7.225-6.466,3.27-9.892a11.791,11.791,0,0,1-2.351-3.991,5.936,5.936,0,0,0-5.849-3.814,5.8,5.8,0,0,0-4.456,1.854,10.6,10.6,0,0,0-1.751,3.753c-.773,2.244-2.773,3.676-3.255,6.012-.773,3.3,2.086,6.068,5.086,6.068m-.193-11.529.021-.084a8.669,8.669,0,0,1,1.4-3.033,4.206,4.206,0,0,1,3.147-1.21c1.688,0,3.65.8,4.229,2.582l.007.021.007.021a13.567,13.567,0,0,0,2.722,4.618l.074.083.083.072a3.845,3.845,0,0,1-2.191,6.635,3.251,3.251,0,0,1-1.024-.172,5.835,5.835,0,0,1-.872-.436,5.315,5.315,0,0,0-2.657-.884,3.684,3.684,0,0,0-1.2.205,7.744,7.744,0,0,0-1.679.725,3.5,3.5,0,0,1-1.254.5l-.069,0-.068.01a3.159,3.159,0,0,1-.478.036,3.756,3.756,0,0,1-2.938-1.5,2.738,2.738,0,0,1-.484-2.287l.006-.025.005-.026a7.274,7.274,0,0,1,1.387-2.577,12.531,12.531,0,0,0,1.8-3.2Z" transform="translate(50.028 372.558)"/>
      <path id="패스_1947" data-name="패스 1947" d="M17.622,153.025c4.69,0,5.543-8.966,1.015-10.311a4.121,4.121,0,0,0-.847-.09c-4.8,0-5.807,9.158-1.05,10.3a4.107,4.107,0,0,0,.883.1m-2.11-5.557c.172-1.451.958-3.013,2.278-3.013a2.23,2.23,0,0,1,.394.037c1.315.45,1.78,2.368,1.546,3.974-.04.279-.444,2.726-2.107,2.726a2.277,2.277,0,0,1-.471-.053c-1.384-.346-1.821-2.142-1.64-3.671" transform="translate(48.722 381.013)"/>
      <path id="패스_1948" data-name="패스 1948" d="M7.141,167.056a3.54,3.54,0,0,0,3.09-2.007c.836-1.467.82-3.378-.045-5.845-.608-1.921-1.826-2.752-3.087-2.752-2.061,0-4.236,2.22-4.045,5.533a4.438,4.438,0,0,0,4.087,5.071M7.1,158.285c.76,0,1.165.922,1.339,1.472l.009.027.009.027c.68,1.937.74,3.354.185,4.327a1.781,1.781,0,0,1-1.5,1.085,2.283,2.283,0,0,1-1.62-.837,2.688,2.688,0,0,1-.652-2.151l.025-.177-.01-.179a3.933,3.933,0,0,1,.931-2.933,1.9,1.9,0,0,1,1.284-.662" transform="translate(52.842 375.557)"/>
      <path id="패스_1949" data-name="패스 1949" d="M31.889,141.9h0c-5.323,0-5.2,10.383.122,10.453,5.48-.207,4.974-10.121-.117-10.453m-2.1,5.074c.008-1.19.448-3.195,2.044-3.241,1.495.144,2.277,2.021,2.253,3.739-.007.492-.14,2.934-2.1,3.047-1.629-.059-2.209-2.144-2.2-3.545" transform="translate(43.174 381.266)"/>
      <path id="패스_1950" data-name="패스 1950" d="M44.882,156.18a3.53,3.53,0,0,0-1.843-.587c-3.007,0-4.5,5.109-3.51,7.883a3.78,3.78,0,0,0,3.518,2.708,4.177,4.177,0,0,0,3.993-4.368c0-1.783-.225-4.487-2.157-5.636m-3.634,6.662a6.034,6.034,0,0,1,.769-4.691,1.452,1.452,0,0,1,1.022-.725,1.848,1.848,0,0,1,.907.33c.833.495,1.256,1.856,1.262,4.045a2.354,2.354,0,0,1-2.161,2.551,2,2,0,0,1-1.8-1.509" transform="translate(38.814 375.894)"/>
    </g>
    <rect id="사각형_1746" data-name="사각형 1746" width="36" height="36" transform="translate(53 520)" fill="none"/>
  </g>
</svg>
