<svg xmlns="http://www.w3.org/2000/svg" width="46" height="46" viewBox="0 0 46 46">
  <g id="PAW_46" data-name="PAW 46" transform="translate(-48 -988)">
    <g id="그룹_3540" data-name="그룹 3540" transform="translate(-717.999 -929.643)">
      <path id="패스_1195" data-name="패스 1195" d="M798.775,1946.259c-.3-.345-.588-.687-.858-1.033a16.626,16.626,0,0,1-2.114-4.069,7.617,7.617,0,0,0-6.218-4.886,1.855,1.855,0,0,0-.486-.073,1.528,1.528,0,0,0-.4.019,8.122,8.122,0,0,0-5.9,2.443,10.653,10.653,0,0,0-1.909,3.9c-.1.295-.2.591-.3.89a14.528,14.528,0,0,1-2.009,3.542,10.953,10.953,0,0,0-2.1,4.139,6.259,6.259,0,0,0,3.481,7.039,7.234,7.234,0,0,0,3.838.629,8.6,8.6,0,0,0,3.261-1.334l.089-.086.138-.038a6.009,6.009,0,0,1,.683-.2,5.734,5.734,0,0,1,1.17-.151,2.612,2.612,0,0,1,.664.081,3.206,3.206,0,0,1,.99.5l.177.116a8.719,8.719,0,0,0,1.723.851,6.353,6.353,0,0,0,7.023-2.384,7.289,7.289,0,0,0,.815-7.438A11.271,11.271,0,0,0,798.775,1946.259Z" transform="translate(0.309 0.78)" fill="#ff9888"/>
      <path id="패스_1196" data-name="패스 1196" d="M782.226,1935.35a4.312,4.312,0,0,0,3.465-.546,5.852,5.852,0,0,0,2.132-2.83,9.388,9.388,0,0,0-.137-6.926,4.843,4.843,0,0,0-3.045-2.717,4.268,4.268,0,0,0-1.2-.172,3.831,3.831,0,0,0-2.743,1.1,7.551,7.551,0,0,0-1.812,2.9,9.543,9.543,0,0,0-.673,3.482A5.931,5.931,0,0,0,782.226,1935.35Z" transform="translate(-0.082 0.025)" fill="#ff9888"/>
      <path id="패스_1197" data-name="패스 1197" d="M779.093,1935.763a5.081,5.081,0,0,0-2.329-3.154,3.874,3.874,0,0,0-1.611-.342,4.419,4.419,0,0,0-2.356.693c-1.681.872-2.606,3-2.788,6.352-.124,2.266.793,5.018,3.117,6.059a4.338,4.338,0,0,0,3.572.087,5.211,5.211,0,0,0,2.455-2.237C780.218,1941.35,780.2,1938.911,779.093,1935.763Z" transform="translate(0 0.55)" fill="#ff9888"/>
      <path id="패스_1198" data-name="패스 1198" d="M794.635,1934.97a5.542,5.542,0,0,0,4.948-4.726,8.872,8.872,0,0,0-.423-4.228,7.557,7.557,0,0,0-1.929-3.265,3.738,3.738,0,0,0-2.743-1.108,5,5,0,0,0-.9.084,4.7,4.7,0,0,0-3,2.095,7.341,7.341,0,0,0-1.061,3.7,9.822,9.822,0,0,0,.325,3.247C790.459,1932.927,792.156,1935.059,794.635,1934.97Z" transform="translate(-0.195 0)" fill="#ff9888"/>
      <path id="패스_1199" data-name="패스 1199" d="M805.506,1932.378a4.636,4.636,0,0,0-2.452-.722,3.988,3.988,0,0,0-.9.1,3.926,3.926,0,0,0-2.57,2.376c-.935,2.112-1.851,5.135-.893,7.547.817,2.057,2.9,4.007,5.529,3.422,2.587-.573,3.892-3.194,4.04-5.539a12.232,12.232,0,0,0-.528-4.036A4.965,4.965,0,0,0,805.506,1932.378Z" transform="translate(-0.272 0.518)" fill="#ff9888"/>
    </g>
    <rect id="사각형_729" data-name="사각형 729" width="46" height="46" transform="translate(48 988)" fill="none" opacity="0.4"/>
  </g>
</svg>
