<svg xmlns="http://www.w3.org/2000/svg" width="48" height="48" viewBox="0 0 48 48">
  <g id="PAW_48" data-name="PAW 48" transform="translate(-328.46 -1834.718)">
    <rect id="사각형_152" data-name="사각형 152" width="48" height="48" rx="20" transform="translate(328.46 1834.718)" fill="#ff9888"/>
    <g id="그룹_3655" data-name="그룹 3655" transform="translate(-0.192 -0.815)">
      <path id="패스_1249" data-name="패스 1249" d="M361.387,1863.763a11.874,11.874,0,0,1-2.565-4.073c-1.523-4.39-8.451-5.082-11.239-2a10.505,10.505,0,0,0-1.91,3.831c-.844,2.29-3.024,3.751-3.55,6.136-.912,3.632,2.8,6.643,6.332,6.138,1.36-.085,2.359-1.033,3.6-1.32,1.571-.546,2.679.669,4.074,1.119C361.856,1875.387,366.186,1867.656,361.387,1863.763Z" transform="translate(0 1.672)" fill="#fff"/>
      <path id="패스_1250" data-name="패스 1250" d="M346.78,1854.525h0c5.563,1.225,6.834-8.967,1.936-10.422C343.09,1842.931,341.651,1853.292,346.78,1854.525Z" transform="translate(0.086)" fill="#fff"/>
      <path id="패스_1251" data-name="패스 1251" d="M343.973,1855.23c-1.633-5.164-7.592-2.61-7.277,2.839-.588,4.258,4.86,7.431,7.324,3.128h0C344.873,1859.7,344.858,1857.748,343.973,1855.23Z" transform="translate(0 0.762)" fill="#fff"/>
      <path id="패스_1252" data-name="패스 1252" d="M357.133,1854.2c5.593-.21,5.076-10.329-.119-10.668C351.577,1843.527,351.7,1854.13,357.133,1854.2Z" transform="translate(0.201)" fill="#fff"/>
      <path id="패스_1253" data-name="패스 1253" d="M366.16,1852.5c-4.291-2.637-6.66,4.086-5.464,7.446,1.764,4.62,7.586,3.036,7.666-1.693C368.359,1856.429,368.129,1853.668,366.16,1852.5Z" transform="translate(0.29 0.716)" fill="#fff"/>
    </g>
  </g>
</svg>
