<svg xmlns="http://www.w3.org/2000/svg" width="48" height="48" viewBox="0 0 48 48">
  <g id="그룹_4730" data-name="그룹 4730" transform="translate(-4353.193 -362.881)">
    <g id="그룹_4729" data-name="그룹 4729">
      <g id="그룹_4728" data-name="그룹 4728">
        <rect id="사각형_152" data-name="사각형 152" width="48" height="48" rx="20" transform="translate(4353.193 362.881)" fill="#ff9888"/>
      </g>
      <path id="패스_1424" data-name="패스 1424" d="M4381.193,362.881h-8a20,20,0,0,0-20,20v8a19.921,19.921,0,0,0,1.116,6.539l32.045-33.842A19.924,19.924,0,0,0,4381.193,362.881Z" fill="#ffd153"/>
    </g>
    <g id="그룹_3655" data-name="그룹 3655">
      <path id="패스_1249" data-name="패스 1249" d="M4385.928,392.784a11.894,11.894,0,0,1-2.565-4.073c-1.523-4.39-8.451-5.082-11.239-2a10.5,10.5,0,0,0-1.91,3.831c-.844,2.29-3.024,3.751-3.55,6.136-.912,3.632,2.8,6.643,6.332,6.138,1.36-.085,2.359-1.033,3.6-1.32,1.571-.546,2.679.669,4.074,1.119C4386.4,404.408,4390.727,396.677,4385.928,392.784Z" fill="#fff"/>
      <path id="패스_1250" data-name="패스 1250" d="M4371.407,381.874h0c5.563,1.225,6.834-8.967,1.936-10.422C4367.717,370.28,4366.278,380.641,4371.407,381.874Z" fill="#fff"/>
      <path id="패스_1251" data-name="패스 1251" d="M4368.514,383.341c-1.633-5.164-7.592-2.61-7.277,2.839-.588,4.258,4.86,7.431,7.324,3.128h0C4369.414,387.811,4369.4,385.859,4368.514,383.341Z" fill="#fff"/>
      <path id="패스_1252" data-name="패스 1252" d="M4381.875,381.549c5.593-.21,5.076-10.329-.119-10.668C4376.319,370.876,4376.442,381.479,4381.875,381.549Z" fill="#fff"/>
      <path id="패스_1253" data-name="패스 1253" d="M4390.991,380.565c-4.291-2.637-6.66,4.086-5.464,7.446,1.764,4.62,7.586,3.036,7.666-1.693C4393.19,384.494,4392.96,381.733,4390.991,380.565Z" fill="#fff"/>
    </g>
  </g>
</svg>
