<svg id="그룹_3927" data-name="그룹 3927" xmlns="http://www.w3.org/2000/svg" xmlns:xlink="http://www.w3.org/1999/xlink" width="46" height="46" viewBox="0 0 46 46">
  <defs>
    <clipPath id="clip-path">
      <rect id="사각형_1539" data-name="사각형 1539" width="40.89" height="40.898"/>
    </clipPath>
  </defs>
  <rect id="사각형_729" data-name="사각형 729" width="46" height="46" fill="none" opacity="0.4"/>
  <g id="그룹_6370" data-name="그룹 6370" transform="translate(2.555 2.551)">
    <g id="그룹_6369" data-name="그룹 6369" clip-path="url(#clip-path)">
      <path id="패스_1654" data-name="패스 1654" d="M32.551,27.3l-.02-.017A16.474,16.474,0,0,1,28.9,21.6c-.892-2.537-3.227-4.364-6.4-5.014-3.468-.713-7.089.22-9.008,2.313a11.233,11.233,0,0,0-2.282,4.262c-.116.322-.233.645-.357.966A15.244,15.244,0,0,1,8.448,28a11.86,11.86,0,0,0-2.554,4.557,6.006,6.006,0,0,0,1.459,5.618,8.354,8.354,0,0,0,7.184,2.631,7.5,7.5,0,0,0,2.894-.966,9.893,9.893,0,0,1,2.147-.857,3.517,3.517,0,0,1,1.144-.195,6.469,6.469,0,0,1,2.932.977,10.755,10.755,0,0,0,1.71.769,7.866,7.866,0,0,0,2.326.362,7.736,7.736,0,0,0,6.733-4.256A7.24,7.24,0,0,0,32.551,27.3m-.418,7.741.116.047-.12-.037a5.075,5.075,0,0,1-6.262,2.663c-2.273-1.26-4.075-2.11-6.57-1.535a17.93,17.93,0,0,0-2.532.861,10.388,10.388,0,0,1-3.706.97A4.828,4.828,0,0,1,9.721,36.6c-2.455-2.63-.243-5.388,1.537-7.608a18.51,18.51,0,0,0,1.519-2.066,13.512,13.512,0,0,0,1.069-2.585c.583-1.74,1.185-3.539,3.233-4.512a9.2,9.2,0,0,1,3.477-.776c4.175,0,6.007,4.028,7.542,7.4a14.326,14.326,0,0,0,1.846,2.29c1.617,1.754,3.29,3.567,2.189,6.293" transform="translate(0 0)"/>
      <path id="패스_1655" data-name="패스 1655" d="M13.242,14.8h0a5.735,5.735,0,0,0,1.217.138c2.82,0,4.474-2.378,5.106-4.825.949-3.672-.215-8.285-3.757-9.337C12.027-.014,9.92,3.086,9.27,5.98c-.811,3.615.306,7.933,3.972,8.818m.672-11.26.128-.045a1.681,1.681,0,0,1,.264-.056l.031-.007a.674.674,0,0,1,.446.024,2.281,2.281,0,0,1,.929.367l.215.219a3.358,3.358,0,0,1,.588.812,7.8,7.8,0,0,1,.431,3.623,5.81,5.81,0,0,1-.448,1.868,3.287,3.287,0,0,1-.761,1.21l-.06.066a.722.722,0,0,1-.116.111l-.129.1A.76.76,0,0,1,15.1,12a2.034,2.034,0,0,1-2.073-.454,4.154,4.154,0,0,1-1.208-3.576l0-.014a7.024,7.024,0,0,1,1.829-4.194,1.521,1.521,0,0,1,.2-.161l.056-.037Z" transform="translate(0 0)"/>
      <path id="패스_1656" data-name="패스 1656" d="M9.819,23c1.145-2.019,1.118-4.661-.081-8.076l-.118.041.117-.047c-.753-2.381-2.266-3.747-4.15-3.747a4.168,4.168,0,0,0-.746.069C2.338,11.7-.188,14.5.06,18.746a6.26,6.26,0,0,0,4.021,6.725,4.792,4.792,0,0,0,1.552.268A4.852,4.852,0,0,0,9.819,23m-3-7.763c.039.09.076.173.111.246a9.215,9.215,0,0,1,.888,4.587l.013.066L7.8,20.3a7.084,7.084,0,0,1-.223.857,2.7,2.7,0,0,1-.944,1.3,2.07,2.07,0,0,1-.815.446l-.062.021a2.244,2.244,0,0,1-2.048-.9,5.421,5.421,0,0,1-.724-4.117A8.151,8.151,0,0,1,3.9,14.855l.072-.089A2.547,2.547,0,0,1,5.31,14a.706.706,0,0,1,.246-.043.9.9,0,0,1,.464.134,2.388,2.388,0,0,1,.8,1.153" transform="translate(0 0)"/>
      <path id="패스_1657" data-name="패스 1657" d="M26.153,14.346h.007c3.859-.151,5.275-3.678,5.316-6.653C31.525,4.14,29.616.237,25.969,0,22.34,0,20.66,3.6,20.636,6.937c-.025,3.642,1.861,7.356,5.517,7.409m-1.23-3.229a4.551,4.551,0,0,1-1.346-2.976c-.007-.038-.012-.078-.017-.119l-.013-.067-.012-.29c-.039-1.272-.1-3.194,1.141-4.346l0,0a.88.88,0,0,1,.155-.122.986.986,0,0,1,.135-.088,1.538,1.538,0,0,1,1.566-.18l.064.037A2.455,2.455,0,0,1,27.2,3.5a6.952,6.952,0,0,1,1.225,6.075l-.1.212a4.649,4.649,0,0,1-.868,1.144l-.138.116a.965.965,0,0,1-.209.151,1.916,1.916,0,0,1-.776.308l-.195.02h-.074a2.181,2.181,0,0,1-.42-.039,1.084,1.084,0,0,1-.383-.136,1.3,1.3,0,0,1-.339-.236" transform="translate(0 0)"/>
      <path id="패스_1658" data-name="패스 1658" d="M37.943,11.268l-.064.108.062-.109c-1.778-1.09-3.42-1.067-4.821.069-2.349,1.9-3.56,6.847-2.443,9.985,1.043,2.734,3.02,3.689,4.772,3.689a4.833,4.833,0,0,0,.85-.076,5.8,5.8,0,0,0,4.591-5.9c0-4.052-.968-6.594-2.947-7.771M34.92,22.162l-.2-.113c-.015-.007-.036-.022-.06-.036a2.922,2.922,0,0,1-1.244-1.45c-.805-2.364.223-4.961,1.057-6.692a1.224,1.224,0,0,1,1.008-.549,1.166,1.166,0,0,1,.54.134,7.134,7.134,0,0,1,.8.444l.109.1a1.963,1.963,0,0,1,.413.7,11.37,11.37,0,0,1,.685,4.633l.125.007-.126,0a3.841,3.841,0,0,1-.674,1.8l-.075.116a2.031,2.031,0,0,1-1.289.954l-.16.047-.354.028-.148-.01a1.237,1.237,0,0,1-.411-.114" transform="translate(0 0)"/>
    </g>
  </g>
</svg>
