<svg xmlns="http://www.w3.org/2000/svg" width="62" height="62" viewBox="0 0 62 62">
  <g id="그룹_4727" data-name="그룹 4727" transform="translate(-4416.898 -353.838)">
    <path id="사각형_152" data-name="사각형 152" d="M20,0H42A20,20,0,0,1,62,20V42A20,20,0,0,1,42,62H20A20,20,0,0,1,0,42V20A20,20,0,0,1,20,0Z" transform="translate(4416.898 353.838)" fill="#ff9888"/>
    <g id="그룹_4726" data-name="그룹 4726">
      <path id="패스_1423" data-name="패스 1423" d="M4436.9,353.838a20,20,0,0,0-20,20v19.83l37.715-39.83Z" fill="#ffd153"/>
    </g>
    <g id="그룹_3655" data-name="그룹 3655">
      <path id="패스_1249" data-name="패스 1249" d="M4459.112,391.979a16.5,16.5,0,0,1-3.291-5.589c-1.954-6.025-10.844-6.974-14.421-2.742-1.319,1.474-1.792,3.394-2.45,5.258-1.083,3.143-3.88,5.148-4.555,8.421-1.171,4.985,3.59,9.117,8.124,8.424,1.745-.117,3.027-1.418,4.619-1.811,2.016-.749,3.438.918,5.227,1.535C4459.715,407.932,4465.27,397.322,4459.112,391.979Z" fill="#fff"/>
      <path id="패스_1250" data-name="패스 1250" d="M4440.349,378.923h0c7.635,1.681,9.379-12.306,2.657-14.3C4435.285,363.013,4433.31,377.232,4440.349,378.923Z" fill="#fff"/>
      <path id="패스_1251" data-name="패스 1251" d="M4436.946,380.063c-2.241-7.087-10.419-3.582-9.987,3.9-.807,5.844,6.67,10.2,10.051,4.293h0C4438.18,386.2,4438.16,383.519,4436.946,380.063Z" fill="#fff"/>
      <path id="패스_1252" data-name="패스 1252" d="M4453.954,378.478c7.676-.287,6.966-14.175-.163-14.641C4446.329,363.83,4446.493,378.382,4453.954,378.478Z" fill="#fff"/>
      <path id="패스_1253" data-name="패스 1253" d="M4465.876,376.3c-5.889-3.619-9.14,5.609-7.5,10.219,2.421,6.34,10.411,4.166,10.521-2.323C4468.894,381.7,4468.578,377.91,4465.876,376.3Z" fill="#fff"/>
    </g>
  </g>
</svg>
