<svg xmlns="http://www.w3.org/2000/svg" width="62" height="62" viewBox="0 0 62 62">
  <g id="PAW_62" data-name="PAW 62" transform="translate(-328.46 -1834.718)">
    <rect id="사각형_152" data-name="사각형 152" width="62" height="62" rx="20" transform="translate(328.46 1834.718)" />
    <g id="그룹_3655" data-name="그룹 3655" transform="translate(338.46 1844.718)">
      <path id="패스_1249" data-name="패스 1249" d="M366.88,1866.729a16.491,16.491,0,0,1-3.291-5.59c-1.954-6.024-10.844-6.974-14.421-2.742-1.319,1.474-1.792,3.394-2.45,5.258-1.083,3.143-3.88,5.148-4.555,8.421-1.171,4.985,3.59,9.117,8.124,8.424,1.745-.117,3.027-1.418,4.619-1.811,2.016-.749,3.438.918,5.227,1.535C367.483,1882.682,373.038,1872.072,366.88,1866.729Z" transform="translate(-334.666 -1838.588)" fill="#fff"/>
      <path id="패스_1250" data-name="패스 1250" d="M347.958,1858.44h0c7.635,1.681,9.379-12.306,2.657-14.3C342.894,1842.529,340.919,1856.748,347.958,1858.44Z" transform="translate(-334.507 -1843.355)" fill="#fff"/>
      <path id="패스_1251" data-name="패스 1251" d="M346.7,1856.275c-2.241-7.087-10.419-3.582-9.987,3.9-.807,5.844,6.67,10.2,10.051,4.293h0C347.934,1862.41,347.914,1859.731,346.7,1856.275Z" transform="translate(-336.652 -1840.05)" fill="#fff"/>
      <path id="패스_1252" data-name="패스 1252" d="M358.674,1858.173c7.676-.288,6.966-14.175-.163-14.641C351.049,1843.524,351.213,1858.076,358.674,1858.173Z" transform="translate(-331.618 -1843.533)" fill="#fff"/>
      <path id="패스_1253" data-name="패스 1253" d="M368.31,1852.719c-5.889-3.619-9.14,5.608-7.5,10.219,2.421,6.34,10.411,4.166,10.521-2.323C371.328,1858.116,371.012,1854.327,368.31,1852.719Z" transform="translate(-329.332 -1840.256)" fill="#fff"/>
    </g>
  </g>
</svg>
