<svg xmlns="http://www.w3.org/2000/svg" width="94" height="90" viewBox="0 0 94 90">
  <g id="PAW_94x90" data-name="PAW 94x90" transform="translate(-769.999 -1921.643)" opacity="0.8">
    <path id="패스_1195" data-name="패스 1195" d="M832.566,1960.46c-.742-.832-1.475-1.656-2.15-2.49a39.561,39.561,0,0,1-5.3-9.811,18.982,18.982,0,0,0-15.589-11.78,4.836,4.836,0,0,0-1.218-.177,3.99,3.99,0,0,0-.991.045q-9.911.558-14.78,5.89c-2.47,2.694-3.595,5.953-4.786,9.4-.244.71-.493,1.425-.754,2.146a34.7,34.7,0,0,1-5.037,8.539c-2.3,3.157-4.475,6.14-5.271,9.978a14.939,14.939,0,0,0,8.727,16.969,18.772,18.772,0,0,0,9.623,1.517c3.04-.346,5.65-1.8,8.175-3.215l.222-.208.345-.091a15.519,15.519,0,0,1,1.713-.47,14.919,14.919,0,0,1,2.934-.364,6.811,6.811,0,0,1,1.664.195,8.168,8.168,0,0,1,2.483,1.213l.444.28a22.232,22.232,0,0,0,4.319,2.053c5.959,2.105,13.2-.265,17.606-5.748a17.017,17.017,0,0,0,2.044-17.932A27.225,27.225,0,0,0,832.566,1960.46Z" transform="translate(9.708 20.798)" fill="#ff9888"/>
    <path id="패스_1196" data-name="패스 1196" d="M787.884,1953.958a10.4,10.4,0,0,0,8.354-1.317,14.111,14.111,0,0,0,5.139-6.822,22.632,22.632,0,0,0-.331-16.7,11.676,11.676,0,0,0-7.341-6.549,10.3,10.3,0,0,0-2.887-.415,9.235,9.235,0,0,0-6.613,2.651,18.2,18.2,0,0,0-4.368,6.992,23,23,0,0,0-1.623,8.395C778.22,1946.539,782.378,1952.457,787.884,1953.958Z" transform="translate(12.092 0.789)" fill="#ff9888"/>
    <path id="패스_1197" data-name="패스 1197" d="M791.923,1940.695c-.978-2.793-2.5-6.178-5.614-7.6a9.334,9.334,0,0,0-3.883-.824,10.651,10.651,0,0,0-5.68,1.671c-4.052,2.1-6.282,7.234-6.722,15.313-.3,5.463,1.911,12.1,7.515,14.606a10.456,10.456,0,0,0,8.612.21,12.56,12.56,0,0,0,5.917-5.392C794.635,1954.165,794.59,1948.285,791.923,1940.695Z" transform="translate(0 15.578)" fill="#ff9888"/>
    <path id="패스_1198" data-name="패스 1198" d="M801.872,1953.771c5.73-.223,10.97-5.228,11.929-11.393a21.39,21.39,0,0,0-1.019-10.192c-1.246-3.62-2.768-6.193-4.651-7.872a9.01,9.01,0,0,0-6.613-2.672,12.023,12.023,0,0,0-2.174.2,11.329,11.329,0,0,0-7.229,5.05c-1.474,2.174-2.31,5.093-2.558,8.918a23.678,23.678,0,0,0,.784,7.829C791.8,1948.847,795.894,1953.986,801.872,1953.771Z" transform="translate(28.71 0)" fill="#ff9888"/>
    <path id="패스_1199" data-name="패스 1199" d="M815.7,1933.4a11.176,11.176,0,0,0-5.91-1.742,9.61,9.61,0,0,0-2.182.248c-2.591.6-4.848,2.689-6.2,5.728-2.255,5.091-4.461,12.378-2.154,18.193,1.969,4.959,7,9.661,13.329,8.25,6.236-1.38,9.383-7.7,9.74-13.352a29.49,29.49,0,0,0-1.274-9.729C820.32,1938.41,818.8,1935,815.7,1933.4Z" transform="translate(41.633 14.681)" fill="#ff9888"/>
  </g>
</svg>
