<!-- <svg id="PAW_BORDER_54" data-name="PAW BORDER 54" xmlns="http://www.w3.org/2000/svg" width="54" height="54" viewBox="0 0 54 54">
  <g id="그룹_3560" data-name="그룹 3560" transform="translate(0 2)">
    <path id="패스_1221" data-name="패스 1221" d="M702.275,1863.032a19.831,19.831,0,0,1-4.347-6.808c-2.581-7.336-14.328-8.492-19.053-3.338-1.744,1.794-2.368,4.133-3.238,6.4-1.431,3.828-5.126,6.27-6.019,10.255-1.547,6.072,4.744,11.1,10.735,10.259,2.307-.142,4-1.725,6.1-2.205,2.665-.911,4.543,1.118,6.908,1.87C703.072,1882.459,710.412,1869.54,702.275,1863.032Zm-.85,9.474a5.945,5.945,0,0,1-7.336,3.1c-2.6-1.448-4.884-2.584-8.061-1.856-4.04.939-7.484,4.15-11.411.558-3.727-3.994,1.822-8.142,3.753-11.437,1.772-3.026,1.519-6.8,5.123-8.511,7.573-3.108,10.338,1.966,13.04,7.908C698.481,1865.609,703.261,1867.959,701.425,1872.506Z" transform="translate(-660.467 -1829.909)" fill="#ff9888"/>
    <path id="패스_1222" data-name="패스 1222" d="M676.173,1856.422h0c9.3,2.046,11.422-14.988,3.237-17.42C670.006,1837.043,667.6,1854.36,676.173,1856.422Zm-1.446-8.461a8.263,8.263,0,0,1,2.169-4.984h0a1.573,1.573,0,0,1,.364-.248l0-.009a1.6,1.6,0,0,1,.279-.06l0,0a.663.663,0,0,1,.478.015,2.49,2.49,0,0,1,1.091.429l0,0c.033.034.067.063.1.1h0l.007.009h0c0,.009.013.015.018.022l0,0a4.036,4.036,0,0,1,.763,1.037,9.107,9.107,0,0,1,.493,4.238,6.863,6.863,0,0,1-.524,2.2,3.771,3.771,0,0,1-.874,1.4l-.08.089a.777.777,0,0,1-.116.112l-.04.034c-.02.013-.055.049-.073.06l-.069.056a.7.7,0,0,1-.274.134C675.935,1853.43,674.317,1850.042,674.726,1847.961Z" transform="translate(-658.949 -1838.05)" fill="#ff9888"/>
    <path id="패스_1223" data-name="패스 1223" d="M676.7,1851.3c-2.729-8.631-12.689-4.362-12.163,4.744-.98,7.116,8.124,12.421,12.243,5.228h0C678.2,1858.769,678.177,1855.507,676.7,1851.3Zm-2.776,6.544a8.567,8.567,0,0,1-.265,1.017l-.014.031a2.993,2.993,0,0,1-1.04,1.419l-.036.038a2.362,2.362,0,0,1-.888.475l-.107.031a2.477,2.477,0,0,1-2.213-1.019h0a6.356,6.356,0,0,1-.839-4.784,9.852,9.852,0,0,1,1.109-3.684l0,0,.02-.016,0,0a2.872,2.872,0,0,1,1.5-.879.806.806,0,0,1,.709.071c.526.3.8,1.14,1.028,1.607A10.913,10.913,0,0,1,673.922,1857.843Z" transform="translate(-664.461 -1832.063)" fill="#ff9888"/>
    <path id="패스_1224" data-name="패스 1224" d="M686.451,1856.238c9.347-.351,8.485-17.264-.2-17.83C677.164,1838.4,677.365,1856.118,686.451,1856.238Zm-2.956-8.321c-.054-1.751-.065-3.82,1.312-5.1l.042-.036a.44.44,0,0,1,.094-.076l.056-.038a.483.483,0,0,1,.091-.058l.076-.038a1.611,1.611,0,0,1,1.658-.185l.031.02a2.817,2.817,0,0,1,.694.614h0c1.417,1.928,2.28,4.826,1.45,7.12l.009,0-.009,0c-.029.06-.056.114-.083.165l-.047.1a5.411,5.411,0,0,1-1.008,1.321l-.136.11c-.038.036-.234.174-.236.174a2.069,2.069,0,0,1-.866.344l-.23.024a2.516,2.516,0,0,1-.518-.043,1.137,1.137,0,0,1-.391-.136,1.412,1.412,0,0,1-.377-.259,5.281,5.281,0,0,1-1.56-3.443A3.87,3.87,0,0,1,683.5,1847.916Z" transform="translate(-651.525 -1838.408)" fill="#ff9888"/>
    <path id="패스_1225" data-name="패스 1225" d="M696,1847.124c-7.171-4.407-11.13,6.828-9.131,12.444,2.948,7.722,12.68,5.074,12.812-2.831C699.678,1853.7,699.294,1849.083,696,1847.124Zm-.23,9.952a4.407,4.407,0,0,1-.774,2.07l-.094.145a2.245,2.245,0,0,1-1.421,1.064c-.031.009-.17.053-.2.058l-.054.015-.051.009c-.054.007-.051,0-.107.005l-.034,0c-.055,0-.089,0-.145,0l-.158-.012a1.262,1.262,0,0,1-.424-.122l-.091-.056c-.08-.043-.063-.038-.1-.058l-.045-.025c-.016-.005-.04-.025-.056-.033l-.031-.015a3.3,3.3,0,0,1-1.375-1.629l0,0c-.9-2.646.134-5.554,1.288-7.946l0,0,0,0a1.215,1.215,0,0,1,1.555-.384v0a8.009,8.009,0,0,1,.975.545l.081.082a2.154,2.154,0,0,1,.442.754l0,0A13.7,13.7,0,0,1,695.771,1857.076Z" transform="translate(-645.682 -1832.438)" fill="#ff9888"/>
  </g>
  <rect id="사각형_664" data-name="사각형 664" width="54" height="54" fill="none"/>
</svg> -->

<svg xmlns="http://www.w3.org/2000/svg" width="54.001" height="54" viewBox="0 0 54.001 54">
  <g id="그룹_3565" data-name="그룹 3565" transform="translate(-546 -527)">
    <g id="그룹_3560" data-name="그룹 3560" transform="translate(-118.461 -1309.408)">
      <path id="패스_1221" data-name="패스 1221" d="M702.275,1863.032a19.831,19.831,0,0,1-4.347-6.808c-2.581-7.336-14.328-8.492-19.053-3.338-1.744,1.794-2.368,4.133-3.238,6.4-1.431,3.828-5.126,6.27-6.019,10.255-1.547,6.072,4.744,11.1,10.735,10.259,2.307-.142,4-1.725,6.1-2.205,2.665-.911,4.543,1.118,6.908,1.87C703.072,1882.459,710.412,1869.54,702.275,1863.032Zm-.85,9.474a5.945,5.945,0,0,1-7.336,3.1c-2.6-1.448-4.884-2.584-8.061-1.856-4.04.939-7.484,4.15-11.411.558-3.727-3.994,1.822-8.142,3.753-11.437,1.772-3.026,1.519-6.8,5.123-8.511,7.573-3.108,10.338,1.966,13.04,7.908C698.481,1865.609,703.261,1867.959,701.425,1872.506Z" transform="translate(3.994 8.499)" fill="#ff9888"/>
      <path id="패스_1222" data-name="패스 1222" d="M676.173,1856.422h0c9.3,2.046,11.422-14.988,3.237-17.42C670.006,1837.043,667.6,1854.36,676.173,1856.422Zm-1.446-8.461a8.263,8.263,0,0,1,2.169-4.984h0a1.573,1.573,0,0,1,.364-.248l0-.009a1.6,1.6,0,0,1,.279-.06l0,0a.663.663,0,0,1,.478.015,2.49,2.49,0,0,1,1.091.429l0,0c.033.034.067.063.1.1h0l.007.009h0c0,.009.013.015.018.022l0,0a4.036,4.036,0,0,1,.763,1.037,9.107,9.107,0,0,1,.493,4.238,6.863,6.863,0,0,1-.524,2.2,3.771,3.771,0,0,1-.874,1.4l-.08.089a.777.777,0,0,1-.116.112l-.04.034c-.02.013-.055.049-.073.06l-.069.056a.7.7,0,0,1-.274.134C675.935,1853.43,674.317,1850.042,674.726,1847.961Z" transform="translate(5.513 0.358)" fill="#ff9888"/>
      <path id="패스_1223" data-name="패스 1223" d="M676.7,1851.3c-2.729-8.631-12.689-4.362-12.163,4.744-.98,7.116,8.124,12.421,12.243,5.228h0C678.2,1858.769,678.177,1855.507,676.7,1851.3Zm-2.776,6.544a8.567,8.567,0,0,1-.265,1.017l-.014.031a2.993,2.993,0,0,1-1.04,1.419l-.036.038a2.362,2.362,0,0,1-.888.475l-.107.031a2.477,2.477,0,0,1-2.213-1.019h0a6.356,6.356,0,0,1-.839-4.784,9.852,9.852,0,0,1,1.109-3.684l0,0,.02-.016,0,0a2.872,2.872,0,0,1,1.5-.879.806.806,0,0,1,.709.071c.526.3.8,1.14,1.028,1.607A10.913,10.913,0,0,1,673.922,1857.843Z" transform="translate(0 6.344)" fill="#ff9888"/>
      <path id="패스_1224" data-name="패스 1224" d="M686.451,1856.238c9.347-.351,8.485-17.264-.2-17.83C677.164,1838.4,677.365,1856.118,686.451,1856.238Zm-2.956-8.321c-.054-1.751-.065-3.82,1.312-5.1l.042-.036a.44.44,0,0,1,.094-.076l.056-.038a.483.483,0,0,1,.091-.058l.076-.038a1.611,1.611,0,0,1,1.658-.185l.031.02a2.817,2.817,0,0,1,.694.614h0c1.417,1.928,2.28,4.826,1.45,7.12l.009,0-.009,0c-.029.06-.056.114-.083.165l-.047.1a5.411,5.411,0,0,1-1.008,1.321l-.136.11c-.038.036-.234.174-.236.174a2.069,2.069,0,0,1-.866.344l-.23.024a2.516,2.516,0,0,1-.518-.043,1.137,1.137,0,0,1-.391-.136,1.412,1.412,0,0,1-.377-.259,5.281,5.281,0,0,1-1.56-3.443A3.87,3.87,0,0,1,683.5,1847.916Z" transform="translate(12.936 0)" fill="#ff9888"/>
      <path id="패스_1225" data-name="패스 1225" d="M696,1847.124c-7.171-4.407-11.13,6.828-9.131,12.444,2.948,7.722,12.68,5.074,12.812-2.831C699.678,1853.7,699.294,1849.083,696,1847.124Zm-.23,9.952a4.407,4.407,0,0,1-.774,2.07l-.094.145a2.245,2.245,0,0,1-1.421,1.064c-.031.009-.17.053-.2.058l-.054.015-.051.009c-.054.007-.051,0-.107.005l-.034,0c-.055,0-.089,0-.145,0l-.158-.012a1.262,1.262,0,0,1-.424-.122l-.091-.056c-.08-.043-.063-.038-.1-.058l-.045-.025c-.016-.005-.04-.025-.056-.033l-.031-.015a3.3,3.3,0,0,1-1.375-1.629l0,0c-.9-2.646.134-5.554,1.288-7.946l0,0,0,0a1.215,1.215,0,0,1,1.555-.384v0a8.009,8.009,0,0,1,.975.545l.081.082a2.154,2.154,0,0,1,.442.754l0,0A13.7,13.7,0,0,1,695.771,1857.076Z" transform="translate(18.78 5.97)" fill="#ff9888"/>
    </g>
    <rect id="사각형_664" data-name="사각형 664" width="54" height="54" transform="translate(546 527)" fill="none"/>
  </g>
</svg>
