<svg xmlns="http://www.w3.org/2000/svg" width="48" height="48" viewBox="0 0 48 48">
  <g id="PERSON_48" data-name="PERSON 48" transform="translate(-48 -786)">
    <path id="사각형_152" data-name="사각형 152" d="M20,0h8A20,20,0,0,1,48,20v8A20,20,0,0,1,28,48H20A20,20,0,0,1,0,28V20A20,20,0,0,1,20,0Z" transform="translate(48 786)" fill="#ff9888"/>
    <path id="패스_1175" data-name="패스 1175" d="M1045.2,2016.718c-4.218-.1-9.008-.026-13.852-.013a2.058,2.058,0,0,1-1.932-3.04,12.765,12.765,0,0,1,3.032-3.558,18.033,18.033,0,0,1,3.938-2.531c.249-.12.529-.227.822-.339a4.5,4.5,0,0,0,2.967-2.341c.589-1.514-1.065-2.758-1.659-3.758-.113-.19-.226-.38-.328-.571a9.262,9.262,0,0,1-.985-5.895c.435-3.407,4.278-5.952,7.732-5.952h.4c3.452,0,7.289,2.544,7.715,5.917a9.3,9.3,0,0,1-.98,5.929c-.1.2-.222.392-.34.587-.595.989-2.249,2.22-1.646,3.747a4.488,4.488,0,0,0,2.954,2.331c.3.116.579.224.826.342a18.231,18.231,0,0,1,3.93,2.522,12.755,12.755,0,0,1,3.114,3.682,2.049,2.049,0,0,1-2,2.929C1054.254,2016.687,1049.634,2016.606,1045.2,2016.718Z" transform="translate(-973.151 -1192.718)" fill="#fff"/>
  </g>
</svg>
