<svg xmlns="http://www.w3.org/2000/svg" width="48" height="48" viewBox="0 0 48 48">
  <g id="PHONE_48" data-name="PHONE 48" transform="translate(-48 -1098)">
    <path id="사각형_152" data-name="사각형 152" d="M20,0h8A20,20,0,0,1,48,20v8A20,20,0,0,1,28,48H20A20,20,0,0,1,0,28V20A20,20,0,0,1,20,0Z" transform="translate(48 1098)" fill="#ff9888"/>
    <g id="그룹_4522" data-name="그룹 4522" transform="translate(-1143.871 -862.143)">
      <path id="패스_1395" data-name="패스 1395" d="M1225.784,1977.824c0-3.162.762-9.464-3.324-9.626-4.508-.182-9.069.133-13.58.2a.968.968,0,0,0-.255.043c-3.466.657-2.67,5.444-2.687,8.452l-.005,1.138.035,13.225c.028,3.045-.8,8.65,3.1,8.849,1.948.1,3.923-.021,5.875-.032,2.415-.013,4.832,0,7.246-.039a3.328,3.328,0,0,0,2.3-.672c1.54-1.3,1.241-3.781,1.3-5.7C1225.972,1988.388,1225.784,1983.1,1225.784,1977.824Zm-9.913,20.365a1.664,1.664,0,1,1,1.641-1.686.555.555,0,0,1,0,.057,1.626,1.626,0,0,1-1.626,1.628h-.015Zm5.875-5.125a23.029,23.029,0,0,1-3.667.019l-1.96.009-1.59.007-2.15.011c-.573,0-1.167.053-1.738.008-.1-.008-.222.02-.326.005h0c-1.03-.171-.9-1.073-.928-1.9-.094-3.5-.107-7-.1-10.5q0-2.39.021-4.78c.008-.946-.411-3.725.869-3.871l4.58-.062,1.59-.021,2.881-.039c.645-.008,1.3-.054,1.946-.026a2.721,2.721,0,0,1,.394-.007h0c1.1.214.983,1.115,1.056,2.011.279,3.436.088,6.925.134,10.372.021,1.574.045,3.148.01,4.723-.03,1.15.348,3.8-1.019,4.033Z" fill="#fff"/>
    </g>
  </g>
</svg>
