<svg xmlns="http://www.w3.org/2000/svg" width="36" height="36" viewBox="0 0 36 36">
  <g id="그룹_7160" data-name="그룹 7160" transform="translate(-53 -472)">
    <path id="패스_1951" data-name="패스 1951" d="M17.311,82.084a9.563,9.563,0,0,0-2.4-2.918,11.486,11.486,0,0,0-3.18-2.727,3.289,3.289,0,0,0-1.288-.275c-2.336,0-3.98,2.793-4.327,4.932a12.6,12.6,0,0,0,1.356,7.441c2.7,5.6,8.2,10.946,14.158,12.956a12.445,12.445,0,0,0,3.926.671,8.032,8.032,0,0,0,4.1-1.02,4.55,4.55,0,0,0,2.322-2.988c.245-1.409-.557-2.434-1.467-3.391A36.648,36.648,0,0,0,27.4,91.742a2.9,2.9,0,0,0-2.171-.977h-.072c-1.558.219-2.022,2.155-3.456,2.155-.044,0-.088,0-.134-.006a6.581,6.581,0,0,1-4.377-1.941c-.983-1.047-2.99-4.315-1.539-5.7.911-.873,2.213-1.634,1.659-3.186m-2.353,1.472c-.174.153-.346.3-.508.46-2.456,2.352-.067,6.5,1.475,8.147l.016.017.017.017a8.3,8.3,0,0,0,5.5,2.453c.081.006.161.009.239.009A4.034,4.034,0,0,0,24.66,93.1a3.064,3.064,0,0,1,.673-.6,1.161,1.161,0,0,1,.768.387l.078.087.088.076a35.035,35.035,0,0,1,2.962,2.879l.011.012.012.012c.825.868,1.09,1.345,1.021,1.851A2.81,2.81,0,0,1,28.85,99.6l-.038.02-.038.022a6.272,6.272,0,0,1-3.216.78,10.694,10.694,0,0,1-3.371-.581c-5.24-1.767-10.524-6.615-13.148-12.064l-.014-.028-.015-.028a10.794,10.794,0,0,1-1.172-6.381c.269-1.6,1.459-3.444,2.607-3.444a1.5,1.5,0,0,1,.521.1,9.712,9.712,0,0,1,2.6,2.254l.055.069.063.063c.15.152.314.31.484.474a6.736,6.736,0,0,1,1.511,1.8c.027.076.031.115.033.116a3.81,3.81,0,0,1-.75.773" transform="translate(51.979 400.837)" fill="black" />
    <rect id="사각형_1745" data-name="사각형 1745" width="36" height="36" transform="translate(53 472)" fill="none"/>
  </g>
</svg>
