<svg xmlns="http://www.w3.org/2000/svg" width="54" height="54" viewBox="0 0 54 54">
  <g id="그룹_7860" data-name="그룹 7860" transform="translate(-53 -472)">
    <path id="패스_1951" data-name="패스 1951" d="M22.769,84.947c-.583-1.637-2.371-3.134-3.556-4.329A17.04,17.04,0,0,0,14.5,76.571a4.879,4.879,0,0,0-1.911-.408c-3.466,0-5.9,4.144-6.418,7.316A18.684,18.684,0,0,0,8.178,94.517c4,8.311,12.162,16.238,21,19.22a18.462,18.462,0,0,0,5.824,1,11.915,11.915,0,0,0,6.077-1.513,6.75,6.75,0,0,0,3.444-4.433c.364-2.09-.827-3.61-2.176-5.03a54.365,54.365,0,0,0-4.613-4.484,4.3,4.3,0,0,0-3.22-1.449l-.107,0c-2.311.324-3,3.2-5.127,3.2-.065,0-.131,0-.2-.008a9.762,9.762,0,0,1-6.493-2.88c-1.458-1.553-4.436-6.4-2.284-8.461,1.351-1.295,3.282-2.423,2.462-4.726M19.278,87.13c-.258.227-.514.452-.754.683-3.643,3.49-.1,9.649,2.189,12.085l.024.026.025.025a12.306,12.306,0,0,0,8.166,3.639c.121.008.238.013.355.013a5.984,5.984,0,0,0,4.389-2.306,4.545,4.545,0,0,1,1-.885,1.722,1.722,0,0,1,1.139.575l.115.129.131.113a51.973,51.973,0,0,1,4.394,4.271l.016.018.017.018c1.224,1.288,1.617,1.995,1.515,2.746a4.168,4.168,0,0,1-2.109,2.659l-.057.03-.056.033A9.3,9.3,0,0,1,35,112.157a15.864,15.864,0,0,1-5-.862c-7.774-2.621-15.612-9.813-19.5-17.9l-.021-.042-.022-.042a16.012,16.012,0,0,1-1.739-9.466c.4-2.373,2.165-5.109,3.867-5.109a2.22,2.22,0,0,1,.772.152,14.408,14.408,0,0,1,3.851,3.343l.082.1.093.093c.222.225.465.46.717.7a9.993,9.993,0,0,1,2.242,2.677c.04.113.046.171.049.172a5.651,5.651,0,0,1-1.113,1.147" transform="translate(54.396 403.254)" fill="black" />
    <rect id="사각형_1745" data-name="사각형 1745" width="54" height="54" transform="translate(53 472)" fill="none"/>
  </g>
</svg>
