<svg xmlns="http://www.w3.org/2000/svg" width="32" height="32" viewBox="0 0 32 32">
  <g id="그룹_6202" data-name="그룹 6202" transform="translate(-4943 23003)">
    <path id="Icon_-_Call-2" data-name="Icon - Call-2" d="M658.064,1824.529c2.491,5.172,7.568,10.1,13.069,11.96,2.336.789,5.21.97,7.4-.321a4.2,4.2,0,0,0,2.145-2.758,3.611,3.611,0,0,0-1.353-3.13,33.847,33.847,0,0,0-2.871-2.79,2.676,2.676,0,0,0-2.07-.9c-1.482.208-1.891,2.1-3.314,1.985a6.075,6.075,0,0,1-4.041-1.793c-.908-.967-2.76-3.984-1.421-5.265.841-.805,2.042-1.507,1.532-2.941a8.838,8.838,0,0,0-2.212-2.694,10.605,10.605,0,0,0-2.936-2.517c-2.777-1.176-4.807,1.979-5.182,4.3A11.62,11.62,0,0,0,658.064,1824.529Z" transform="translate(4290.276 -24812.109)" fill="#767676"/>
    <rect id="사각형_1488" data-name="사각형 1488" width="32" height="32" transform="translate(4943 -23003)" fill="none"/>
  </g>
</svg>
