<svg id="그룹_6856" data-name="그룹 6856" xmlns="http://www.w3.org/2000/svg" width="60" height="60" viewBox="0 0 60 60">
  <path id="패스_1728" data-name="패스 1728" d="M169.383,40.226q-.124-10.967-.265-21.943a1.2,1.2,0,0,0-.034-.284c-.883-4.5-6.829-4.224-10.766-4.042-.9.041-1.838.083-2.627.083-7.007-.032-14.52-.04-22,.112H132.5c-2.308-.021-5.143-.019-6.617,2.1a5.2,5.2,0,0,0-.685,3.16l.017,3.23c.012,2.62.025,5.219.038,7.818.005,1.181,0,2.362,0,3.542,0,2.237,0,4.552.043,6.758a4.841,4.841,0,0,0,1.336,3.765c1.682,1.582,4.761,1.531,7.242,1.485l.186,0c.372-.005.729-.011,1.069-.011.161,0,.317,0,.469,0,3.529.073,7.169.115,10.816.124,4.52,0,9.006-.062,13.333-.183.3-.009.625-.012.956-.016l.133,0c2.845-.034,6.38-.075,7.951-2.5a5.309,5.309,0,0,0,.6-3.128Zm-41.012-21.7,0-.021c.3-1.119,1.909-1.642,5.066-1.644.8,0,1.613.033,2.264.06.9.043,1.476.061,1.884.061,3.633-.043,7.51-.063,12.2-.064,2.957,0,5.9.015,8.126.029a5.694,5.694,0,0,0,.786-.018l.032,0,.746-.042c5.493-.272,6.347.516,6.456,1.321l.161,13.087-1.042-.872q-1.171-.981-2.351-1.948l-.393-.332c-1.127-.955-2.528-2.142-4.339-2.181a6.94,6.94,0,0,0-4.02,1.742,39.743,39.743,0,0,0-3.776,3.128l-.419.394-.427-.384a26.946,26.946,0,0,0-7.545-4.8c-3.323-1.29-5.21.359-7.4,2.268l-5.945,5.195-.041-9.054a32.671,32.671,0,0,1-.032-5.928M166.229,41.2l0,.014c-.318,1.456-1.7,1.539-3.031,1.619l-.489.032c-1.642.124-3.259.185-4.942.185h-4.751c-2.018,0-3.986,0-5.929.009-1.141.007-2.28.021-3.419.035l-.13,0c-2.231.026-4.54.053-6.8.026-.365-.008-.843.01-1.4.028l-.119.005c-.621.021-1.165.03-1.664.03-2.215,0-4.793-.181-5.076-1.6a16.578,16.578,0,0,1-.14-3.739l.02-.254.039-.034,6.206-5.42a29.1,29.1,0,0,1,2.975-2.609,4.423,4.423,0,0,1,2.351-.832,2.668,2.668,0,0,1,.758.094,10.065,10.065,0,0,1,2,1.059c3.968,2.4,7.243,5.737,10.409,8.961l.713.726a1.407,1.407,0,0,0,1.215.455,1.783,1.783,0,0,0,.984-.482,1.564,1.564,0,0,0,.47-.97,1.344,1.344,0,0,0-.423-1.054c-.458-.464-.922-.941-1.393-1.426l-.038-.039c-.829-.854-1.522-1.567-2.26-2.3l-.438-.437.431-.442c2.891-2.973,4.937-4.2,6.252-3.757a8.758,8.758,0,0,1,2.62,1.986c.375.364.68.655.955.883,1.27,1.061,2.527,2.125,3.787,3.192l.189.16.027.248a26.151,26.151,0,0,1,.042,5.647" transform="translate(-117.297)" fill="#000" />
  <rect id="사각형_871" data-name="사각형 871" width="60" height="60" fill="none"/>
</svg>
