<svg xmlns="http://www.w3.org/2000/svg" width="44" height="46" viewBox="0 0 50 46">
  <g id="그룹_5067" data-name="그룹 5067" transform="translate(-108 -1782)">
    <g id="그룹_4381" data-name="그룹 4381" transform="translate(-450 50)">
      <rect id="사각형_871" data-name="사각형 871" width="44" height="46" transform="translate(558 1732)" fill="none"/>
    </g>
    <path id="패스_1503" data-name="패스 1503" d="M131.207,39.012q-.12-10.476-.257-20.962a1.537,1.537,0,0,0-.074-.48c-.922-4.7-6.987-4.423-11-4.239-.905.04-1.767.078-2.51.078-6.341-.029-13.833-.041-21.282.107H94.94c-2.329-.011-5.28-.03-6.894,2.262a5.548,5.548,0,0,0-.766,3.428q.022,5.244.049,10.487c0,1.126,0,2.253,0,3.379,0,2.143,0,4.359.042,6.469a5.091,5.091,0,0,0,1.461,4c1.832,1.7,4.965,1.645,7.468,1.6l.117,0c.536-.008,1.043-.015,1.507-.007,3.387.07,6.908.11,10.468.118,4.383,0,8.726-.059,12.911-.175.331-.01.682-.013,1.043-.018,2.892-.032,6.491-.074,8.186-2.657a5.655,5.655,0,0,0,.672-3.387m-6.679-11.681-.374-.311a7.453,7.453,0,0,0-4.571-2.226,7.393,7.393,0,0,0-4.308,1.821,37.705,37.705,0,0,0-3.658,2.995,26.649,26.649,0,0,0-7.463-4.686c-3.568-1.371-5.62.4-7.786,2.27l-4.749,4.1-.035-7.341a30.876,30.876,0,0,1-.033-5.609c.095-.339.721-1.042,4.3-1.044.753,0,1.5.03,2.164.056.742.035,1.387.059,1.847.059h0q5.191-.06,10.393-.061,4.622-.007,9.255.028a11.7,11.7,0,0,0,1.26-.047l.287-.014c4.53-.215,5.556.33,5.612.746l.135,11.13q-1.134-.937-2.277-1.864M91.517,36.793l5.853-5.048a27.829,27.829,0,0,1,2.846-2.467l.038-.027a3.663,3.663,0,0,1,1.9-.647,1.608,1.608,0,0,1,.532.066,9.194,9.194,0,0,1,1.769.934c3.8,2.272,6.94,5.433,9.977,8.489l.684.688a2.086,2.086,0,0,0,2.981-.018,1.888,1.888,0,0,0,.053-2.779c-.466-.466-.939-.947-1.418-1.435-.7-.714-1.417-1.441-2.154-2.167,3.2-3.251,4.708-3.677,5.418-3.44a8.191,8.191,0,0,1,2.314,1.769c.341.326.663.631.95.866q1.838,1.517,3.657,3.046a24.248,24.248,0,0,1,.039,5.266c-.181.811-.86.935-2.368,1.024l-.476.032c-1.582.118-3.132.175-4.738.175h-4.594q-2.87-.006-5.738.01c-1.1.007-2.206.02-3.309.032-2.194.027-4.461.053-6.689.028-.372-.008-.858.01-1.5.032-1.546.05-5.659.181-5.9-1.02a14.942,14.942,0,0,1-.125-3.408" transform="translate(28.754 1782.75)" fill="#999999"/>
  </g>
</svg>
