<svg id="그룹_4590" data-name="그룹 4590" xmlns="http://www.w3.org/2000/svg" width="54" height="46" viewBox="0 0 54 46">
  <path id="패스_1418" data-name="패스 1418" d="M1359.155,1905.521h-.006c2.125,2.2,4.35,5.09,7.552,5.1,3.072,0,5.156-2.647,7.218-4.76a71.694,71.694,0,0,0,7.156-8.512c1.156-1.635,1.858-4.006-.6-4.813a18.2,18.2,0,0,0-5.719-.378c.043-1.929.055-3.858.091-5.79.032-1.778.551-4.267-.174-5.972-1.135-2.667-5.728-2.1-7.975-2.1-2.19,0-6.652-.546-7.9,1.917-.8,1.584-.292,4.034-.259,5.7.043,2.088.054,4.176.1,6.264a21.514,21.514,0,0,0-5.517.338c-2.6.7-2.036,3.083-.8,4.838A69.705,69.705,0,0,0,1359.155,1905.521Z" transform="translate(-1339.573 -1878.236)" fill="red"/>
  <path id="패스_1419" data-name="패스 1419" d="M1397.552,1904.058l-.132-4.913a3.94,3.94,0,0,0-3.786-3.788,4,4,0,0,0-4.127,3.786l0,.082.108,4.076.025.282a12.058,12.058,0,0,1,.123,1.268l-34.732.265-1.409-.01c-.589-.009-1.189-.018-1.794-.006q-.055-2.262-.119-4.524l-.069-2.575a3.94,3.94,0,0,0-3.786-3.787,4.028,4.028,0,0,0-4.128,3.826,91.85,91.85,0,0,0,.277,9.979l.011.156a5.326,5.326,0,0,0,5.563,4.9c1.722.089,3.582.134,5.683.137,2.758,0,5.55-.077,8.252-.151,2.3-.065,4.6-.128,6.879-.144l20.571-.157c1.766,0,5.441-.009,6.494-3.758l.062-.3A17.337,17.337,0,0,0,1397.552,1904.058Z" transform="translate(-1343.691 -1867.212)" fill="red"/>
</svg>
