<svg id="PRIVATE_48" data-name="PRIVATE 48" xmlns="http://www.w3.org/2000/svg" width="48" height="48" viewBox="0 0 48 48">
  <rect id="사각형_152" data-name="사각형 152" width="48" height="48" rx="20" fill="#ff9888"/>
  <g id="Icon_-_Home" data-name="Icon - Home" transform="translate(6 8)">
    <path id="Icon_-_Home-2" data-name="Icon - Home-2" d="M431.305,1857.583l-16.732-13.744a1.418,1.418,0,0,0-1.7,0l-16.732,13.744c-1.22,1,.491,2.792,1.7,1.8l1.588-1.3c-.049,5.4-.07,10.8-.123,16.2a1.258,1.258,0,0,0,.182.688.991.991,0,0,0,1.019.583c3.288-.217,6.583-.135,9.871-.3.132-.008,6.561-.008,6.7,0,3.289.162,6.584.081,9.871.3a.991.991,0,0,0,1.012-.575,1.256,1.256,0,0,0,.185-.7c-.054-5.4-.074-10.8-.122-16.2l1.588,1.3C430.816,1860.373,432.526,1858.585,431.305,1857.583Z" transform="translate(-395.725 -1843.555)" fill="#fff"/>
  </g>
  <text id="사" transform="translate(10 12)" fill="#ff9888" font-size="18" font-family="NotoSansKR-Bold" font-weight="700" letter-spacing="-0.025em"><tspan x="5.72" y="21">사</tspan></text>
</svg>
