<svg xmlns="http://www.w3.org/2000/svg" xmlns:xlink="http://www.w3.org/1999/xlink" width="38" height="38" viewBox="0 0 38 38">
  <defs>
    <clipPath id="clip-path">
      <rect id="사각형_1601" data-name="사각형 1601" width="38" height="38" fill="none"/>
    </clipPath>
  </defs>
  <g id="그룹_6599" data-name="그룹 6599" transform="translate(-0.333 -0.333)">
    <g id="그룹_6598" data-name="그룹 6598" transform="translate(0.333 0.333)" clip-path="url(#clip-path)">
      <path id="패스_1704" data-name="패스 1704" d="M34.289,21.873l-.079.015a3.4,3.4,0,0,0-3.076-2.949l-.589-.036-.033-.744c-.066-1.785-.177-4.771-2.7-6.83a5.523,5.523,0,0,0-3.494-1.208,6.516,6.516,0,0,0-3.439,1.007c-3.446,2-3.672,5.976-3.609,7.593l.013.333-.326.072a3.431,3.431,0,0,0-2.519,2.3,15.433,15.433,0,0,0-.16,5.374c.057.692.111,1.342.132,1.929A39.479,39.479,0,0,0,14.5,33.6a2.24,2.24,0,0,0,2.087,1.793,24.669,24.669,0,0,0,4.116.049c.63,0,1.239-.011,1.827-.022l.091,0c.67-.013,1.273-.023,1.858-.024,1.186.057,2.375.052,3.423.047h.578a18.807,18.807,0,0,0,3.627-.066c2.26-.459,2.141-2.793,2.046-4.669-.022-.425-.042-.825-.032-1.187.018-.656.063-1.317.111-2.017l.016-.225a22.011,22.011,0,0,0-.037-5.384Zm-7.784,8.195a3.794,3.794,0,0,1-1.792.449c-.073,0-.147,0-.22-.006h-.169a3.607,3.607,0,0,1-3.7-3.265,1.572,1.572,0,0,0,.007-.3,3.348,3.348,0,0,1,3.243-3.412l.15-.005c.091-.007.2-.008.407-.008a3.859,3.859,0,0,1,2.172.538,3.408,3.408,0,0,1,1.664,3.056,3.368,3.368,0,0,1-1.761,2.952m2.022-11.675-.027.385-.385-.013c-2.3-.079-4.943-.057-8.333.067l-.411.015,0-.411c-.022-2.75.792-4.625,2.417-5.572a4.231,4.231,0,0,1,4.637-.257,3.979,3.979,0,0,1,1.1,1.258,8.486,8.486,0,0,1,1,4.527" transform="translate(-5.416 -3.968)" fill="#999"/>
    </g>
  </g>
</svg>
