<svg id="PRIVATE_62" data-name="PRIVATE 62" xmlns="http://www.w3.org/2000/svg" width="62" height="62" viewBox="0 0 62 62">
  <rect id="사각형_152" data-name="사각형 152" width="62" height="62" rx="20" fill="#ff9888"/>
  <g id="Icon_-_Home" data-name="Icon - Home" transform="translate(8 10)">
    <path id="Icon_-_Home-2" data-name="Icon - Home-2" d="M441.189,1861.967l-21.38-18.039a1.774,1.774,0,0,0-2.168,0l-21.38,18.039c-1.558,1.315.627,3.665,2.168,2.363l2.029-1.711c-.062,7.086-.09,14.171-.158,21.257a1.687,1.687,0,0,0,.232.9,1.261,1.261,0,0,0,1.3.766c4.2-.285,8.411-.177,12.613-.391.169-.01,8.384-.01,8.555,0,4.2.213,8.413.106,12.613.391a1.261,1.261,0,0,0,1.294-.755,1.682,1.682,0,0,0,.237-.915c-.069-7.086-.094-14.173-.156-21.257l2.029,1.711C440.563,1865.629,442.748,1863.282,441.189,1861.967Z" transform="translate(-395.725 -1843.555)" fill="#fff"/>
  </g>
  <text id="사" transform="translate(13 16)" fill="#ff9888" font-size="22" font-family="NotoSansKR-Bold" font-weight="700" letter-spacing="-0.025em"><tspan x="7.88" y="26">사</tspan></text>
</svg>
