<svg id="그룹_7214" data-name="그룹 7214" xmlns="http://www.w3.org/2000/svg" xmlns:xlink="http://www.w3.org/1999/xlink" width="60" height="60" viewBox="0 0 60 60">
  <defs>
    <clipPath id="clip-path">
      <rect id="사각형_1726" data-name="사각형 1726" width="60" height="60" fill="#999"/>
    </clipPath>
  </defs>
  <g id="그룹_7113" data-name="그룹 7113" clip-path="url(#clip-path)">
    <path id="패스_1943" data-name="패스 1943" d="M54.59,28.123c-3.324-3.322-7.922-4.838-15.831-5.206-.212-.679-.456-1.369-.715-2.1-.389-1.095-.791-2.227-1.147-3.506-.19-.682-.358-1.344-.521-1.989l-.025-.1a33.1,33.1,0,0,0-1.558-5.016c-.549-1.289-1.5-3.039-3.374-3.335-1.951-.313-3.539,1.206-4.564,2.377-.828.947-1.807,2.214-2.738,3.429l-.147.191c-.269.35-.514.669-.722.933-1.584-.027-3.963.09-5.408.157l-.582.027c-.2-.213-.473-.517-.737-.815-.624-.707-1.4-1.587-2.395-2.533C11.588,8.218,9.321,7.466,7.39,8.409c-2.384,1.16-3.388,6.476-3.8,10.7l-.3,1.565c-1.226,6.429-1.966,10.311.97,13.383a8.913,8.913,0,0,0,2.551,1.8A18.565,18.565,0,0,0,13.7,37.74a7.474,7.474,0,0,0,5.314,4.437,9.977,9.977,0,0,0-.332,3.03,7.374,7.374,0,0,0,1.765,4.545,7.276,7.276,0,0,0,3.507,2.179,25.647,25.647,0,0,0,7.567,1.013c1.48.047,2.63.087,3.545.119,2.318.081,3.129.111,3.937.053v.025l.368.018c.042,0,.322.009.772.009a37.448,37.448,0,0,0,6.682-.557A8.075,8.075,0,0,0,49.987,51.3a7.387,7.387,0,0,0,2.781-3.822,7.977,7.977,0,0,0-.033-5.232,7.026,7.026,0,0,0,4.949-5.612,9.728,9.728,0,0,0-3.094-8.511M47.5,36.914a1.738,1.738,0,0,0-.532,2.4c.459.721,1.538,2.43,1.573,2.487a1.62,1.62,0,0,0,.177.233,4.6,4.6,0,0,1,.754,4.351,3.988,3.988,0,0,1-1.5,2.09,4.637,4.637,0,0,1-1.815.729,36.163,36.163,0,0,1-6.66.488l-.125,0c-.489,0-4.6-.115-7.839-.214a21.834,21.834,0,0,1-6.6-.874,3.839,3.839,0,0,1-1.85-1.109,3.9,3.9,0,0,1-.93-2.364,7.247,7.247,0,0,1,.415-2.746c.1-.322.2-.672.3-1.038.113-.283.531-1.321,1.03-2.471a1.736,1.736,0,0,0-3.009-1.695,1.711,1.711,0,0,0-.176.311c-.219.5-.42.982-.591,1.392a4.725,4.725,0,0,1-2.8-1.656,3.253,3.253,0,0,1-.529-1.117,6.326,6.326,0,0,1-.2-1.442,4.81,4.81,0,0,1,1.971-4c2.034-1.628,6.849-4.359,16.25-4.359.38,0,.741.006,1.1.012l.362.007c.965.016,1.893.044,2.763.088C48.494,26.9,50.573,29,51.949,30.392l.185.188A6.283,6.283,0,0,1,54.252,36.1a3.6,3.6,0,0,1-3.334,2.954L49.9,37.446a1.742,1.742,0,0,0-2.4-.532M34.809,22.828c-10.463,0-16.032,3.207-18.42,5.119a8.255,8.255,0,0,0-3.264,6.212,15.594,15.594,0,0,1-4.587-1.354c-.043-.027-.09-.052-.146-.081a5.552,5.552,0,0,1-1.6-1.1c-1.616-1.693-1.184-4.386-.054-10.318l.3-1.613a1.105,1.105,0,0,0,.022-.153c.423-4.281,1.436-7.664,1.865-7.988.245-.127,1.147.06,2.786,1.623.9.857,1.643,1.7,2.194,2.327,1.107,1.252,1.775,2.008,2.864,2.008.122,0,.454-.015.919-.036L18,17.463c.964-.046,3.9-.188,5.465-.151a2.727,2.727,0,0,0,2.309-1.064c.269-.333.628-.8,1.033-1.326l.3-.389c.776-1.008,1.656-2.15,2.379-2.973a4.439,4.439,0,0,1,1.366-1.193,3.789,3.789,0,0,1,.712,1.213,30.377,30.377,0,0,1,1.386,4.5l.029.115c.17.667.345,1.355.541,2.06.385,1.382.822,2.615,1.228,3.761.1.28.2.55.286.814Z" />
  </g>
</svg>
