<svg xmlns="http://www.w3.org/2000/svg" width="62" height="62" viewBox="0 0 62 62">
  <g id="RABBIT_62" data-name="RABBIT 62" transform="translate(-338 -384)">
    <g id="그룹_3654" data-name="그룹 3654" transform="translate(10.54 -1450.718)">
      <rect id="사각형_152" data-name="사각형 152" width="62" height="62" rx="20" transform="translate(327.46 1834.718)" fill="#ff9888"/>
    </g>
    <g id="그룹_595" data-name="그룹 595" transform="translate(350 392)">
      <path id="패스_273" data-name="패스 273" d="M222.933,78.816V63.166a7.424,7.424,0,0,0-14.844,0v4.039c-.219-.009-.438-.017-.658-.017h-5.871c-.221,0-.439.008-.658.017V63.166a7.424,7.424,0,0,0-14.845,0v15.65a15.441,15.441,0,0,0-.562,4.121v3.2a15.927,15.927,0,0,0,16.064,15.748h5.871A15.927,15.927,0,0,0,223.5,86.142v-3.2A15.415,15.415,0,0,0,222.933,78.816Zm-10.351-15.65a2.93,2.93,0,0,1,5.858,0v8.318a16.144,16.144,0,0,0-5.858-3.46Zm-22.032,0a2.93,2.93,0,0,1,5.859,0v4.858a16.15,16.15,0,0,0-5.859,3.46ZM219,83.689v2.453a11.472,11.472,0,0,1-11.571,11.344h-5.871a11.472,11.472,0,0,1-11.571-11.344v-3.2a11.074,11.074,0,0,1,.627-3.653,11.459,11.459,0,0,1,5.793-6.49,11.655,11.655,0,0,1,4.493-1.168c.219-.012.436-.032.658-.032h5.871c.222,0,.439.02.658.032a11.665,11.665,0,0,1,4.493,1.168,11.462,11.462,0,0,1,5.793,6.49A11.073,11.073,0,0,1,219,82.937Z" transform="translate(-185.495 -55.89)" fill="#fff"/>
      <path id="패스_274" data-name="패스 274" d="M220.185,113.484l-3.019-2.749c-.024-.021-.051-.036-.075-.056a1.676,1.676,0,0,0-.149-.11,1.6,1.6,0,0,0-.145-.086c-.052-.027-.1-.052-.157-.074s-.109-.041-.165-.057-.1-.029-.157-.039a1.621,1.621,0,0,0-.177-.025,1.581,1.581,0,0,0-.158-.008,1.613,1.613,0,0,0-.177.008c-.054.005-.107.013-.16.023a1.721,1.721,0,0,0-.171.042c-.053.016-.1.034-.155.054a1.691,1.691,0,0,0-.162.076c-.049.026-.1.054-.142.084a1.663,1.663,0,0,0-.15.111c-.024.02-.051.034-.075.055l-3.018,2.749a1.765,1.765,0,1,0,2.376,2.61l1.83-1.667,1.83,1.667a1.765,1.765,0,0,0,2.376-2.61Z" transform="translate(-196.978 -80.634)" fill="#fff"/>
    </g>
  </g>
</svg>
