<svg xmlns="http://www.w3.org/2000/svg" xmlns:xlink="http://www.w3.org/1999/xlink" width="132" height="170" viewBox="0 0 132 170">
  <defs>
    <clipPath id="clip-path">
      <rect id="사각형_1068" data-name="사각형 1068" width="132" height="170" fill="#fff"/>
    </clipPath>
  </defs>
  <g id="그룹_4862" data-name="그룹 4862" clip-path="url(#clip-path)">
    <path id="패스_1456" data-name="패스 1456" d="M130.574,136.99c-2.138-2.534-5.521-6.19-8.793-9.724-.958-1.035-1.891-2.043-2.753-2.979A363.187,363.187,0,0,1,92.673,91.456c.355-.53.708-1.058,1.069-1.6,7.62-11.421,32.133-49.648,27.671-62.007C113.333,5.466,98.922,2.558,97.058,2.273,85.4,0,80.671-.009,68.213,0H67.5C48.8,0,46.558.258,35.01,2.262l-.06.01c-1.834.279-16.272,3.165-24.362,25.577C6.126,40.207,30.639,78.434,38.258,89.856l1.069,1.6a363.015,363.015,0,0,1-26.355,32.831c-.862.937-1.8,1.947-2.756,2.982-3.271,3.534-6.653,7.188-8.789,9.721a5.9,5.9,0,0,0-.672,6.732,6.127,6.127,0,0,0,6.328,3.056c4.341-.654,8.23-1.056,11.662-1.409,1.469-.151,2.89-.3,4.269-.455-.164,1.424-.324,2.95-.49,4.528-.468,4.454-1,9.5-1.735,13.04a6.231,6.231,0,0,0,2.7,6.6,5.793,5.793,0,0,0,3.125.916,5.989,5.989,0,0,0,3.58-1.2c5.615-4.179,20.122-19.512,26.45-27.481,3.287-4.139,6.323-8.018,9.359-12.009,3.036,3.991,6.072,7.87,9.358,12.009,6.329,7.97,20.837,23.3,26.45,27.481a5.991,5.991,0,0,0,3.58,1.2,5.793,5.793,0,0,0,3.125-.916,6.234,6.234,0,0,0,2.7-6.6c-.738-3.538-1.268-8.589-1.736-13.047-.166-1.576-.326-3.1-.49-4.521,1.38.157,2.8.3,4.27.455,3.431.353,7.321.755,11.661,1.409a6.127,6.127,0,0,0,6.328-3.056,5.9,5.9,0,0,0-.671-6.732M98.224,9.865c3.739,1.5,11.5,6.219,16.6,20.362,1.736,4.81-6.97,25.735-26.5,55.122-6.436-9.177-12.57-18.486-18.2-27.373,3.933-6.285,7.588-12.307,10.892-17.87l.36-.605C89.66,25.546,95.676,14.581,98.224,9.865M66,51.38c-2.1-3.379-4.1-6.669-6.015-9.841H72.014C70.1,44.711,68.1,48,66,51.38M67.5,7h.709c10.466,0,15.047,0,22.892,1.3-2.79,5.122-8.017,14.551-14.915,26.232H55.81C48.936,22.9,43.721,13.492,40.924,8.357,48.009,7.2,51.792,7,67.5,7M51.158,136.96A250.75,250.75,0,0,1,28.1,161.455c.565-3.426.983-7.406,1.39-11.281.268-2.554.521-4.966.794-6.963a4.928,4.928,0,0,0-1.385-4.185,4.851,4.851,0,0,0-3.458-1.428,5.3,5.3,0,0,0-.685.046c-2.1.283-4.346.516-6.727.761-2.849.294-6.006.619-9.5,1.1,1.983-2.234,4.523-4.978,6.832-7.472.965-1.042,1.9-2.057,2.772-3A362,362,0,0,0,43.484,97.64c7.228,10.694,12.863,18.692,18.146,25.837-3.414,4.523-6.784,8.839-10.472,13.483m62.817,1.443c-2.381-.245-4.629-.478-6.729-.761a4.872,4.872,0,0,0-4.142,1.383,4.925,4.925,0,0,0-1.384,4.185c.272,1.994.525,4.4.793,6.955.407,3.878.825,7.86,1.391,11.288A250.884,250.884,0,0,1,80.842,136.96c-3.688-4.644-7.058-8.96-10.472-13.483q-1.091-1.445-2.191-2.925Q67.1,119.1,66,117.6c-5.222-7.122-10.883-15.212-18.161-26.024-.678-1.007-1.366-2.033-2.074-3.089-.552-.825-1.112-1.661-1.683-2.518-.139-.209-.272-.413-.41-.621-19.53-29.386-28.236-50.311-26.5-55.122,5.161-14.3,12.854-18.934,16.588-20.389,2.538,4.7,8.561,15.68,16.851,29.659a3.435,3.435,0,0,0,.363.61c3.3,5.563,6.958,11.584,10.891,17.869q1.028,1.641,2.08,3.306Q64.963,62.887,66,64.513c5.645,8.838,11.763,18.032,18.16,27.064q1.08,1.526,2.172,3.043t2.185,3.021a362.006,362.006,0,0,0,25.358,31.387c.866.941,1.8,1.955,2.768,3,2.31,2.5,4.852,5.242,6.835,7.476-3.5-.476-6.654-.8-9.5-1.1" transform="translate(0 0)" fill="#fff"/>
    <path id="패스_1457" data-name="패스 1457" d="M73.265,88.726a6.483,6.483,0,0,0-1.719-.458c-.264-.046-.526-.091-.777-.148a9.315,9.315,0,0,1-2.453-1.054,4.618,4.618,0,0,0-4.725.111,1.223,1.223,0,0,0-.261.148.963.963,0,0,0-.184.157,5.134,5.134,0,0,0-2,3.317,5.982,5.982,0,0,0,.446,2.485c.057.171.113.342.168.517a8.264,8.264,0,0,1,.271,2.36,6.146,6.146,0,0,0,.437,2.666,3.535,3.535,0,0,0,4.156,1.891,4.682,4.682,0,0,0,2.079-1.151,5.447,5.447,0,0,0,1.109-1.828l.013-.071.053-.069a4.075,4.075,0,0,1,.262-.345,3.726,3.726,0,0,1,.514-.506,1.713,1.713,0,0,1,.349-.212,2.018,2.018,0,0,1,.656-.143l.126-.013a5.446,5.446,0,0,0,1.133-.259,4.032,4.032,0,0,0,2.561-3.712,3.971,3.971,0,0,0-2.219-3.681" transform="translate(0.016 0.025)" fill="#fff"/>
    <path id="패스_1458" data-name="패스 1458" d="M59.892,84.241a5.276,5.276,0,0,0-1.7-1.523,2.835,2.835,0,0,0-1.3-.335,2.676,2.676,0,0,0-1.039.172,2.471,2.471,0,0,0-.6.342,2.2,2.2,0,0,0-.859,1.463,3.823,3.823,0,0,0,.1,1.582c.032.128.064.254.1.37a5.478,5.478,0,0,0,.917,1.817,3.6,3.6,0,0,0,1.116.937,3.182,3.182,0,0,0,2.709.245,2.477,2.477,0,0,0,1.381-1.465,3.358,3.358,0,0,0-.027-2.034,5.085,5.085,0,0,0-.794-1.571" transform="translate(0.014 0.024)" fill="#fff"/>
    <path id="패스_1459" data-name="패스 1459" d="M59.036,91.687a9.676,9.676,0,0,0-.988-.729,2.915,2.915,0,0,0-2.165-.613c-.063.015-.121.045-.183.065a2.235,2.235,0,0,0-.668.345,2.542,2.542,0,0,0-.825,1.142,2.242,2.242,0,0,0-.192.951,5.418,5.418,0,0,0,1.157,2.911,4.449,4.449,0,0,0,.581.673,3.249,3.249,0,0,0,2.962.982A2.49,2.49,0,0,0,60.367,96.2a2.994,2.994,0,0,0,.329-1.878,4.286,4.286,0,0,0-1.659-2.635" transform="translate(0.014 0.026)" fill="#fff"/>
    <path id="패스_1460" data-name="패스 1460" d="M63.492,85.1a2.318,2.318,0,0,0,1.578-.524,3.1,3.1,0,0,0,.865-3.161,3.21,3.21,0,0,0-.279-.722,5.1,5.1,0,0,0-1.677-1.771c-.137-.09-.268-.163-.4-.238a3.88,3.88,0,0,0-1.622-.565,2.142,2.142,0,0,0-1.634.459,2.874,2.874,0,0,0-.38.356,2.7,2.7,0,0,0-.625,2,4.206,4.206,0,0,0,.818,2.052c.1.144.214.269.323.4a5.515,5.515,0,0,0,.964.956,3.713,3.713,0,0,0,2.069.751" transform="translate(0.016 0.023)" fill="#fff"/>
    <path id="패스_1461" data-name="패스 1461" d="M69.628,86.27a2.872,2.872,0,0,0,3.711-.389,3.305,3.305,0,0,0-.111-3.932A7.03,7.03,0,0,0,71.569,80.3a2.846,2.846,0,0,0-2.114-.649,2.656,2.656,0,0,0-1.366.533,2.067,2.067,0,0,0-.707,2.345,5.98,5.98,0,0,0,2.246,3.739" transform="translate(0.018 0.023)" fill="#fff"/>
  </g>
</svg>
