<svg id="그룹_6634" data-name="그룹 6634" xmlns="http://www.w3.org/2000/svg" xmlns:xlink="http://www.w3.org/1999/xlink" width="30" height="30" viewBox="0 0 30 30">
  <defs>
    <clipPath id="clip-path">
      <rect id="사각형_1606" data-name="사각형 1606" width="30" height="30" fill="none"/>
    </clipPath>
  </defs>
  <g id="그룹_6633" data-name="그룹 6633" clip-path="url(#clip-path)">
    <path id="패스_1717" data-name="패스 1717" d="M22.864,18.517V11.5a6.681,6.681,0,0,0-6.65-6.579H13.652a6.678,6.678,0,0,0-6.625,6.588v7.01A2.726,2.726,0,0,0,4.575,21.2v2.089a2.724,2.724,0,0,0,2.714,2.679H22.612a2.725,2.725,0,0,0,2.7-2.693V21.188a2.725,2.725,0,0,0-2.453-2.671m-12.56-.01V11.726l0-.21a3.4,3.4,0,0,1,3.375-3.338h2.546a3.376,3.376,0,0,1,3.358,3.328v7Zm11.732,4.2H7.854v-.94H22.036Z" fill="#ff3120"/>
    <path id="패스_1718" data-name="패스 1718" d="M14.944,9.614a3.4,3.4,0,0,0-3.591,3.116l0,1.433a3.411,3.411,0,0,0,3.556,3.043c.082.006.163.009.244.009a3.424,3.424,0,0,0,3.378-3.127l0-1.433a3.4,3.4,0,0,0-3.587-3.041m-.19,3.032a.331.331,0,0,1,.26-.055.342.342,0,0,1,.226.144.391.391,0,0,1,.036.067l.005,1.186a.386.386,0,0,1-.4.229.34.34,0,0,1-.253-.2l-.006-1.171a.355.355,0,0,1,.138-.2Zm.19,3.806Z" fill="#ff3120"/>
  </g>
</svg>
