<svg id="그룹_6725" data-name="그룹 6725" xmlns="http://www.w3.org/2000/svg" xmlns:xlink="http://www.w3.org/1999/xlink" width="48" height="48" viewBox="0 0 48 48">
  <defs>
    <clipPath id="clip-path">
      <rect id="사각형_1627" data-name="사각형 1627" width="48" height="48" fill="none"/>
    </clipPath>
  </defs>
  <g id="그룹_6724" data-name="그룹 6724" clip-path="url(#clip-path)">
    <path id="패스_1737" data-name="패스 1737" d="M36.264,30.1h-.879l.027-.147a3.708,3.708,0,0,0,.058-.6V17.7a9.45,9.45,0,0,0-9.445-9.341H21.936a9.432,9.432,0,0,0-9.406,9.347V29.364a3.534,3.534,0,0,0,.059.591l.027.147h-.864a3.143,3.143,0,0,0-3.146,3.11v3.325a3.144,3.144,0,0,0,3.143,3.1H36.263a3.14,3.14,0,0,0,3.131-3.11V33.207a3.139,3.139,0,0,0-3.13-3.105m-20.885-12.4a6.616,6.616,0,0,1,6.6-6.527h4.077A6.585,6.585,0,0,1,32.625,17.7V29.357a.754.754,0,0,1-.754.745H16.122a.747.747,0,0,1-.743-.694v-11.7ZM36.545,36.537a.3.3,0,0,1-.294.291h-24.5a.291.291,0,0,1-.291-.288V33.215a.3.3,0,0,1,.3-.293h24.5a.293.293,0,0,1,.294.289Z" fill="#ff3120"/>
    <path id="패스_1738" data-name="패스 1738" d="M24,25.622c2.507,0,4.546-1.7,4.546-3.783V19.661c0-2.086-2.039-3.783-4.546-3.783s-4.545,1.7-4.545,3.783v2.178c0,2.086,2.039,3.783,4.545,3.783m-.991-7.074a1.766,1.766,0,0,1,2.713,1.058l.009,2.207,0,.011a1.767,1.767,0,0,1-1.736,1.431,1.8,1.8,0,0,1-.317-.028,1.738,1.738,0,0,1-1.4-1.333l-.012-2.164a1.752,1.752,0,0,1,.741-1.182" fill="#ff3120"/>
  </g>
</svg>
