<svg xmlns="http://www.w3.org/2000/svg" xmlns:xlink="http://www.w3.org/1999/xlink" width="52" height="56.399" viewBox="0 0 52 56.399">
  <defs>
    <clipPath id="clip-path">
      <rect id="사각형_1279" data-name="사각형 1279" width="52" height="56.399" fill="none"/>
    </clipPath>
  </defs>
  <g id="그룹_5828" data-name="그룹 5828" clip-path="url(#clip-path)">
    <path id="패스_1556" data-name="패스 1556" d="M15.5,38.328C9.052,39,1.658,42.111.249,48.805c-1.514,7.208,4.129,12.955,10.208,14.7l.157.046.022.17c.349,2.642.92,5.48,3.285,5.724.076.007.149.011.221.011,1.978,0,3.482-2.785,4.476-4.628l.07-.13h.143a27.293,27.293,0,0,0,6.805-.9,16.631,16.631,0,0,0,6.807-2.879,10.79,10.79,0,0,0,4.068-7.545,12.937,12.937,0,0,0-3.181-9.394C28.224,37.97,19.97,37.86,15.5,38.328m-1.765,24.5-.018-.112c-.053-.32-.1-.624-.166-.973A1.613,1.613,0,0,0,12.363,60.6a11.835,11.835,0,0,1-7.806-4.955,7.576,7.576,0,0,1,.472-9.2c2.857-3.264,7.7-5.136,13.285-5.136a23.024,23.024,0,0,1,6.176.826c3.947,1.118,7.705,4.649,8.742,8.214a6.983,6.983,0,0,1-1.523,6.791c-1.734,2.052-3.984,2.751-6.338,3.343a23.466,23.466,0,0,1-7.492.9,1.382,1.382,0,0,0-1.5.836l-.024.049c-.553.9-1.255,1.994-1.788,2.795l-.32.481-.123-.572-.16.034-.018-.089.16-.036c-.149-.681-.268-1.412-.373-2.056" transform="translate(0 -13.059)" fill="#1a1311"/>
    <path id="패스_1557" data-name="패스 1557" d="M59.787,10.646C58.378,3.952,50.984.845,44.534.169A31.028,31.028,0,0,0,41.33,0C36.913,0,30.791,1.01,26.705,5.819a12.942,12.942,0,0,0-3.181,9.4,10.821,10.821,0,0,0,4.095,7.565,16.307,16.307,0,0,0,6.68,2.838,27.92,27.92,0,0,0,6.906.923h.141l.07.131c.995,1.842,2.5,4.628,4.476,4.628a2.124,2.124,0,0,0,.222-.011c2.363-.243,2.935-3.082,3.285-5.723l.022-.17.157-.045c6.079-1.748,11.723-7.495,10.208-14.7m-4.281,6.806-.024.035a12,12,0,0,1-7.921,4.981,1.6,1.6,0,0,0-1.093,1.205c-.054.31-.11.649-.165.989l-.009.051c-.11.67-.224,1.362-.368,2.023l-.137.658-.322-.483c-.525-.789-1.21-1.861-1.783-2.784l-.026-.05a1.362,1.362,0,0,0-1.225-.868,1.187,1.187,0,0,0-.16.011,23.863,23.863,0,0,1-7.646-.9c-2.329-.585-4.564-1.28-6.3-3.334A6.977,6.977,0,0,1,26.8,12.2c1.037-3.566,4.8-7.1,8.743-8.215,6.249-1.765,14.94-.856,19.458,4.3a7.581,7.581,0,0,1,.5,9.167" transform="translate(-8.036 0)" fill="#1a1311"/>
    <path id="패스_1558" data-name="패스 1558" d="M29.182,52.04a7.457,7.457,0,0,0,.922-2.676c.009-1.035-.314-2.209-1.465-2.342-.837-.1-1.175.445-1.481,1.312a7.863,7.863,0,0,1-.773,1.4,15.819,15.819,0,0,0-1.637,2.538c-.579,1.276-1.452.466-1.113,6.143a2.35,2.35,0,0,0,.211.874,2.077,2.077,0,0,0,1.752,1.24,18.365,18.365,0,0,0,4.187.129c1.054-.164,2.213-.43,2.423-1.5a2.409,2.409,0,0,0,.049-1.312c-.107-.294.292-.686.394-1.118a2.008,2.008,0,0,0-.4-1.869,1.987,1.987,0,0,0-.322-2.092,2.735,2.735,0,0,0-2.337-.688" transform="translate(-8.063 -16.089)" fill="#1a1311"/>
    <path id="패스_1559" data-name="패스 1559" d="M19.937,63.937h0a1.2,1.2,0,0,1-1.2-1.2V57.555a1.2,1.2,0,0,1,2.392,0v5.186a1.2,1.2,0,0,1-1.2,1.2" transform="translate(-6.414 -19.288)" fill="#1a1311"/>
    <path id="패스_1560" data-name="패스 1560" d="M53.689,14.52a4.341,4.341,0,0,0-2.076-2.254,3.554,3.554,0,0,0-3.965,1c-.184.22-.4.485-.624.755a1.867,1.867,0,0,0-.2.23.256.256,0,0,0-.036.059l-.234.287c-.266-.334-.62-.774-1.079-1.327a3.533,3.533,0,0,0-3.968-1,4.367,4.367,0,0,0-2.071,2.243,4.611,4.611,0,0,0,1.306,4.517c1.525,1.726,1.866,2.088,2.33,2.551l.021.022c.485.5,1.957,2.017,2.492,2.46a1.443,1.443,0,0,0,.934.36,2.426,2.426,0,0,0,1.623-.851l.149-.147A43.32,43.32,0,0,0,52.349,18.9c1.679-2.236,1.569-3.569,1.34-4.378" transform="translate(-13.436 -4.113)" fill="#1a1311"/>
  </g>
</svg>
