<svg xmlns="http://www.w3.org/2000/svg" width="72" height="72" viewBox="0 0 72 72">
  <path id="ROTATE_72" data-name="ROTATE 72" d="M4839.575,964.236a42.735,42.735,0,0,0-22.459-26.981c-11.51-5.5-27.017-2.617-35.885,5.25-12.218,10.829-16.455,28.676-8.671,43.937,4.974,9.752,12.626,16.392,23.86,18.956a36.264,36.264,0,0,0,30.384-6.309c.067-.051.132-.106.194-.163a2.744,2.744,0,0,0,.231-.168C4838.276,989.819,4842.893,976.916,4839.575,964.236Zm-49.167,5.984a.4.4,0,0,1-.514.578c-4.425-2.293-7.792-6.438-5.676-11.466,2.742-6.513,11.2-6.841,17.182-7.061.543-.005,1.231.1,1.575-.319a2.705,2.705,0,0,0,.3-1.63c0-.664-.082-1.116-.1-1.563l-.069-1.139c-.034-.868-.234-1.4-.034-1.5.3-.031,1,.835,1.6,1.5.862.937,1.337,1.5,2.362,2.8,1.052,1.067,1.914,2.443,2.886,3.582.728.861,1.555,1.936,1.506,1.872.14.231.394.623.64.983a1.016,1.016,0,0,1-.074,1.251c-.663.74-1.823,2.052-2.163,2.421-1.126,1.227-2.033,2.3-3.262,3.426-.629.577-1.029.858-1.662,1.429-.981.885-1.731,1.867-1.524.4a45.958,45.958,0,0,0-.061-4.948,1.965,1.965,0,0,0-1.92-1.921c-3.915-.176-9.722-.655-12.163,3.122C4787.479,964.752,4788.508,967.651,4790.408,970.219Zm34.634,11.241c-2.742,6.513-11.2,6.841-17.182,7.061-.542,0-1.23-.1-1.575.319a2.722,2.722,0,0,0-.3,1.63c0,.664.083,1.115.1,1.563l.07,1.139c.034.868.234,1.4.034,1.5-.3.031-1-.834-1.6-1.5-.862-.936-1.337-1.5-2.362-2.8-1.051-1.067-1.914-2.443-2.885-3.582-.663-.781-1.4-1.738-1.5-1.862l-.016-.023c-.144-.233-.39-.617-.631-.97a1.015,1.015,0,0,1,.074-1.251c.662-.741,1.823-2.052,2.162-2.421,1.126-1.227,2.034-2.3,3.263-3.426.63-.577,1.029-.859,1.663-1.429.98-.885,1.73-1.867,1.523-.4a46.215,46.215,0,0,0,.062,4.948,1.963,1.963,0,0,0,1.919,1.921c3.916.176,9.722.655,12.164-3.122,1.8-2.793.674-5.772-1.326-8.39a.333.333,0,0,1,.4-.507C4823.658,972.124,4827.2,976.333,4825.042,981.461Z" transform="translate(-4768.63 -934.416)" fill="#fff"/>
</svg>
