<svg xmlns="http://www.w3.org/2000/svg" xmlns:xlink="http://www.w3.org/1999/xlink" width="54" height="54" viewBox="0 0 54 54">
  <defs>
    <clipPath id="clip-path">
      <rect id="사각형_1195" data-name="사각형 1195" width="46" height="46" transform="translate(0 -0.001)" fill="#ff9888"/>
    </clipPath>
  </defs>
  <g id="그룹_5611" data-name="그룹 5611" transform="translate(5 4.903)">
    <g id="그룹_5610" data-name="그룹 5610" transform="translate(-1 -0.902)" clip-path="url(#clip-path)">
      <path id="패스_1516" data-name="패스 1516" d="M45.617,11.578C45.01,8.691,37.422,1.215,34.913.546,32.561-.082,11.1-.112,6.563.172,1.478.491-.138,4.91.009,7.843c.012,3.3.128,29.894.314,32.067C.589,43,2.842,45.2,6.351,45.783c.7.117,7.347.217,14.681.217,8.991,0,19.014-.15,20.37-.6a6.5,6.5,0,0,0,4.371-6.082c.136-2.313.509-24.576-.155-27.737M25.11,4.236c.1,1.812.141,3.715.086,4.869-2.771.186-9.542.228-12.187.015a46.5,46.5,0,0,1-.094-4.936c1.161-.01,2.394-.016,3.673-.016,2.823,0,5.821.024,8.521.068M11.85,41.81l0-16.184h21.71a2.475,2.475,0,0,1,.335.02c-.039.962-.018,11.282-.005,16.066-6.443.142-16.191.168-22.044.1m29.763-2.738a2.5,2.5,0,0,1-1.469,2.345,20.6,20.6,0,0,1-2.085.164c-.016-6.44-.027-15.081,0-15.715a4.014,4.014,0,0,0-1.015-3.113,4.559,4.559,0,0,0-3.481-1.3h-22.3a3.766,3.766,0,0,0-3.578,3.93V41.714c-.295-.015-.52-.03-.649-.047-2.414-.4-2.524-1.69-2.56-2.114-.131-1.525-.251-19.84-.3-31.777l0-.114c-.031-.526-.048-3.157,2.652-3.326.506-.031,1.161-.058,1.916-.08-.2,7.382.791,8,1.6,8.491.46.276,1.149.692,8.3.692l.641,0c7.79-.025,8.328-.41,8.846-.78.774-.554,1.573-1.127,1.168-8.33,2.272.066,3.955.149,4.512.246,1.552.722,7.231,6.326,7.733,7.864.5,2.372.249,23.641.074,26.634" transform="translate(0 0)" fill="#ff9888"/>
    </g>
    <rect id="사각형_1196" data-name="사각형 1196" width="54" height="54" transform="translate(-5 -4.903)" fill="none"/>
  </g>
</svg>
