<svg xmlns="http://www.w3.org/2000/svg" width="48" height="48" viewBox="0 0 48 48">
  <g id="SEARCH_48" data-name="SEARCH 48" transform="translate(-590 -126)">
    <g id="그룹_199" data-name="그룹 199" transform="translate(-159 -926)">
      <rect id="사각형_206" data-name="사각형 206" width="48" height="48" transform="translate(749 1052)" fill="none" opacity="0.4"/>
    </g>
    <path id="패스_1162" data-name="패스 1162" d="M984.26,2012.085c-.891-.94-1.768-1.9-2.648-2.857-1.585-1.728-3.215-3.5-4.924-5.19a16.349,16.349,0,0,0,.93-18.78,18.848,18.848,0,0,0-20.2-8.234c-7.823,1.608-12.356,7.651-12.434,16.584-.029,7.62,4.164,13.791,10.978,16.115a20.23,20.23,0,0,0,16.7-2.089c1.7,1.668,3.336,3.454,4.928,5.188.886.966,1.77,1.93,2.67,2.88a2.676,2.676,0,0,0,1.95.846,2.778,2.778,0,0,0,1.818-.692A2.56,2.56,0,0,0,984.26,2012.085Zm-11.384-11.954c-2.532,3.786-8.082,5.925-13.193,5.095h0c-6.807-1.107-9.2-6.947-9.185-11.6.057-5.724,2.1-9.385,6.093-10.888a13.807,13.807,0,0,1,4.99-.929,13.524,13.524,0,0,1,9.936,4.264A11.623,11.623,0,0,1,972.877,2000.131Z" transform="translate(-350.979 -1846.547)" fill="#191919"/>
  </g>
</svg>
