<svg id="그룹_6501" data-name="그룹 6501" xmlns="http://www.w3.org/2000/svg" xmlns:xlink="http://www.w3.org/1999/xlink" width="48" height="48" viewBox="0 0 48 48">
  <defs>
    <clipPath id="clip-path">
      <rect id="사각형_1571" data-name="사각형 1571" width="48" height="48" fill="none"/>
    </clipPath>
  </defs>
  <g id="그룹_6500" data-name="그룹 6500" clip-path="url(#clip-path)">
    <path id="패스_1690" data-name="패스 1690" d="M42.741,40.071l-.006-.008c-.767-.809-1.525-1.635-2.283-2.459l-.373-.406c-1.4-1.528-3.144-3.429-4.9-5.165l-.474-.469.41-.525A15.638,15.638,0,0,0,36,13.121a18.11,18.11,0,0,0-19.395-7.9C9.142,6.752,4.828,12.531,4.753,21.077c-.027,7.284,3.985,13.186,10.47,15.4a19.462,19.462,0,0,0,16.064-2.016l.5-.31.42.412c1.675,1.644,3.287,3.4,4.846,5.1l.237.258c.841.916,1.68,1.831,2.534,2.731a1.935,1.935,0,0,0,1.406.613,2.03,2.03,0,0,0,1.322-.506,1.822,1.822,0,0,0,.3-2.567c-.032-.038-.067-.078-.106-.117M32.533,27.99l-.014.021c-2.3,3.439-6.931,5.6-11.6,5.6a14.528,14.528,0,0,1-2.337-.187c-7.27-1.182-9.831-7.387-9.815-12.341.061-6.072,2.274-9.969,6.579-11.589a14.491,14.491,0,0,1,5.246-.977h.089a14.322,14.322,0,0,1,10.4,4.5,12.4,12.4,0,0,1,1.45,14.969" fill="#767676"/>
  </g>
</svg>
