<svg xmlns="http://www.w3.org/2000/svg" xmlns:xlink="http://www.w3.org/1999/xlink" width="40" height="40" viewBox="0 0 40 40">
  <defs>
    <clipPath id="clip-path">
      <rect id="사각형_1124" data-name="사각형 1124" width="40" height="40" fill="#999"/>
    </clipPath>
  </defs>
  <g id="그룹_5054" data-name="그룹 5054" clip-path="url(#clip-path)">
    <path id="패스_1505" data-name="패스 1505" d="M35.3,22.133l0-.015A3.966,3.966,0,0,0,31.75,18.7l-.293-.019c-.082-1.74.005-5.4-2.987-7.839a6.619,6.619,0,0,0-7.722-.241c-3.8,2.2-4.031,6.592-3.965,8.3a4,4,0,0,0-2.937,2.685,16.393,16.393,0,0,0-.185,5.778c.056.675.115,1.374.136,1.989a40.808,40.808,0,0,0,.092,5.1,2.781,2.781,0,0,0,2.572,2.255c.829.079,1.673.118,2.511.118.635,0,1.263-.023,1.842-.067.628,0,1.256-.011,1.883-.022l.1,0c.655-.013,1.3-.024,1.931-.025,1.177.057,2.363.053,3.576.049h.6a19.846,19.846,0,0,0,3.834-.071c2.747-.556,2.609-3.268,2.5-5.311-.022-.436-.043-.847-.033-1.207.019-.7.068-1.407.12-2.157l.011-.166a23.285,23.285,0,0,0-.041-5.711m-8.656,8.229a3.534,3.534,0,0,1-1.88.415h-.2a3.339,3.339,0,0,1-3.447-3.019,1.448,1.448,0,0,0,0-.351A3.06,3.06,0,0,1,24.1,24.325l.158-.005c.107-.007.213-.007.439-.009a3.641,3.641,0,0,1,2.029.5,3.229,3.229,0,0,1-.087,5.547M22.128,13.122a4.036,4.036,0,0,1,4.4-.27,3.7,3.7,0,0,1,1,1.159,8.457,8.457,0,0,1,1,4.5c-2.423-.083-5.226-.059-8.731.07-.01-1.241.079-4.157,2.323-5.458" transform="translate(-4.5 -3.159)" fill="#999"/>
  </g>
</svg>
