<svg xmlns="http://www.w3.org/2000/svg" width="60" height="60" viewBox="0 0 60 60">
  <g id="SEND_60" data-name="SEND 60" transform="translate(-628 -106)">
    <path id="패스_1213" data-name="패스 1213" d="M3213.582,237.324a1.472,1.472,0,0,0-1.329-1.175h-.009a248.419,248.419,0,0,0-37.468,1.438,1.486,1.486,0,0,0-1.161,1.359c-.087,2.476,2.361,3.644,4.326,4.583.41.2.8.382,1.149.571l9.633,5.216-1.749,10.894c-.063.391-.154.817-.247,1.261-.456,2.149-1.022,4.825.981,6.262a1.417,1.417,0,0,0,.338.168,1.478,1.478,0,0,0,1.447-.291,252.584,252.584,0,0,0,23.878-29.171A1.478,1.478,0,0,0,3213.582,237.324Zm-13.29,4.564c-3.3,1.57-6.71,3.192-9.981,4.966l-10.706-5.8-.017-.008q-.9-.392-1.778-.861a232.634,232.634,0,0,1,28.494-1.206C3204.306,239.977,3202.268,240.946,3200.292,241.888Zm-10.674,20.165.717-4.475q.654-4.054,1.3-8.1c3.258-1.768,6.662-3.387,9.954-4.954,1.894-.9,3.842-1.829,5.76-2.783A235.951,235.951,0,0,1,3189.3,263.6C3189.384,263.084,3189.494,262.568,3189.618,262.052Z" transform="translate(-2535.612 -115.976)" fill="#ff9888"/>
    <rect id="사각형_696" data-name="사각형 696" width="60" height="60" transform="translate(628 106)" fill="none"/>
  </g>
</svg>
