<svg xmlns="http://www.w3.org/2000/svg" width="60" height="60" viewBox="0 0 60 60">
  <g id="SEND_BIG_60" data-name="SEND BIG 60" transform="translate(-628 -106)">
    <path id="패스_1213" data-name="패스 1213" d="M3233.565,237.914a2.108,2.108,0,0,0-.951-1.348,2.285,2.285,0,0,0-1.042-.341h-.013a388.709,388.709,0,0,0-56.2,2.066,2.166,2.166,0,0,0-1.742,1.954c-.13,3.559,3.541,5.238,6.49,6.588.614.281,1.2.549,1.723.82l14.449,7.5-2.623,15.66c-.1.562-.231,1.174-.371,1.812-.684,3.09-1.533,6.935,1.473,9a2.156,2.156,0,0,0,.507.241,2.291,2.291,0,0,0,2.17-.418,366.819,366.819,0,0,0,35.818-41.933A2.052,2.052,0,0,0,3233.565,237.914Zm-19.935,6.56c-4.947,2.256-10.065,4.589-14.972,7.139l-16.058-8.336-.025-.011q-1.354-.564-2.667-1.238a364.022,364.022,0,0,1,42.742-1.734C3219.652,241.727,3216.6,243.12,3213.631,244.474Zm-16.01,28.987,1.077-6.432q.979-5.827,1.951-11.64c4.887-2.541,9.993-4.87,14.93-7.121,2.841-1.3,5.765-2.63,8.64-4a342.679,342.679,0,0,1-27.083,31.418C3197.269,274.944,3197.434,274.2,3197.621,273.461Z" transform="translate(-2545.613 -115.977)" fill="#ff9888"/>
    <rect id="사각형_696" data-name="사각형 696" width="60" height="60" transform="translate(628 106)" fill="none"/>
  </g>
</svg>
