<svg id="그룹_6368" data-name="그룹 6368" xmlns="http://www.w3.org/2000/svg" xmlns:xlink="http://www.w3.org/1999/xlink" width="46" height="46" viewBox="0 0 46 46">
  <defs>
    <clipPath id="clip-path">
      <rect id="사각형_1538" data-name="사각형 1538" width="46" height="46" fill="none"/>
    </clipPath>
  </defs>
  <g id="그룹_6367" data-name="그룹 6367" clip-path="url(#clip-path)">
    <g id="그룹_6379" data-name="그룹 6379" transform="translate(2.499 2.503)">
      <path id="패스_1652" data-name="패스 1652" d="M43.238,19.77c-.076-.43-.211-1.677-.849-1.758l-.337-.04-.216-.022a28.12,28.12,0,0,0-3.321.036,4.192,4.192,0,0,1-.451.006l-.034-.1a13.181,13.181,0,0,0-.936-2c.1-.1.277-.243.48-.414,1.332-1.118,2.216-1.927,2.345-2.916.216-1.515-1.063-2.693-1.91-3.474-.146-.134-.281-.257-.386-.366s-.225-.256-.367-.427a5.417,5.417,0,0,0-2.084-1.824c-1.963-.7-3.593.982-4.566,1.987a1.681,1.681,0,0,1-.5.4,18.271,18.271,0,0,0-2.26-.929c-.008-.21,0-.448.006-.7.032-1.182.076-2.8-1.011-3.85a4.054,4.054,0,0,0-3.234-.855,9.142,9.142,0,0,1-1.094,0c-1.642-.065-3.318-.039-4.163,1.088-.594.8-.542,1.99-.4,3.591.022.256.044.477.048.582-.8.231-1.588.505-2.358.813-.09-.1-.213-.242-.356-.411C14.228,6.943,13.462,6.118,12.512,6,11.062,5.8,9.929,7.038,9.1,7.94c-.138.149-.262.285-.375.394s-.256.224-.426.367a5.4,5.4,0,0,0-1.819,2.082c-.718,2,1.073,3.719,2.143,4.747a2.62,2.62,0,0,0,.491.4c-.237.766-.417,1.432-.56,2.085-.2-.008-.463-.037-.762-.066-1.829-.184-3.2-.264-4.129.369-1.279.864-1.192,2.818-1.128,4.245.01.206.018.386.017.522,0,.18-.01.365-.019.548-.053,1.082-.164,3.334,2.229,4.044l.111.029a9.232,9.232,0,0,0,2.706.178c.349-.012.687-.024,1.014-.043.189.7.4,1.358.638,2.014l-.031.009c-.126.135-.3.3-.481.474-1.1,1.054-2.945,2.818-2.221,4.829a5.4,5.4,0,0,0,1.822,2.087c.17.143.324.269.426.368s.232.241.367.387c.828.9,1.965,2.131,3.459,1.921.984-.136,1.779-1,2.878-2.3a2.2,2.2,0,0,1,.426-.439,9.623,9.623,0,0,0,2.147.843c0,.178-.016.392-.03.624-.08,1.344-.19,3.186,1.045,4.142l.3.181a5.753,5.753,0,0,0,2.38.516,5.909,5.909,0,0,0,.839-.061l.117-.006h.422c.149,0,.314.01.489.02,1.038.055,3.2.173,4.018-1.758l.093-.306a11.855,11.855,0,0,0,.16-3.31h.009c.821-.253,1.643-.549,2.447-.881l0,.016c.116.108.245.242.387.387.945.971,2.523,2.6,4.467,1.9a5.417,5.417,0,0,0,2.085-1.826c.142-.171.268-.324.359-.42s.22-.209.363-.339c.928-.852,2.2-2.017,2-3.426-.123-.933-.91-1.67-2.1-2.689-.181-.154-.336-.284-.424-.373l.062-.085a25.663,25.663,0,0,0,.993-2.5c.124,0,.255,0,.391,0l.219,0a7.227,7.227,0,0,0,2.049-.152,2.612,2.612,0,0,0,2.162-2.574c.012-.122.025-.254.052-.4l.016-.108a16.933,16.933,0,0,0-.157-4.842m-2.819,4.461c-.036.2-.057.394-.075.569a4.248,4.248,0,0,1-1.05.051l-.354-.007c-.2,0-.393,0-.537,0A3.01,3.01,0,0,0,35.583,27a14.747,14.747,0,0,1-.744,1.987,3.028,3.028,0,0,0,.482,3.555c.126.127.343.316.6.537.2.176.6.511.876.786-.257.292-.651.653-.854.839s-.357.328-.486.461-.316.352-.514.589a11.16,11.16,0,0,1-.787.88,6.254,6.254,0,0,1-1.31-1.125c-.181-.186-.348-.356-.448-.447a2.951,2.951,0,0,0-2.908-.765l-.17.061c-.77.324-1.558.611-2.338.852a3.006,3.006,0,0,0-2.141,2.817l0,.1.011.1a8.878,8.878,0,0,1-.044,2.233,6.11,6.11,0,0,1-1.066,0l-.1-.005-.563-.031c-.211,0-.469.011-.745.025l-.17.017a2.768,2.768,0,0,1-1.188-.065,10,10,0,0,1,.01-1.559c.018-.287.032-.551.034-.819A3,3,0,0,0,18.872,35.2a8.879,8.879,0,0,1-1.572-.642,3.01,3.01,0,0,0-3.573.488c-.137.139-.339.375-.574.653s-.673.8-1,1.118a9.824,9.824,0,0,1-.836-.835c-.179-.193-.343-.37-.486-.509s-.352-.316-.591-.514a11.407,11.407,0,0,1-.88-.79,7.529,7.529,0,0,1,1.43-1.658c.239-.228.453-.435.567-.561a2.96,2.96,0,0,0,.765-2.9l-.038-.118c-.226-.607-.422-1.219-.606-1.9a2.977,2.977,0,0,0-2.8-2.155c-.371-.014-.781,0-1.28.018a6.489,6.489,0,0,1-1.83-.1l-.024-.007a4.763,4.763,0,0,1-.014-1c.011-.227.022-.454.023-.674,0-.174-.008-.408-.02-.677a12.5,12.5,0,0,1,0-1.607,15.622,15.622,0,0,1,1.957.111c.426.043.8.078,1.1.084a3.019,3.019,0,0,0,2.873-2.264c.127-.6.292-1.213.53-1.986a2.969,2.969,0,0,0-.725-2.841c-.152-.163-.349-.354-.569-.565a7.2,7.2,0,0,1-1.356-1.574A11.137,11.137,0,0,1,10.216,11c.24-.2.453-.38.586-.51s.31-.316.5-.517.54-.584.823-.827c.3.3.681.75.878.981.22.26.41.479.528.6a2.925,2.925,0,0,0,2.92.772l.152-.053a22.092,22.092,0,0,1,2.242-.782A3,3,0,0,0,21,7.8c0-.2-.026-.5-.056-.851-.028-.323-.084-.964-.082-1.405a10.7,10.7,0,0,1,1.592-.015,12.2,12.2,0,0,0,1.315,0,5.788,5.788,0,0,1,.974-.008,4.867,4.867,0,0,1,.118,1.636c-.008.32-.016.625-.006.873A3.005,3.005,0,0,0,27,10.836a11.191,11.191,0,0,1,1.727.683,3.028,3.028,0,0,0,3.516-.448c.154-.143.33-.324.523-.524a8.524,8.524,0,0,1,1.37-1.237,10.112,10.112,0,0,1,.82.908c.2.239.378.45.517.594s.316.309.509.486a9.619,9.619,0,0,1,.836.84c-.327.339-.89.813-1.168,1.046s-.508.43-.685.6a2.99,2.99,0,0,0-.478,3.5,16.333,16.333,0,0,1,.728,1.633A3.022,3.022,0,0,0,38.049,21c.062,0,.276-.007.577-.018.349-.014,1.106-.041,1.756-.057a13.935,13.935,0,0,1,.037,3.3" transform="translate(-2.499 -2.503)"/>
      <path id="패스_1653" data-name="패스 1653" d="M28.781,17.981a7.746,7.746,0,0,0-5.8-2.192,6.682,6.682,0,0,0-5,2.416,8.2,8.2,0,0,0,.038,9.667l.321.409a6.85,6.85,0,0,0,5,2.177h.113a8.332,8.332,0,0,0,4.951-1.7,2.629,2.629,0,0,0,.466-.376,2.594,2.594,0,0,0,.382-.448,7.436,7.436,0,0,0-.466-9.956m-2.153,8.357a5.316,5.316,0,0,1-3.218,1.12,3.873,3.873,0,0,1-2.822-1.164,5.18,5.18,0,0,1-.237-6.256,3.7,3.7,0,0,1,2.756-1.252,4.8,4.8,0,0,1,3.535,1.3,4.45,4.45,0,0,1,.243,6Z" transform="translate(-2.499 -2.503)"/>
    </g>
  </g>
</svg>
