<svg xmlns="http://www.w3.org/2000/svg" width="46" height="46" viewBox="0 0 46 46">
  <g id="SETTING_46" data-name="SETTING 46" transform="translate(-48 -988)">
    <rect id="사각형_729" data-name="사각형 729" width="46" height="46" transform="translate(48 988)" fill="none" opacity="0.4"/>
    <path id="Icon_-_Setting-2" data-name="Icon - Setting-2" d="M265.746,1983.214c.991,0,2.63.341,3.126-.825a10.415,10.415,0,0,0,.125-3.047,1.515,1.515,0,0,1,1.076-1.416,26.351,26.351,0,0,0,2.486-.905,1.443,1.443,0,0,1,1.427.375c.762.707,2.077,2.421,3.328,1.974.577-.206,1.45-1.439,1.878-1.882.538-.55,2.062-1.72,1.949-2.522-.077-.583-1.685-1.782-2.1-2.2a1.525,1.525,0,0,1-.23-1.779,16.1,16.1,0,0,0,.866-2.282,1.514,1.514,0,0,1,1.415-1.077c.23-.01.483,0,.742,0a5.745,5.745,0,0,0,1.592-.1c1.2-.327.962-.876,1.134-1.8a15.473,15.473,0,0,0-.261-5.009c-.522-.067-3.36.065-3.6.066a1.515,1.515,0,0,1-1.416-1.078,17.957,17.957,0,0,0-.811-1.824,1.516,1.516,0,0,1,.23-1.779c.481-.47,2.3-1.8,2.388-2.468.131-.921-1.281-1.958-1.89-2.586-.428-.442-1.3-1.675-1.878-1.882-1.279-.458-2.673,1.366-3.449,2.085a1.529,1.529,0,0,1-1.779.23,12.682,12.682,0,0,0-2.01-.8,1.515,1.515,0,0,1-1.078-1.414c-.04-1.061.242-2.764-.55-3.529-.67-.651-1.787-.413-2.707-.413-.153,0-.377-.01-.638-.021-.972-.04-2.475-.081-2.9.486-.4.536-.066,2.635-.06,3.3a1.5,1.5,0,0,1-1.078,1.416,23.962,23.962,0,0,0-2.388.834,1.433,1.433,0,0,1-1.427-.377c-.436-.44-1.681-2.122-2.292-2.2-.845-.114-1.963,1.369-2.545,1.926-.44.428-1.673,1.3-1.879,1.881-.476,1.326,1.533,2.858,2.278,3.661a1.482,1.482,0,0,1,.377,1.429c-.214.688-.4,1.363-.55,2.064a1.479,1.479,0,0,1-1.415,1.077c-.892-.019-3.328-.466-4.078.043-.722.488-.445,2.735-.451,3.534-.008,1.269-.366,2.7,1.136,3.145a7.88,7.88,0,0,0,2.337.146c.386-.013.76-.025,1.1-.013a1.5,1.5,0,0,1,1.416,1.078c.186.688.393,1.339.639,2a1.457,1.457,0,0,1-.377,1.429c-.759.825-2.88,2.431-2.393,3.786.206.578,1.439,1.453,1.879,1.879.619.6,1.672,2.026,2.578,1.9.654-.09,1.967-1.879,2.432-2.35a1.511,1.511,0,0,1,1.778-.23,10.438,10.438,0,0,0,1.867.766,1.511,1.511,0,0,1,1.078,1.416c-.01,1-.327,2.977.434,3.567a4.28,4.28,0,0,0,2.45.326c.25-.012.483-.023.674-.023Zm-3.657-14.679a6.694,6.694,0,0,1-.24-8.168c2.075-2.516,6.339-2.272,8.516-.053a5.964,5.964,0,0,1,.325,8.016,1.1,1.1,0,0,1-.219.263,1.073,1.073,0,0,1-.265.21,6.79,6.79,0,0,1-4.116,1.437,5.348,5.348,0,0,1-4-1.7Z" transform="translate(-194.655 -953.282)" fill="#ff9888"/>
  </g>
</svg>
