<svg id="SHARE_48_FILLED" data-name="SHARE 48 FILLED" xmlns="http://www.w3.org/2000/svg" width="48" height="48" viewBox="0 0 48 48">
  <rect id="사각형_363" data-name="사각형 363" width="48" height="48" fill="#fff"/>
  <g id="그룹_3823" data-name="그룹 3823" transform="translate(-4830.657 -306.44)">
    <path id="패스_1291" data-name="패스 1291" d="M4859.535,323.9a7.772,7.772,0,0,0,5.183,1.649c4.215-.2,7.385-3.776,7.888-8.9a2.734,2.734,0,0,0,.051-.573,2.588,2.588,0,0,0-.055-.629,7.429,7.429,0,0,0-4.268-6.21,9.008,9.008,0,0,0-9.267,1.134,8.1,8.1,0,0,0-2.856,7.552,9.222,9.222,0,0,0,.383,1.746l.085.262-1.212.78c-1.651,1.062-3.359,2.161-5.029,3.36l-.178.128-.177-.128a8.868,8.868,0,0,0-9.392-.326,8,8,0,0,0-3.961,8.3,8.35,8.35,0,0,0,8.486,7.622,7.288,7.288,0,0,0,4.581-1.806l.14-.12.167.065c.292.111.591.221.894.334l.113.042a27.616,27.616,0,0,1,4.612,2.032l.241.146-.1.277a8.6,8.6,0,0,0-.44,4.163,8.392,8.392,0,0,0,8.088,7.642h0c.139,0,.276,0,.415-.011,4.219-.2,7.389-3.778,7.89-8.9a2.351,2.351,0,0,0,.051-.505,2.724,2.724,0,0,0-.062-.7,7.431,7.431,0,0,0-4.193-6.169,9.06,9.06,0,0,0-8.535.537l-.163.1-.161-.1a30.249,30.249,0,0,0-5.934-2.948l-.3-.11.1-.322a12.492,12.492,0,0,0,.5-2.542,2.708,2.708,0,0,0,.051-.564,2.615,2.615,0,0,0-.053-.629,9.139,9.139,0,0,0-.217-1.26l-.059-.238.191-.135c1.507-1.07,3.092-2.091,4.624-3.08l1.7-1.1Z" transform="translate(0)" fill="#ff9888"/>
  </g>
</svg>
