<svg xmlns="http://www.w3.org/2000/svg" width="46" height="46" viewBox="0 0 46 46">
  <g id="SHELTER_46" data-name="SHELTER 46" transform="translate(-654 -510)">
    <rect id="사각형_135" data-name="사각형 135" width="46" height="46" transform="translate(654 510)" fill="none" opacity="0.4"/>
    <g id="그룹_4281" data-name="그룹 4281" transform="translate(-348.405 -1446.582)">
      <g id="그룹_4282" data-name="그룹 4282" transform="translate(1010.405 1970.799)">
        <path id="패스_1332" data-name="패스 1332" d="M1036.555,1994.432c-.24-.26-.476-.517-.694-.777a12.208,12.208,0,0,1-1.71-3.063,6.1,6.1,0,0,0-5.031-3.678,1.641,1.641,0,0,0-.392-.056,1.288,1.288,0,0,0-.32.015,6.814,6.814,0,0,0-4.77,1.839,7.82,7.82,0,0,0-1.544,2.936c-.079.222-.158.445-.243.67a10.815,10.815,0,0,1-1.626,2.666,8.046,8.046,0,0,0-1.7,3.115,4.63,4.63,0,0,0,2.816,5.3,6.236,6.236,0,0,0,3.1.474,7.239,7.239,0,0,0,2.638-1l.071-.065.111-.028a5.31,5.31,0,0,1,.554-.146,4.969,4.969,0,0,1,.947-.114,2.3,2.3,0,0,1,.537.06,2.693,2.693,0,0,1,.8.38l.142.088a7.337,7.337,0,0,0,1.395.641,5.355,5.355,0,0,0,5.681-1.8,5.173,5.173,0,0,0,.659-5.6A8.55,8.55,0,0,0,1036.555,1994.432Z" transform="translate(-1013.402 -1976.136)" fill="#ff9888"/>
        <path id="패스_1333" data-name="패스 1333" d="M1023.3,1982.75a3.247,3.247,0,0,0,2.609-.411,4.408,4.408,0,0,0,1.6-2.13,7.069,7.069,0,0,0-.1-5.214,3.647,3.647,0,0,0-2.292-2.045,3.226,3.226,0,0,0-.9-.129,2.881,2.881,0,0,0-2.065.828,5.686,5.686,0,0,0-1.363,2.183,7.181,7.181,0,0,0-.507,2.621A4.465,4.465,0,0,0,1023.3,1982.75Z" transform="translate(-1013.75 -1972.407)" fill="#ff9888"/>
        <path id="패스_1334" data-name="패스 1334" d="M1018.91,1985.56a3.826,3.826,0,0,0-1.754-2.374,2.912,2.912,0,0,0-1.212-.257,3.327,3.327,0,0,0-1.774.522c-1.265.657-1.961,2.259-2.1,4.781-.093,1.706.6,3.778,2.346,4.562a3.265,3.265,0,0,0,2.689.065,3.919,3.919,0,0,0,1.848-1.684C1019.757,1989.766,1019.742,1987.929,1018.91,1985.56Z" transform="translate(-1012.063 -1974.436)" fill="#ff9888"/>
        <path id="패스_1335" data-name="패스 1335" d="M1035.432,1982.337a4.172,4.172,0,0,0,3.725-3.558,6.681,6.681,0,0,0-.318-3.183,5.682,5.682,0,0,0-1.453-2.457,2.811,2.811,0,0,0-2.064-.834,3.759,3.759,0,0,0-.68.063,3.536,3.536,0,0,0-2.257,1.577,5.509,5.509,0,0,0-.8,2.785,7.374,7.374,0,0,0,.245,2.444C1032.288,1980.8,1033.566,1982.4,1035.432,1982.337Z" transform="translate(-1016.065 -1972.304)" fill="#ff9888"/>
        <path id="패스_1336" data-name="패스 1336" d="M1045.784,1982.861a3.494,3.494,0,0,0-1.846-.544,2.716,2.716,0,0,0-2.616,1.866c-.7,1.59-1.393,3.865-.672,5.681a3.766,3.766,0,0,0,4.162,2.576c1.947-.43,2.93-2.4,3.042-4.169a9.194,9.194,0,0,0-.4-3.038A3.734,3.734,0,0,0,1045.784,1982.861Z" transform="translate(-1017.866 -1974.313)" fill="#ff9888"/>
      </g>
      <path id="패스_1337" data-name="패스 1337" d="M1043.619,1974.708l-19.184-13.637a1.938,1.938,0,0,0-2.059,0l-19.184,13.637a2,2,0,0,0-.508,2.614,1.691,1.691,0,0,0,1.449.861,1.615,1.615,0,0,0,.938-.3l18.335-13.032,18.335,13.032a1.612,1.612,0,0,0,.938.3,1.691,1.691,0,0,0,1.449-.861A2,2,0,0,0,1043.619,1974.708Z" transform="translate(2 -0.19)" fill="#ff9888"/>
    </g>
  </g>
</svg>
