<svg id="그룹_6175" data-name="그룹 6175" xmlns="http://www.w3.org/2000/svg" xmlns:xlink="http://www.w3.org/1999/xlink" width="294" height="294" viewBox="0 0 294 294">
  <defs>
    <clipPath id="clip-path">
      <rect id="사각형_1468" data-name="사각형 1468" width="294" height="294" fill="none"/>
    </clipPath>
  </defs>
  <g id="그룹_6174" data-name="그룹 6174" clip-path="url(#clip-path)">
    <path id="패스_1595" data-name="패스 1595" d="M146.89,0a146.89,146.89,0,1,0,146.89,146.89A146.89,146.89,0,0,0,146.89,0m88.385,141.229c-.14,4.421-5.956,8.527-10.4,4.779l-7.8-6.575c.231,27.222.334,54.456.6,81.687a6.467,6.467,0,0,1-.918,3.516,4.844,4.844,0,0,1-4.972,2.9c-10.051-.681-20.118-.779-30.182-.953V179.2a27.127,27.127,0,0,0-27.127-27.127H139.3a27.129,27.129,0,0,0-27.125,27.129v47.379c-10.073.173-20.144.266-30.2.953a4.845,4.845,0,0,1-5-2.938,6.5,6.5,0,0,1-.892-3.459c.263-27.23.369-54.456.608-81.685l-7.8,6.575c-5.923,5-14.32-4.028-8.332-9.081l82.159-69.321a6.822,6.822,0,0,1,8.332,0l82.159,69.321.007-.005a5.292,5.292,0,0,1,2.055,4.2Z" fill="#dbdbdb"/>
    <g id="그룹_6294" data-name="그룹 6294" transform="translate(58.504 66.209)">
      <path id="패스_1594" data-name="패스 1594" d="M206.572,106.8,124.413,37.479a6.822,6.822,0,0,0-8.332,0L33.921,106.8c-5.988,5.053,2.409,14.085,8.332,9.081l7.8-6.575c-.239,27.23-.345,54.456-.608,81.685a6.5,6.5,0,0,0,.892,3.459,4.845,4.845,0,0,0,5,2.938c10.058-.687,20.129-.782,30.2-.955V149.056a27.127,27.127,0,0,1,27.125-27.129h15.177a27.128,27.128,0,0,1,27.127,27.127v47.381c10.064.173,20.131.27,30.182.953a4.844,4.844,0,0,0,4.972-2.9,6.467,6.467,0,0,0,.918-3.516c-.264-27.232-.367-54.465-.6-81.687l7.8,6.575c4.445,3.746,10.26-.36,10.4-4.779V111a5.3,5.3,0,0,0-2.055-4.2Zm-65.461.026a4.79,4.79,0,0,1-4.79,4.79v0H104.177a4.789,4.789,0,0,1-4.79-4.789V98.59a4.79,4.79,0,0,1,4.79-4.79H136.32a4.79,4.79,0,0,1,4.79,4.79Z" transform="translate(-31.863 -36.059)" fill="#fff"/>
      <path id="패스_1596" data-name="패스 1596" d="M105.572,67.506H73.428a4.79,4.79,0,0,0-4.79,4.79v8.235a4.79,4.79,0,0,0,4.79,4.789h32.143v0a4.79,4.79,0,0,0,4.79-4.79V72.3a4.79,4.79,0,0,0-4.79-4.79" transform="translate(-1.114 -9.765)" fill="#dbdbdb"/>
    </g>
  </g>
</svg>
