<svg id="SIREN_RED_58" data-name="SIREN RED 58" xmlns="http://www.w3.org/2000/svg" width="58" height="58" viewBox="0 0 58 58">
  <g id="그룹_3591" data-name="그룹 3591" transform="translate(6.54 12.779)">
    <g id="그룹_3590" data-name="그룹 3590">
      <g id="그룹_3588" data-name="그룹 3588">
        <path id="패스_1235" data-name="패스 1235" d="M1423.5,1946.539h-1.408a4.938,4.938,0,0,0,.159-1.193v-16.93a13.549,13.549,0,0,0-13.606-13.46h-5.882a13.549,13.549,0,0,0-13.606,13.46v16.93a5.006,5.006,0,0,0,.159,1.193h-1.407a4.434,4.434,0,0,0-4.453,4.4v4.829a4.434,4.434,0,0,0,4.453,4.4H1423.5a4.433,4.433,0,0,0,4.451-4.4v-4.829A4.433,4.433,0,0,0,1423.5,1946.539Zm-30.432-1.193v-16.93a9.655,9.655,0,0,1,9.7-9.591h5.882a9.655,9.655,0,0,1,9.695,9.591v16.93a1.2,1.2,0,0,1-1.206,1.193h-22.86A1.2,1.2,0,0,1,1393.066,1945.346Zm30.972,10.427a.538.538,0,0,1-.54.535h-35.591a.538.538,0,0,1-.541-.535v-4.829a.539.539,0,0,1,.541-.535H1423.5a.539.539,0,0,1,.54.535Z" transform="translate(-1383.454 -1914.955)" fill="#ff3120"/>
      </g>
      <g id="그룹_3589" data-name="그룹 3589" transform="translate(15.758 10.922)">
        <path id="패스_1236" data-name="패스 1236" d="M1401.975,1923.423c-3.578,0-6.489,2.414-6.489,5.382v3.163c0,2.967,2.911,5.382,6.489,5.382s6.491-2.416,6.491-5.382v-3.163C1408.466,1925.838,1405.554,1923.423,1401.975,1923.423Zm2.622,8.544a2.667,2.667,0,0,1-5.242,0v-3.163a2.667,2.667,0,0,1,5.242,0Z" transform="translate(-1395.486 -1923.423)" fill="#ff3120"/>
      </g>
    </g>
  </g>
  <g id="그룹_3592" data-name="그룹 3592" transform="translate(0)">
    <path id="패스_1237" data-name="패스 1237" d="M1400.953,1904.976a1.935,1.935,0,0,0-1.935,1.935v6.038a1.935,1.935,0,0,0,3.869,0v-6.038A1.936,1.936,0,0,0,1400.953,1904.976Z" transform="translate(-1372.166 -1904.976)" fill="#ff3120"/>
    <path id="패스_1238" data-name="패스 1238" d="M1387.974,1910.185a1.935,1.935,0,0,0-2.736,2.737l4.268,4.268a1.935,1.935,0,0,0,2.737-2.736Z" transform="translate(-1376.561 -1903.631)" fill="#ff3120"/>
    <path id="패스_1239" data-name="패스 1239" d="M1386.356,1923.536h-6.038a1.935,1.935,0,0,0,0,3.87h6.038a1.935,1.935,0,0,0,0-3.87Z" transform="translate(-1378.383 -1899.598)" fill="#ff3120"/>
    <path id="패스_1240" data-name="패스 1240" d="M1417.955,1910.185a1.934,1.934,0,0,0-2.735,0l-4.269,4.269a1.934,1.934,0,1,0,2.735,2.736l4.269-4.268A1.935,1.935,0,0,0,1417.955,1910.185Z" transform="translate(-1368.631 -1903.631)" fill="#ff3120"/>
    <path id="패스_1241" data-name="패스 1241" d="M1423.272,1923.536h-6.037a1.935,1.935,0,0,0,0,3.87h6.037a1.935,1.935,0,1,0,0-3.87Z" transform="translate(-1367.207 -1899.598)" fill="#ff3120"/>
  </g>
</svg>
