<svg xmlns="http://www.w3.org/2000/svg" width="50" height="50" viewBox="0 0 50 50">
  <g id="STAR_50_FILLED" data-name="STAR 50 FILLED" transform="translate(-636 -126)">
    <path id="패스_1340" data-name="패스 1340" d="M432.451,1660.36l-.011-.029a5.32,5.32,0,0,0-4.31-3.094c-2.866-.621-5.791-1.111-8.7-1.455-1.472-2.388-3.066-4.746-4.739-7.007-1.156-1.562-2.468-3.067-4.881-3.034a5.6,5.6,0,0,0-4.5,2.843l-.051.069c-1.653,2.267-3.361,4.61-4.812,7.064-2.884.372-5.684.827-8.325,1.353-2.26.44-4.2.98-5.111,3.128a4.571,4.571,0,0,0,1.06,4.933,42.889,42.889,0,0,0,3.491,3.371c.856.765,1.74,1.556,2.554,2.377a61,61,0,0,0-1.076,8.283c-.024.328-.057.665-.089,1.006-.227,2.365-.484,5.047,1.848,6.69a4.59,4.59,0,0,0,2.707.882,9.914,9.914,0,0,0,4.576-1.588c2.767-1.519,5.388-3.265,7.843-4.935,2.391,1.761,4.906,3.429,7.482,4.962,2.314,1.332,4.785,2.313,7.175.506,2.087-1.582,1.881-3.993,1.7-6.121-.022-.256-.043-.511-.061-.758a60.8,60.8,0,0,0-1.112-8.55c.974-1.017,2.008-2.01,3.01-2.972.97-.932,1.974-1.9,2.9-2.855A4.67,4.67,0,0,0,432.451,1660.36Z" transform="translate(251.302 -1515.739)" fill="#ff9888"/>
    <rect id="사각형_829" data-name="사각형 829" width="50" height="50" transform="translate(636 126)" fill="none"/>
  </g>
</svg>
