<svg xmlns="http://www.w3.org/2000/svg" width="50" height="50" viewBox="0 0 50 50">
  <g id="STAR_50_BORDER" data-name="STAR 50 BORDER" transform="translate(-636 -126)">
    <path id="패스_1340" data-name="패스 1340" d="M432.451,1660.359l-.011-.028a5.321,5.321,0,0,0-4.31-3.095c-2.866-.621-5.791-1.11-8.7-1.455-1.472-2.388-3.066-4.746-4.739-7.007-1.156-1.562-2.468-3.067-4.881-3.034a5.6,5.6,0,0,0-4.5,2.842l-.051.069c-1.653,2.267-3.361,4.61-4.812,7.064-2.884.372-5.685.827-8.325,1.353-2.26.44-4.2.98-5.111,3.129a4.571,4.571,0,0,0,1.06,4.933,42.8,42.8,0,0,0,3.491,3.371c.856.765,1.74,1.556,2.554,2.377a60.991,60.991,0,0,0-1.076,8.284c-.024.328-.057.665-.089,1.006-.227,2.365-.484,5.047,1.848,6.69a4.591,4.591,0,0,0,2.707.882,9.914,9.914,0,0,0,4.576-1.588c2.767-1.519,5.388-3.265,7.843-4.935,2.391,1.761,4.906,3.429,7.482,4.963,2.314,1.332,4.785,2.313,7.175.506,2.087-1.582,1.881-3.993,1.7-6.121-.022-.256-.043-.511-.061-.758a60.808,60.808,0,0,0-1.112-8.55c.974-1.017,2.008-2.011,3.01-2.973.971-.932,1.974-1.9,2.9-2.855A4.67,4.67,0,0,0,432.451,1660.359Zm-5.283,3.619-.818.783c-.848.807-1.694,1.614-2.522,2.441-.176.177-.4.373-.634.584a6.2,6.2,0,0,0-2,2.473l-.011.081a8.668,8.668,0,0,0,.507,3.235c.237,1.361.42,2.842.584,4.7a17.935,17.935,0,0,1,.3,4.679c-.111.533-.314.863-.6.982-.685.282-1.95-.468-2.785-.963l-.185-.11c-2.747-1.612-5.371-3.5-7.908-5.328l-.163-.115a1.949,1.949,0,0,0-1.975.016c-1.681,1.148-3.472,2.365-5.289,3.509-.373.235-.8.528-1.247.843-1.385.964-3.108,2.163-4.448,2.346a.928.928,0,0,1-.834-.2c-.833-.77-.494-3.313-.312-4.681.045-.338.083-.626.1-.842a55.9,55.9,0,0,1,.758-6.017l.1-.488c.28-1.367.435-2.12-.81-3.472s-2.654-2.631-4-3.858l-.932-.849c-.1-.092-.215-.191-.337-.3-.9-.774-1.553-1.421-1.053-2.093.41-.553,1.669-.723,2.588-.847.279-.038.536-.072.75-.113,2.714-.52,5.245-.919,7.669-1.216a1.735,1.735,0,0,0,1.685-.923,37.366,37.366,0,0,1,5.524-8.176,1.61,1.61,0,0,1,1.166-.594c.647.056,1.246.915,1.827,1.745.111.16.223.318.333.47.952,1.317,1.88,2.671,2.731,3.97a10.8,10.8,0,0,0,2.273,3.278l.064.051a8.7,8.7,0,0,0,3.749.74c.577.036,1.123.07,1.539.139a43.8,43.8,0,0,1,4.584.859c.643.179,1.435.489,1.563.953.161.588-.681,1.483-1.329,2.106l-.192.185Z" transform="translate(251.302 -1515.739)" fill="#ff9888"/>
    <rect id="사각형_829" data-name="사각형 829" width="50" height="50" transform="translate(636 126)" fill="none"/>
  </g>
</svg>
