<!-- <svg xmlns="http://www.w3.org/2000/svg" width="70" height="70" viewBox="0 0 70 70">
  <g id="TAG_70" data-name="TAG 70" transform="translate(-1577.072 -1688.247)" opacity="0.6">
    <g id="그룹_4732" data-name="그룹 4732">
      <path id="패스_1189" data-name="패스 1189" fill="#000000" d="M1620.841,1712.833a1.153,1.153,0,0,0-.691.351l-.208.194a.632.632,0,0,0-.007.791.6.6,0,0,0,.093.1.8.8,0,0,0,1.014.166.969.969,0,0,0,.213-1.233A.559.559,0,0,0,1620.841,1712.833Z"/>
      <path id="패스_1190" data-name="패스 1190"  fill="#000000" d="M1628.17,1706.115c-1.51-.067-3.032-.1-4.537-.1-2.238.005-4.508.077-6.745.215h-.007c-1.142.068-2.284.154-3.424.267l-.077.007-.078,0a2.14,2.14,0,0,0-1.852.909l-.089.112c-1.176,1.274-2.336,2.554-3.5,3.833l-12.451,13.67A23.76,23.76,0,0,0,1592.7,1728l-.145.19-.216.1-.018.009,15.028,14.061c.135.126.332.337.561.587a8.57,8.57,0,0,0,1.7,1.552,9.438,9.438,0,0,0,1.456-1.821c.2-.293.372-.547.507-.72l11.876-15.092c.407-.519.877-1.054,1.361-1.607,1.411-1.607,3.01-3.429,3.281-5.254a59.129,59.129,0,0,0,.053-7.96Zm-3.757,12.157a5.656,5.656,0,0,1-3.694,1.373h-.025a6.2,6.2,0,0,1-4.115-1.612l-.018,0-.235-.237a5.768,5.768,0,0,1,.125-8.155,5.646,5.646,0,0,1,3.9-1.9,5.645,5.645,0,0,1,4.763,2.117A6.07,6.07,0,0,1,1624.413,1718.272Z"/>
      <path id="패스_1191" data-name="패스 1191"  fill="#000000" d="M1620.822,1688.247h-17.5a26.25,26.25,0,0,0-26.25,26.25V1732a26.251,26.251,0,0,0,26.25,26.25h17.5a26.25,26.25,0,0,0,26.25-26.25v-17.5A26.249,26.249,0,0,0,1620.822,1688.247Zm12.245,33.132-.036.181a13.511,13.511,0,0,1-3.345,5.629l-14.648,18.617c-1.545,1.966-3.289,3.784-5.57,3.784a5.355,5.355,0,0,1-3.483-1.5c-2.536-2.182-4.992-4.541-7.366-6.824-1.2-1.153-2.4-2.3-3.607-3.435l-1.851-1.723c-1.34-1.245-2.68-2.49-4.005-3.751l-.211-.2c-.945-.889-2.24-2.106-2.14-3.91.108-1.843,1.584-3.3,2.77-4.472.277-.272.54-.531.763-.776l15.606-17.128c.291-.319.572-.666.858-1.017,1.1-1.357,2.355-2.894,4.338-3.227a58.629,58.629,0,0,1,6.536-.561,109.92,109.92,0,0,1,13.135.081,2.681,2.681,0,0,1,.923.237,2.417,2.417,0,0,1,1.57,2.371l-.053,9.293A50.276,50.276,0,0,1,1633.067,1721.379Z"/>
    </g>
  </g>
</svg> -->
<svg xmlns="http://www.w3.org/2000/svg" xmlns:xlink="http://www.w3.org/1999/xlink" width="66" height="66" viewBox="0 0 66 66">
  <defs>
    <clipPath id="clip-path">
      <rect id="사각형_1578" data-name="사각형 1578" width="66" height="66" fill="none"/>
    </clipPath>
    <clipPath id="clip-path-4">
      <rect id="사각형_1828" data-name="사각형 1828" width="39.835" height="41.75" fill="none"/>
    </clipPath>
  </defs>
  <g id="그룹_7798" data-name="그룹 7798" transform="translate(-68 -2391)">
    <g id="그룹_7795" data-name="그룹 7795" transform="translate(68 2391)">
      <g id="그룹_6549" data-name="그룹 6549" clip-path="url(#clip-path)">
        <g id="그룹_6548" data-name="그룹 6548">
          <g id="그룹_6547" data-name="그룹 6547" clip-path="url(#clip-path)">
            <g id="그룹_6546" data-name="그룹 6546" opacity="0.4" style="isolation: isolate">
              <g id="그룹_6545" data-name="그룹 6545">
                <g id="그룹_6544" data-name="그룹 6544" clip-path="url(#clip-path)">
                  <path id="패스_1700" data-name="패스 1700" d="M30,0h6A30,30,0,0,1,66,30v6A30,30,0,0,1,36,66H30A30,30,0,0,1,0,36V30A30,30,0,0,1,30,0" fill="#070203"/>
                </g>
              </g>
            </g>
          </g>
        </g>
      </g>
    </g>
    <g id="그룹_7797" data-name="그룹 7797" transform="translate(79.082 2405.125)">
      <g id="그룹_7796" data-name="그룹 7796" clip-path="url(#clip-path-4)">
        <path id="패스_1971" data-name="패스 1971" d="M39.751,9.964l.05-8.3A1.286,1.286,0,0,0,38.979.373,1.679,1.679,0,0,0,38.388.21C36.264.07,34.122,0,31.979,0,30.237,0,28.5.045,26.764.139A51.987,51.987,0,0,0,21,.632C19.563.875,18.6,2.056,17.679,3.2c-.307.377-.548.672-.8.95L2.938,19.45c-.207.226-.447.464-.722.734C1.217,21.172.083,22.294,0,23.6c-.066,1.2.839,2.05,1.636,2.8l.2.2C2.947,27.651,4.09,28.713,5.2,29.744l1.86,1.729c1.092,1.028,2.179,2.063,3.234,3.081,2.033,1.955,4.281,4.115,6.539,6.062a3.961,3.961,0,0,0,2.591,1.134c1.626,0,3-1.465,4.242-3.046L36.822,21.987A11.252,11.252,0,0,0,39.58,17.36l.024-.122a44.171,44.171,0,0,0,.149-7.206Zm-2.866,6.351c-.281,1.884-1.8,3.614-3.139,5.141-.461.527-.845.965-1.185,1.4L21.949,36.339c-.1.126-.22.306-.361.513l-.061.089c-.985,1.01-1.355,1.487-1.989,1.646-.666.166-1.751-.784-2.223-1.347-.148-.166-.309-.337-.423-.443,0,0-13.347-11.858-13.781-13.077-.141-.4.63-1.089.63-1.089.919-.871,1.645-1.645,2.494-2.607L17.787,7.335c.877-.966,1.755-1.931,2.648-2.9l.038-.052a2.731,2.731,0,0,1,2.374-1.133l.066-.007c.929-.092,1.969-.174,3.047-.238,2.016-.125,4.061-.19,6.075-.194,1.322,0,2.658.028,3.972.085l.961.041-.026,6.15a66.094,66.094,0,0,1-.067,7.225Z" fill="#fff"/>
        <path id="패스_1972" data-name="패스 1972" d="M26.138,13.607l.077.078.138.122a4.693,4.693,0,0,0,3.088,1.186,4.177,4.177,0,0,0,2.72-1.015,4.526,4.526,0,0,0,.519-6.3l-.009-.011A4.173,4.173,0,0,0,26.284,7.5a4.305,4.305,0,0,0-.146,6.106m1.9-3.876.292-.285a1.853,1.853,0,0,1,1.05-.528l.207-.033.2.055a1.376,1.376,0,0,1,.915.806,1.739,1.739,0,0,1-.416,2.124l-.152.107a1.554,1.554,0,0,1-.776.2,1.622,1.622,0,0,1-1.147-.477l-.195-.218a1.432,1.432,0,0,1,.019-1.756" fill="#fff"/>
      </g>
    </g>
  </g>
</svg>
