<svg xmlns="http://www.w3.org/2000/svg" width="70" height="70" viewBox="0 0 70 70">
  <g id="TAG_70" data-name="TAG 70" transform="translate(-1577.072 -1688.247)" opacity="0.6">
    <g id="그룹_4732" data-name="그룹 4732">
      <path id="패스_1189" data-name="패스 1189" fill="#FFFFFF" d="M1620.841,1712.833a1.153,1.153,0,0,0-.691.351l-.208.194a.632.632,0,0,0-.007.791.6.6,0,0,0,.093.1.8.8,0,0,0,1.014.166.969.969,0,0,0,.213-1.233A.559.559,0,0,0,1620.841,1712.833Z"/>
      <path id="패스_1190" data-name="패스 1190"  fill="#FFFFFF" d="M1628.17,1706.115c-1.51-.067-3.032-.1-4.537-.1-2.238.005-4.508.077-6.745.215h-.007c-1.142.068-2.284.154-3.424.267l-.077.007-.078,0a2.14,2.14,0,0,0-1.852.909l-.089.112c-1.176,1.274-2.336,2.554-3.5,3.833l-12.451,13.67A23.76,23.76,0,0,0,1592.7,1728l-.145.19-.216.1-.018.009,15.028,14.061c.135.126.332.337.561.587a8.57,8.57,0,0,0,1.7,1.552,9.438,9.438,0,0,0,1.456-1.821c.2-.293.372-.547.507-.72l11.876-15.092c.407-.519.877-1.054,1.361-1.607,1.411-1.607,3.01-3.429,3.281-5.254a59.129,59.129,0,0,0,.053-7.96Zm-3.757,12.157a5.656,5.656,0,0,1-3.694,1.373h-.025a6.2,6.2,0,0,1-4.115-1.612l-.018,0-.235-.237a5.768,5.768,0,0,1,.125-8.155,5.646,5.646,0,0,1,3.9-1.9,5.645,5.645,0,0,1,4.763,2.117A6.07,6.07,0,0,1,1624.413,1718.272Z"/>
      <path id="패스_1191" data-name="패스 1191"  fill="#FFFFFF" d="M1620.822,1688.247h-17.5a26.25,26.25,0,0,0-26.25,26.25V1732a26.251,26.251,0,0,0,26.25,26.25h17.5a26.25,26.25,0,0,0,26.25-26.25v-17.5A26.249,26.249,0,0,0,1620.822,1688.247Zm12.245,33.132-.036.181a13.511,13.511,0,0,1-3.345,5.629l-14.648,18.617c-1.545,1.966-3.289,3.784-5.57,3.784a5.355,5.355,0,0,1-3.483-1.5c-2.536-2.182-4.992-4.541-7.366-6.824-1.2-1.153-2.4-2.3-3.607-3.435l-1.851-1.723c-1.34-1.245-2.68-2.49-4.005-3.751l-.211-.2c-.945-.889-2.24-2.106-2.14-3.91.108-1.843,1.584-3.3,2.77-4.472.277-.272.54-.531.763-.776l15.606-17.128c.291-.319.572-.666.858-1.017,1.1-1.357,2.355-2.894,4.338-3.227a58.629,58.629,0,0,1,6.536-.561,109.92,109.92,0,0,1,13.135.081,2.681,2.681,0,0,1,.923.237,2.417,2.417,0,0,1,1.57,2.371l-.053,9.293A50.276,50.276,0,0,1,1633.067,1721.379Z"/>
    </g>
  </g>
</svg>
