<svg xmlns="http://www.w3.org/2000/svg" xmlns:xlink="http://www.w3.org/1999/xlink" width="64" height="54" viewBox="0 0 64 54">
  <defs>
    <clipPath id="clip-path">
      <rect id="사각형_1679" data-name="사각형 1679" width="60.753" height="38.433"/>
    </clipPath>
  </defs>
  <g id="그룹_7059" data-name="그룹 7059" transform="translate(-343 -577)">
    <g id="그룹_6959" data-name="그룹 6959" transform="translate(344.623 584.783)">
      <g id="그룹_6958" data-name="그룹 6958" clip-path="url(#clip-path)">
        <path id="패스_1914" data-name="패스 1914" d="M60.736,5.187a5.355,5.355,0,0,0-.939-3.3l.03-.024-.265-.3C58.113-.039,55.418-.1,52.724.063L23.962,1.831a15.279,15.279,0,0,0-7.269,1.4l-.087.058A59.922,59.922,0,0,0,9.195,9.618L.624,17.178A1.63,1.63,0,0,0,.107,19.03a2.253,2.253,0,0,0,.368.746c1.744,2.238,3.62,4.487,5.575,6.686,1.571,1.76,3.2,3.494,4.842,5.147a70.966,70.966,0,0,0,5.717,5.405c1.514,1.218,3.641,1.108,5.525,1.016.627-.026,1.073-.044,1.51-.044l28.3.305c.409,0,.847.031,1.413.069s1.188.073,1.807.073a5.748,5.748,0,0,0,3.573-.9c1.243-.988,1.289-2.723,1.326-4.116l.011-.361c.07-2.112.114-4.26.157-6.335l.071-3.376c.049-1.754.11-3.624.2-6.07.143-3.761.3-8.025.233-12.084M55.948,3.473h0a1.265,1.265,0,0,1,1.165,1.071V4.6c0,.321-.012.617-.021.965-.018.677-.034,1.317-.015,2.194h0c-.03.316-.058.607-.062.8l-.688,25.109A1.032,1.032,0,0,1,55.3,34.672l-.722.007a12.234,12.234,0,0,1-1.285,0c-.314-.01-.64-.015-.988-.015-.18,0-.367,0-.562,0a21.306,21.306,0,0,1-2.23-.055l-23.322-.241c-1.759-.017-3.518-.034-5.353-.058a3.808,3.808,0,0,1-3.409-1.425c-.9-.827-1.868-1.752-3.038-2.912-1.953-1.938-3.871-3.955-5.7-5.994-1.245-1.4-2.46-2.822-3.613-4.235l-.709-.875a.114.114,0,0,1,.015-.161l6.243-5.521A72.86,72.86,0,0,1,17.99,6.737c2.219-1.458,5.356-1.481,8.124-1.5.882-.006,1.716-.012,2.5-.062L51.875,3.741c.19-.011.453-.046.815-.093.774-.082,1.341-.1,1.941-.123.4-.014.781-.029,1.207-.056m1.443,4.285v0l-.034,0Z"  />
        <path id="패스_1915" data-name="패스 1915" d="M23.409,15.631a5.612,5.612,0,0,0-3.45-1.831,6.448,6.448,0,0,0-.771-.048,6.012,6.012,0,0,0-5.976,5.128,5.593,5.593,0,0,0,4.551,6.46,5.463,5.463,0,0,0,.907.081h0c.158.012.318.019.476.019a5.915,5.915,0,0,0,3.812-1.392,5.671,5.671,0,0,0,1.984-3.91l.009-.272a6.317,6.317,0,0,0-1.542-4.232Zm-6.494,3.314A2.442,2.442,0,0,1,19.54,17.4l.143.028a2.353,2.353,0,0,1,1.084.67,2.305,2.305,0,0,1,.558,1.769,1.415,1.415,0,0,1-.038.3l0,.016a2.03,2.03,0,0,1-1.946,1.628l-.493-.037a2.64,2.64,0,0,1-1.583-.637l-.209-.2-.081-.143a1.974,1.974,0,0,1-.056-1.847"  />
      </g>
    </g>
    <rect id="사각형_1711" data-name="사각형 1711" width="64" height="54" transform="translate(343 577)" fill="none"/>
  </g>
</svg>
