<svg xmlns="http://www.w3.org/2000/svg" width="48" height="48" viewBox="0 0 48 48">
  <g id="TELEPHONE_48" data-name="TELEPHONE 48" transform="translate(-646.949 -1803.367)">
    <path id="사각형_152" data-name="사각형 152" d="M20,0h8A20,20,0,0,1,48,20v8A20,20,0,0,1,28,48H20A20,20,0,0,1,0,28V20A20,20,0,0,1,20,0Z" transform="translate(646.949 1803.367)" fill="#ff9888"/>
    <path id="Icon_-_Call-2" data-name="Icon - Call-2" d="M658.287,1826.433c2.906,6.034,8.829,11.789,15.247,13.953,2.725.92,6.078,1.131,8.639-.375a4.9,4.9,0,0,0,2.5-3.218c.264-1.517-.6-2.621-1.579-3.652a39.488,39.488,0,0,0-3.349-3.255,3.123,3.123,0,0,0-2.415-1.051c-1.729.243-2.207,2.449-3.866,2.315a7.088,7.088,0,0,1-4.714-2.091c-1.059-1.128-3.22-4.647-1.658-6.143.981-.94,2.383-1.759,1.787-3.431-.423-1.188-1.721-2.275-2.581-3.143a12.371,12.371,0,0,0-3.425-2.937c-3.24-1.372-5.608,2.308-6.046,5.015A13.557,13.557,0,0,0,658.287,1826.433Z" transform="translate(0.225 0.258)" fill="#fff"/>
  </g>
</svg>
