<svg xmlns="http://www.w3.org/2000/svg" width="48" height="48" viewBox="0 0 48 48">
  <g id="TEXT_BALLOON_48" data-name="TEXT BALLOON 48" transform="translate(-652.5 -1864.242)">
    <g id="그룹_4225" data-name="그룹 4225" transform="translate(0)">
      <rect id="사각형_152" data-name="사각형 152" width="48" height="48" rx="20" transform="translate(652.501 1864.242)" fill="#ff9888"/>
    </g>
    <path id="패스_1321" data-name="패스 1321" d="M689.811,1881.871c-3.608-4.307-8.92-5.212-12.741-5.212a25.982,25.982,0,0,0-2.711.146c-5.642.6-12.127,3.438-13.406,9.608-1.32,6.366,3.318,11.573,8.461,13.373.9,1.911,1.1,2.98,2.146,4.23a1.873,1.873,0,0,0,2.285.423c1.163-.683,1.941-2.066,2.98-3.43a32.309,32.309,0,0,0,6.092-.753,14.6,14.6,0,0,0,6.009-2.609,10.173,10.173,0,0,0,3.757-7.093A12.044,12.044,0,0,0,689.811,1881.871Z" transform="translate(-0.225 -2.417)" fill="#fff"/>
  </g>
</svg>
