<svg xmlns="http://www.w3.org/2000/svg" width="118.545" height="92.327" viewBox="0 0 118.545 92.327">
  <g id="그룹_5820" data-name="그룹 5820" transform="translate(-307.717 -649.672)">
    <g id="그룹_5818" data-name="그룹 5818" transform="translate(6.262 20)">
      <path id="패스_1397" data-name="패스 1397" d="M3542.424,1959.415l-3.095-4.443a22.853,22.853,0,0,0-4.241-5.967c-3.85-3.769-11.036-4.514-15.527,2.061-1.538,2.2-4.043,6.784-6.323,8.6a10.447,10.447,0,0,0-4.155,9.555c.263,4.829,4.164,8.3,8.857,8.8,3.786.4,6.035-2.186,11.722-2.792,4.651-.154,9.409,3.745,14.043.614,4.631-4.3,4.59-10.4.856-14.221Z" transform="translate(-3535.168 -212.216) rotate(-16)" fill="#ff9888"/>
      <path id="패스_1398" data-name="패스 1398" d="M3515.508,1959.556a5.744,5.744,0,0,0,6.1-2.521c3.226-4.381,3.054-9.112,1.064-13.778-2.02-4.719-6.7-4.983-9.608-.718a11.414,11.414,0,0,0-2.485,7.154,11.932,11.932,0,0,0,.516,5.686A5.21,5.21,0,0,0,3515.508,1959.556Z" transform="translate(-3536.15 -225.496) rotate(-16)" fill="#ff9888"/>
      <path id="패스_1399" data-name="패스 1399" d="M3523.987,1957.836c2.533-.5,3.733-2.073,4.045-5.545a11.586,11.586,0,0,0-.026-4.8c-1.063-2.839-.915-6.709-4.784-7.7-4.9-1.247-7.719,1.411-7.836,7.093-.079,4.021.09,5.093,1.15,7.335C3518.074,1957.48,3520.321,1958.57,3523.987,1957.836Z" transform="translate(-3526.26 -228.396) rotate(-16)" fill="#ff9888"/>
      <path id="패스_1400" data-name="패스 1400" d="M3519.029,1958.113c1.825-5.026.261-11.91-3.273-13.1-3.38-1.147-8.072,3.938-9.261,7.484a8.347,8.347,0,0,0,4.957,10.16C3514.018,1963.624,3517.858,1961.329,3519.029,1958.113Z" transform="translate(-3542.656 -212.722) rotate(-16)" fill="#ff9888"/>
      <path id="패스_1401" data-name="패스 1401" d="M3525.528,1944.1c-2.476-.294-3.228,1.108-4.464,3.217-2.105,3.049-1.729,6.226-.789,9.385a10.249,10.249,0,0,0,1.2,1.874,6.087,6.087,0,0,0,3.522,2.34c1.283.3,2.475.549,3.544-.868a12.452,12.452,0,0,0,2.772-11.194A7.213,7.213,0,0,0,3525.528,1944.1Z" transform="translate(-3515.422 -222.138) rotate(-16)" fill="#ff9888"/>
    </g>
    <g id="그룹_5819" data-name="그룹 5819" transform="matrix(0.921, 0.391, -0.391, 0.921, 244.836, -113.95)">
      <path id="패스_1397-2" data-name="패스 1397" d="M3542.424,1959.415l-3.095-4.443a22.853,22.853,0,0,0-4.241-5.967c-3.85-3.769-11.036-4.514-15.527,2.061-1.538,2.2-4.043,6.784-6.323,8.6a10.447,10.447,0,0,0-4.155,9.555c.263,4.829,4.164,8.3,8.857,8.8,3.786.4,6.035-2.186,11.722-2.792,4.651-.154,9.409,3.745,14.043.614,4.631-4.3,4.59-10.4.856-14.221Z" transform="translate(-3535.168 -212.216) rotate(-16)" fill="#ff9888"/>
      <path id="패스_1398-2" data-name="패스 1398" d="M3515.508,1959.556a5.744,5.744,0,0,0,6.1-2.521c3.226-4.381,3.054-9.112,1.064-13.778-2.02-4.719-6.7-4.983-9.608-.718a11.414,11.414,0,0,0-2.485,7.154,11.932,11.932,0,0,0,.516,5.686A5.21,5.21,0,0,0,3515.508,1959.556Z" transform="translate(-3536.15 -225.496) rotate(-16)" fill="#ff9888"/>
      <path id="패스_1399-2" data-name="패스 1399" d="M3523.987,1957.836c2.533-.5,3.733-2.073,4.045-5.545a11.586,11.586,0,0,0-.026-4.8c-1.063-2.839-.915-6.709-4.784-7.7-4.9-1.247-7.719,1.411-7.836,7.093-.079,4.021.09,5.093,1.15,7.335C3518.074,1957.48,3520.321,1958.57,3523.987,1957.836Z" transform="translate(-3526.26 -228.396) rotate(-16)" fill="#ff9888"/>
      <path id="패스_1400-2" data-name="패스 1400" d="M3519.029,1958.113c1.825-5.026.261-11.91-3.273-13.1-3.38-1.147-8.072,3.938-9.261,7.484a8.347,8.347,0,0,0,4.957,10.16C3514.018,1963.624,3517.858,1961.329,3519.029,1958.113Z" transform="translate(-3542.656 -212.722) rotate(-16)" fill="#ff9888"/>
      <path id="패스_1401-2" data-name="패스 1401" d="M3525.528,1944.1c-2.476-.294-3.228,1.108-4.464,3.217-2.105,3.049-1.729,6.226-.789,9.385a10.249,10.249,0,0,0,1.2,1.874,6.087,6.087,0,0,0,3.522,2.34c1.283.3,2.475.549,3.544-.868a12.452,12.452,0,0,0,2.772-11.194A7.213,7.213,0,0,0,3525.528,1944.1Z" transform="translate(-3515.422 -222.138) rotate(-16)" fill="#ff9888"/>
    </g>
  </g>
</svg>
