<svg xmlns="http://www.w3.org/2000/svg" xmlns:xlink="http://www.w3.org/1999/xlink" width="130" height="130" viewBox="0 0 130 130">
  <defs>
    <filter id="패스_1188" x="0" y="0" width="130" height="130" filterUnits="userSpaceOnUse">
      <feOffset dx="3" dy="3" input="SourceAlpha"/>
      <feGaussianBlur stdDeviation="3" result="blur"/>
      <feFlood flood-opacity="0.302"/>
      <feComposite operator="in" in2="blur"/>
      <feComposite in="SourceGraphic"/>
    </filter>
    <clipPath id="clip-path">
      <rect id="사각형_1535" data-name="사각형 1535" width="58" height="58" fill="#ff3120"/>
    </clipPath>
  </defs>
  <g id="그룹_3623" data-name="그룹 3623" transform="translate(-609 -1463)">
    <g transform="matrix(1, 0, 0, 1, 609, 1463)" filter="url(#패스_1188)">
      <path id="패스_1188-2" data-name="패스 1188" d="M41.4,0H68.6A41.4,41.4,0,0,1,110,41.4V68.6A41.4,41.4,0,0,1,68.6,110H41.4A41.4,41.4,0,0,1,0,68.6V41.4A41.4,41.4,0,0,1,41.4,0Z" transform="translate(7 7)" fill="#fff" stroke="#ff3120" stroke-width="2"/>
    </g>
    <text id="긴급_게시" data-name="긴급 게시" transform="translate(630 1538)" fill="#ff3120" font-size="20" font-family="NotoSansKR-Bold, Noto Sans KR" font-weight="700" letter-spacing="-0.025em"><tspan x="2.93" y="23">긴급 게시</tspan></text>
    <g id="그룹_6353" data-name="그룹 6353" transform="translate(642 1480)">
      <g id="그룹_6352" data-name="그룹 6352" transform="translate(0 0)" clip-path="url(#clip-path)">
        <path id="패스_1644" data-name="패스 1644" d="M46.7,44.642H44.933l.083-.317a4.774,4.774,0,0,0,.151-1.142V26.107A13.438,13.438,0,0,0,31.753,12.78H25.705A13.439,13.439,0,0,0,12.29,26.109V43.186a4.815,4.815,0,0,0,.153,1.14l.081.316H10.78a4.218,4.218,0,0,0-4.24,4.189V53.7a4.229,4.229,0,0,0,4.221,4.188H46.7a4.229,4.229,0,0,0,4.22-4.19v-4.87A4.227,4.227,0,0,0,46.7,44.642M15.73,42.94V26.107a10.016,10.016,0,0,1,10.038-9.928H31.74A10.009,10.009,0,0,1,41.731,26.1V43.186a1.465,1.465,0,0,1-1.462,1.456H17.186A1.462,1.462,0,0,1,15.728,43.2l0-.255ZM47.476,53.706a.8.8,0,0,1-.8.791h-35.9a.8.8,0,0,1-.793-.79V48.834a.8.8,0,0,1,.8-.792h35.9a.8.8,0,0,1,.8.79Z" transform="translate(0.057 0.113)" fill="#ff3120"/>
        <path id="패스_1645" data-name="패스 1645" d="M28.589,37.247c3.47,0,6.294-2.322,6.294-5.177V28.878c0-2.855-2.824-5.177-6.294-5.177S22.3,26.023,22.3,28.878v3.191c0,2.855,2.823,5.177,6.294,5.177m-1.659-10.3a2.942,2.942,0,0,1,4.551,1.887l.005,3.262-.005.022a2.942,2.942,0,0,1-5.783,0l-.005-3.237a2.932,2.932,0,0,1,1.237-1.933" transform="translate(0.194 0.209)" fill="#ff3120"/>
        <path id="패스_1646" data-name="패스 1646" d="M28.549,9.447h.038a1.7,1.7,0,0,0,1.66-1.662V1.7a1.7,1.7,0,0,0-3.4,0V7.79a1.7,1.7,0,0,0,1.7,1.657" transform="translate(0.233 0)" fill="#ff3120"/>
        <path id="패스_1647" data-name="패스 1647" d="M12.91,13.2a1.7,1.7,0,1,0,2.4-2.4L11.009,6.485a1.7,1.7,0,0,0-2.4,2.4Z" transform="translate(0.071 0.053)" fill="#ff3120"/>
        <path id="패스_1648" data-name="패스 1648" d="M7.787,23.938H1.7a1.7,1.7,0,0,0,0,3.4H7.787a1.7,1.7,0,0,0,0-3.4" transform="translate(0 0.211)" fill="#ff3120"/>
        <path id="패스_1649" data-name="패스 1649" d="M44.65,13.2l4.306-4.306a1.7,1.7,0,0,0,0-2.4h0a1.7,1.7,0,0,0-2.4,0l-4.306,4.307a1.7,1.7,0,1,0,2.4,2.4" transform="translate(0.363 0.053)" fill="#ff3120"/>
        <path id="패스_1650" data-name="패스 1650" d="M49.79,23.938a1.7,1.7,0,0,0,0,3.4h6.094a1.7,1.7,0,0,0,0-3.4h-6.1Z" transform="translate(0.418 0.211)" fill="#ff3120"/>
      </g>
    </g>
  </g>
</svg>
