<!-- <svg id="urgent_write2" xmlns="http://www.w3.org/2000/svg" width="110" height="110" viewBox="0 0 110 110">
  <path id="패스_1188" data-name="패스 1188" d="M41.4,0H68.6A41.4,41.4,0,0,1,110,41.4V68.6A41.4,41.4,0,0,1,68.6,110H41.4A41.4,41.4,0,0,1,0,68.6V41.4A41.4,41.4,0,0,1,41.4,0Z" fill="#ff3120"/>
  <g id="그룹_3594" data-name="그룹 3594" transform="translate(26 10)">
    <g id="그룹_3593" data-name="그룹 3593">
      <g id="그룹_3591" data-name="그룹 3591" transform="translate(6.54 12.779)">
        <g id="그룹_3590" data-name="그룹 3590">
          <g id="그룹_3588" data-name="그룹 3588">
            <path id="패스_1235" data-name="패스 1235" d="M1423.5,1946.539h-1.408a4.938,4.938,0,0,0,.159-1.193v-16.93a13.549,13.549,0,0,0-13.606-13.46h-5.882a13.549,13.549,0,0,0-13.606,13.46v16.93a5.006,5.006,0,0,0,.159,1.193h-1.407a4.434,4.434,0,0,0-4.453,4.4v4.829a4.434,4.434,0,0,0,4.453,4.4H1423.5a4.433,4.433,0,0,0,4.451-4.4v-4.829A4.433,4.433,0,0,0,1423.5,1946.539Zm-30.432-1.193v-16.93a9.655,9.655,0,0,1,9.7-9.591h5.882a9.655,9.655,0,0,1,9.695,9.591v16.93a1.2,1.2,0,0,1-1.206,1.193h-22.86A1.2,1.2,0,0,1,1393.066,1945.346Zm30.972,10.427a.538.538,0,0,1-.54.535h-35.591a.538.538,0,0,1-.541-.535v-4.829a.539.539,0,0,1,.541-.535H1423.5a.539.539,0,0,1,.54.535Z" transform="translate(-1383.454 -1914.955)" fill="#fff"/>
          </g>
          <g id="그룹_3589" data-name="그룹 3589" transform="translate(15.758 10.922)">
            <path id="패스_1236" data-name="패스 1236" d="M1401.975,1923.423c-3.578,0-6.489,2.414-6.489,5.382v3.163c0,2.967,2.911,5.382,6.489,5.382s6.491-2.416,6.491-5.382v-3.163C1408.466,1925.838,1405.554,1923.423,1401.975,1923.423Zm2.622,8.544a2.667,2.667,0,0,1-5.242,0v-3.163a2.667,2.667,0,0,1,5.242,0Z" transform="translate(-1395.486 -1923.423)" fill="#fff"/>
          </g>
        </g>
      </g>
      <g id="그룹_3592" data-name="그룹 3592" transform="translate(0)">
        <path id="패스_1237" data-name="패스 1237" d="M1400.953,1904.976a1.935,1.935,0,0,0-1.935,1.935v6.038a1.935,1.935,0,0,0,3.869,0v-6.038A1.936,1.936,0,0,0,1400.953,1904.976Z" transform="translate(-1372.166 -1904.976)" fill="#fff"/>
        <path id="패스_1238" data-name="패스 1238" d="M1387.974,1910.185a1.935,1.935,0,0,0-2.736,2.737l4.268,4.268a1.935,1.935,0,0,0,2.737-2.736Z" transform="translate(-1376.561 -1903.631)" fill="#fff"/>
        <path id="패스_1239" data-name="패스 1239" d="M1386.356,1923.536h-6.038a1.935,1.935,0,0,0,0,3.87h6.038a1.935,1.935,0,0,0,0-3.87Z" transform="translate(-1378.383 -1899.598)" fill="#fff"/>
        <path id="패스_1240" data-name="패스 1240" d="M1417.955,1910.185a1.934,1.934,0,0,0-2.735,0l-4.269,4.269a1.934,1.934,0,1,0,2.735,2.736l4.269-4.268A1.935,1.935,0,0,0,1417.955,1910.185Z" transform="translate(-1368.631 -1903.631)" fill="#fff"/>
        <path id="패스_1241" data-name="패스 1241" d="M1423.272,1923.536h-6.037a1.935,1.935,0,0,0,0,3.87h6.037a1.935,1.935,0,1,0,0-3.87Z" transform="translate(-1367.207 -1899.598)" fill="#fff"/>
      </g>
    </g>
  </g>
  <text id="긴급_게시" data-name="긴급 게시" transform="translate(14 68)" fill="#fff" font-size="20" font-family="NotoSansKR-Bold, Noto Sans KR" font-weight="700" letter-spacing="-0.025em"><tspan x="2.93" y="23">긴급 게시</tspan></text>
</svg> -->
<svg xmlns="http://www.w3.org/2000/svg" xmlns:xlink="http://www.w3.org/1999/xlink" width="98" height="86" viewBox="0 0 98 86">
  <defs>
    <clipPath id="clip-path">
      <rect id="사각형_1693" data-name="사각형 1693" width="34.418" height="34.413" fill="#fff"/>
    </clipPath>
  </defs>
  <g id="그룹_7013" data-name="그룹 7013" transform="translate(-618 -1332)">
    <rect id="사각형_1692" data-name="사각형 1692" width="98" height="86" rx="30" transform="translate(618 1332)" fill="#ff3120"/>
    <g id="그룹_7012" data-name="그룹 7012" transform="translate(649.791 1341.587)">
      <g id="그룹_7011" data-name="그룹 7011" transform="translate(0 0)" clip-path="url(#clip-path)">
        <path id="패스_1916" data-name="패스 1916" d="M30.37,31.685H29.323l.049-.188a2.833,2.833,0,0,0,.09-.678V20.687A7.974,7.974,0,0,0,21.5,12.78H17.913a7.974,7.974,0,0,0-7.961,7.908V30.821a2.857,2.857,0,0,0,.091.676l.048.187H9.056A2.5,2.5,0,0,0,6.54,34.17v2.889a2.51,2.51,0,0,0,2.505,2.485H30.369a2.509,2.509,0,0,0,2.5-2.486V34.169a2.508,2.508,0,0,0-2.5-2.484m-18.376-1.01V20.687A5.943,5.943,0,0,1,17.95,14.8h3.544a5.939,5.939,0,0,1,5.929,5.889V30.821a.869.869,0,0,1-.867.864h-13.7a.867.867,0,0,1-.865-.858v-.151Zm18.838,6.388a.476.476,0,0,1-.473.469H9.052a.472.472,0,0,1-.47-.469V34.172a.474.474,0,0,1,.472-.47h21.3a.473.473,0,0,1,.473.469Z" transform="translate(-2.625 -5.13)" fill="#fff"/>
        <path id="패스_1917" data-name="패스 1917" d="M26.03,31.738c2.059,0,3.735-1.378,3.735-3.072V26.773c0-1.694-1.676-3.072-3.735-3.072S22.3,25.079,22.3,26.773v1.893c0,1.694,1.675,3.072,3.735,3.072m-.985-6.113a1.746,1.746,0,0,1,2.7,1.119l0,1.935,0,.013a1.746,1.746,0,0,1-3.432,0l0-1.921a1.739,1.739,0,0,1,.734-1.147" transform="translate(-8.95 -9.514)" fill="#fff"/>
        <path id="패스_1918" data-name="패스 1918" d="M27.858,5.6h.023a1.007,1.007,0,0,0,.985-.986V1.008a1.008,1.008,0,0,0-2.017,0V4.622a1.009,1.009,0,0,0,1.009.983" transform="translate(-10.778 0)" fill="#fff"/>
        <path id="패스_1919" data-name="패스 1919" d="M10.958,10.264a1.009,1.009,0,0,0,1.427-1.426L9.83,6.283A1.009,1.009,0,0,0,8.4,7.709Z" transform="translate(-3.255 -2.404)" fill="#fff"/>
        <path id="패스_1920" data-name="패스 1920" d="M4.621,23.938H1.007a1.009,1.009,0,0,0,0,2.017H4.621a1.009,1.009,0,0,0,0-2.017" transform="translate(0 -9.61)" fill="#fff"/>
        <path id="패스_1921" data-name="패스 1921" d="M43.471,10.264l2.555-2.555a1.01,1.01,0,0,0,0-1.426h0a1.009,1.009,0,0,0-1.426,0L42.045,8.838a1.008,1.008,0,0,0,1.426,1.426" transform="translate(-16.76 -2.404)" fill="#fff"/>
        <path id="패스_1922" data-name="패스 1922" d="M49.1,23.938a1.009,1.009,0,0,0,0,2.017h3.616a1.009,1.009,0,0,0,0-2.017H49.1Z" transform="translate(-19.306 -9.61)" fill="#fff"/>
      </g>
    </g>
    <text id="긴급게시" transform="translate(626 1376)" fill="#fff" font-size="20" font-family="NotoSansKR-Regular, Noto Sans CJK KR" letter-spacing="-0.025em"><tspan x="4.95" y="23">긴급게시</tspan></text>
  </g>
</svg>
