<svg xmlns="http://www.w3.org/2000/svg" width="72" height="72.002" viewBox="0 0 72 72.002">
  <g id="그룹_7900" data-name="그룹 7900" transform="translate(0 -0.002)">
    <g id="그룹_7898" data-name="그룹 7898">
      <path id="패스_2055" data-name="패스 2055" d="M70.945,29.825A42.746,42.746,0,0,0,48.486,2.84C36.975-2.66,21.469.224,12.6,8.091.383,18.924-3.855,36.769,3.929,52.03,8.9,61.78,16.554,68.421,27.789,70.984a36.265,36.265,0,0,0,30.384-6.307c.067-.051.131-.106.193-.163.08-.052.157-.108.232-.168,11.047-8.939,15.664-21.84,12.347-34.521" transform="translate(0.001 0.002)" fill="rgba(0,0,0,0.4)"/>
      <g id="그룹_7899" data-name="그룹 7899" transform="translate(2.544)">
        <path id="패스_2056" data-name="패스 2056" d="M42.721,27.749c-.3-4.045.936-4.556-4.225-4.556-6.141,0-18.581,0-20.92.15-4.568.3-2.771.724-2.771,18.979,0,3.819,2.384,2.921,4.481,2.921s15.331-.3,16.67-.3c8.207,0,6.79.237,6.79-5.33C42.746,34.063,42.721,27.749,42.721,27.749Z" transform="translate(0 1.309)" fill="none" stroke="#fff" stroke-linecap="round" stroke-linejoin="round" stroke-width="3.5"/>
        <path id="패스_2057" data-name="패스 2057" d="M47.4,29.562l8.738-3.951S56.1,30.817,56.1,35.684s.037,7.889.037,7.889L47.2,39.1" transform="translate(-4.439 1.891)" fill="none" stroke="#fff" stroke-linecap="round" stroke-linejoin="round" stroke-width="3.5"/>
      </g>
    </g>
  </g>
</svg>
