<!-- <svg xmlns="http://www.w3.org/2000/svg" width="72" height="72.002" viewBox="0 0 72 72.002">
  <g id="그룹_7900" data-name="그룹 7900" transform="translate(0 -0.002)">
    <g id="그룹_7898" data-name="그룹 7898">
      <path id="패스_2055" data-name="패스 2055" d="M70.945,29.825A42.746,42.746,0,0,0,48.486,2.84C36.975-2.66,21.469.224,12.6,8.091.383,18.924-3.855,36.769,3.929,52.03,8.9,61.78,16.554,68.421,27.789,70.984a36.265,36.265,0,0,0,30.384-6.307c.067-.051.131-.106.193-.163.08-.052.157-.108.232-.168,11.047-8.939,15.664-21.84,12.347-34.521" transform="translate(0.001 0.002)" fill="rgba(0,0,0,0.4)"/>
      <g id="그룹_7899" data-name="그룹 7899" transform="translate(2.544)">
        <path id="패스_2056" data-name="패스 2056" d="M42.721,27.749c-.3-4.045.936-4.556-4.225-4.556-6.141,0-18.581,0-20.92.15-4.568.3-2.771.724-2.771,18.979,0,3.819,2.384,2.921,4.481,2.921s15.331-.3,16.67-.3c8.207,0,6.79.237,6.79-5.33C42.746,34.063,42.721,27.749,42.721,27.749Z" transform="translate(0 1.309)" fill="none" stroke="#fff" stroke-linecap="round" stroke-linejoin="round" stroke-width="3.5"/>
        <path id="패스_2057" data-name="패스 2057" d="M47.4,29.562l8.738-3.951S56.1,30.817,56.1,35.684s.037,7.889.037,7.889L47.2,39.1" transform="translate(-4.439 1.891)" fill="none" stroke="#fff" stroke-linecap="round" stroke-linejoin="round" stroke-width="3.5"/>
      </g>
    </g>
  </g>
</svg> -->
<svg xmlns="http://www.w3.org/2000/svg" xmlns:xlink="http://www.w3.org/1999/xlink" width="72" height="72.002" viewBox="0 0 72 72.002">
  <defs>
    <clipPath id="clip-path">
      <rect id="사각형_1850" data-name="사각형 1850" width="42.525" height="42.615" transform="translate(0 0)" fill="none"/>
    </clipPath>
  </defs>
  <g id="그룹_7905" data-name="그룹 7905" transform="translate(-648 -834)">
    <g id="그룹_7895" data-name="그룹 7895" transform="translate(648 833.998)">
      <g id="그룹_7898" data-name="그룹 7898">
        <path id="패스_2055" data-name="패스 2055" d="M70.945,29.825A42.746,42.746,0,0,0,48.486,2.84C36.975-2.66,21.469.224,12.6,8.091.383,18.924-3.855,36.769,3.929,52.03,8.9,61.78,16.554,68.421,27.789,70.984a36.265,36.265,0,0,0,30.384-6.307c.067-.051.131-.106.193-.163.08-.052.157-.108.232-.168,11.047-8.939,15.664-21.84,12.347-34.521" transform="translate(0.001 0.002)" fill="rgba(0,0,0,0.4)"/>
      </g>
    </g>
    <g id="그룹_7902" data-name="그룹 7902" transform="translate(662.737 848.693)">
      <g id="그룹_7901" data-name="그룹 7901" clip-path="url(#clip-path)">
        <path id="패스_2057" data-name="패스 2057" d="M42.45,13a1.5,1.5,0,0,0-1.892-.959L25.942,16.827,30.664,1.954a1.5,1.5,0,0,0-2.859-.908L22.429,17.977l-5.315,1.739a5.766,5.766,0,0,0-2.2-2.031c-3.764-1.836-6.989-2.291-9.583-1.359A8.242,8.242,0,0,0,.645,20.972,6.635,6.635,0,0,0,2.1,28.708a6.222,6.222,0,0,0,4.219,1.6A8.182,8.182,0,0,0,10.462,29.1c.9-.528,1.636-.954,2.262-1.313a14.169,14.169,0,0,0,4.1-2.936,4.04,4.04,0,0,0,1-2.207L21.31,21.5l-1.041,3.279a4.052,4.052,0,0,0-2.2,1.022,14.2,14.2,0,0,0-2.9,4.128c-.353.628-.771,1.372-1.292,2.271-1.717,2.966-1.54,6.17.463,8.361a6.388,6.388,0,0,0,4.751,2.055,7.117,7.117,0,0,0,3-.672,8.247,8.247,0,0,0,4.6-4.73c.911-2.6.425-5.824-1.444-9.571A5.757,5.757,0,0,0,23.2,25.465l1.624-5.115L41.49,14.9A1.5,1.5,0,0,0,42.45,13M14.581,22.855h0a11.97,11.97,0,0,1-3.35,2.326c-.634.364-1.387.8-2.295,1.333-1.81,1.069-3.617,1.054-4.834-.038a3.606,3.606,0,0,1-.724-4.264A5.3,5.3,0,0,1,6.35,19.149a5.379,5.379,0,0,1,1.83-.3,12.832,12.832,0,0,1,5.422,1.53,2.671,2.671,0,0,1,1.258,1.58.965.965,0,0,1-.279.894m9.281,13.368a5.306,5.306,0,0,1-3.038,3,3.6,3.6,0,0,1-4.269-.686c-1.1-1.208-1.134-3.014-.08-4.834.527-.912.952-1.667,1.31-2.3a11.982,11.982,0,0,1,2.3-3.374.97.97,0,0,1,.892-.287,2.661,2.661,0,0,1,1.59,1.244c1.494,2.994,1.93,5.43,1.3,7.24" fill="#fff"/>
      </g>
    </g>
  </g>
</svg>
