<svg xmlns="http://www.w3.org/2000/svg" width="66" height="66" viewBox="0 0 66 66">
  <g id="그룹_6323" data-name="그룹 6323" transform="translate(-68 -502)">
    <rect id="사각형_1526" data-name="사각형 1526" width="66" height="66" rx="30" transform="translate(68 502)" opacity="0.4" fill="#000"/>
    <g id="그룹_6321" data-name="그룹 6321" transform="translate(72.5 506.5)">
      <g id="그룹_6322" data-name="그룹 6322">
        <path id="패스_1602" data-name="패스 1602" d="M40.948,34.225Z" fill="#1a1311"/>
        <path id="패스_1603" data-name="패스 1603" d="M30.708,8.882a3.145,3.145,0,0,0-2.9.066,10.579,10.579,0,0,0-3.458,3.239c-.647.789-1.227,1.5-1.813,2.217l-.071.087c-1.047,1.284-2.13,2.612-3.262,3.926l-.049.066a2.371,2.371,0,0,1-2.168,1.007c-.3.02-.616.031-.985.044l-.879.032a17.306,17.306,0,0,0-3.608.479c-3.631.936-3.93,3.267-3.947,6.217,0,1.056,0,2.177.011,3.424v.23c.009,1.364.016,2.6.007,3.852l-.007.561c-.027,1.549-.061,3.472,1.2,4.719,1.069,1.056,2.642,1.194,4.03,1.316.3.028.6.054.847.083a40.587,40.587,0,0,0,6.362.443,1.03,1.03,0,0,1,.684.254l4.259,3.733c.19.165.38.34.573.516l.2.185a9.989,9.989,0,0,0,4.231,2.75,4.654,4.654,0,0,0,.992.111c2.748,0,3.292-3.054,3.47-6.356a140.21,140.21,0,0,0-1.278-27.915c-.418-2.868-1.216-4.6-2.439-5.286m.607,34.49c-.008.24-.027.515-.054.771a1.024,1.024,0,0,1-1.535.776,1.7,1.7,0,0,1-.292-.213l-.1-.08a13.925,13.925,0,0,1-2.317-1.987L22.278,38.5a1.089,1.089,0,0,1-.163-.183,1.229,1.229,0,0,0-1.03-.508H20.86a28.483,28.483,0,0,1-5.739-.226c-.3-.036-.643-.059-1.009-.082-1.593-.1-3.387-.216-3.505-1.866-.081-1.151-.051-2.323-.021-3.455l0-.143c.016-.608.031-1.238.026-1.849l-.021-3.229a9.45,9.45,0,0,1,.045-2.654,1.016,1.016,0,0,1,.1-.31c.678-1.315,2.719-1.437,5.118-1.455.555,0,.938-.01,1.247-.031,2.2-.138,2.833-.246,4.292-2.01l3.934-4.757c.044-.052.108-.138.194-.255l.118-.157a18.476,18.476,0,0,1,2.637-3.063,1.024,1.024,0,0,1,1.71.576c.059.344.112.81.16,1.427.018.24.039.488.063.657.184,1.27.353,2.563.5,3.843.449,3.878.733,7.867.845,11.853a116.737,116.737,0,0,1-.241,12.752" fill="#fff"/>
        <path id="패스_1604" data-name="패스 1604" d="M49.369,27.249a22.723,22.723,0,0,0-5.2-12.032,1.313,1.313,0,0,0-1.041-.54,1.225,1.225,0,0,0-.181.013,1.657,1.657,0,0,0-1.211,1.042,1.563,1.563,0,0,0,.247,1.59,18.784,18.784,0,0,1,4.4,10.632c.208,4.979-2.549,9.845-4.211,12.3l-.117.231a.708.708,0,0,0-.043.314,1.011,1.011,0,0,1,0,.11,1.594,1.594,0,0,0,.45,1.158,1.657,1.657,0,0,0,1.168.509,1.242,1.242,0,0,0,1.122-.726.743.743,0,0,1,.052-.1c3.041-5.093,4.983-9.494,4.571-14.425,0-.023-.007-.054-.008-.083" fill="#fff"/>
        <path id="패스_1605" data-name="패스 1605" d="M40.535,22.386a1.369,1.369,0,0,0-1.027-.426h0a1.63,1.63,0,0,0-1.138.516,1.566,1.566,0,0,0-.443,1.012,1.338,1.338,0,0,0,.448,1.033c2.054,1.943,1.961,5.206-.257,9.189l-.082.178a.754.754,0,0,1-.021.085,1.546,1.546,0,0,0,1.016,1.938,1.245,1.245,0,0,0,.468.071,1.4,1.4,0,0,0,1.233-.721l.019-.033c1.077-1.94,4.248-8.609-.215-12.842" fill="#fff"/>
      </g>
    </g>
  </g>
</svg>
