<svg id="그룹_6550" data-name="그룹 6550" xmlns="http://www.w3.org/2000/svg" xmlns:xlink="http://www.w3.org/1999/xlink" width="66" height="66" viewBox="0 0 66 66">
  <defs>
    <clipPath id="clip-path">
      <rect id="사각형_1578" data-name="사각형 1578" width="66" height="66" fill="none"/>
    </clipPath>
  </defs>
  <g id="그룹_6549" data-name="그룹 6549" clip-path="url(#clip-path)">
    <g id="그룹_6548" data-name="그룹 6548">
      <g id="그룹_6547" data-name="그룹 6547" clip-path="url(#clip-path)">
        <g id="그룹_6546" data-name="그룹 6546" opacity="0.4" style="isolation: isolate">
          <g id="그룹_6545" data-name="그룹 6545">
            <g id="그룹_6544" data-name="그룹 6544" clip-path="url(#clip-path)">
              <path id="패스_1700" data-name="패스 1700" d="M30,0h6A30,30,0,0,1,66,30v6A30,30,0,0,1,36,66H30A30,30,0,0,1,0,36V30A30,30,0,0,1,30,0" fill="#070203"/>
            </g>
          </g>
        </g>
        <path id="패스_1701" data-name="패스 1701" d="M33.488,13.383a3.144,3.144,0,0,0-2.9.066,10.576,10.576,0,0,0-3.458,3.239c-.647.789-1.227,1.5-1.813,2.217l-.071.087c-1.047,1.284-2.13,2.612-3.262,3.926l-.049.066a2.371,2.371,0,0,1-2.168,1.007c-.3.02-.616.031-.985.044l-.879.032a17.279,17.279,0,0,0-3.608.479c-3.631.936-3.93,3.267-3.947,6.217,0,1.056,0,2.177.011,3.424v.23c.009,1.364.016,2.6.007,3.852l-.007.561c-.027,1.549-.061,3.472,1.2,4.719,1.069,1.056,2.642,1.194,4.03,1.316.3.028.6.054.847.083a40.678,40.678,0,0,0,6.362.443,1.03,1.03,0,0,1,.684.254l4.259,3.733c.19.165.38.34.573.516l.2.185a9.986,9.986,0,0,0,4.231,2.75,4.662,4.662,0,0,0,.992.111c2.748,0,3.292-3.054,3.47-6.356a140.146,140.146,0,0,0-1.278-27.915c-.418-2.868-1.216-4.6-2.439-5.286m.607,34.49c-.008.24-.027.515-.054.771a1.024,1.024,0,0,1-1.535.776,1.655,1.655,0,0,1-.292-.213l-.1-.08A13.9,13.9,0,0,1,29.8,47.14L25.058,43a1.089,1.089,0,0,1-.163-.183,1.23,1.23,0,0,0-1.03-.508H23.64a28.534,28.534,0,0,1-5.739-.226c-.3-.036-.643-.059-1.009-.082-1.593-.1-3.387-.216-3.505-1.866-.081-1.151-.051-2.323-.021-3.455v-.143c.016-.608.031-1.238.026-1.849l-.021-3.229a9.44,9.44,0,0,1,.045-2.654,1,1,0,0,1,.1-.31c.678-1.315,2.719-1.437,5.118-1.455.555,0,.938-.01,1.247-.031,2.2-.138,2.833-.246,4.292-2.01l3.934-4.757c.044-.052.108-.138.194-.255l.118-.157a18.472,18.472,0,0,1,2.637-3.063,1.025,1.025,0,0,1,1.71.576c.059.344.112.81.16,1.427.018.24.039.488.063.657.184,1.27.353,2.563.5,3.843.449,3.878.733,7.867.845,11.853a116.676,116.676,0,0,1-.241,12.752" fill="#fff"/>
        <path id="패스_1702" data-name="패스 1702" d="M55.256,38.22l-5.228-5.227,5.228-5.228a1.341,1.341,0,0,0-.006-1.9,1.357,1.357,0,0,0-1.885,0L48.137,31.1,42.9,25.867a1.361,1.361,0,0,0-1.886.007,1.343,1.343,0,0,0,0,1.892l5.228,5.227L41.017,38.22a1.339,1.339,0,1,0,1.892,1.894l5.228-5.228,5.225,5.225a1.338,1.338,0,1,0,1.894-1.891" fill="#fff"/>
      </g>
    </g>
  </g>
</svg>
