<svg xmlns="http://www.w3.org/2000/svg" width="48" height="48" viewBox="0 0 48 48">
  <g id="VIDEO_PLAY_48" data-name="VIDEO PLAY 48" transform="translate(-389 -1108)">
    <rect id="사각형_214" data-name="사각형 214" width="48" height="48" transform="translate(389 1108)" fill="none" opacity="0.4"/>
    <g id="그룹_3656" data-name="그룹 3656" transform="translate(-930.615 -684.619)">
      <path id="패스_1254" data-name="패스 1254" d="M1345.689,1804.489c-4.611-2.873-11.97-6.724-13.4-7.467l-.042-.022-.024-.013-.023-.013-.042-.024a2.514,2.514,0,0,0-1.262-.331,3.32,3.32,0,0,0-1.385.323,2.5,2.5,0,0,0-1.342,2.143v.1l0,.046c-.005.11-.551,11.077-.551,16.676,0,4.928.421,15.071.55,18.062l0,.042v.094a2.681,2.681,0,0,0,1.553,2.286,2.912,2.912,0,0,0,1.148.229,2.787,2.787,0,0,0,1.282-.34l.035-.02.021-.012.022-.011.036-.019a151.631,151.631,0,0,0,13.888-8.223l.209-.143c8.9-6.15,12.856-8.966,13.219-11.253a2.194,2.194,0,0,0-.416-1.729C1357.374,1812.5,1352.336,1808.62,1345.689,1804.489Z" transform="translate(0)" fill="#fff"/>
    </g>
  </g>
</svg>
