<svg xmlns="http://www.w3.org/2000/svg" xmlns:xlink="http://www.w3.org/1999/xlink" width="117.749" height="136.85" viewBox="0 0 117.749 136.85">
  <defs>
    <filter id="패스_1183" x="0" y="0" width="117.749" height="136.85" filterUnits="userSpaceOnUse">
      <feOffset dy="3" input="SourceAlpha"/>
      <feGaussianBlur stdDeviation="3" result="blur"/>
      <feFlood flood-opacity="0.161"/>
      <feComposite operator="in" in2="blur"/>
      <feComposite in="SourceGraphic"/>
    </filter>
  </defs>
  <g id="그룹_3504" data-name="그룹 3504" transform="translate(9 6)">
    <g id="그룹_3505" data-name="그룹 3505">
      <g transform="matrix(1, 0, 0, 1, -9, -6)" filter="url(#패스_1183)">
        <path id="패스_1183-2" data-name="패스 1183" d="M1383.954,1820c-14.375-8.537-37.312-19.979-41.764-22.185l-.132-.066-.075-.037-.073-.039-.13-.071a8.144,8.144,0,0,0-3.935-.983,10.771,10.771,0,0,0-4.316.959,7.39,7.39,0,0,0-4.182,6.365l0,.138v.078l0,.079-.008.137c-.016.327-1.719,32.912-1.719,49.55,0,14.642,1.312,44.779,1.715,53.667l.006.127,0,.074v.2c.033,3.491,2.617,5.612,4.84,6.792a9.457,9.457,0,0,0,3.578.681,9.017,9.017,0,0,0,4-1.01l.11-.06.066-.036.068-.033.113-.057a478.56,478.56,0,0,0,43.291-24.432l.651-.425c27.75-18.271,40.073-26.64,41.206-33.436a6.291,6.291,0,0,0-1.3-5.137C1420.379,1843.806,1404.673,1832.276,1383.954,1820Z" transform="translate(-1318.61 -1790.62)" fill="#fff"/>
      </g>
    </g>
  </g>
</svg>
