<svg id="그룹_5634" data-name="그룹 5634" xmlns="http://www.w3.org/2000/svg" xmlns:xlink="http://www.w3.org/1999/xlink" width="93.499" height="108.935" viewBox="0 0 93.499 108.935">
  <defs>
    <clipPath id="clip-path">
      <rect id="사각형_1197" data-name="사각형 1197" width="93.499" height="108.935" fill="#fff"/>
    </clipPath>
    <filter id="패스_1517" x="41.68" y="-6.001" width="60.82" height="126.936" filterUnits="userSpaceOnUse">
      <feOffset dy="3" input="SourceAlpha"/>
      <feGaussianBlur stdDeviation="3" result="blur"/>
      <feFlood flood-opacity="0.161"/>
      <feComposite operator="in" in2="blur"/>
      <feComposite in="SourceGraphic"/>
    </filter>
    <filter id="패스_1518" x="-9" y="-6" width="60.821" height="126.935" filterUnits="userSpaceOnUse">
      <feOffset dy="3" input="SourceAlpha"/>
      <feGaussianBlur stdDeviation="3" result="blur-2"/>
      <feFlood flood-opacity="0.161"/>
      <feComposite operator="in" in2="blur-2"/>
      <feComposite in="SourceGraphic"/>
    </filter>
  </defs>
  <g id="그룹_5633" data-name="그룹 5633" clip-path="url(#clip-path)">
    <g transform="matrix(1, 0, 0, 1, 0, 0)" filter="url(#패스_1517)">
      <path id="패스_1517-2" data-name="패스 1517" d="M93.313,92.72c-.274-10.008-.755-29.2-.755-40.645,0-4.849.087-10.652.207-16.388.025-1.184.051-2.364.079-3.533q.013-.571.027-1.14c.271-11.28.621-21.151.627-21.311l0-.059,0-.057c0-.022-.005-.042-.006-.063a9.411,9.411,0,0,0-3.8-7.345A10.029,10.029,0,0,0,83.189,0H61.1l-.05,0a9.932,9.932,0,0,0-6.5,2.192c-.128.1-.246.207-.369.311-.065.058-.135.11-.2.169a9.363,9.363,0,0,0-3.214,7c0,.187.358,19.024,0,47.106-.02,1.613-.037,3.3-.05,5.028-.009,1.13-.016,2.278-.022,3.437,0,.3,0,.6,0,.9-.072,15.643.075,32.935.076,33.133v.062c0,.023.005.044.006.066a9.319,9.319,0,0,0,3.011,6.681,9.9,9.9,0,0,0,6.926,2.848c.123,0,.247,0,.371-.007h22.08c.025,0,.049,0,.074,0a9.974,9.974,0,0,0,7.161-2.777,9.382,9.382,0,0,0,3.078-6.661c0-.049.012-.1.014-.147l0-.054,0-.053c0-.087-.078-2.6-.185-6.513" fill="#fff"/>
    </g>
    <g transform="matrix(1, 0, 0, 1, 0, 0)" filter="url(#패스_1518)">
      <path id="패스_1518-2" data-name="패스 1518" d="M42.163,32.149c.009-.375.018-.747.027-1.119q.02-.831.04-1.651.029-1.134.058-2.24c.251-9.574.526-17.294.531-17.436l0-.058,0-.058c0-.021-.005-.042-.006-.063a9.413,9.413,0,0,0-3.825-7.365A10.025,10.025,0,0,0,32.51,0H10.423l-.054,0a9.962,9.962,0,0,0-7.14,2.742A9.355,9.355,0,0,0,.1,9.679c0,.186.357,19.023,0,47.1C.064,59.455.04,62.326.025,65.267.006,68.791,0,72.417,0,75.929q0,.93,0,1.846c.01,11.523.1,21.354.1,21.5v.062c0,.021.005.042.006.064a9.324,9.324,0,0,0,3.024,6.7,9.908,9.908,0,0,0,6.912,2.833c.122,0,.244,0,.367-.007H32.492c.022,0,.044,0,.066,0a9.934,9.934,0,0,0,7.118-2.733,9.388,9.388,0,0,0,3.129-6.705c0-.049.012-.1.014-.147l0-.054,0-.054c0-.087-.078-2.6-.185-6.513-.275-10.008-.757-29.2-.757-40.643,0-3.978.058-8.6.146-13.3.041-2.212.089-4.441.14-6.629" fill="#fff"/>
    </g>
  </g>
</svg>
