<svg xmlns="http://www.w3.org/2000/svg" width="94" height="94" viewBox="0 0 94 94">
  <g id="WRITE_94" data-name="WRITE 94" transform="translate(-1622.681 -1929.592)">
    <path id="패스_1188" data-name="패스 1188" d="M35.379,0H58.621A35.379,35.379,0,0,1,94,35.379V58.621A35.379,35.379,0,0,1,58.621,94H35.379A35.379,35.379,0,0,1,0,58.621V35.379A35.379,35.379,0,0,1,35.379,0Z" transform="translate(1622.681 1929.592)" fill="#ff9888"/>
    <g id="그룹_3507" data-name="그룹 3507" transform="translate(1636.91 1946.854)">
      <path id="패스_1186" data-name="패스 1186" d="M1678.256,1966.529a3.778,3.778,0,0,0-.994-2.736h0a3.824,3.824,0,0,0-2.74-1.233c-4.086.118-8.29.166-12.51.135.207-3.961.347-7.995.417-12.073a3.759,3.759,0,0,0-3.629-3.583,3.842,3.842,0,0,0-2.742.995,3.8,3.8,0,0,0-1.232,2.675c-.07,3.932-.209,7.922-.412,11.867-4.531-.126-9.108-.341-13.609-.64a3.338,3.338,0,0,0-3.713,3.293,4.359,4.359,0,0,0,.672,2.621,3.737,3.737,0,0,0,2.963,1.687c4.367.289,8.808.5,13.211.632-.274,3.731-.611,7.484-1,11.139a3.232,3.232,0,0,0-.027.8,3.265,3.265,0,0,0,3.281,2.954c.069,0,.139,0,.209-.005l.121,0a4.026,4.026,0,0,0,4.013-3.615c.387-3.666.722-7.412,1-11.141,4.355.036,8.755-.011,13.1-.137A3.778,3.778,0,0,0,1678.256,1966.529Z" transform="translate(-1637.082 -1947.036)" fill="#fff"/>
      <path id="패스_1187" data-name="패스 1187" d="M1689.076,1967.814c-3.394,3.159-6.605,6.656-9.709,10.037-1.522,1.658-3.1,3.373-4.658,5.009l-8.5,8.905a24.344,24.344,0,0,0-2.015,2.177c-1.99,2.67-2.178,6.08-2.344,9.087-.034.628-.068,1.244-.119,1.839a3.2,3.2,0,0,0,.872,2.619,2.874,2.874,0,0,0,2.131,1l.117,0h.182c.045,0,.091,0,.136-.006.4-.038.792-.071,1.183-.1,3.921-.333,7.625-.647,10.859-3.942,1.526-1.556,3.037-3.123,4.549-4.691l2.187-2.265q2.7-2.784,5.422-5.544c3.59-3.653,7.3-7.429,10.85-11.257.156-.138.307-.284.451-.438a7.324,7.324,0,0,0-.073-10.039C1698.993,1968.382,1694.215,1963.022,1689.076,1967.814Zm6,8.45-21.577,22.287c-.187.194-.372.4-.558.6a11.746,11.746,0,0,1-.879.9,8.3,8.3,0,0,1-3.46,1.343,9.207,9.207,0,0,1,2.076-4.556l20.923-21.919c.022-.023.043-.047.063-.071.206-.219.406-.449.6-.679.428-.492,1.007-1.16,1.32-1.206a1,1,0,0,1,.538.23c.022.019.045.037.069.055a3.174,3.174,0,0,1,1.453,1.866A1.585,1.585,0,0,1,1695.08,1976.264Z" transform="translate(-1637.082 -1947.036)" fill="#fff"/>
    </g>
  </g>
</svg>
