<svg xmlns="http://www.w3.org/2000/svg" width="94" height="94" viewBox="0 0 94 94">
  <g id="그룹_3508" data-name="그룹 3508" transform="translate(-4607.293 -454.284)">
    <g id="그룹_4791" data-name="그룹 4791">
      <path id="패스_1188-2" data-name="패스 1188-2" d="M4642.672,454.284h23.242a35.379,35.379,0,0,1,35.379,35.379h0v23.242a35.379,35.379,0,0,1-35.379,35.379h-23.242a35.379,35.379,0,0,1-35.379-35.379h0V489.663a35.379,35.379,0,0,1,35.379-35.379Z" fill="#ff9888"/>
    </g>
    <g id="그룹_3507" data-name="그룹 3507">
      <path id="패스_1186" data-name="패스 1186" d="M4683.653,501.968a5.388,5.388,0,0,0-1.418-3.9h0a5.455,5.455,0,0,0-3.908-1.759c-5.828.169-11.824.237-17.843.193.295-5.65.5-11.4.6-17.22a5.362,5.362,0,0,0-5.176-5.11,5.474,5.474,0,0,0-3.911,1.419,5.419,5.419,0,0,0-1.757,3.815c-.1,5.609-.3,11.3-.588,16.926-6.463-.18-12.991-.486-19.411-.913a4.762,4.762,0,0,0-5.266,4.2,4.907,4.907,0,0,0-.029.5,6.21,6.21,0,0,0,.958,3.738,5.331,5.331,0,0,0,4.226,2.407c6.229.412,12.563.713,18.843.9-.391,5.321-.871,10.674-1.426,15.888a4.627,4.627,0,0,0,4.641,5.354c.1,0,.2,0,.3-.007h.173a5.742,5.742,0,0,0,5.723-5.156c.552-5.229,1.03-10.572,1.427-15.891,6.211.052,12.487-.015,18.684-.195A5.389,5.389,0,0,0,4683.653,501.968Z" fill="#fff"/>
    </g>
  </g>
</svg>
