<svg xmlns="http://www.w3.org/2000/svg" width="115.998" height="104.005" viewBox="0 0 115.998 104.005">
  <g id="그룹_430" data-name="그룹 430" transform="translate(-719.214 87.281)">
    <path id="패스_301" data-name="패스 301" d="M787.4-9.023l19.556-20.329,15.2,4.146a4,4,0,0,0,1.055.142,4,4,0,0,0,3.857-2.949,4,4,0,0,0-2.806-4.911l-16.021-4.369-7.98-23.524,14.8-15.038a4,4,0,0,0-.044-5.657h0a4,4,0,0,0-5.656.045l-13.98,14.2-28.743-5.889L763.013-84.5a4,4,0,0,0-5.027-2.592,4,4,0,0,0-2.592,5.028l3.27,10.229L739.4-51.806,724-54.886a4,4,0,0,0-4.706,3.137,4,4,0,0,0,3.138,4.707h0L736.6-44.206l9.181,27.065-6.5,7.017a4,4,0,0,0,.217,5.653h0A3.985,3.985,0,0,0,742.213-3.4a3.984,3.984,0,0,0,2.935-1.282l7.1-7.662L779.723-6.72l3.6,14.415a4,4,0,0,0,7.762-1.94ZM778.96-50.606a6.032,6.032,0,0,1,6.369-5.675h0a6.032,6.032,0,0,1,5.685,6.022,6.209,6.209,0,0,1-6.379,6.018h0A6.033,6.033,0,0,1,778.96-50.606Zm-14.034,29.25h0c-7.252,0-13.132-5.551-13.132-12.4s5.88-12.4,13.132-12.4,13.132,5.551,13.132,12.4S772.179-21.356,764.926-21.356Z" fill="#ffb6a5"/>
    <circle id="타원_89" data-name="타원 89" cx="11.5" cy="11.5" r="11.5" transform="translate(807.211 -6.276)" fill="#ffb6a5"/>
    <circle id="타원_90" data-name="타원 90" cx="6" cy="6" r="6" transform="translate(823.211 -53.276)" fill="#ffb6a5"/>
  </g>
</svg>
