<svg xmlns="http://www.w3.org/2000/svg" width="108" height="99.998" viewBox="0 0 108 99.998">
  <g id="그룹_411" data-name="그룹 411" transform="translate(-563.211 85.274)">
    <g id="그룹_412" data-name="그룹 412">
      <g id="그룹_413" data-name="그룹 413">
        <g id="그룹_414" data-name="그룹 414">
          <path id="패스_261" data-name="패스 261" d="M658.768-41.276H645.192c-3.486,0-6.314,2.559-6.314,5.716a5.228,5.228,0,0,0,.165,1.282c.038.131.077.261.112.393a18.658,18.658,0,0,1,.635,4.806c0,11.288-10.109,20.44-22.579,20.44s-22.58-9.151-22.58-20.44A18.708,18.708,0,0,1,595.2-33.6c.1-.4.215-.792.34-1.181a5.1,5.1,0,0,0,.077-.846,5.932,5.932,0,0,0-5.418-5.651H575.654c-6.872,0-12.443,5.043-12.443,11.264V3.46c0,6.222,5.572,11.264,12.443,11.264h83.114c6.872,0,12.443-5.043,12.443-11.264V-30.012C671.211-36.233,665.639-41.276,658.768-41.276Z" fill="#ffb6a5"/>
          <path id="패스_262" data-name="패스 262" d="M629.734-44.5a164.123,164.123,0,0,0-7.087-17.288c-4.666-9.711-9.047-14.572-13.621-17.887-7.475-5.419-10.929-5.6-10.929-5.6s3.288,1.408,6.7,6.638c1.952,2.993,5.937,9.442,6.54,17.577.351,4.733-.274,10.224-5.73,17.191a18.339,18.339,0,0,0-3.786,8.34h.013a14.221,14.221,0,0,0-.45,3.49c0,8.152,6.859,14.76,15.32,14.76a15.149,15.149,0,0,0,15.108-12.408h.016S633.2-34.473,629.734-44.5Z" fill="#ffb6a5"/>
        </g>
      </g>
    </g>
  </g>
</svg>
