<svg xmlns="http://www.w3.org/2000/svg" width="107.999" height="72" viewBox="0 0 107.999 72">
  <g id="그룹_401" data-name="그룹 401" transform="translate(76.789 71.276)">
    <g id="그룹_400" data-name="그룹 400">
      <g id="타원_73" data-name="타원 73">
        <g id="그룹_426" data-name="그룹 426">
          <circle id="타원_87" data-name="타원 87" cx="24" cy="24" r="24" transform="translate(-76.789 -71.276)" fill="none"/>
        </g>
        <g id="그룹_427" data-name="그룹 427">
          <path id="패스_297" data-name="패스 297" d="M-52.789-23.276a24.028,24.028,0,0,1-24-24,24.029,24.029,0,0,1,24-24,24.027,24.027,0,0,1,24,24A24.027,24.027,0,0,1-52.789-23.276Zm0-40a16.02,16.02,0,0,0-16,16,16.019,16.019,0,0,0,16,16,16.017,16.017,0,0,0,16-16A16.018,16.018,0,0,0-52.789-63.276Z" fill="#dbdbdb"/>
        </g>
      </g>
      <path id="패스_298" data-name="패스 298" d="M-42.789-18.276h-6v-9a4,4,0,0,0-4-4,4,4,0,0,0-4,4h0v9h-6a4,4,0,0,0-4,4,4,4,0,0,0,4,4h6v7a4,4,0,0,0,4,4,4,4,0,0,0,4-4v-7h6a4,4,0,0,0,4-4A4,4,0,0,0-42.789-18.276Z" fill="#dbdbdb"/>
    </g>
    <g id="그룹_399" data-name="그룹 399">
      <g id="타원_74" data-name="타원 74">
        <g id="그룹_428" data-name="그룹 428">
          <circle id="타원_88" data-name="타원 88" cx="24" cy="24" r="24" transform="translate(-28.682 -54.276)" fill="none"/>
        </g>
        <g id="그룹_429" data-name="그룹 429">
          <path id="패스_299" data-name="패스 299" d="M-4.682-6.276a24.028,24.028,0,0,1-24-24,24.029,24.029,0,0,1,24-24,24.027,24.027,0,0,1,24,24A24.027,24.027,0,0,1-4.682-6.276Zm0-40a16.02,16.02,0,0,0-16,16,16.019,16.019,0,0,0,16,16,16.017,16.017,0,0,0,16-16A16.018,16.018,0,0,0-4.682-46.276Z" fill="#dbdbdb"/>
        </g>
      </g>
      <path id="패스_300" data-name="패스 300" d="M31.029-61.92c-.025-.1-.046-.2-.079-.3a3.677,3.677,0,0,0-.168-.4c-.049-.108-.1-.216-.153-.318a3.18,3.18,0,0,0-.224-.332c-.078-.109-.152-.215-.238-.314-.029-.033-.049-.071-.079-.1-.061-.065-.133-.113-.2-.173-.1-.091-.193-.18-.3-.261s-.217-.153-.329-.223-.217-.132-.332-.19-.233-.1-.353-.15a3.086,3.086,0,0,0-.377-.126c-.129-.035-.242-.055-.364-.076a3.884,3.884,0,0,0-.4-.052,4.062,4.062,0,0,0-.413,0,2,2,0,0,0-.245,0L10.456-63.392a4,4,0,0,0-3.6,4.36,4,4,0,0,0,3.974,3.626c.126,0,.254-.006.383-.018l4.621-.44L6.883-47.521a4,4,0,0,0-.2,5.653h0A3.993,3.993,0,0,0,9.61-40.6a3.983,3.983,0,0,0,2.727-1.075l9.018-8.409-.813,4.82a4,4,0,0,0,3.28,4.609h0a3.969,3.969,0,0,0,.67.056,4,4,0,0,0,3.939-3.335l2.728-16.177A3.953,3.953,0,0,0,31.029-61.92Z" fill="#dbdbdb"/>
    </g>
  </g>
</svg>
