<svg xmlns="http://www.w3.org/2000/svg" width="111.997" height="99.998" viewBox="0 0 111.997 99.998">
  <g id="그룹_396" data-name="그룹 396" transform="translate(398.787 85.277)">
    <path id="패스_294" data-name="패스 294" d="M-290.228-27.007c-4.638-13.515-10.522-27.264-23.89-37.335-11.67-8.789-16.145,8.688-17.863,23.82l-6.717-7.1V-81.277a4.011,4.011,0,0,0-4.022-4h0c-.023,0-.044.006-.067.007s-.043-.007-.066-.007a4.011,4.011,0,0,0-4.022,4h0v33.655l-6.717,7.1c-1.719-15.132-6.2-32.609-17.866-23.82-13.367,10.071-19.252,23.82-23.89,37.335-3.672,10.7-9.528,46.155,14.073,41.268C-356.96,9.226-352.835-2.082-352.524-6.3s-.005-15.543-.005-15.543h.005s.017-3.21-.212-7.909l9.95-10.52,9.952,10.521c-.229,4.7-.211,7.908-.211,7.908h0s-.312,11.327,0,15.543,4.437,15.524,28.751,20.559C-280.7,19.15-286.556-16.307-290.228-27.007Z" fill="#dbdbdb"/>
    <g id="그룹_425" data-name="그룹 425">
      <path id="패스_295" data-name="패스 295" d="M-359.538-34.329l-2.885,3.016-11.357-8.494a4,4,0,0,0-5.6.806h0a4,4,0,0,0,.807,5.6h0l9.774,7.311-13.324,5.127a4,4,0,0,0-2.3,5.168h0a4,4,0,0,0,3.735,2.565,3.979,3.979,0,0,0,1.435-.268l6.676-2.568,2.106,8.138a4,4,0,0,0,3.87,3,3.964,3.964,0,0,0,1-.129,4,4,0,0,0,2.87-4.875h0l-2.336-9.025,2.146-.826a3.987,3.987,0,0,0,1.454-.968l7.7-8.046a4,4,0,0,0-.123-5.655h0A4,4,0,0,0-359.538-34.329Z" fill="#fff"/>
      <path id="패스_296" data-name="패스 296" d="M-303.461-20.963l-13.989-5.385,9.431-7.053a4,4,0,0,0,.808-5.6h0a4,4,0,0,0-5.6-.808h0l-10.772,8.056-2.749-2.866a4,4,0,0,0-5.655-.119,4,4,0,0,0-.119,5.655l7.989,8.333a4.007,4.007,0,0,0,1.45.965l.991.381-2.192,8.47A4,4,0,0,0-321-6.058h0a3.963,3.963,0,0,0,1.005.129,4,4,0,0,0,3.87-3l1.962-7.582,7.825,3.012a3.984,3.984,0,0,0,1.436.268,4,4,0,0,0,3.734-2.564A4,4,0,0,0-303.461-20.963Z" fill="#fff"/>
    </g>
  </g>
</svg>
