<svg xmlns="http://www.w3.org/2000/svg" width="103.996" height="104.029" viewBox="0 0 103.996 104.029">
  <path id="패스_305" data-name="패스 305" d="M347.333,10.086l-12.569-6.6A11.8,11.8,0,0,0,335.208.3a11.811,11.811,0,0,0-4.569-9.336l.8-1.659a11.477,11.477,0,0,0,2.668.323,11.753,11.753,0,0,0,11.683-11.8,11.753,11.753,0,0,0-11.683-11.8,11.578,11.578,0,0,0-8.1,3.314l-9.14-4.8.529-.925a11.4,11.4,0,0,0,1.64.131,11.753,11.753,0,0,0,11.683-11.8,11.753,11.753,0,0,0-11.683-11.8,11.446,11.446,0,0,0-1.773.151l-4.682-8.188a11.809,11.809,0,0,0,2.621-7.432,11.753,11.753,0,0,0-11.683-11.8,11.708,11.708,0,0,0-11.084,8.092h-8.7A11.717,11.717,0,0,0,272.583-87.3,11.753,11.753,0,0,0,260.9-75.5a11.8,11.8,0,0,0,3.151,8.032l-4.538,7.936a11.538,11.538,0,0,0-2.618-.309,11.753,11.753,0,0,0-11.683,11.8,11.753,11.753,0,0,0,11.683,11.8,11.541,11.541,0,0,0,2.492-.276l4.472,7.821a11.809,11.809,0,0,0-3.224,8.114,11.753,11.753,0,0,0,11.683,11.8,11.705,11.705,0,0,0,11.061-8.028h9.083a11.7,11.7,0,0,0,11.06,8.028,11.753,11.753,0,0,0,11.683-11.8,11.8,11.8,0,0,0-2.6-7.4l.778-1.362,9.272,4.864a11.985,11.985,0,0,0-.229,2.314,11.8,11.8,0,0,0,3,7.869l-1.364,2.831c-.179-.008-.356-.027-.538-.027A11.753,11.753,0,0,0,311.841.306a11.753,11.753,0,0,0,11.683,11.8,11.559,11.559,0,0,0,7.418-2.691l13.177,6.913a3.421,3.421,0,0,0,1.6.4,3.476,3.476,0,0,0,3.093-1.9A3.532,3.532,0,0,0,347.333,10.086ZM311.092-39.406l-4.3,7.515a11.567,11.567,0,0,0-3.275-.48,11.714,11.714,0,0,0-11.217,8.53h-8.769a11.715,11.715,0,0,0-11.218-8.53,11.6,11.6,0,0,0-2.379.247l-4.506-7.881a11.8,11.8,0,0,0,3.145-8.025,11.8,11.8,0,0,0-3.056-7.927l4.578-8.005a11.535,11.535,0,0,0,2.484.274,11.716,11.716,0,0,0,11.151-8.277h8.586a11.714,11.714,0,0,0,11.2,8.466,11.523,11.523,0,0,0,3.243-.472l4.235,7.406a11.8,11.8,0,0,0-3.643,8.536A11.811,11.811,0,0,0,311.092-39.406Z" transform="translate(-245.212 87.301)" fill="#ffb6a5"/>
</svg>
