<svg xmlns="http://www.w3.org/2000/svg" width="48" height="108" viewBox="0 0 48 108">
  <g id="그룹_395" data-name="그룹 395" transform="translate(-433.211 91.277)">
    <g id="그룹_408" data-name="그룹 408">
      <path id="패스_242" data-name="패스 242" d="M477.639-85.762h-1.818v-1.244c0-2.359-1.6-4.271-3.571-4.271H442.32c-1.973,0-3.572,1.912-3.572,4.271v1.243h-1.817c-1.972,0-3.571,1.911-3.571,4.27v2.44c0,2.358,1.6,4.27,3.571,4.27h1.818v1.243c0,2.359,1.6,4.271,3.572,4.271H472.25c1.972,0,3.571-1.912,3.571-4.271v-1.242h1.818c1.973,0,3.572-1.912,3.572-4.27v-2.44C481.211-83.851,479.612-85.762,477.639-85.762Z" fill="#dbdbdb"/>
      <path id="패스_243" data-name="패스 243" d="M477.541-57.083h-1.818v-1.243c0-2.359-1.6-4.271-3.571-4.271h-29.93c-1.973,0-3.572,1.912-3.572,4.271v1.243h-1.818c-1.973,0-3.571,1.911-3.571,4.27v2.44c0,2.358,1.6,4.27,3.571,4.27h1.816v1.239c0,2.359,1.6,4.271,3.572,4.271h29.928c1.972,0,3.571-1.912,3.571-4.271v-1.242h1.818c1.973,0,3.572-1.912,3.572-4.27v-2.44C481.113-55.172,479.514-57.083,477.541-57.083Z" fill="#dbdbdb"/>
      <path id="패스_244" data-name="패스 244" d="M477.591-28.45h-1.818v-1.243c0-2.359-1.6-4.271-3.572-4.271h-29.93c-1.972,0-3.571,1.912-3.571,4.271v1.243h-1.818c-1.973,0-3.572,1.912-3.572,4.27v2.44c0,2.359,1.6,4.27,3.572,4.27H438.7v1.243c0,2.359,1.6,4.271,3.571,4.271H472.2c1.973,0,3.572-1.912,3.572-4.271V-17.47h1.818c1.972,0,3.571-1.911,3.571-4.27v-2.44C481.162-26.538,479.563-28.45,477.591-28.45Z" fill="#dbdbdb"/>
      <path id="패스_245" data-name="패스 245" d="M477.491.229h-1.818V-1.014c0-2.359-1.6-4.271-3.571-4.271h-29.93c-1.973,0-3.571,1.912-3.571,4.271V.229h-1.818c-1.973,0-3.572,1.912-3.572,4.27v2.44c0,2.359,1.6,4.27,3.572,4.27H438.6v1.243c0,2.359,1.6,4.271,3.571,4.271H472.1c1.973,0,3.571-1.912,3.571-4.271V11.209h1.818c1.973,0,3.572-1.911,3.572-4.27V4.5C481.063,2.141,479.464.229,477.491.229Z" fill="#dbdbdb"/>
    </g>
  </g>
</svg>
