<svg xmlns="http://www.w3.org/2000/svg" width="104" height="87.999" viewBox="0 0 104 87.999">
  <g id="그룹_417" data-name="그룹 417" transform="translate(-885.211 79.276)">
    <g id="그룹_434" data-name="그룹 434">
      <g id="타원_77" data-name="타원 77">
        <circle id="타원_91" data-name="타원 91" cx="4.878" cy="4.878" r="4.878" transform="translate(907.937 -52.566)" fill="#ffb6a5"/>
      </g>
      <g id="타원_78" data-name="타원 78">
        <circle id="타원_92" data-name="타원 92" cx="4.878" cy="4.878" r="4.878" transform="translate(958.293 -52.566)" fill="#ffb6a5"/>
      </g>
      <g id="패스_271" data-name="패스 271">
        <path id="패스_302" data-name="패스 302" d="M904.119-79.276a6.055,6.055,0,0,1,6.055,6.055h0v12.853a6.055,6.055,0,0,1-6.055,6.055H891.266a6.055,6.055,0,0,1-6.055-6.055h0Z" fill="#ffb6a5"/>
      </g>
      <g id="패스_272" data-name="패스 272">
        <path id="패스_303" data-name="패스 303" d="M970.3-79.276l18.908,18.908a6.055,6.055,0,0,1-6.055,6.055H970.3a6.055,6.055,0,0,1-6.055-6.055h0V-73.221a6.055,6.055,0,0,1,6.055-6.055Z" fill="#ffb6a5"/>
      </g>
      <path id="패스_304" data-name="패스 304" d="M967.631-30.513a3.988,3.988,0,0,0-3.972-3.986h-.028a4.013,4.013,0,0,0-4,3.958c-.021,1.5-.537,9.018-8.87,8.912-6.327-.065-8.175-4.26-8.71-6.941a16.4,16.4,0,0,0,.115-1.943V-34.44h0a5.461,5.461,0,0,0,5.461-5.461,5.46,5.46,0,0,0-5.461-5.46h-8.29a5.462,5.462,0,0,0-5.461,5.46,5.46,5.46,0,0,0,5.421,5.459v3.92a16.4,16.4,0,0,0,.115,1.944c-.535,2.689-2.383,6.884-8.71,6.949h-.14c-8.187,0-8.71-7.418-8.73-8.885a4,4,0,0,0-4-4,4,4,0,0,0-4,4c0,.766.142,7.625,5.042,12.476a15.076,15.076,0,0,0,8.544,4.169c-.919,4.305-1.543,11.238,2.123,16.455,1.968,2.8,5.977,6.138,13.913,6.137h.038c7.965-.011,11.978-3.364,13.942-6.175,3.642-5.215,3.009-12.122,2.083-16.418a15.079,15.079,0,0,0,8.533-4.168C967.489-22.888,967.631-29.747,967.631-30.513ZM945.406-2.022C944.131-.2,941.645.719,938.02.724h-.028c-3.6,0-6.082-.916-7.358-2.725-2.328-3.3-1.14-9.523-.308-12.3a15.913,15.913,0,0,0,3.658-1.5l-.052,10.677a4,4,0,0,0,3.981,4.019h.019a4,4,0,0,0,4-3.981l.052-10.736a15.842,15.842,0,0,0,3.7,1.522c.835,2.765,2.039,8.979-.278,12.278Z" fill="#ffb6a5"/>
    </g>
  </g>
</svg>
