<svg xmlns="http://www.w3.org/2000/svg" width="103.99" height="95.999" viewBox="0 0 103.99 95.999">
  <g id="그룹_427-2" data-name="그룹 427-2" transform="translate(-85.212 83.276)">
    <g id="그룹_428-2" data-name="그룹 428-2">
      <g id="그룹_431" data-name="그룹 431">
        <path id="패스_306" data-name="패스 306" d="M136.019-2.106l-.057-69.817s1.529-12.518-9.471-11.265c-7.835.893-8.326,6.477-8.355,7.033-8.573-4.55-24.029,5.788-17.352,17.048-14.392-.763-21.713,22.036-9.1,30.7C88.311-25.894,87.13-20.456,88-14.675c2.64,17.5,19.529,18.038,19.529,18.038C110.727,17.587,137.151,15.469,136.019-2.106Z" fill="#dbdbdb"/>
      </g>
      <g id="그룹_423" data-name="그룹 423">
        <g id="패스_276" data-name="패스 276">
          <path id="패스_307" data-name="패스 307" d="M112.916-49.091a12.818,12.818,0,0,1-10.377-5.285,3,3,0,0,1,.66-4.191h0a3,3,0,0,1,4.191.66h0a6.82,6.82,0,0,0,5.788,2.811,3,3,0,0,1,3.111,2.884,3,3,0,0,1-2.883,3.112h0C113.242-49.094,113.078-49.091,112.916-49.091Z" fill="#fff"/>
        </g>
      </g>
      <g id="패스_278" data-name="패스 278">
        <path id="패스_308" data-name="패스 308" d="M122.364-30.572a3.043,3.043,0,0,1-.486-.039,3,3,0,0,1-2.479-3.443,10.669,10.669,0,0,1,1.6-4.133,3,3,0,0,1,4.15-.879,3,3,0,0,1,.879,4.15,4.733,4.733,0,0,0-.7,1.826A3,3,0,0,1,122.364-30.572Z" fill="#fff"/>
      </g>
      <g id="그룹_432" data-name="그룹 432">
        <path id="패스_309" data-name="패스 309" d="M182.118-28.541c13.713-8.221,5.764-31.343-8.926-30.565,6.841-11.534-8.912-22.349-17.318-16.946l-.027-.048s-.112-6.148-8.358-7.088c-11-1.253-9.471,11.265-9.471,11.265l-.057,69.817c-1.132,17.575,25.292,19.693,28.485,5.471,0,0,16.889-.542,19.529-18.038C186.862-20.555,185.629-26.089,182.118-28.541Z" fill="#dbdbdb"/>
      </g>
      <g id="패스_281" data-name="패스 281">
        <path id="패스_310" data-name="패스 310" d="M154.289-67.316c-1.988.515-2.282,2.981-2.135,5.2.175,2.632,1.052,5.081,3.178,6.493a3.11,3.11,0,0,1,1.4,2.1,3.007,3.007,0,0,1-2.354,3.4c-.179.041-4.879,1.144-5.486,5.388a3,3,0,0,1-2.965,2.576,3.069,3.069,0,0,1-.428-.03,3.139,3.139,0,0,1-2.507-3.653,11.734,11.734,0,0,1,5.469-8.145.067.067,0,0,0,.024-.092l-.006-.008a13.16,13.16,0,0,1-2.322-8.329c.146-4.117,1.549-7.11,3.521-8.545,7.087-5.153,8.434,1.546,6.005,3.019l-1.4.626" fill="#fff"/>
      </g>
      <g id="패스_282" data-name="패스 282">
        <path id="패스_311" data-name="패스 311" d="M171.04-24.925c-3.823,0-8.627-1.62-11.394-7.969a3,3,0,0,1,1.552-3.948,3,3,0,0,1,3.948,1.551c2.5,5.735,6.985,4.482,8.3,3.961a3.014,3.014,0,0,1,3.9,1.653,2.987,2.987,0,0,1-1.607,3.893A12.708,12.708,0,0,1,171.04-24.925Z" fill="#fff"/>
      </g>
      <g id="패스_283" data-name="패스 283">
        <path id="패스_312" data-name="패스 312" d="M160.443-5.082A3,3,0,0,1,157.5-7.518,2.2,2.2,0,0,0,155.552-9.1a2.98,2.98,0,0,1-2.672-3.257l0-.018a3,3,0,0,1,3.278-2.693l.022,0c2.109.206,6.33,1.813,7.21,6.417a3,3,0,0,1-2.381,3.51A3,3,0,0,1,160.443-5.082Z" fill="#fff"/>
      </g>
      <g id="선_21" data-name="선 21">
        <path id="패스_313" data-name="패스 313" d="M148.468-11.2h-1.384a3,3,0,0,1-3-3,3,3,0,0,1,3-3h1.384a3,3,0,0,1,3,3A3,3,0,0,1,148.468-11.2Z" fill="#fff"/>
      </g>
      <path id="패스_314" data-name="패스 314" d="M128.036-10.449c-.617-4.689-2.451-8.129-5.452-10.223a11.679,11.679,0,0,0-5.677-2.021,13.821,13.821,0,0,0-1.155-4.3,13.166,13.166,0,0,0-9.9-7.355c-4.368-.726-9.316,1.1-9.867,1.313a3,3,0,0,0-1.727,3.868,3,3,0,0,0,3.869,1.736c1.082-.409,4.4-1.389,6.786-.99a7.165,7.165,0,0,1,5.4,3.959A7.6,7.6,0,0,1,109-16.19a3,3,0,0,0,.192,4.238h0a2.987,2.987,0,0,0,2.022.785,2.99,2.99,0,0,0,2.216-.977,13.54,13.54,0,0,0,2.755-4.585,5.855,5.855,0,0,1,3.01,1.006c1.536,1.1,2.51,3.134,2.894,6.055a3,3,0,0,0,2.97,2.609,3.136,3.136,0,0,0,.4-.026A3,3,0,0,0,128.036-10.449Z" fill="#fff"/>
    </g>
  </g>
</svg>
