<svg xmlns="http://www.w3.org/2000/svg" width="100.002" height="119.999" viewBox="0 0 100.002 119.999">
  <g id="그룹_409" data-name="그룹 409" transform="translate(232.784 95.275)">
    <g id="그룹_410" data-name="그룹 410">
      <path id="패스_259" data-name="패스 259" d="M-199.763-87.029c-2.44,5.134-4.052,11.191-1.522,16.941,2.164,4.921,10.433,8.965,15.99,12.253,5.516,3.264,15.245,13.168,9.1,27.074S-191.133-8.169-205.547-10.04c-10.831-1.406-17.8,1.9-20.835,7.116s-5.787,9.876-6.366,19.208,6,8.416,10.762,8.416,2.534-8.762,5.607-14.425c3.768-6.942,8.157-6.682,10.306-6.616s6.024-.235,14.127,5.217,25.685,6.148,35.4,0c14.17-7.679,20.837-18.618,22.967-30.25,1.408-7.691.9-13.09-1.13-22.536s-10.275-17.272-18.075-22.313c-5.423-3.5-18.623-4.56-25.278-5.811s-7.885-2.059-9.042-5.523,2.965-8.388,5.569-12.659-10.707-6.427-12.732-4.117S-198.226-90.264-199.763-87.029Z" fill="#dbdbdb"/>
      <path id="패스_260" data-name="패스 260" d="M-151.3-9.881c-6.575,9.155-18.824,13.229-25.345,13.266S-189.656-2.161-188.4-2.448c2.34-1.41,5.623-2.5,10.542-7.634,7.736-8.078,9.319-12.728,11.515-18.251h22.9a39.485,39.485,0,0,1-2.219,8.69A36.089,36.089,0,0,1-151.3-9.881Z" fill="#fff"/>
    </g>
  </g>
</svg>
