<svg xmlns="http://www.w3.org/2000/svg" width="104" height="104" viewBox="0 0 104 104">
  <path id="패스_365" data-name="패스 365" d="M1139.211-52.776h-24.5v-24.5c0-5.523-3.733-10-8.333-10h-18.334c-4.6,0-8.333,4.477-8.333,10v24.5h-24.5c-5.523,0-10,3.731-10,8.337v18.333c0,4.6,4.477,8.334,10,8.334h24.5v24.5c0,5.523,3.731,10,8.333,10h18.334c4.6,0,8.333-4.477,8.333-10v-24.5h24.5c5.523,0,10-3.734,10-8.334V-44.443C1149.211-49.045,1144.734-52.776,1139.211-52.776Z" transform="translate(-1045.211 87.276)" fill="#ffb6a5"/>
</svg>
