<svg xmlns="http://www.w3.org/2000/svg" width="92.001" height="120.004" viewBox="0 0 92.001 120.004">
  <g id="그룹_394" data-name="그룹 394" transform="translate(546.789 95.276)">
    <g id="패스_240" data-name="패스 240">
      <path id="패스_287" data-name="패스 287" d="M-517.882-62.314s-10.8-12.538-15.674-13.6-7.551,2.851-7.488,6.7,13.711,11.238,12.188,13.457-5.47-1.511-13.711,8.18c-7.864,9.25-3.191,24.889,1.523,33.224,5.485,9.7,15.359,18.2,26.633,25.123s12.9,12.751,20.883,13.674c6.261.724,12.865,1,23.475-11.37C-467.131,9.667-462.3,1.2-460.3-4.934c6.6-20.224,6.245-29.183,4.222-39.416-1.36-6.879-10.011-20.794-22.5-22.087-12.851-1.33-1.26-10.159,2.874-16.715s-1.35-10.99-7.749-9.189c-3.517.989-10.714,14.332-15.284,18.118s-16.188-15.86-21.586-19.646c-5.925-4.156-13.1,1.662-7.617,7.48,7.629,8.093,18.054,18.611,15.748,21.935A5.037,5.037,0,0,1-517.882-62.314Z" fill="#dbdbdb"/>
    </g>
    <g id="패스_241" data-name="패스 241">
      <path id="패스_288" data-name="패스 288" d="M-484.821,9.046a4.022,4.022,0,0,1-.774-.076,4,4,0,0,1-3.156-4.694c6.012-30.7-12.459-51.288-12.646-51.492a4,4,0,0,1,.247-5.651,4,4,0,0,1,5.651.247c.877.956,21.379,23.818,14.6,58.434A4,4,0,0,1-484.821,9.046Z" fill="#fff"/>
    </g>
  </g>
</svg>
