<svg xmlns="http://www.w3.org/2000/svg" width="54" height="42" viewBox="0 0 54 42">
  <g id="그룹_3494" data-name="그룹 3494" transform="translate(-969.29 -1910.37)">
    <path id="패스_1172" data-name="패스 1172" d="M1014.8,1910.37H977.777a8.355,8.355,0,0,0-8.487,8.2v25.607a8.355,8.355,0,0,0,8.487,8.2H1014.8a8.355,8.355,0,0,0,8.487-8.2v-25.607A8.355,8.355,0,0,0,1014.8,1910.37Zm-33.512,9.774,1.9-5.276h3.354l-1.9,5.276Zm8.285,0,1.9-5.276h3.354l-1.9,5.276Zm8.285,0,1.9-5.276h3.354l-1.9,5.276Zm8.286,0,1.9-5.276h3.353l-1.9,5.276Zm8.285,0,1.8-4.99a3.686,3.686,0,0,1,2.4,3.411v1.578Zm.37,27.728H977.777a3.77,3.77,0,0,1-3.83-3.7v-19.531h44.686v19.531A3.771,3.771,0,0,1,1014.8,1947.872Zm-38.443-27.728h-2.413v-1.578a3.77,3.77,0,0,1,3.83-3.7h.486Z" transform="translate(0)"/>
    <path id="패스_1173" data-name="패스 1173" d="M999.166,1929.833c-1.916-1.18-4.934-2.74-5.512-3.037a2.724,2.724,0,0,0-2.548-.037,2.561,2.561,0,0,0-1.4,2.234c-.01.183-.225,4.515-.225,6.731,0,1.993.171,6.077.224,7.274a2.609,2.609,0,0,0,1.487,2.3l.011.005a2.731,2.731,0,0,0,1.17.254,2.685,2.685,0,0,0,1.274-.335,62.671,62.671,0,0,0,5.756-3.368l.1-.064c4.365-2.98,5.757-3.995,6.006-5.539a2.447,2.447,0,0,0-.47-1.892C1003.873,1932.844,1000.86,1930.873,999.166,1929.833Zm.922,6.05c-.938.695-2.192,1.549-3.132,2.191l-.05.036c-.985.642-1.912,1.215-2.824,1.744-.067-1.868-.1-3.291-.1-4.13,0-.978.047-2.44.092-3.618,1.142.62,2.062,1.144,2.738,1.56C998.356,1934.617,999.418,1935.371,1000.088,1935.883Z" transform="translate(1.017 -0.015)"/>
  </g>
</svg>
