<svg xmlns="http://www.w3.org/2000/svg" width="58" height="46" viewBox="0 0 58 46">
   <g id="그룹_3491" data-name="그룹 3491" transform="translate(-318.001 -2412)">
      <path id="패스_1165" data-name="패스 1165" d="M742.4,1996.454c-.3-.329-.6-.655-.872-.985a15.5,15.5,0,0,1-2.15-3.881,7.676,7.676,0,0,0-6.324-4.66,2.044,2.044,0,0,0-.493-.071,1.6,1.6,0,0,0-.4.019c-2.681.146-4.678.928-6,2.33a9.932,9.932,0,0,0-1.941,3.72c-.1.281-.2.564-.3.849a13.719,13.719,0,0,1-2.044,3.378,10.22,10.22,0,0,0-2.137,3.946,5.876,5.876,0,0,0,3.54,6.713,7.786,7.786,0,0,0,3.9.6,9.057,9.057,0,0,0,3.316-1.273l.089-.082.14-.036a6.607,6.607,0,0,1,.7-.185,6.2,6.2,0,0,1,1.19-.144,2.87,2.87,0,0,1,.675.076,3.373,3.373,0,0,1,1.007.481l.179.111a9.18,9.18,0,0,0,1.753.812,6.7,6.7,0,0,0,7.141-2.275,6.6,6.6,0,0,0,.829-7.093A10.821,10.821,0,0,0,742.4,1996.454Z" transform="translate(-385.717 449.525)"/>
      <path id="패스_1166" data-name="패스 1166" d="M725.283,1985.4a4.114,4.114,0,0,0,3.3-.521,5.583,5.583,0,0,0,2.033-2.7,8.954,8.954,0,0,0-.131-6.605,4.619,4.619,0,0,0-2.9-2.591,4.087,4.087,0,0,0-1.143-.164,3.649,3.649,0,0,0-2.616,1.049,7.2,7.2,0,0,0-1.727,2.766,9.1,9.1,0,0,0-.642,3.321A5.656,5.656,0,0,0,725.283,1985.4Z" transform="translate(-385.684 450.642)" />
      <path id="패스_1167" data-name="패스 1167" d="M721.915,1986.262a4.847,4.847,0,0,0-2.222-3.008,3.692,3.692,0,0,0-1.535-.326,4.215,4.215,0,0,0-2.247.661c-1.6.832-2.485,2.862-2.659,6.057-.118,2.161.755,4.786,2.972,5.779a4.136,4.136,0,0,0,3.407.083,4.964,4.964,0,0,0,2.341-2.133C722.988,1991.591,722.969,1989.264,721.915,1986.262Z" transform="translate(-385.637 450.144)" />
      <path id="패스_1168" data-name="패스 1168" d="M737.641,1985.014a5.285,5.285,0,0,0,4.719-4.507,8.466,8.466,0,0,0-.4-4.033,7.208,7.208,0,0,0-1.841-3.113,3.562,3.562,0,0,0-2.615-1.057,4.768,4.768,0,0,0-.861.08,4.48,4.48,0,0,0-2.859,2,6.979,6.979,0,0,0-1.012,3.528,9.341,9.341,0,0,0,.31,3.1C733.657,1983.066,735.275,1985.1,737.641,1985.014Z" transform="translate(-385.748 450.667)" />
      <path id="패스_1169" data-name="패스 1169" d="M748.414,1983.006a4.425,4.425,0,0,0-2.338-.689,3.439,3.439,0,0,0-3.314,2.364c-.893,2.014-1.765,4.9-.852,7.2.779,1.962,2.768,3.822,5.273,3.263,2.466-.545,3.712-3.045,3.853-5.281a11.638,11.638,0,0,0-.505-3.849A4.73,4.73,0,0,0,748.414,1983.006Z" transform="translate(-385.797 450.173)" />
      <path id="패스_1170" data-name="패스 1170" d="M760.5,1978.427,734,1961.151a2.883,2.883,0,0,0-2.843,0l-26.492,17.276a2.4,2.4,0,0,0,1.3,4.4,2.368,2.368,0,0,0,1.295-.386l25.319-16.51,25.319,16.51a2.376,2.376,0,0,0,3.3-.7A2.4,2.4,0,0,0,760.5,1978.427Z" transform="translate(-385.582 451.228)" />
   </g>
</svg>
