<svg xmlns="http://www.w3.org/2000/svg" width="46" height="42" viewBox="0 0 46 42">
  <g id="그룹_3495" data-name="그룹 3495" transform="translate(-1040.869 -1908.295)">
    <path id="패스_1174" data-name="패스 1174" d="M1077.032,1937.8a18.871,18.871,0,0,0-4.085-2.875c-.256-.135-.549-.259-.859-.391a4.765,4.765,0,0,1-3.071-2.658c-.627-1.741,1.093-3.145,1.711-4.273.123-.223.244-.445.354-.669a11.505,11.505,0,0,0,1.018-6.76c-.443-3.847-4.432-6.748-8.02-6.748q-.1,0-.191,0h-.048l-.178,0c-3.589,0-7.584,2.9-8.037,6.787a11.461,11.461,0,0,0,1.024,6.723c.106.217.224.434.342.651.618,1.14,2.337,2.559,1.724,4.285a4.773,4.773,0,0,1-3.083,2.669c-.307.129-.6.252-.855.388a18.667,18.667,0,0,0-4.094,2.886,14.393,14.393,0,0,0-4.427,7.523c6.126.038,12.275.195,17.608.342,5.644-.156,11.66-.3,17.609-.342A14.372,14.372,0,0,0,1077.032,1937.8Z" transform="translate(0 0)" fill="none"/>
    <path id="패스_1175" data-name="패스 1175" d="M1086.869,1947.812a20.314,20.314,0,0,0-10.213-16.7,11.569,11.569,0,0,0-1.236-.611c-1.309-.6-1.256-.433-.955-.789a11.07,11.07,0,0,0,2.593-5.828,15.341,15.341,0,0,0-2.629-10.714c-2.4-3.112-6.865-4.874-10.611-4.874a15.07,15.07,0,0,0-8.693,3.018,13.335,13.335,0,0,0-4.475,9.093,16.97,16.97,0,0,0,.378,5.549,9.53,9.53,0,0,0,.686,1.766,7.162,7.162,0,0,0,1.564,2.214c-.707.392-1.1.544-2.07,1.116l-.066.027-.062.038a23.944,23.944,0,0,0-2.422,1.692,22.236,22.236,0,0,0-3.921,3.972,18.834,18.834,0,0,0-3.865,10.991c.014,1.259.493,2.256,2.389,2.522h41.725A2.534,2.534,0,0,0,1086.869,1947.812Zm-22.928-2.546c-5.4-.145-11.694.019-17.893-.018a14.259,14.259,0,0,1,4.48-7.478,18.9,18.9,0,0,1,4.143-2.869c.262-.135.555-.257.865-.385a4.808,4.808,0,0,0,3.12-2.654c.62-1.716-1.12-3.126-1.745-4.26-.119-.216-.238-.431-.346-.647a11.216,11.216,0,0,1-1.036-6.683c.458-3.862,4.5-6.747,8.133-6.747l.181,0h.049q.1,0,.193,0c3.631,0,7.668,2.884,8.116,6.708a11.258,11.258,0,0,1-1.03,6.721c-.111.222-.234.444-.358.665-.626,1.121-2.366,2.517-1.732,4.248a4.8,4.8,0,0,0,3.108,2.642c.313.131.609.254.869.388a19.1,19.1,0,0,1,4.133,2.858,14.239,14.239,0,0,1,4.5,7.492C1075.666,1945.284,1069.653,1945.111,1063.941,1945.266Z"/>
  </g>
</svg>

